<?xml version="1.0" encoding="utf-8"?>
<!-- Generator: Adobe Illustrator 24.2.1, SVG Export Plug-In . SVG Version: 6.00 Build 0)  -->
<svg version="1.1" id="Capa_1" xmlns="http://www.w3.org/2000/svg" xmlns:xlink="http://www.w3.org/1999/xlink" x="0px" y="0px"
	 viewBox="0 0 14 14" style="enable-background:new 0 0 14 14;" xml:space="preserve">
<style type="text/css">
	.st0{fill:#3D3D3D;}
</style>
<path id="Trazado_204_1_" class="st0" d="M268.86,91.7c-0.84,0-1.52,0.68-1.52,1.52s0.68,1.52,1.52,1.52c0.84,0,1.52-0.68,1.52-1.52
	C270.37,92.38,269.69,91.7,268.86,91.7z"/>
<path id="Trazado_205_1_" class="st0" d="M273.67,88.4c-2.66-2.66-6.98-2.66-9.64,0c-2.66,2.66-2.66,6.98,0,9.64l3.62,3.62
	c0.66,0.66,1.74,0.66,2.4,0l3.62-3.62C276.34,95.37,276.34,91.06,273.67,88.4L273.67,88.4z M268.86,95.65
	c-1.35,0-2.44-1.09-2.44-2.44s1.09-2.44,2.44-2.44s2.44,1.09,2.44,2.44c0,0,0,0,0,0C271.29,94.56,270.2,95.65,268.86,95.65z"/>
<path id="Trazado_206" class="st0" d="M13.2,2.3C13.02,2.11,12.77,2,12.5,2h-1V1.25c0-0.33-0.13-0.65-0.37-0.88
	C10.9,0.13,10.58,0,10.25,0h-0.5C9.42,0,9.1,0.13,8.87,0.37C8.63,0.6,8.5,0.92,8.5,1.25V2h-3V1.25c0-0.33-0.13-0.65-0.37-0.88
	C4.9,0.13,4.58,0,4.25,0h-0.5C3.42,0,3.1,0.13,2.87,0.37C2.63,0.6,2.5,0.92,2.5,1.25V2h-1C1.23,2,0.98,2.11,0.8,2.3
	C0.61,2.48,0.5,2.73,0.5,3v10c0.01,0.55,0.45,0.99,1,1h11c0.55-0.01,0.99-0.45,1-1V3C13.5,2.73,13.4,2.48,13.2,2.3z M3.75,13H1.5
	v-2.25h2.25L3.75,13z M3.75,10.25H1.5v-2.5h2.25L3.75,10.25z M3.75,7.25H1.5V5h2.25L3.75,7.25z M3.57,3.68
	C3.52,3.63,3.5,3.56,3.5,3.5V1.25C3.5,1.11,3.61,1,3.75,1h0.5C4.39,1,4.5,1.11,4.5,1.25V3.5c0,0.14-0.11,0.25-0.25,0.25h-0.5
	C3.68,3.75,3.62,3.72,3.57,3.68L3.57,3.68z M6.75,13h-2.5v-2.25h2.5L6.75,13z M6.75,10.25h-2.5v-2.5h2.5L6.75,10.25z M6.75,7.25
	h-2.5V5h2.5L6.75,7.25z M9.75,13h-2.5v-2.25h2.5L9.75,13z M9.75,10.25h-2.5v-2.5h2.5L9.75,10.25z M9.75,7.25h-2.5V5h2.5L9.75,7.25z
	 M9.57,3.68C9.52,3.63,9.5,3.56,9.5,3.5V1.25C9.5,1.11,9.61,1,9.75,1h0.5c0.14,0,0.25,0.11,0.25,0.25V3.5
	c0,0.14-0.11,0.25-0.25,0.25h-0.5C9.68,3.75,9.62,3.72,9.57,3.68L9.57,3.68z M12.5,13h-2.25v-2.25h2.25L12.5,13z M12.5,10.25h-2.25
	v-2.5h2.25L12.5,10.25z M12.5,7.25h-2.25V5h2.25L12.5,7.25z"/>
</svg>
