<?xml version="1.0" encoding="utf-8"?>
<!-- Generator: Adobe Illustrator 24.2.3, SVG Export Plug-In . SVG Version: 6.00 Build 0)  -->
<svg version="1.1" id="Capa_1" xmlns="http://www.w3.org/2000/svg" xmlns:xlink="http://www.w3.org/1999/xlink" x="0px" y="0px"
	 viewBox="0 0 617.8 91.4" style="enable-background:new 0 0 617.8 91.4;" xml:space="preserve">
<style type="text/css">
	.st0{fill:#FFFFFF;}
	.st1{fill:#1D984B;}
	.st2{fill:#C11722;}
</style>
<g id="despacho" transform="translate(-0.313 0)">
	<g id="despacho-2" transform="translate(-2.021 0.02)">
		<path id="bg_pago" class="st0" d="M379.8,0h240.4v91.4H347.6L379.8,0z"/>
		<path id="bg_pago-2" class="st1" d="M2.3,0h377.5l-32.2,91.4H2.3V0z"/>
		<g id="Grupo_9" transform="translate(411.543 16.068)">
			<g id="Grupo_7" transform="translate(0 1.931)">
				<g id="Grupo_6">
					<path id="Trazado_207" class="st1" d="M68.7,0.7C68.2,0.3,67.6,0,66.9,0H27.2c-0.7,0-1.3,0.3-1.8,0.8c-0.5,0.5-0.7,1.1-0.7,1.8
						v7.6h-6.2c-0.8,0-1.6,0.2-2.3,0.5c-0.7,0.3-1.4,0.7-2,1.3l-7.7,7.8c-0.3,0.4-0.6,0.8-0.9,1.2c-0.2,0.4-0.4,0.8-0.5,1.2
						c-0.1,0.5-0.2,1-0.3,1.5c-0.1,0.6-0.1,1.1-0.1,1.4s0,0.8,0,1.5s0,1.2,0,1.4v12.7c-0.7,0-1.3,0.3-1.8,0.8
						c-0.5,0.5-0.7,1.1-0.7,1.8c0,0.4,0,0.7,0.2,1c0.1,0.3,0.3,0.5,0.5,0.7c0.3,0.2,0.5,0.3,0.6,0.5c0.3,0.2,0.6,0.2,0.9,0.2
						l0.9,0.1c0.2,0,0.5,0,1,0s0.8,0,0.9,0h2.5c-0.1,2.7,1,5.3,2.9,7.2c3.8,3.9,9.9,4,13.8,0.2c0.1-0.1,0.1-0.1,0.2-0.2
						c1.9-1.9,3-4.5,2.9-7.2h14.9c0,2.7,1,5.3,2.9,7.2c3.8,3.9,10,4,13.8,0.2c0.1-0.1,0.2-0.1,0.2-0.2c1.9-1.9,3-4.5,2.9-7.2
						c0.1,0,0.4,0,0.9,0s0.8,0,1,0l0.9-0.1c0.3,0,0.6-0.1,0.9-0.2c0.2-0.1,0.4-0.3,0.6-0.5c0.3-0.2,0.4-0.4,0.5-0.7
						c0.1-0.3,0.2-0.7,0.2-1V2.5C69.4,1.9,69.2,1.2,68.7,0.7z M23.2,49.3c-1.8,1.9-4.9,2-6.8,0.2c-0.1-0.1-0.1-0.1-0.2-0.2
						c-2-2-2-5.2,0-7.1c1.8-1.9,4.9-2,6.8-0.2c0.1,0.1,0.1,0.1,0.2,0.2C25.2,44.1,25.2,47.3,23.2,49.3z M24.7,25.4H9.8v-1.2
						c0-0.3,0.1-0.6,0.4-0.9l7.6-7.7c0.2-0.2,0.5-0.4,0.9-0.4h6.1L24.7,25.4z M58,49.3c-1.8,1.9-4.9,2-6.8,0.2
						c-0.1-0.1-0.1-0.1-0.2-0.2c-2-2-2-5.2,0-7.1c1.8-1.9,4.9-2,6.8-0.2c0.1,0.1,0.1,0.1,0.2,0.2C60,44.1,60,47.3,58,49.3z"/>
				</g>
			</g>
			<path id="Trazado_208" class="st1" d="M96.4,32.4h22.8c0,0,0.1,0,0.1,0h0l0,0l0,0l0,0l0,0l0,0l0,0l0,0l0,0l0,0l0,0l0,0l0,0l0,0
				l7.4-7.5l0,0l0,0l0,0c0,0,0,0,0,0l0,0l0,0l0,0l0,0l0,0l0,0l0,0l0,0c0,0,0,0,0-0.1v0v0V0.8c0-0.4-0.3-0.8-0.8-0.8l0,0h-22.8h0
				h-0.1l0,0l0,0l0,0l0,0l0,0l0,0l0,0l0,0l0,0l0,0l0,0l0,0l0,0l0,0l-7.4,7.5l0,0l0,0l0,0c0,0,0,0,0,0.1l0,0l0,0l0,0l0,0l0,0l0,0l0,0
				l0,0c0,0,0,0.1,0,0.1v0v0.1v23.4C95.7,32.1,96,32.4,96.4,32.4z M118.5,30.9H97.2V9h7.1v11.8l2-1.4l1.5,1.4l1.5-1.5l2.3,1.5V9h7
				L118.5,30.9z M120,8.6l5.9-6.2v21.5l-5.9,6V8.6z M118.9,7.5h-6.5l5.7-5.9h6.6L118.9,7.5z M104.2,1.5h6.6l-5.9,5.9h-6.6L104.2,1.5
				z"/>
			<g id="Grupo_8" transform="translate(93.36 23.951)">
				<path id="Trazado_209" class="st1" d="M30.4,25.6l-3.7,3.7V8l6-6.2v1.8l1.5-1.5V0.2C34.1,0.1,34,0.1,34,0l0,0l0,0c0,0,0,0,0,0.1
					l0,0l0,0l0,0l-7.4,7.5l0,0l0,0l0,0l0,0l0,0l0,0l0,0l0,0l0,0l0,0l0,0l0,0l0,0h0c0,0,0,0-0.1,0H3.1c-0.3,0-0.6-0.2-0.7-0.5l0,0
					l0,0l0,0l0,0l0,0l0,0v0l0,0.1v0v0.1v23.4c0,0.4,0.3,0.8,0.8,0.8h22.8c0,0,0,0,0.1,0h0l0,0l0,0l0,0l0,0l0,0l0,0l0,0l0,0l0,0l0,0
					l0,0l0,0l0,0l3.9-4L30.4,25.6z M25.2,30.4H3.8V8.5h7.1v11.8l2-1.4l1.5,1.4l1.5-1.5l2.3,1.5V8.5h7L25.2,30.4z"/>
			</g>
			<path id="Trazado_210" class="st2" d="M124.5,54.3h22.8c0,0,0.1,0,0.1,0l0,0l0,0l0,0l0,0l0,0l0,0l0,0l0,0l0,0l0,0l0,0l0,0l0,0
				l0,0l7.4-7.5l0,0l0,0l0,0c0,0,0,0,0,0l0,0l0,0l0,0l0,0l0,0l0,0l0,0l0,0c0,0,0,0,0-0.1v0v0V22.6c0-0.4-0.3-0.8-0.8-0.8h-22.8h0
				h-0.1h0l0,0l0,0l0,0l0,0l0,0l0,0l0,0l0,0l0,0l0,0l0,0l0,0l0,0l-7.4,7.5l0,0l0,0l0,0c0,0,0,0,0,0l0,0l0,0l0,0l0,0l0,0l0,0l0,0l0,0
				c0,0,0,0,0,0.1v0v0v23.4C123.7,54,124,54.3,124.5,54.3C124.5,54.3,124.5,54.3,124.5,54.3z M146.6,52.8h-21.3V30.9h7.1v11.8l2-1.4
				l1.5,1.4l1.5-1.5l2.3,1.5V30.9h7L146.6,52.8z M148.1,30.4l5.9-6.2v21.5l-5.9,6V30.4z M147,29.4h-6.5l5.7-6h6.6L147,29.4z
				 M132.2,23.4h6.6l-5.9,6h-6.6L132.2,23.4z"/>
		</g>
	</g>
</g>
<g>
	<path class="st0" d="M66,52.1V36.5h5c1.4,0,2.6,0.3,3.7,0.9c1.1,0.6,2,1.5,2.6,2.7c0.6,1.1,0.9,2.4,0.9,3.8v0.7
		c0,1.4-0.3,2.7-0.9,3.9c-0.6,1.1-1.5,2-2.6,2.7c-1.1,0.6-2.3,1-3.7,1H66z M69.8,39.4v9.8h1.3c1.1,0,1.9-0.4,2.5-1.2
		c0.6-0.8,0.9-1.9,0.9-3.4V44c0-1.5-0.3-2.6-0.9-3.4s-1.4-1.1-2.5-1.1H69.8z"/>
	<path class="st0" d="M85.7,52.4c-1.8,0-3.2-0.5-4.3-1.6c-1.1-1.1-1.7-2.4-1.7-4.2v-0.3c0-1.2,0.2-2.2,0.7-3.1s1.1-1.6,1.9-2.1
		c0.8-0.5,1.8-0.7,3-0.7c1.6,0,2.9,0.5,3.9,1.5c0.9,1,1.4,2.4,1.4,4.2v1.4h-7.2c0.1,0.7,0.4,1.2,0.8,1.5c0.4,0.4,1,0.6,1.7,0.6
		c1.1,0,2-0.4,2.7-1.2l1.7,2c-0.5,0.6-1.1,1.1-1.9,1.5C87.5,52.2,86.7,52.4,85.7,52.4z M85.3,43.1c-1.1,0-1.7,0.7-1.9,2.1h3.7v-0.3
		c0-0.6-0.1-1-0.4-1.3C86.3,43.3,85.9,43.1,85.3,43.1z"/>
	<path class="st0" d="M98.1,48.9c0-0.3-0.2-0.6-0.5-0.7s-0.9-0.4-1.8-0.6s-1.6-0.5-2.2-0.8c-0.6-0.3-1-0.7-1.3-1.2
		c-0.3-0.5-0.5-1-0.5-1.6c0-1.1,0.4-1.9,1.3-2.6c0.9-0.7,2-1,3.5-1c1.5,0,2.8,0.3,3.7,1c0.9,0.7,1.4,1.6,1.4,2.7H98
		c0-0.9-0.5-1.4-1.5-1.4c-0.4,0-0.7,0.1-1,0.3c-0.3,0.2-0.4,0.5-0.4,0.8c0,0.3,0.2,0.6,0.5,0.8c0.3,0.2,0.8,0.4,1.5,0.5
		c0.7,0.1,1.3,0.3,1.8,0.5c1.7,0.6,2.6,1.7,2.6,3.2c0,1.1-0.5,1.9-1.4,2.6c-0.9,0.7-2.2,1-3.7,1c-1,0-1.9-0.2-2.7-0.5
		c-0.8-0.4-1.4-0.8-1.8-1.5c-0.4-0.6-0.7-1.3-0.7-1.9h3.4c0,0.5,0.2,0.9,0.5,1.2c0.3,0.2,0.8,0.4,1.3,0.4c0.5,0,0.9-0.1,1.1-0.3
		S98.1,49.2,98.1,48.9z"/>
	<path class="st0" d="M114.1,46.4c0,1.8-0.4,3.2-1.2,4.3c-0.8,1.1-1.9,1.6-3.3,1.6c-1.1,0-1.9-0.4-2.6-1.2v5.4h-3.6V40.5h3.4
		l0.1,1.1c0.7-0.9,1.6-1.3,2.7-1.3c1.4,0,2.5,0.5,3.3,1.6c0.8,1.1,1.2,2.5,1.2,4.4V46.4z M110.5,46.2c0-2.1-0.6-3.1-1.8-3.1
		c-0.9,0-1.4,0.3-1.7,0.9v4.6c0.3,0.6,0.9,1,1.7,1c1.2,0,1.7-1,1.8-3V46.2z"/>
	<path class="st0" d="M122.3,52.1c-0.1-0.2-0.2-0.6-0.3-1c-0.7,0.8-1.6,1.3-2.8,1.3c-1.1,0-2-0.3-2.8-1c-0.8-0.7-1.1-1.5-1.1-2.5
		c0-1.3,0.5-2.2,1.4-2.9c0.9-0.6,2.3-1,4.1-1h1.1v-0.6c0-1.1-0.5-1.6-1.4-1.6c-0.9,0-1.3,0.4-1.3,1.3h-3.6c0-1.1,0.5-2,1.4-2.7
		s2.2-1.1,3.7-1.1s2.7,0.4,3.5,1.1s1.3,1.7,1.3,3v5.1c0,1.1,0.2,1.9,0.5,2.4v0.2H122.3z M120,49.8c0.5,0,0.8-0.1,1.1-0.3
		c0.3-0.2,0.5-0.4,0.6-0.7V47h-1.1c-1.3,0-1.9,0.6-1.9,1.7c0,0.3,0.1,0.6,0.3,0.8C119.4,49.7,119.7,49.8,120,49.8z"/>
	<path class="st0" d="M132.3,49.6c0.5,0,0.9-0.1,1.2-0.4c0.3-0.3,0.4-0.7,0.4-1.2h3.4c0,1.3-0.5,2.3-1.4,3.1s-2.1,1.2-3.5,1.2
		c-1.7,0-3-0.5-4-1.6c-1-1.1-1.5-2.5-1.5-4.4v-0.2c0-1.2,0.2-2.2,0.6-3.1c0.4-0.9,1.1-1.6,1.9-2.1c0.8-0.5,1.8-0.7,2.9-0.7
		c1.5,0,2.7,0.4,3.6,1.3c0.9,0.8,1.3,2,1.3,3.4h-3.4c0-0.6-0.1-1.1-0.4-1.4c-0.3-0.3-0.7-0.5-1.2-0.5c-0.9,0-1.5,0.6-1.6,1.8
		c-0.1,0.4-0.1,0.9-0.1,1.6c0,1.2,0.1,2,0.4,2.4S131.7,49.6,132.3,49.6z"/>
	<path class="st0" d="M142.4,41.8c0.8-1,1.8-1.5,3-1.5c1.3,0,2.2,0.4,2.9,1.1c0.7,0.8,1,1.9,1,3.4v7.3h-3.6v-7.3
		c0-0.6-0.1-1.1-0.4-1.4c-0.3-0.3-0.7-0.4-1.3-0.4c-0.7,0-1.3,0.2-1.6,0.7v8.3h-3.6V35.6h3.6V41.8z"/>
	<path class="st0" d="M150.8,46.2c0-1.2,0.2-2.2,0.7-3.1c0.5-0.9,1.1-1.6,1.9-2.1c0.8-0.5,1.8-0.7,3-0.7c1.7,0,3.1,0.5,4.1,1.6
		c1,1.1,1.5,2.5,1.5,4.4v0.1c0,1.8-0.5,3.3-1.5,4.3c-1,1.1-2.4,1.6-4.1,1.6c-1.7,0-3-0.5-4-1.5c-1-1-1.5-2.3-1.6-4L150.8,46.2z
		 M154.4,46.5c0,1.1,0.2,1.9,0.5,2.4c0.3,0.5,0.8,0.8,1.5,0.8c1.3,0,1.9-1,2-3v-0.4c0-2.1-0.7-3.1-2-3.1c-1.2,0-1.9,0.9-2,2.7
		L154.4,46.5z"/>
	<path class="st0" d="M175.6,52.1c-0.1-0.2-0.2-0.6-0.3-1c-0.7,0.8-1.6,1.3-2.8,1.3c-1.1,0-2-0.3-2.8-1c-0.8-0.7-1.1-1.5-1.1-2.5
		c0-1.3,0.5-2.2,1.4-2.9c0.9-0.6,2.3-1,4.1-1h1.1v-0.6c0-1.1-0.5-1.6-1.4-1.6c-0.9,0-1.3,0.4-1.3,1.3h-3.6c0-1.1,0.5-2,1.4-2.7
		s2.2-1.1,3.7-1.1s2.7,0.4,3.5,1.1s1.3,1.7,1.3,3v5.1c0,1.1,0.2,1.9,0.5,2.4v0.2H175.6z M173.4,49.8c0.5,0,0.8-0.1,1.1-0.3
		c0.3-0.2,0.5-0.4,0.6-0.7V47h-1.1c-1.3,0-1.9,0.6-1.9,1.7c0,0.3,0.1,0.6,0.3,0.8C172.7,49.7,173,49.8,173.4,49.8z"/>
	<path class="st0" d="M185.8,46.3c0-1.8,0.4-3.3,1.2-4.4s1.9-1.6,3.3-1.6c1,0,1.9,0.4,2.6,1.2v-5.9h3.6v16.5h-3.3l-0.2-1.2
		c-0.7,1-1.7,1.5-2.8,1.5c-1.4,0-2.5-0.5-3.3-1.6C186.2,49.7,185.8,48.2,185.8,46.3z M189.4,46.5c0,2.1,0.6,3.1,1.8,3.1
		c0.8,0,1.4-0.3,1.7-1v-4.4c-0.3-0.7-0.9-1-1.7-1c-1.1,0-1.7,0.9-1.8,2.7L189.4,46.5z"/>
	<path class="st0" d="M198.1,46.2c0-1.2,0.2-2.2,0.7-3.1c0.5-0.9,1.1-1.6,1.9-2.1c0.8-0.5,1.8-0.7,3-0.7c1.7,0,3.1,0.5,4.1,1.6
		c1,1.1,1.5,2.5,1.5,4.4v0.1c0,1.8-0.5,3.3-1.5,4.3c-1,1.1-2.4,1.6-4.1,1.6c-1.7,0-3-0.5-4-1.5c-1-1-1.5-2.3-1.6-4L198.1,46.2z
		 M201.8,46.5c0,1.1,0.2,1.9,0.5,2.4c0.3,0.5,0.8,0.8,1.5,0.8c1.3,0,1.9-1,2-3v-0.4c0-2.1-0.7-3.1-2-3.1c-1.2,0-1.9,0.9-2,2.7
		L201.8,46.5z"/>
	<path class="st0" d="M214.4,40.5l0.1,1.4c0.8-1.1,1.9-1.6,3.3-1.6c1.5,0,2.5,0.6,3,1.8c0.8-1.2,1.9-1.8,3.4-1.8
		c2.4,0,3.6,1.4,3.6,4.3v7.6h-3.6v-7.3c0-0.6-0.1-1-0.3-1.3s-0.6-0.4-1.1-0.4c-0.7,0-1.3,0.3-1.6,1l0,0.2v7.9h-3.6v-7.3
		c0-0.6-0.1-1-0.3-1.3s-0.6-0.4-1.1-0.4c-0.7,0-1.2,0.3-1.6,1v8.1H211V40.5H214.4z"/>
	<path class="st0" d="M229.9,37.5c0-0.5,0.2-0.9,0.6-1.3s0.9-0.5,1.5-0.5s1.1,0.2,1.5,0.5s0.6,0.8,0.6,1.3s-0.2,0.9-0.6,1.3
		s-0.9,0.5-1.5,0.5s-1.1-0.2-1.5-0.5S229.9,38,229.9,37.5z M233.7,52.1h-3.6V40.5h3.6V52.1z"/>
	<path class="st0" d="M240.9,49.6c0.5,0,0.9-0.1,1.2-0.4c0.3-0.3,0.4-0.7,0.4-1.2h3.4c0,1.3-0.5,2.3-1.4,3.1
		c-0.9,0.8-2.1,1.2-3.5,1.2c-1.7,0-3-0.5-4-1.6s-1.5-2.5-1.5-4.4v-0.2c0-1.2,0.2-2.2,0.7-3.1c0.4-0.9,1.1-1.6,1.9-2.1
		c0.8-0.5,1.8-0.7,2.9-0.7c1.5,0,2.7,0.4,3.6,1.3s1.3,2,1.3,3.4h-3.4c0-0.6-0.1-1.1-0.4-1.4s-0.7-0.5-1.2-0.5
		c-0.9,0-1.5,0.6-1.6,1.8c0,0.4-0.1,0.9-0.1,1.6c0,1.2,0.1,2,0.4,2.4S240.3,49.6,240.9,49.6z"/>
	<path class="st0" d="M247.4,37.5c0-0.5,0.2-0.9,0.6-1.3s0.9-0.5,1.5-0.5s1.1,0.2,1.5,0.5s0.6,0.8,0.6,1.3s-0.2,0.9-0.6,1.3
		s-0.9,0.5-1.5,0.5s-1.1-0.2-1.5-0.5S247.4,38,247.4,37.5z M251.2,52.1h-3.6V40.5h3.6V52.1z"/>
	<path class="st0" d="M257.2,52.1h-3.6V35.6h3.6V52.1z"/>
	<path class="st0" d="M259.5,37.5c0-0.5,0.2-0.9,0.6-1.3s0.9-0.5,1.5-0.5s1.1,0.2,1.5,0.5s0.6,0.8,0.6,1.3s-0.2,0.9-0.6,1.3
		s-0.9,0.5-1.5,0.5s-1.1-0.2-1.5-0.5S259.5,38,259.5,37.5z M263.3,52.1h-3.6V40.5h3.6V52.1z"/>
	<path class="st0" d="M265.1,46.2c0-1.2,0.2-2.2,0.7-3.1c0.5-0.9,1.1-1.6,1.9-2.1s1.8-0.7,3-0.7c1.7,0,3.1,0.5,4.1,1.6
		c1,1.1,1.5,2.5,1.5,4.4v0.1c0,1.8-0.5,3.3-1.5,4.3c-1,1.1-2.4,1.6-4.1,1.6c-1.7,0-3-0.5-4-1.5c-1-1-1.5-2.3-1.6-4L265.1,46.2z
		 M268.7,46.5c0,1.1,0.2,1.9,0.5,2.4s0.8,0.8,1.5,0.8c1.3,0,1.9-1,2-3v-0.4c0-2.1-0.7-3.1-2-3.1c-1.2,0-1.9,0.9-2,2.7L268.7,46.5z"
		/>
</g>
</svg>
