<?xml version="1.0" encoding="utf-8"?>
<!-- Generator: Adobe Illustrator 24.2.1, SVG Export Plug-In . SVG Version: 6.00 Build 0)  -->
<svg version="1.1" id="Capa_1" xmlns="http://www.w3.org/2000/svg" xmlns:xlink="http://www.w3.org/1999/xlink" x="0px" y="0px"
	 viewBox="0 0 617.84 91.44" style="enable-background:new 0 0 617.84 91.44;" xml:space="preserve">
<style type="text/css">
	.st0{fill:#FFFFFF;}
	.st1{fill:#1D984B;}
	.st2{enable-background:new    ;}
	.st3{fill:#C11722;}
</style>
<g id="despacho" transform="translate(-0.313 0)">
	<g id="despacho-2" transform="translate(-2.021 0.02)">
		<path id="bg_pago" class="st0" d="M379.78,0h240.39v91.42H347.59L379.78,0z"/>
		<path id="bg_pago-2" class="st1" d="M2.33-0.02h377.45L347.59,91.4H2.33V-0.02z"/>
		<g class="st2">
			<path class="st0" d="M67.08,40.98V25.34h4.81c1.38,0,2.6,0.31,3.69,0.93c1.08,0.62,1.93,1.5,2.54,2.64
				c0.61,1.14,0.91,2.44,0.91,3.89v0.72c0,1.45-0.3,2.75-0.9,3.88c-0.6,1.13-1.44,2.01-2.53,2.63c-1.09,0.62-2.32,0.94-3.68,0.95
				H67.08z M70.3,27.95v10.44h1.56c1.26,0,2.22-0.41,2.89-1.24s1.01-2,1.02-3.53v-0.83c0-1.59-0.33-2.79-0.99-3.62
				c-0.66-0.82-1.62-1.23-2.89-1.23H70.3z"/>
			<path class="st0" d="M86.52,41.19c-1.7,0-3.09-0.52-4.16-1.57c-1.07-1.05-1.61-2.44-1.61-4.18v-0.3c0-1.17,0.23-2.21,0.68-3.13
				c0.45-0.92,1.09-1.63,1.92-2.13c0.83-0.5,1.77-0.75,2.83-0.75c1.59,0,2.84,0.5,3.75,1.5s1.37,2.42,1.37,4.26v1.27h-7.4
				c0.1,0.76,0.4,1.37,0.91,1.83s1.14,0.69,1.92,0.69c1.2,0,2.13-0.43,2.8-1.3l1.53,1.71c-0.47,0.66-1.1,1.17-1.89,1.54
				C88.37,41.01,87.49,41.19,86.52,41.19z M86.16,31.64c-0.62,0-1.12,0.21-1.5,0.63c-0.38,0.42-0.63,1.01-0.74,1.79h4.32v-0.25
				c-0.01-0.69-0.2-1.22-0.56-1.6C87.33,31.83,86.82,31.64,86.16,31.64z"/>
			<path class="st0" d="M99.36,37.77c0-0.38-0.19-0.68-0.56-0.9c-0.38-0.22-0.98-0.41-1.81-0.58c-2.76-0.58-4.15-1.75-4.15-3.52
				c0-1.03,0.43-1.89,1.28-2.58c0.86-0.69,1.97-1.04,3.36-1.04c1.48,0,2.65,0.35,3.54,1.04c0.88,0.69,1.33,1.6,1.33,2.71h-3.1
				c0-0.44-0.14-0.81-0.43-1.1c-0.29-0.29-0.73-0.44-1.34-0.44c-0.52,0-0.93,0.12-1.21,0.35c-0.29,0.24-0.43,0.54-0.43,0.9
				c0,0.34,0.16,0.62,0.49,0.83c0.33,0.21,0.88,0.39,1.65,0.55c0.77,0.15,1.42,0.33,1.96,0.52c1.64,0.6,2.46,1.64,2.46,3.13
				c0,1.06-0.46,1.92-1.36,2.57c-0.91,0.65-2.08,0.98-3.52,0.98c-0.97,0-1.84-0.17-2.59-0.52c-0.76-0.35-1.35-0.82-1.78-1.43
				c-0.43-0.61-0.64-1.26-0.64-1.96h2.94c0.03,0.55,0.23,0.97,0.61,1.27c0.38,0.29,0.89,0.44,1.53,0.44c0.59,0,1.04-0.11,1.35-0.34
				C99.2,38.43,99.36,38.13,99.36,37.77z"/>
			<path class="st0" d="M114.84,35.28c0,1.79-0.41,3.22-1.22,4.3c-0.81,1.08-1.91,1.62-3.29,1.62c-1.17,0-2.12-0.41-2.85-1.22v5.48
				h-3.1V29.36h2.88l0.11,1.14c0.75-0.9,1.73-1.35,2.94-1.35c1.43,0,2.55,0.53,3.34,1.59s1.19,2.52,1.19,4.38V35.28z M111.73,35.05
				c0-1.08-0.19-1.92-0.57-2.5c-0.38-0.59-0.94-0.88-1.67-0.88c-0.97,0-1.64,0.37-2.01,1.12v4.76c0.38,0.77,1.06,1.15,2.03,1.15
				C110.99,38.69,111.73,37.48,111.73,35.05z"/>
			<path class="st0" d="M123.49,40.98c-0.14-0.28-0.25-0.63-0.31-1.04c-0.75,0.84-1.73,1.26-2.93,1.26c-1.14,0-2.08-0.33-2.83-0.99
				c-0.75-0.66-1.12-1.49-1.12-2.49c0-1.23,0.46-2.18,1.37-2.84s2.23-0.99,3.96-1h1.43v-0.67c0-0.54-0.14-0.97-0.41-1.29
				c-0.28-0.32-0.71-0.48-1.31-0.48c-0.52,0-0.93,0.13-1.23,0.38c-0.3,0.25-0.45,0.59-0.45,1.03h-3.1c0-0.67,0.21-1.3,0.62-1.87
				c0.42-0.57,1-1.02,1.76-1.35c0.76-0.33,1.61-0.49,2.56-0.49c1.43,0,2.57,0.36,3.41,1.08c0.84,0.72,1.26,1.73,1.26,3.03v5.04
				c0.01,1.1,0.16,1.94,0.46,2.5v0.18H123.49z M120.93,38.82c0.46,0,0.88-0.1,1.27-0.31c0.39-0.21,0.67-0.48,0.86-0.82v-2h-1.16
				c-1.55,0-2.38,0.54-2.48,1.61l-0.01,0.18c0,0.39,0.14,0.71,0.41,0.96C120.08,38.69,120.45,38.82,120.93,38.82z"/>
			<path class="st0" d="M133.39,38.69c0.57,0,1.04-0.16,1.4-0.47c0.36-0.32,0.54-0.73,0.56-1.26h2.91
				c-0.01,0.79-0.22,1.51-0.64,2.16c-0.42,0.66-1,1.16-1.73,1.53c-0.73,0.36-1.55,0.54-2.43,0.54c-1.66,0-2.97-0.53-3.93-1.58
				c-0.96-1.06-1.44-2.52-1.44-4.38v-0.2c0-1.79,0.48-3.22,1.43-4.29c0.95-1.07,2.26-1.6,3.92-1.6c1.45,0,2.62,0.41,3.5,1.24
				c0.88,0.83,1.32,1.93,1.34,3.3h-2.91c-0.01-0.6-0.2-1.1-0.56-1.47c-0.36-0.38-0.83-0.57-1.42-0.57c-0.72,0-1.27,0.26-1.64,0.79
				c-0.37,0.53-0.55,1.38-0.55,2.57v0.32c0,1.2,0.18,2.06,0.55,2.58S132.64,38.69,133.39,38.69z"/>
			<path class="st0" d="M143.05,30.62c0.82-0.99,1.86-1.48,3.1-1.48c2.52,0,3.8,1.46,3.83,4.39v7.44h-3.1v-7.36
				c0-0.67-0.14-1.16-0.43-1.48c-0.29-0.32-0.76-0.48-1.43-0.48c-0.91,0-1.57,0.35-1.98,1.05v8.26h-3.1v-16.5h3.1V30.62z"/>
			<path class="st0" d="M159.07,40.98c-0.14-0.28-0.25-0.63-0.31-1.04c-0.75,0.84-1.73,1.26-2.93,1.26c-1.14,0-2.08-0.33-2.83-0.99
				c-0.75-0.66-1.12-1.49-1.12-2.49c0-1.23,0.46-2.18,1.37-2.84s2.23-0.99,3.96-1h1.43v-0.67c0-0.54-0.14-0.97-0.41-1.29
				c-0.28-0.32-0.71-0.48-1.31-0.48c-0.52,0-0.93,0.13-1.23,0.38c-0.3,0.25-0.45,0.59-0.45,1.03h-3.1c0-0.67,0.21-1.3,0.62-1.87
				c0.42-0.57,1-1.02,1.76-1.35c0.76-0.33,1.61-0.49,2.56-0.49c1.43,0,2.57,0.36,3.41,1.08c0.84,0.72,1.26,1.73,1.26,3.03v5.04
				c0.01,1.1,0.16,1.94,0.46,2.5v0.18H159.07z M156.5,38.82c0.46,0,0.88-0.1,1.27-0.31c0.39-0.21,0.67-0.48,0.86-0.82v-2h-1.16
				c-1.55,0-2.38,0.54-2.48,1.61l-0.01,0.18c0,0.39,0.14,0.71,0.41,0.96C155.66,38.69,156.03,38.82,156.5,38.82z"/>
			<path class="st0" d="M167.04,29.36l0.1,1.3c0.82-1.01,1.94-1.51,3.34-1.51c1.5,0,2.52,0.59,3.08,1.77
				c0.82-1.18,1.98-1.77,3.49-1.77c1.26,0,2.2,0.37,2.81,1.1c0.62,0.73,0.92,1.84,0.92,3.31v7.42h-3.12v-7.41
				c0-0.66-0.13-1.14-0.39-1.45c-0.26-0.3-0.71-0.46-1.36-0.46c-0.93,0-1.58,0.44-1.93,1.33l0.01,7.98h-3.1v-7.4
				c0-0.67-0.13-1.16-0.4-1.46c-0.27-0.3-0.72-0.45-1.35-0.45c-0.88,0-1.52,0.37-1.91,1.1v8.22h-3.1V29.36H167.04z"/>
			<path class="st0" d="M182.69,35.06c0-1.15,0.22-2.18,0.67-3.08c0.44-0.9,1.08-1.6,1.92-2.09c0.83-0.49,1.8-0.74,2.91-0.74
				c1.57,0,2.85,0.48,3.84,1.44c0.99,0.96,1.54,2.26,1.66,3.91l0.02,0.79c0,1.78-0.5,3.21-1.49,4.29c-1,1.08-2.33,1.62-4.01,1.62
				s-3.01-0.54-4.01-1.61s-1.5-2.54-1.5-4.38V35.06z M185.8,35.28c0,1.1,0.21,1.95,0.62,2.53c0.42,0.58,1.01,0.88,1.78,0.88
				c0.75,0,1.34-0.29,1.76-0.87c0.42-0.58,0.63-1.5,0.63-2.77c0-1.08-0.21-1.92-0.63-2.52c-0.42-0.59-1.02-0.89-1.78-0.89
				c-0.76,0-1.35,0.3-1.76,0.89C186.01,33.12,185.8,34.04,185.8,35.28z"/>
			<path class="st0" d="M201.91,37.77c0-0.38-0.19-0.68-0.56-0.9c-0.38-0.22-0.98-0.41-1.81-0.58c-2.76-0.58-4.15-1.75-4.15-3.52
				c0-1.03,0.43-1.89,1.28-2.58c0.86-0.69,1.97-1.04,3.36-1.04c1.48,0,2.65,0.35,3.54,1.04c0.88,0.69,1.33,1.6,1.33,2.71h-3.1
				c0-0.44-0.14-0.81-0.43-1.1c-0.29-0.29-0.73-0.44-1.34-0.44c-0.52,0-0.93,0.12-1.21,0.35c-0.29,0.24-0.43,0.54-0.43,0.9
				c0,0.34,0.16,0.62,0.49,0.83c0.33,0.21,0.88,0.39,1.65,0.55c0.77,0.15,1.42,0.33,1.96,0.52c1.64,0.6,2.46,1.64,2.46,3.13
				c0,1.06-0.46,1.92-1.36,2.57c-0.91,0.65-2.08,0.98-3.52,0.98c-0.97,0-1.84-0.17-2.59-0.52c-0.76-0.35-1.35-0.82-1.78-1.43
				c-0.43-0.61-0.64-1.26-0.64-1.96h2.94c0.03,0.55,0.23,0.97,0.61,1.27c0.38,0.29,0.89,0.44,1.53,0.44c0.59,0,1.04-0.11,1.35-0.34
				C201.76,38.43,201.91,38.13,201.91,37.77z"/>
		</g>
		<g class="st2">
			<path class="st0" d="M215.38,26.54v2.81h2.17v1.54h-2.17v7.22c0,0.47,0.1,0.82,0.29,1.05c0.19,0.23,0.52,0.35,0.99,0.35
				c0.23,0,0.54-0.04,0.95-0.13v1.6c-0.52,0.14-1.03,0.21-1.53,0.21c-0.89,0-1.56-0.27-2.01-0.81s-0.68-1.3-0.68-2.29v-7.21h-2.12
				v-1.54h2.12v-2.81H215.38z"/>
			<path class="st0" d="M227.05,39.83c-0.77,0.91-1.91,1.36-3.41,1.36c-1.24,0-2.18-0.36-2.83-1.08c-0.65-0.72-0.98-1.78-0.98-3.2
				v-7.56h1.99v7.51c0,1.76,0.72,2.64,2.15,2.64c1.52,0,2.53-0.57,3.03-1.7v-8.45h1.99v11.62h-1.89L227.05,39.83z"/>
			<path class="st0" d="M238.77,37.9c0-0.54-0.2-0.95-0.61-1.25c-0.41-0.3-1.11-0.55-2.12-0.77s-1.8-0.47-2.39-0.77
				c-0.59-0.3-1.03-0.66-1.31-1.07c-0.28-0.42-0.42-0.91-0.42-1.48c0-0.95,0.4-1.76,1.21-2.42c0.81-0.66,1.84-0.99,3.09-0.99
				c1.32,0,2.39,0.34,3.21,1.02s1.23,1.55,1.23,2.61h-2c0-0.54-0.23-1.01-0.69-1.41c-0.46-0.39-1.04-0.59-1.75-0.59
				c-0.72,0-1.29,0.16-1.7,0.47s-0.61,0.73-0.61,1.24c0,0.48,0.19,0.84,0.57,1.08s1.07,0.48,2.06,0.7c0.99,0.22,1.79,0.49,2.41,0.79
				s1.07,0.68,1.37,1.11c0.3,0.43,0.45,0.96,0.45,1.58c0,1.04-0.42,1.87-1.25,2.5c-0.83,0.63-1.91,0.94-3.23,0.94
				c-0.93,0-1.75-0.17-2.47-0.49s-1.28-0.79-1.68-1.38c-0.41-0.59-0.61-1.23-0.61-1.92h1.99c0.04,0.67,0.3,1.19,0.8,1.58
				c0.5,0.39,1.16,0.58,1.97,0.58c0.75,0,1.35-0.15,1.81-0.46C238.54,38.81,238.77,38.4,238.77,37.9z"/>
		</g>
		<g class="st2">
			<path class="st0" d="M77,61.3c0,1.77-0.4,3.19-1.21,4.28c-0.81,1.08-1.91,1.62-3.29,1.62c-1.41,0-2.52-0.45-3.33-1.34v5.6h-1.99
				V55.36H69l0.1,1.29c0.81-1,1.93-1.5,3.37-1.5c1.4,0,2.5,0.53,3.31,1.58c0.81,1.05,1.22,2.52,1.22,4.39V61.3z M75.01,61.07
				c0-1.31-0.28-2.35-0.84-3.1s-1.33-1.14-2.3-1.14c-1.2,0-2.11,0.53-2.71,1.6v5.55c0.59,1.06,1.5,1.59,2.73,1.59
				c0.95,0,1.71-0.38,2.27-1.13C74.73,63.68,75.01,62.56,75.01,61.07z"/>
			<path class="st0" d="M85.14,57.14c-0.3-0.05-0.63-0.08-0.98-0.08c-1.3,0-2.19,0.55-2.65,1.67v8.25h-1.99V55.36h1.93l0.03,1.34
				c0.65-1.04,1.58-1.56,2.77-1.56c0.39,0,0.68,0.05,0.88,0.15V57.14z"/>
			<path class="st0" d="M86.23,61.06c0-1.14,0.22-2.16,0.67-3.07c0.45-0.91,1.07-1.61,1.87-2.11c0.8-0.49,1.71-0.74,2.73-0.74
				c1.58,0,2.86,0.55,3.84,1.64s1.47,2.55,1.47,4.37v0.14c0,1.13-0.22,2.15-0.65,3.05c-0.43,0.9-1.05,1.6-1.86,2.1
				s-1.73,0.75-2.78,0.75c-1.58,0-2.85-0.55-3.83-1.64S86.23,63,86.23,61.2V61.06z M88.23,61.3c0,1.29,0.3,2.32,0.9,3.1
				c0.6,0.78,1.4,1.17,2.4,1.17c1.01,0,1.81-0.4,2.41-1.19c0.59-0.79,0.89-1.9,0.89-3.33c0-1.27-0.3-2.31-0.91-3.1
				c-0.61-0.79-1.41-1.19-2.41-1.19c-0.98,0-1.77,0.39-2.37,1.17S88.23,59.84,88.23,61.3z"/>
			<path class="st0" d="M98.82,61.07c0-1.78,0.42-3.22,1.27-4.3c0.84-1.08,1.95-1.63,3.32-1.63c1.36,0,2.44,0.47,3.23,1.4v-6.06
				h1.99v16.5h-1.83l-0.1-1.25c-0.79,0.97-1.9,1.46-3.32,1.46c-1.35,0-2.44-0.55-3.29-1.65s-1.27-2.54-1.27-4.32V61.07z
				 M100.81,61.3c0,1.32,0.27,2.35,0.82,3.09c0.54,0.75,1.3,1.12,2.26,1.12c1.26,0,2.18-0.57,2.76-1.7v-5.34
				c-0.59-1.1-1.51-1.64-2.74-1.64c-0.97,0-1.73,0.38-2.28,1.13C101.08,58.71,100.81,59.82,100.81,61.3z"/>
			<path class="st0" d="M118.89,65.83c-0.77,0.91-1.91,1.36-3.41,1.36c-1.24,0-2.18-0.36-2.83-1.08c-0.65-0.72-0.98-1.78-0.98-3.2
				v-7.56h1.99v7.51c0,1.76,0.72,2.64,2.15,2.64c1.52,0,2.53-0.57,3.03-1.7v-8.45h1.99v11.62h-1.89L118.89,65.83z"/>
			<path class="st0" d="M128.5,65.57c0.71,0,1.33-0.21,1.86-0.64c0.53-0.43,0.82-0.97,0.88-1.61h1.88c-0.04,0.67-0.27,1.3-0.69,1.9
				c-0.42,0.6-0.99,1.08-1.69,1.44c-0.71,0.36-1.45,0.54-2.24,0.54c-1.58,0-2.84-0.53-3.78-1.58c-0.93-1.06-1.4-2.5-1.4-4.33v-0.33
				c0-1.13,0.21-2.14,0.62-3.02c0.42-0.88,1.01-1.56,1.79-2.05c0.78-0.49,1.7-0.73,2.76-0.73c1.3,0,2.39,0.39,3.25,1.17
				c0.86,0.78,1.32,1.79,1.38,3.04h-1.88c-0.06-0.75-0.34-1.37-0.85-1.85c-0.51-0.48-1.14-0.72-1.9-0.72
				c-1.01,0-1.79,0.36-2.35,1.09c-0.56,0.73-0.83,1.78-0.83,3.15v0.38c0,1.34,0.28,2.37,0.83,3.09
				C126.69,65.21,127.47,65.57,128.5,65.57z"/>
			<path class="st0" d="M138.05,52.54v2.81h2.17v1.54h-2.17v7.22c0,0.47,0.1,0.82,0.29,1.05c0.19,0.23,0.52,0.35,0.99,0.35
				c0.23,0,0.54-0.04,0.95-0.13v1.6c-0.52,0.14-1.03,0.21-1.53,0.21c-0.89,0-1.56-0.27-2.01-0.81s-0.68-1.3-0.68-2.29v-7.21h-2.12
				v-1.54h2.12v-2.81H138.05z"/>
			<path class="st0" d="M141.8,61.06c0-1.14,0.22-2.16,0.67-3.07c0.45-0.91,1.07-1.61,1.87-2.11c0.8-0.49,1.71-0.74,2.73-0.74
				c1.58,0,2.86,0.55,3.84,1.64s1.47,2.55,1.47,4.37v0.14c0,1.13-0.22,2.15-0.65,3.05c-0.43,0.9-1.05,1.6-1.86,2.1
				s-1.73,0.75-2.78,0.75c-1.58,0-2.85-0.55-3.83-1.64S141.8,63,141.8,61.2V61.06z M143.8,61.3c0,1.29,0.3,2.32,0.9,3.1
				c0.6,0.78,1.4,1.17,2.4,1.17c1.01,0,1.81-0.4,2.41-1.19c0.59-0.79,0.89-1.9,0.89-3.33c0-1.27-0.3-2.31-0.91-3.1
				c-0.61-0.79-1.41-1.19-2.41-1.19c-0.98,0-1.77,0.39-2.37,1.17S143.8,59.84,143.8,61.3z"/>
			<path class="st0" d="M161.64,63.9c0-0.54-0.2-0.95-0.61-1.25c-0.4-0.3-1.11-0.55-2.12-0.77c-1.01-0.21-1.8-0.47-2.4-0.77
				s-1.03-0.66-1.31-1.07c-0.28-0.42-0.42-0.91-0.42-1.48c0-0.95,0.4-1.76,1.21-2.42s1.83-0.99,3.09-0.99
				c1.32,0,2.39,0.34,3.21,1.02c0.82,0.68,1.23,1.55,1.23,2.61h-2c0-0.54-0.23-1.01-0.69-1.41s-1.04-0.59-1.75-0.59
				c-0.72,0-1.29,0.16-1.7,0.47s-0.61,0.73-0.61,1.24c0,0.48,0.19,0.84,0.57,1.08c0.38,0.24,1.06,0.48,2.06,0.7
				c0.99,0.22,1.8,0.49,2.41,0.79c0.62,0.31,1.07,0.68,1.37,1.11c0.3,0.43,0.45,0.96,0.45,1.58c0,1.04-0.42,1.87-1.25,2.5
				c-0.83,0.63-1.91,0.94-3.23,0.94c-0.93,0-1.75-0.17-2.47-0.49c-0.72-0.33-1.28-0.79-1.68-1.38c-0.4-0.59-0.61-1.23-0.61-1.92
				h1.99c0.04,0.67,0.3,1.19,0.8,1.58c0.5,0.39,1.15,0.58,1.97,0.58c0.75,0,1.35-0.15,1.81-0.46
				C161.41,64.81,161.64,64.4,161.64,63.9z"/>
			<path class="st0" d="M176.48,67.19c-1.58,0-2.86-0.52-3.85-1.55c-0.99-1.03-1.48-2.42-1.48-4.15v-0.37
				c0-1.15,0.22-2.18,0.66-3.09c0.44-0.91,1.06-1.61,1.85-2.13c0.79-0.51,1.65-0.77,2.57-0.77c1.51,0,2.69,0.5,3.52,1.49
				s1.26,2.42,1.26,4.28v0.83h-7.87c0.03,1.15,0.36,2.07,1,2.78c0.64,0.71,1.46,1.06,2.44,1.06c0.7,0,1.3-0.14,1.78-0.43
				c0.49-0.29,0.91-0.67,1.28-1.14l1.21,0.95C179.89,66.45,178.43,67.19,176.48,67.19z M176.24,56.77c-0.8,0-1.48,0.29-2.02,0.88
				c-0.54,0.58-0.88,1.4-1.01,2.46h5.82v-0.15c-0.06-1.01-0.33-1.79-0.82-2.35C177.73,57.05,177.07,56.77,176.24,56.77z"/>
			<path class="st0" d="M185.2,55.36l0.06,1.46c0.89-1.12,2.05-1.68,3.48-1.68c2.46,0,3.7,1.39,3.72,4.16v7.68h-1.99v-7.69
				c-0.01-0.84-0.2-1.46-0.57-1.86s-0.96-0.6-1.76-0.6c-0.64,0-1.21,0.17-1.7,0.52c-0.49,0.34-0.87,0.79-1.14,1.35v8.28h-1.99V55.36
				H185.2z"/>
		</g>
		<g class="st2">
			<path class="st0" d="M209.65,61.09h1.77v2.5h-1.77v3.38h-3.1V63.6h-6.41l-0.14-1.96l6.52-10.3h3.14V61.09z M203.08,61.09h3.46
				v-5.52l-0.2,0.35L203.08,61.09z"/>
			<path class="st0" d="M223.28,55.5c0,0.76-0.19,1.43-0.57,2.02c-0.38,0.59-0.9,1.06-1.57,1.41c0.76,0.37,1.36,0.87,1.8,1.51
				c0.44,0.64,0.67,1.39,0.67,2.26c0,1.39-0.47,2.49-1.42,3.29c-0.95,0.81-2.23,1.21-3.86,1.21c-1.63,0-2.92-0.4-3.87-1.21
				c-0.95-0.81-1.43-1.91-1.43-3.29c0-0.87,0.22-1.62,0.67-2.27c0.44-0.64,1.04-1.15,1.79-1.5c-0.67-0.35-1.19-0.82-1.56-1.41
				s-0.56-1.26-0.56-2.02c0-1.33,0.44-2.39,1.33-3.18c0.89-0.79,2.09-1.19,3.62-1.19c1.52,0,2.72,0.39,3.61,1.18
				C222.83,53.08,223.28,54.15,223.28,55.5z M220.5,62.47c0-0.68-0.2-1.22-0.59-1.63c-0.39-0.41-0.92-0.61-1.59-0.61
				c-0.66,0-1.19,0.2-1.58,0.61c-0.39,0.41-0.59,0.95-0.59,1.64c0,0.67,0.19,1.2,0.58,1.61c0.39,0.41,0.92,0.61,1.61,0.61
				c0.67,0,1.2-0.2,1.58-0.59C220.3,63.71,220.5,63.16,220.5,62.47z M220.17,55.65c0-0.61-0.16-1.1-0.48-1.47
				c-0.32-0.37-0.78-0.55-1.36-0.55c-0.58,0-1.03,0.18-1.35,0.54s-0.48,0.85-0.48,1.48c0,0.62,0.16,1.12,0.48,1.5
				s0.78,0.57,1.36,0.57c0.59,0,1.04-0.19,1.36-0.57C220.01,56.77,220.17,56.27,220.17,55.65z"/>
			<path class="st0" d="M234.34,56.62c0.82-0.99,1.86-1.48,3.1-1.48c2.52,0,3.8,1.46,3.83,4.39v7.44h-3.1v-7.36
				c0-0.67-0.14-1.16-0.43-1.48c-0.29-0.32-0.76-0.48-1.43-0.48c-0.91,0-1.57,0.35-1.98,1.05v8.26h-3.1v-16.5h3.1V56.62z"/>
			<path class="st0" d="M250.15,58.27c-0.42-0.06-0.79-0.09-1.12-0.09c-1.17,0-1.94,0.4-2.31,1.19v7.61h-3.1V55.36h2.93l0.09,1.39
				c0.62-1.07,1.49-1.6,2.59-1.6c0.34,0,0.67,0.05,0.97,0.14L250.15,58.27z"/>
			<path class="st0" d="M257.94,63.77c0-0.38-0.19-0.68-0.56-0.9c-0.38-0.22-0.98-0.41-1.81-0.58c-2.76-0.58-4.15-1.75-4.15-3.52
				c0-1.03,0.43-1.89,1.28-2.58c0.86-0.69,1.97-1.04,3.36-1.04c1.48,0,2.66,0.35,3.54,1.04c0.88,0.69,1.33,1.6,1.33,2.71h-3.1
				c0-0.44-0.14-0.81-0.43-1.1c-0.29-0.29-0.73-0.44-1.34-0.44c-0.52,0-0.93,0.12-1.21,0.35s-0.43,0.54-0.43,0.9
				c0,0.34,0.16,0.62,0.49,0.83c0.33,0.21,0.88,0.39,1.65,0.55c0.77,0.15,1.42,0.33,1.96,0.52c1.64,0.6,2.46,1.64,2.46,3.13
				c0,1.06-0.46,1.92-1.36,2.57c-0.91,0.65-2.08,0.98-3.52,0.98c-0.97,0-1.84-0.17-2.59-0.52c-0.76-0.35-1.35-0.82-1.78-1.43
				c-0.43-0.61-0.64-1.26-0.64-1.96H254c0.03,0.55,0.23,0.97,0.61,1.27c0.38,0.29,0.89,0.44,1.53,0.44c0.59,0,1.04-0.11,1.35-0.34
				C257.79,64.43,257.94,64.13,257.94,63.77z"/>
		</g>
		<g id="Grupo_9" transform="translate(411.543 16.068)">
			<g id="Grupo_7" transform="translate(0 1.931)">
				<g id="Grupo_6">
					<path id="Trazado_207" class="st1" d="M68.67,0.75C68.22,0.27,67.58-0.01,66.92,0H27.18c-0.66,0-1.3,0.27-1.75,0.75
						c-0.48,0.47-0.74,1.12-0.74,1.79v7.62h-6.21c-0.78,0.02-1.56,0.19-2.27,0.52c-0.73,0.29-1.4,0.72-1.96,1.27L6.56,19.8
						c-0.35,0.35-0.64,0.75-0.87,1.19c-0.22,0.39-0.4,0.79-0.54,1.21c-0.14,0.48-0.22,0.97-0.25,1.47c-0.05,0.62-0.08,1.08-0.1,1.37
						s-0.01,0.79,0,1.51s0.02,1.18,0.02,1.39v12.7c-0.66-0.01-1.3,0.27-1.75,0.75c-0.48,0.47-0.74,1.11-0.74,1.78
						c-0.01,0.36,0.05,0.71,0.16,1.05c0.1,0.29,0.28,0.55,0.53,0.73c0.25,0.19,0.46,0.34,0.64,0.46c0.28,0.15,0.59,0.23,0.91,0.24
						l0.87,0.08c0.15,0.01,0.48,0.01,0.99,0c0.51-0.01,0.8-0.02,0.87-0.02h2.48c-0.05,2.69,1.01,5.28,2.91,7.18
						c3.76,3.88,9.95,3.98,13.83,0.22c0.07-0.07,0.15-0.14,0.22-0.22c1.91-1.9,2.96-4.49,2.91-7.18h14.91
						c-0.05,2.69,1.01,5.28,2.91,7.18c3.76,3.88,9.95,3.98,13.83,0.22c0.07-0.07,0.15-0.14,0.22-0.22c1.91-1.9,2.96-4.49,2.91-7.18
						c0.08,0,0.37,0.01,0.87,0.02s0.83,0.01,0.99,0l0.87-0.08c0.32-0.01,0.63-0.09,0.91-0.24c0.18-0.12,0.4-0.27,0.64-0.46
						c0.25-0.18,0.43-0.44,0.53-0.73c0.11-0.34,0.16-0.69,0.16-1.05V2.54C69.41,1.87,69.15,1.22,68.67,0.75z M23.22,49.28
						c-1.82,1.93-4.86,2.02-6.79,0.2c-0.07-0.06-0.14-0.13-0.2-0.2c-1.97-1.98-1.97-5.17,0-7.14c1.82-1.93,4.86-2.02,6.79-0.2
						c0.07,0.06,0.14,0.13,0.2,0.2C25.18,44.11,25.18,47.3,23.22,49.28z M24.69,25.39H9.79V24.2c-0.01-0.33,0.12-0.64,0.35-0.87
						l7.57-7.74c0.22-0.23,0.53-0.36,0.85-0.36h6.13L24.69,25.39z M57.99,49.28c-1.82,1.93-4.86,2.02-6.79,0.2
						c-0.07-0.07-0.14-0.13-0.2-0.2c-1.97-1.97-1.97-5.17,0-7.14c1.82-1.93,4.86-2.02,6.79-0.2c0.07,0.07,0.14,0.13,0.2,0.2
						C59.96,44.11,59.96,47.3,57.99,49.28z"/>
				</g>
			</g>
			<path id="Trazado_208" class="st1" d="M96.44,32.42h22.82c0.02,0,0.05,0,0.07,0h0.03l0.04-0.01l0.04-0.01l0.04-0.01l0.03-0.01
				l0.04-0.01l0.03-0.02l0.03-0.02l0.03-0.02l0.03-0.02l0.03-0.02l0.03-0.02l0.03-0.03l0.02-0.02l7.44-7.48l0,0l0.04-0.04l0.02-0.02
				c0.01-0.02,0.03-0.04,0.04-0.05l0.03-0.04l0.02-0.03l0.02-0.04l0.01-0.03l0.01-0.03l0.01-0.04l0.01-0.03l0.01-0.04
				c0.01-0.02,0.01-0.05,0.01-0.07v-0.02v-0.05V0.76C127.45,0.35,127.12,0,126.7,0c0,0,0,0,0,0h-22.82h-0.02h-0.05l-0.03,0.01
				l-0.04,0.01l-0.04,0.01l-0.04,0.01l-0.03,0.01l-0.04,0.01l-0.03,0.02l-0.03,0.02L103.5,0.1l-0.03,0.02l-0.03,0.02l-0.03,0.02
				l-0.04,0.03l-0.02,0.02l-7.44,7.48l0,0l-0.04,0.04l-0.01,0.02c-0.02,0.02-0.03,0.04-0.04,0.05l-0.03,0.04l-0.02,0.03l-0.02,0.04
				l-0.02,0.03l-0.01,0.03l-0.01,0.04l-0.01,0.03L95.7,8.09c0,0.02-0.01,0.05-0.01,0.07v0.02v0.05v23.42
				C95.69,32.07,96.02,32.41,96.44,32.42z M118.52,30.89H97.19V9.01h7.08v11.78l1.97-1.4l1.51,1.4l1.48-1.46l2.31,1.46V9.01h6.97
				L118.52,30.89z M120.01,8.55l5.95-6.16v21.46l-5.95,5.98V8.55z M118.95,7.48h-6.52l5.71-5.95h6.56L118.95,7.48z M104.19,1.53
				h6.62l-5.91,5.95h-6.63L104.19,1.53z"/>
			<g id="Grupo_8" transform="translate(93.36 23.951)">
				<path id="Trazado_209" class="st1" d="M30.37,25.56l-3.72,3.73V8.02l5.95-6.16v1.76l1.49-1.5V0.23c0-0.09-0.06-0.15-0.09-0.23
					l-0.01,0.02l-0.02,0.04c-0.01,0.02-0.03,0.04-0.04,0.06l-0.02,0.02l-0.04,0.04l0,0l-7.44,7.48l-0.02,0.02L26.38,7.7l-0.03,0.02
					l-0.03,0.02l-0.03,0.02l-0.03,0.02L26.23,7.8L26.2,7.81l-0.04,0.01l-0.03,0.01l-0.04,0.01l-0.04,0.01l-0.04,0.01h-0.03
					c-0.02,0-0.05,0-0.07,0H3.09C2.77,7.85,2.51,7.63,2.43,7.33l0,0L2.41,7.37L2.4,7.4L2.39,7.43L2.37,7.47L2.36,7.5L2.36,7.54
					L2.34,7.61v0.02v0.05V31.1c0,0.42,0.33,0.76,0.75,0.76h22.82c0.02,0,0.05,0,0.07,0h0.03l0.04-0.01l0.04-0.01l0.04-0.01
					l0.03-0.01l0.04-0.01l0.03-0.02l0.03-0.02l0.03-0.02l0.03-0.02l0.03-0.02l0.03-0.02l0.03-0.03l0.02-0.02l3.94-3.96L30.37,25.56z
					 M25.16,30.35H3.83V8.47h7.08v11.79l1.97-1.4l1.51,1.4l1.48-1.46l2.31,1.46V8.47h6.97L25.16,30.35z"/>
			</g>
			<path id="Trazado_210" class="st3" d="M124.48,54.3h22.82c0.02,0,0.05,0,0.07,0l0.03-0.01l0.04-0.01l0.04-0.01l0.04-0.01
				l0.03-0.01l0.03-0.01l0.03-0.01l0.04-0.02l0.03-0.02l0.03-0.02l0.03-0.02l0.03-0.02l0.03-0.03l0.02-0.02l7.44-7.48l0,0l0.04-0.04
				l0.02-0.02c0.02-0.02,0.03-0.04,0.04-0.05l0.03-0.04l0.02-0.03l0.02-0.04l0.02-0.03l0.01-0.03l0.01-0.04l0.01-0.03l0.01-0.04
				c0-0.02,0.01-0.05,0.01-0.07v-0.02v-0.05V22.65c0-0.42-0.33-0.76-0.75-0.76h-22.82h-0.02h-0.05h-0.03l-0.04,0.01l-0.04,0.01
				l-0.04,0.01l-0.04,0.01l-0.03,0.01l-0.03,0.02l-0.04,0.02l-0.03,0.02l-0.03,0.02l-0.03,0.02l-0.03,0.02l-0.03,0.03l-0.02,0.02
				l-7.45,7.48l0,0l-0.04,0.04l-0.02,0.02c-0.01,0.02-0.03,0.04-0.04,0.05l-0.03,0.04l-0.02,0.03l-0.02,0.04l-0.01,0.03l-0.01,0.03
				l-0.01,0.04l-0.01,0.03l-0.01,0.04c-0.01,0.02-0.01,0.05-0.01,0.07v0.02v0.05v23.42c-0.01,0.42,0.32,0.76,0.74,0.77
				C124.47,54.3,124.48,54.3,124.48,54.3z M146.56,52.78h-21.33V30.89h7.08v11.79l1.97-1.4l1.51,1.4l1.48-1.46l2.31,1.46V30.89h6.97
				L146.56,52.78z M148.05,30.44l5.95-6.16v21.46l-5.95,5.98V30.44z M146.99,29.36h-6.52l5.71-5.95h6.56L146.99,29.36z
				 M132.23,23.41h6.62l-5.91,5.95h-6.63L132.23,23.41z"/>
		</g>
	</g>
</g>
</svg>
