<?xml version="1.0" encoding="utf-8"?>
<!-- Generator: Adobe Illustrator 24.2.1, SVG Export Plug-In . SVG Version: 6.00 Build 0)  -->
<svg version="1.1" id="Capa_1" xmlns="http://www.w3.org/2000/svg" xmlns:xlink="http://www.w3.org/1999/xlink" x="0px" y="0px"
	 viewBox="0 0 24 24" style="enable-background:new 0 0 24 24;" xml:space="preserve">
<style type="text/css">
	.st0{fill:#FFFFFF;}
</style>
<path id="Trazado_198" class="st0" d="M24,12.07c0-6.63-5.37-12-12-12c-6.63,0-12,5.37-12,12C0,17.98,4.29,23,10.13,23.93v-8.38
	H7.08v-3.47h3.05V9.43c0-3.01,1.79-4.67,4.53-4.67c0.9,0.01,1.8,0.09,2.68,0.23v2.96h-1.51c-0.95-0.13-1.82,0.54-1.95,1.49
	c-0.02,0.13-0.02,0.25-0.01,0.38v2.25h3.33l-0.53,3.47h-2.8v8.38C19.71,23,24,17.98,24,12.07z"/>
</svg>
