<?xml version="1.0" encoding="utf-8"?>
<!-- Generator: Adobe Illustrator 24.2.1, SVG Export Plug-In . SVG Version: 6.00 Build 0)  -->
<svg version="1.1" id="Capa_1" xmlns="http://www.w3.org/2000/svg" xmlns:xlink="http://www.w3.org/1999/xlink" x="0px" y="0px"
	 viewBox="0 0 24 24" style="enable-background:new 0 0 24 24;" xml:space="preserve">
<style type="text/css">
	.st0{fill:#FFFFFF;}
</style>
<g>
	<path id="Trazado_199" class="st0" d="M12,2.16c3.2,0,3.58,0.01,4.85,0.07c0.76,0.01,1.51,0.15,2.23,0.41
		c1.05,0.4,1.87,1.23,2.28,2.28c0.26,0.71,0.4,1.47,0.41,2.23c0.06,1.27,0.07,1.64,0.07,4.85s-0.01,3.58-0.07,4.85
		c-0.01,0.76-0.15,1.51-0.41,2.23c-0.4,1.05-1.23,1.87-2.28,2.28c-0.71,0.26-1.47,0.4-2.23,0.41c-1.26,0.06-1.65,0.07-4.85,0.07
		s-3.58-0.01-4.85-0.07c-0.76-0.01-1.52-0.15-2.23-0.41c-1.05-0.4-1.87-1.23-2.28-2.28c-0.26-0.71-0.4-1.47-0.41-2.23
		C2.17,15.58,2.16,15.2,2.16,12s0.01-3.58,0.07-4.85c0.01-0.76,0.15-1.52,0.41-2.23c0.4-1.05,1.23-1.87,2.28-2.28
		c0.71-0.26,1.47-0.4,2.23-0.41C8.42,2.17,8.8,2.16,12,2.16 M12,0C8.74,0,8.33,0.01,7.05,0.07c-1,0.02-1.98,0.21-2.91,0.56
		c-1.61,0.62-2.89,1.9-3.51,3.51C0.28,5.07,0.09,6.06,0.07,7.05C0.01,8.33,0,8.74,0,12s0.01,3.67,0.07,4.95
		c0.02,1,0.21,1.98,0.56,2.91c0.62,1.61,1.9,2.89,3.51,3.51c0.93,0.35,1.92,0.54,2.91,0.56C8.33,23.99,8.74,24,12,24
		s3.67-0.01,4.95-0.07c1-0.02,1.98-0.21,2.91-0.56c1.61-0.62,2.89-1.9,3.51-3.51c0.35-0.93,0.54-1.92,0.56-2.91
		C23.99,15.67,24,15.26,24,12s-0.01-3.67-0.07-4.95c-0.02-1-0.21-1.98-0.56-2.91c-0.62-1.61-1.9-2.89-3.51-3.51
		c-0.93-0.35-1.92-0.54-2.91-0.56C15.67,0.01,15.26,0,12,0z"/>
	<path id="Trazado_200" class="st0" d="M12.01,5.84C8.6,5.84,5.84,8.6,5.84,12c0,3.4,2.76,6.16,6.16,6.16c3.4,0,6.16-2.76,6.16-6.16
		l0,0C18.17,8.6,15.41,5.84,12.01,5.84z M12.01,16c-2.21,0-4-1.79-4-4s1.79-4,4-4s4,1.79,4,4C16.01,14.21,14.22,16,12.01,16
		C12.01,16,12.01,16,12.01,16L12.01,16z"/>
</g>
<circle id="Elipse_7" class="st0" cx="9.38" cy="3.62" r="1.44"/>
</svg>
