<?xml version="1.0" encoding="utf-8"?>
<!-- Generator: Adobe Illustrator 24.2.1, SVG Export Plug-In . SVG Version: 6.00 Build 0)  -->
<svg version="1.1" id="Capa_1" xmlns="http://www.w3.org/2000/svg" xmlns:xlink="http://www.w3.org/1999/xlink" x="0px" y="0px"
	 viewBox="0 0 14 14" style="enable-background:new 0 0 14 14;" xml:space="preserve">
<style type="text/css">
	.st0{fill:#3D3D3D;}
</style>
<g>
	<path id="Trazado_204" class="st0" d="M6.98,4.71c-0.74,0-1.35,0.6-1.35,1.35S6.23,7.4,6.98,7.4c0.74,0,1.35-0.6,1.35-1.35
		C8.32,5.31,7.72,4.71,6.98,4.71z"/>
	<path id="Trazado_205" class="st0" d="M11.28,1.77c-2.37-2.37-6.2-2.37-8.57,0s-2.37,6.2,0,8.57l3.22,3.22
		c0.59,0.59,1.54,0.59,2.13,0l3.22-3.22C13.65,7.98,13.65,4.14,11.28,1.77L11.28,1.77z M7,8.23c-1.2,0-2.17-0.97-2.17-2.17
		c0-1.2,0.97-2.17,2.17-2.17c1.2,0,2.17,0.97,2.17,2.17c0,0,0,0,0,0C9.16,7.25,8.2,8.22,7,8.23z"/>
</g>
<path id="Trazado_204_1_" class="st0" d="M268.86,91.7c-0.84,0-1.52,0.68-1.52,1.52s0.68,1.52,1.52,1.52c0.84,0,1.52-0.68,1.52-1.52
	C270.37,92.38,269.69,91.7,268.86,91.7z"/>
<path id="Trazado_205_1_" class="st0" d="M273.67,88.4c-2.66-2.66-6.98-2.66-9.64,0c-2.66,2.66-2.66,6.98,0,9.64l3.62,3.62
	c0.66,0.66,1.74,0.66,2.4,0l3.62-3.62C276.34,95.37,276.34,91.06,273.67,88.4L273.67,88.4z M268.86,95.65
	c-1.35,0-2.44-1.09-2.44-2.44s1.09-2.44,2.44-2.44s2.44,1.09,2.44,2.44c0,0,0,0,0,0C271.29,94.56,270.2,95.65,268.86,95.65z"/>
</svg>
