<?xml version="1.0" encoding="utf-8"?>
<!-- Generator: Adobe Illustrator 24.2.1, SVG Export Plug-In . SVG Version: 6.00 Build 0)  -->
<svg version="1.1" id="Capa_1" xmlns="http://www.w3.org/2000/svg" xmlns:xlink="http://www.w3.org/1999/xlink" x="0px" y="0px"
	 viewBox="0 0 326.55 126.45" style="enable-background:new 0 0 326.55 126.45;" xml:space="preserve">
<style type="text/css">
	.st0{fill:#E30613;}
	.st1{fill:#FFFFFF;}
	.st2{fill:none;stroke:#FFFFFF;stroke-width:0.1579;stroke-miterlimit:3.864;}
	.st3{fill:#1D1D1B;}
	.st4{fill:#1D984B;}
	.st5{fill:#C11722;}
</style>
<g>
	<g>
		<rect x="264.69" y="104.74" class="st0" width="61.87" height="21.71"/>
		<polygon class="st1" points="280.46,108.75 277.88,122.95 283.67,122.95 284.53,115.14 287.08,122.95 290.56,122.95 293.18,115.1 
			294.05,122.95 299.76,122.95 296.98,108.75 291.11,108.75 288.8,116.15 286.61,108.75 		"/>
		<polygon class="st1" points="298.38,108.75 310.78,108.75 310.78,113.43 307.55,113.43 307.55,122.95 301.61,122.95 
			301.61,113.43 298.38,113.43 		"/>
		<polygon class="st1" points="273.24,117.79 268.08,117.79 268.08,114.24 268.69,114.24 268.69,117.14 270.27,117.14 
			270.27,114.42 270.87,114.42 270.87,117.14 272.63,117.14 272.63,114.12 273.24,114.12 		"/>
		<g>
			<path class="st1" d="M325.42,122.02c0,0.12-0.07,0.17-0.18,0.17h-0.31v-0.34h0.31C325.35,121.85,325.42,121.91,325.42,122.02z
				 M325.59,122.02c0-0.22-0.16-0.32-0.34-0.32h-0.47v1.07h0.16v-0.43h0.24l0.21,0.43h0.19l-0.22-0.44
				C325.5,122.3,325.59,122.19,325.59,122.02z"/>
			<path class="st2" d="M324.29,122.23c0-0.44,0.36-0.8,0.8-0.8s0.8,0.36,0.8,0.8s-0.36,0.8-0.8,0.8S324.29,122.67,324.29,122.23z"
				/>
		</g>
		<path class="st1" d="M310.7,121.79c1.44,0.54,3.44,0.97,3.44,0.97c1.21,0.24,1.49,0.3,3.42,0.26c1.94-0.04,3.7-0.99,3.7-0.99
			c1.88-0.95,2.3-2.54,2.3-2.54c0.79-1.84-0.17-3.43-0.17-3.43c-0.68-1.23-2.48-1.8-2.48-1.8c-0.48-0.32-3.18-0.66-3.18-0.66
			c-0.86-0.08-0.61-0.69-0.61-0.69c0.03-0.73,1.7-0.58,1.82-0.58c0.84,0,2.71,1.07,2.71,1.07l1.64-3.73
			c-1.55-1.03-4.32-1.19-4.32-1.19c-2.35-0.3-4.57,0.75-4.57,0.75c-3.32,1.31-3.16,4.42-3.16,4.42c-0.04,0.91,0.39,2.09,1.27,2.74
			c1.34,0.99,3.34,1.23,3.42,1.23c1.01,0,1.5,0.28,1.5,0.28c0.76,0.28,0.2,0.99,0.2,0.99c-0.41,0.28-1.17,0.32-1.17,0.32
			c-1.95,0.16-4.09-1.51-4.09-1.51L310.7,121.79z"/>
		<path class="st1" d="M270.36,122.36v-1.4c0-0.3-0.03-0.53-0.1-0.7c-0.07-0.17-0.17-0.29-0.31-0.38c-0.14-0.09-0.3-0.13-0.46-0.13
			c-0.24,0-0.44,0.09-0.6,0.26c-0.16,0.17-0.24,0.43-0.24,0.8v1.56H270.36z M273.24,123.01h-5.15v-2.18c0-0.44,0.05-0.77,0.14-1
			c0.09-0.23,0.25-0.41,0.49-0.55c0.23-0.14,0.49-0.2,0.78-0.2c0.37,0,0.67,0.11,0.92,0.34c0.25,0.23,0.41,0.57,0.48,1.05
			c0.09-0.17,0.17-0.3,0.26-0.39c0.18-0.19,0.41-0.37,0.69-0.54l1.4-0.85v0.82l-1.07,0.65c-0.31,0.19-0.55,0.35-0.71,0.47
			c-0.17,0.12-0.28,0.23-0.35,0.33c-0.07,0.1-0.11,0.19-0.14,0.29c-0.02,0.07-0.03,0.19-0.03,0.36v0.75h2.29V123.01z"/>
		<path class="st1" d="M272.63,112.31v-1.05c0-0.32-0.03-0.58-0.1-0.76c-0.06-0.19-0.15-0.33-0.27-0.44
			c-0.16-0.15-0.38-0.27-0.65-0.36c-0.27-0.09-0.61-0.13-0.99-0.13c-0.54,0-0.95,0.09-1.24,0.25c-0.29,0.17-0.49,0.37-0.58,0.61
			c-0.07,0.17-0.11,0.45-0.11,0.84v1.03H272.63z M273.24,112.96h-5.15v-1.69c0-0.38,0.03-0.67,0.07-0.88
			c0.07-0.28,0.19-0.52,0.37-0.72c0.23-0.26,0.52-0.45,0.88-0.58c0.36-0.13,0.76-0.19,1.22-0.2c0.39,0,0.74,0.04,1.04,0.13
			c0.3,0.09,0.55,0.2,0.75,0.33c0.2,0.14,0.35,0.29,0.47,0.45c0.11,0.16,0.2,0.36,0.26,0.59c0.06,0.23,0.09,0.49,0.09,0.79V112.96z"
			/>
	</g>
	<g>
		<path class="st3" d="M67.27,71.93h-3.39v16.99c0,2.24-0.45,3.88-1.34,4.94c-0.89,1.06-2.06,1.59-3.49,1.59
			c-1.54,0-2.74-0.55-3.59-1.66c-0.85-1.11-1.27-2.73-1.27-4.87V48.23c0-2.31,0.47-3.98,1.4-5.01c0.94-1.03,2.45-1.55,4.54-1.55
			h15.76c2.18,0,4.04,0.1,5.58,0.31c1.54,0.2,2.94,0.62,4.18,1.24c1.5,0.7,2.83,1.7,3.98,2.99c1.15,1.3,2.03,2.81,2.63,4.53
			c0.6,1.72,0.9,3.54,0.9,5.47c0,3.94-1.01,7.1-3.02,9.45c-2.01,2.36-5.06,4.03-9.15,5.01c1.72,1.01,3.36,2.5,4.93,4.47
			c1.57,1.97,2.96,4.07,4.19,6.3c1.23,2.22,2.19,4.23,2.87,6.02c0.69,1.79,1.03,3.03,1.03,3.7c0,0.7-0.2,1.39-0.6,2.07
			c-0.4,0.69-0.95,1.23-1.65,1.62c-0.7,0.4-1.5,0.6-2.41,0.6c-1.09,0-2-0.28-2.74-0.85c-0.74-0.56-1.38-1.28-1.91-2.15
			c-0.53-0.87-1.26-2.14-2.17-3.82l-3.88-7.14c-1.39-2.62-2.64-4.62-3.74-5.99c-1.1-1.37-2.21-2.31-3.34-2.81
			C70.41,72.18,68.99,71.93,67.27,71.93z M72.81,49.71h-8.94v14.54h8.68c2.33,0,4.29-0.22,5.87-0.67c1.59-0.45,2.8-1.2,3.64-2.27
			c0.84-1.07,1.26-2.54,1.26-4.42c0-1.47-0.34-2.76-1.01-3.88c-0.67-1.12-1.61-1.95-2.81-2.51C78.37,49.97,76.14,49.71,72.81,49.71z
			"/>
		<path class="st3" d="M132.92,88.56l-2.28-6.64h-19.45l-2.28,6.78c-0.89,2.65-1.65,4.43-2.28,5.36c-0.63,0.93-1.66,1.39-3.1,1.39
			c-1.22,0-2.3-0.49-3.23-1.48c-0.94-0.99-1.4-2.1-1.4-3.36c0-0.72,0.11-1.47,0.33-2.24c0.22-0.77,0.58-1.84,1.08-3.21l12.24-34.34
			c0.35-0.99,0.77-2.17,1.26-3.55c0.49-1.38,1.01-2.53,1.57-3.45c0.55-0.91,1.28-1.65,2.19-2.22c0.9-0.56,2.02-0.85,3.34-0.85
			c1.35,0,2.47,0.28,3.38,0.85c0.9,0.57,1.63,1.29,2.19,2.18c0.55,0.89,1.02,1.85,1.4,2.87c0.38,1.02,0.86,2.39,1.45,4.09
			l12.5,34.13c0.98,2.6,1.47,4.49,1.47,5.66c0,1.23-0.46,2.35-1.39,3.37c-0.92,1.02-2.04,1.53-3.34,1.53
			c-0.76,0-1.41-0.15-1.96-0.45c-0.54-0.3-1-0.71-1.37-1.23c-0.37-0.52-0.77-1.31-1.19-2.38C133.59,90.32,133.23,89.38,132.92,88.56
			z M113.73,73.88h14.29l-7.21-21.83L113.73,73.88z"/>
		<path class="st3" d="M154.07,47.79l10.83,35.46l10.87-35.72c0.57-1.88,0.99-3.18,1.27-3.91c0.28-0.73,0.75-1.39,1.4-1.98
			c0.65-0.59,1.54-0.88,2.68-0.88c0.83,0,1.59,0.23,2.3,0.68c0.71,0.46,1.26,1.06,1.66,1.82c0.4,0.76,0.6,1.52,0.6,2.29
			c0,0.53-0.07,1.1-0.2,1.71c-0.13,0.61-0.29,1.21-0.49,1.8c-0.2,0.59-0.39,1.2-0.59,1.82l-11.58,34.56
			c-0.41,1.32-0.83,2.58-1.24,3.77c-0.41,1.19-0.89,2.24-1.44,3.14c-0.54,0.9-1.27,1.64-2.17,2.22c-0.9,0.58-2.01,0.87-3.31,0.87
			c-1.3,0-2.41-0.28-3.31-0.85c-0.9-0.56-1.63-1.31-2.19-2.24c-0.55-0.93-1.04-1.98-1.45-3.16c-0.41-1.18-0.83-2.43-1.24-3.75
			l-11.39-34.27c-0.2-0.63-0.4-1.24-0.6-1.84c-0.21-0.6-0.38-1.25-0.52-1.95c-0.14-0.7-0.21-1.29-0.21-1.77
			c0-1.23,0.45-2.34,1.34-3.35c0.89-1.01,2.01-1.51,3.36-1.51c1.65,0,2.82,0.56,3.51,1.68C152.65,43.55,153.35,45.34,154.07,47.79z"
			/>
		<path class="st3" d="M224.48,49.92h-21.83v12.99h20.1c1.48,0,2.58,0.37,3.31,1.1c0.73,0.73,1.09,1.7,1.09,2.9
			c0,1.2-0.36,2.18-1.08,2.94c-0.72,0.76-1.83,1.14-3.33,1.14h-20.1v15.04h22.58c1.52,0,2.67,0.39,3.44,1.17
			c0.77,0.78,1.16,1.82,1.16,3.12c0,1.25-0.39,2.27-1.16,3.05c-0.77,0.78-1.92,1.17-3.44,1.17H198.9c-2.11,0-3.63-0.52-4.55-1.55
			c-0.93-1.03-1.39-2.71-1.39-5.01V48.23c0-1.54,0.21-2.8,0.62-3.77c0.41-0.97,1.06-1.68,1.94-2.13c0.88-0.44,2.01-0.67,3.38-0.67
			h25.58c1.54,0,2.69,0.38,3.44,1.14c0.75,0.76,1.13,1.75,1.13,2.98c0,1.25-0.38,2.26-1.13,3.01
			C227.18,49.54,226.03,49.92,224.48,49.92z"/>
		<path class="st3" d="M250.56,71.93h-3.39v16.99c0,2.24-0.45,3.88-1.34,4.94c-0.89,1.06-2.06,1.59-3.49,1.59
			c-1.55,0-2.74-0.55-3.59-1.66c-0.85-1.11-1.27-2.73-1.27-4.87V48.23c0-2.31,0.47-3.98,1.4-5.01c0.94-1.03,2.45-1.55,4.54-1.55
			h15.76c2.17,0,4.04,0.1,5.58,0.31c1.54,0.2,2.94,0.62,4.18,1.24c1.5,0.7,2.83,1.7,3.98,2.99c1.15,1.3,2.03,2.81,2.63,4.53
			c0.6,1.72,0.9,3.54,0.9,5.47c0,3.94-1.01,7.1-3.02,9.45c-2.01,2.36-5.06,4.03-9.15,5.01c1.72,1.01,3.36,2.5,4.93,4.47
			c1.57,1.97,2.96,4.07,4.19,6.3c1.23,2.22,2.19,4.23,2.87,6.02c0.69,1.79,1.03,3.03,1.03,3.7c0,0.7-0.2,1.39-0.6,2.07
			c-0.4,0.69-0.95,1.23-1.65,1.62c-0.7,0.4-1.5,0.6-2.41,0.6c-1.09,0-2-0.28-2.74-0.85c-0.74-0.56-1.38-1.28-1.91-2.15
			c-0.53-0.87-1.26-2.14-2.17-3.82l-3.88-7.14c-1.39-2.62-2.64-4.62-3.74-5.99c-1.1-1.37-2.21-2.31-3.34-2.81
			C253.7,72.18,252.27,71.93,250.56,71.93z M256.1,49.71h-8.94v14.54h8.68c2.33,0,4.29-0.22,5.87-0.67c1.59-0.45,2.8-1.2,3.64-2.27
			c0.84-1.07,1.26-2.54,1.26-4.42c0-1.47-0.34-2.76-1.01-3.88c-0.67-1.12-1.61-1.95-2.81-2.51
			C261.66,49.97,259.43,49.71,256.1,49.71z"/>
		<path class="st3" d="M316.21,88.56l-2.28-6.64h-19.45l-2.28,6.78c-0.89,2.65-1.65,4.43-2.28,5.36c-0.63,0.93-1.66,1.39-3.1,1.39
			c-1.22,0-2.3-0.49-3.23-1.48c-0.94-0.99-1.4-2.1-1.4-3.36c0-0.72,0.11-1.47,0.33-2.24c0.22-0.77,0.58-1.84,1.08-3.21l12.24-34.34
			c0.35-0.99,0.77-2.17,1.26-3.55c0.49-1.38,1.01-2.53,1.57-3.45c0.55-0.91,1.28-1.65,2.19-2.22c0.9-0.56,2.02-0.85,3.34-0.85
			c1.35,0,2.47,0.28,3.38,0.85c0.9,0.57,1.63,1.29,2.19,2.18c0.55,0.89,1.02,1.85,1.4,2.87c0.38,1.02,0.86,2.39,1.45,4.09
			l12.5,34.13c0.98,2.6,1.47,4.49,1.47,5.66c0,1.23-0.46,2.35-1.39,3.37c-0.93,1.02-2.04,1.53-3.34,1.53
			c-0.76,0-1.41-0.15-1.96-0.45c-0.54-0.3-1-0.71-1.37-1.23c-0.37-0.52-0.77-1.31-1.19-2.38C316.88,90.32,316.51,89.38,316.21,88.56
			z M297.02,73.88h14.29l-7.21-21.83L297.02,73.88z"/>
	</g>
	<rect y="74.93" class="st4" width="20.49" height="20.49"/>
	<rect y="74.98" class="st5" width="21.44" height="21.44"/>
	<rect x="24.73" y="74.98" class="st4" width="21.44" height="21.44"/>
	<rect y="26.08" class="st5" width="21.44" height="21.44"/>
	<rect y="50.53" class="st4" width="21.44" height="21.44"/>
	
		<rect x="25.88" y="4.44" transform="matrix(0.7071 -0.7071 0.7071 0.7071 5.989183e-04 30.3161)" class="st4" width="21.44" height="21.44"/>
	<rect x="24.73" y="50.53" class="st5" width="21.44" height="21.44"/>
	<g>
		<path class="st3" d="M54.18,126.45v-21.12h11.87v3.57h-8.39v5h7.26v3.57h-7.26v8.97H54.18z"/>
		<path class="st3" d="M74.99,126.45v-21.12h11.87v3.57h-8.65v4.68h8.04v3.56h-8.04v5.73h8.94v3.57H74.99z"/>
		<path class="st3" d="M142.62,126.45v-21.12h11.87v3.57h-8.65v4.68h8.04v3.56h-8.04v5.73h8.94v3.57H142.62z"/>
		<path class="st3" d="M185.72,126.45v-21.12h11.87v3.57h-8.65v4.68h8.04v3.56h-8.04v5.73h8.94v3.57H185.72z"/>
		<path class="st3" d="M96.09,126.45v-21.12h6.78c1.73,0,2.97,0.19,3.72,0.57c0.74,0.38,1.35,1.04,1.83,1.97
			c0.48,0.94,0.72,2.06,0.72,3.36c0,1.65-0.36,2.98-1.09,3.99c-0.73,1.01-1.77,1.64-3.11,1.9c0.69,0.54,1.26,1.13,1.71,1.76
			c0.45,0.64,1.07,1.78,1.84,3.44l1.94,4.12h-3.84l-2.33-4.6c-0.84-1.66-1.41-2.7-1.71-3.12c-0.3-0.42-0.62-0.71-0.96-0.86
			c-0.34-0.16-0.88-0.24-1.62-0.24H99.3v8.82H96.09z M99.3,114.26h2.39c1.46,0,2.39-0.07,2.79-0.21c0.4-0.14,0.72-0.42,0.97-0.84
			c0.25-0.42,0.37-0.98,0.37-1.69c0-0.67-0.12-1.21-0.37-1.62c-0.25-0.41-0.58-0.69-1.01-0.84c-0.3-0.11-1.17-0.16-2.61-0.16H99.3
			V114.26z"/>
		<path class="st3" d="M119.35,126.45v-21.12h6.78c1.73,0,2.97,0.19,3.72,0.57c0.74,0.38,1.35,1.04,1.83,1.97
			c0.48,0.94,0.72,2.06,0.72,3.36c0,1.65-0.36,2.98-1.09,3.99c-0.73,1.01-1.77,1.64-3.11,1.9c0.69,0.54,1.26,1.13,1.71,1.76
			c0.45,0.64,1.07,1.78,1.84,3.44l1.94,4.12h-3.84l-2.33-4.6c-0.84-1.66-1.41-2.7-1.71-3.12c-0.3-0.42-0.62-0.71-0.96-0.86
			c-0.34-0.16-0.88-0.24-1.62-0.24h-0.66v8.82H119.35z M122.56,114.26h2.39c1.46,0,2.39-0.07,2.79-0.21
			c0.4-0.14,0.72-0.42,0.97-0.84c0.25-0.42,0.37-0.98,0.37-1.69c0-0.67-0.12-1.21-0.37-1.62c-0.25-0.41-0.58-0.69-1.01-0.84
			c-0.3-0.11-1.17-0.16-2.61-0.16h-2.52V114.26z"/>
		<path class="st3" d="M206.82,126.45v-21.12h6.78c1.73,0,2.97,0.19,3.72,0.57c0.74,0.38,1.35,1.04,1.83,1.97
			c0.48,0.94,0.72,2.06,0.72,3.36c0,1.65-0.36,2.98-1.09,3.99c-0.73,1.01-1.77,1.64-3.11,1.9c0.69,0.54,1.26,1.13,1.71,1.76
			c0.45,0.64,1.07,1.78,1.84,3.44l1.94,4.12h-3.84l-2.33-4.6c-0.84-1.66-1.41-2.7-1.71-3.12c-0.3-0.42-0.62-0.71-0.96-0.86
			c-0.34-0.16-0.88-0.24-1.62-0.24h-0.66v8.82H206.82z M210.03,114.26h2.39c1.46,0,2.39-0.07,2.79-0.21
			c0.4-0.14,0.72-0.42,0.97-0.84c0.25-0.42,0.37-0.98,0.37-1.69c0-0.67-0.12-1.21-0.37-1.62c-0.25-0.41-0.58-0.69-1.01-0.84
			c-0.3-0.11-1.17-0.16-2.61-0.16h-2.52V114.26z"/>
		<path class="st3" d="M168.6,126.45V108.9h-4.89v-3.57h13.07v3.57h-4.87v17.55H168.6z"/>
		<path class="st3" d="M230.08,126.45v-21.12h3.47v21.12H230.08z"/>
		<path class="st3" d="M258.7,126.45h-3.53l-1.41-4.78h-6.46l-1.33,4.78h-3.46l6.29-21.12h3.45L258.7,126.45z M252.7,118.09
			l-2.23-7.84l-2.19,7.84H252.7z"/>
	</g>
</g>
</svg>
