<?xml version="1.0" encoding="utf-8"?>
<!-- Generator: Adobe Illustrator 24.2.1, SVG Export Plug-In . SVG Version: 6.00 Build 0)  -->
<svg version="1.1" id="Capa_1" xmlns="http://www.w3.org/2000/svg" xmlns:xlink="http://www.w3.org/1999/xlink" x="0px" y="0px"
	 viewBox="0 0 14 14" style="enable-background:new 0 0 14 14;" xml:space="preserve">
<style type="text/css">
	.st0{fill:#EE6F57;}
</style>
<g id="Grupo_5">
	<path id="Trazado_202" class="st0" d="M1.34,4.89c0.18,0.12,0.71,0.5,1.6,1.11S4.52,7.1,4.99,7.43l0.33,0.24
		c0.17,0.12,0.31,0.22,0.42,0.3c0.11,0.08,0.25,0.16,0.41,0.25C6.29,8.31,6.44,8.38,6.6,8.44C6.73,8.48,6.86,8.5,6.99,8.51h0.02
		c0.13,0,0.27-0.03,0.39-0.07c0.16-0.05,0.31-0.13,0.45-0.21c0.16-0.09,0.29-0.18,0.41-0.25c0.11-0.08,0.25-0.18,0.42-0.3
		c0.17-0.12,0.28-0.2,0.33-0.24l3.66-2.54c0.37-0.26,0.7-0.58,0.95-0.96C13.86,3.59,14,3.18,14,2.75c-0.01-0.69-0.56-1.24-1.25-1.25
		H1.25c-0.36-0.02-0.7,0.13-0.93,0.41C0.1,2.2-0.01,2.56,0,2.92c0.02,0.39,0.18,0.77,0.43,1.07C0.68,4.34,0.99,4.65,1.34,4.89z"/>
	<path id="Trazado_203" class="st0" d="M13.22,5.73c-1.71,1.16-3,2.06-3.89,2.7c-0.3,0.22-0.54,0.39-0.72,0.51
		C8.37,9.09,8.13,9.21,7.87,9.32C7.6,9.44,7.31,9.5,7.01,9.51H6.99C6.7,9.5,6.4,9.44,6.13,9.32c-0.26-0.1-0.5-0.23-0.74-0.38
		C5.21,8.82,4.97,8.65,4.67,8.43c-0.7-0.52-2-1.42-3.88-2.7C0.5,5.54,0.23,5.31,0,5.05v6.2C0,11.58,0.13,11.9,0.37,12.13
		c0.23,0.24,0.55,0.37,0.88,0.37h11.5c0.69,0,1.25-0.56,1.25-1.25v-6.2C13.77,5.31,13.51,5.54,13.22,5.73z"/>
</g>
</svg>
