<?xml version="1.0" encoding="utf-8"?>
<!-- Generator: Adobe Illustrator 24.2.1, SVG Export Plug-In . SVG Version: 6.00 Build 0)  -->
<svg version="1.1" id="Capa_1" xmlns="http://www.w3.org/2000/svg" xmlns:xlink="http://www.w3.org/1999/xlink" x="0px" y="0px"
	 viewBox="0 0 14 14" style="enable-background:new 0 0 14 14;" xml:space="preserve">
<style type="text/css">
	.st0{fill:#3D3D3D;}
</style>
<path id="Trazado_204_1_" class="st0" d="M268.86,91.7c-0.84,0-1.52,0.68-1.52,1.52s0.68,1.52,1.52,1.52c0.84,0,1.52-0.68,1.52-1.52
	C270.37,92.38,269.69,91.7,268.86,91.7z"/>
<path id="Trazado_205_1_" class="st0" d="M273.67,88.4c-2.66-2.66-6.98-2.66-9.64,0c-2.66,2.66-2.66,6.98,0,9.64l3.62,3.62
	c0.66,0.66,1.74,0.66,2.4,0l3.62-3.62C276.34,95.37,276.34,91.06,273.67,88.4L273.67,88.4z M268.86,95.65
	c-1.35,0-2.44-1.09-2.44-2.44s1.09-2.44,2.44-2.44s2.44,1.09,2.44,2.44c0,0,0,0,0,0C271.29,94.56,270.2,95.65,268.86,95.65z"/>
<g id="Grupo_5">
	<path id="Trazado_202" class="st0" d="M1.35,4.89c0.18,0.13,0.71,0.5,1.6,1.11S4.52,7.1,4.99,7.43l0.33,0.24
		c0.17,0.12,0.31,0.22,0.42,0.3c0.11,0.08,0.25,0.16,0.41,0.25C6.29,8.3,6.44,8.37,6.6,8.43C6.72,8.47,6.86,8.5,6.99,8.5H7
		c0.13,0,0.27-0.03,0.39-0.07C7.55,8.37,7.7,8.3,7.84,8.22C8,8.12,8.14,8.04,8.25,7.96c0.11-0.08,0.25-0.17,0.42-0.3
		C8.84,7.54,8.95,7.46,9,7.43l3.66-2.54c0.37-0.26,0.7-0.58,0.95-0.96c0.25-0.34,0.38-0.76,0.38-1.18
		c-0.01-0.69-0.56-1.24-1.25-1.25H1.25C0.9,1.48,0.55,1.63,0.33,1.91C0.1,2.2-0.01,2.56,0,2.93c0.02,0.39,0.18,0.77,0.43,1.07
		C0.68,4.34,0.99,4.65,1.35,4.89z"/>
	<path id="Trazado_203" class="st0" d="M13.22,5.73c-1.71,1.16-3.01,2.05-3.89,2.69c-0.3,0.22-0.54,0.39-0.72,0.51
		C8.37,9.08,8.12,9.21,7.87,9.31C7.6,9.43,7.3,9.49,7.01,9.5H6.99C6.7,9.49,6.4,9.43,6.13,9.31c-0.26-0.1-0.5-0.23-0.74-0.38
		C5.21,8.81,4.97,8.64,4.67,8.42c-0.7-0.52-2-1.41-3.88-2.69C0.5,5.54,0.23,5.31,0,5.05v6.2c0,0.33,0.13,0.65,0.37,0.88
		c0.23,0.24,0.55,0.37,0.88,0.37h11.5c0.69,0,1.25-0.56,1.25-1.25v-6.2C13.77,5.31,13.51,5.53,13.22,5.73z"/>
</g>
</svg>
