<?xml version="1.0" encoding="utf-8"?>
<!-- Generator: Adobe Illustrator 24.2.1, SVG Export Plug-In . SVG Version: 6.00 Build 0)  -->
<svg version="1.1" id="Capa_1" xmlns="http://www.w3.org/2000/svg" xmlns:xlink="http://www.w3.org/1999/xlink" x="0px" y="0px"
	 viewBox="0 0 617.89 91.42" style="enable-background:new 0 0 617.89 91.42;" xml:space="preserve">
<style type="text/css">
	.st0{fill:#FFFFFF;}
	.st1{fill:#C11722;}
	.st2{fill:#2D3277;}
	.st3{fill:#009EE3;}
	.st4{enable-background:new    ;}
</style>
<g id="mercadopago" transform="translate(0 0)">
	<g id="mercadopago-2" transform="translate(0 0.02)">
		<path id="bg_pago-3" class="st0" d="M381.64-0.02h236.24V91.4h-268.8L381.64-0.02z"/>
		<path id="bg_pago-4" class="st1" d="M0-0.02h381.64L349.09,91.4H0V-0.02z"/>
		<g id="mercadopago_logo" transform="translate(402.919 26.663)">
			<path id="Trazado_25" class="st2" d="M63.55,20.99c0-11.57-14.22-21.01-31.77-21.01S0,9.42,0,20.99v1.23
				C0,34.5,12.43,44.44,31.77,44.44c19.46,0,31.78-9.94,31.78-22.22L63.55,20.99z"/>
			<path id="Trazado_26" class="st3" d="M62.34,20.98c0,10.91-13.68,19.76-30.55,19.76S1.24,31.89,1.24,20.98S14.91,1.22,31.79,1.22
				S62.34,10.07,62.34,20.98z"/>
			<path id="Trazado_27" class="st0" d="M21.64,14.74c-0.02,0.03-0.32,0.35-0.13,0.61c0.98,0.77,2.28,1.01,3.48,0.64
				c1.17-0.47,2.24-1.16,3.16-2.02c1.06-0.98,2.28-1.76,3.61-2.33c0.85-0.31,1.77-0.34,2.64-0.07c0.88,0.33,1.69,0.81,2.4,1.41
				c2.09,1.59,10.5,9.01,11.95,10.28c4.32-1.89,8.82-3.36,13.43-4.37c-0.81-4.05-3.08-7.66-6.38-10.14
				c-5.2,2.55-11.27,2.65-16.55,0.27c-1.96-0.9-4.09-1.39-6.25-1.44c-3.39,0.02-6.58,1.58-8.68,4.24L21.64,14.74z"/>
			<path id="Trazado_28" class="st0" d="M48.39,24.08c-0.1-0.09-9.88-8.74-12.1-10.43c-0.77-0.69-1.72-1.15-2.74-1.32
				c-0.44-0.04-0.88,0.01-1.31,0.13c-1.31,0.5-2.52,1.23-3.58,2.15c-1,0.96-2.19,1.7-3.49,2.18c-1.31,0.27-2.68,0.07-3.85-0.58
				c-0.28-0.17-0.5-0.42-0.64-0.71c-0.16-0.46-0.03-0.97,0.33-1.29l2.7-2.95c0.31-0.32,0.63-0.63,0.95-0.95
				c-0.83,0.13-1.66,0.31-2.46,0.56c-0.93,0.31-1.89,0.5-2.87,0.54c-0.98-0.1-1.96-0.26-2.93-0.47c-2.68-0.7-5.29-1.65-7.79-2.84
				C5,10.58,2.45,14.32,1.46,18.58c0.55,0.15,1.44,0.41,1.81,0.5c8.69,1.95,11.39,3.96,11.88,4.38c1.04-1.19,2.84-1.31,4.03-0.27
				c0.01,0.01,0.02,0.02,0.03,0.03c0.17,0.15,0.32,0.32,0.45,0.51c0.58-0.48,1.32-0.74,2.07-0.74c0.42,0,0.84,0.08,1.24,0.22
				c0.21,1.08,1.26,1.78,2.34,1.57c0.22-0.04,0.42-0.12,0.61-0.23c0.5,0.01,0.99,0.12,1.44,0.32c1.31,0.63,2.01,2.07,1.71,3.48
				c0.11-0.01,0.23-0.02,0.34-0.02c1.93,0.02,3.47,1.61,3.44,3.53c-0.01,0.56-0.15,1.11-0.41,1.6c0.9,0.55,1.94,0.84,2.99,0.81
				c0.53,0,1.04-0.22,1.4-0.62c0.08-0.12,0.18-0.27,0.09-0.37l-2.45-2.75c0,0-0.4-0.38-0.27-0.53s0.39,0.07,0.56,0.22
				c1.25,1.05,2.77,2.64,2.77,2.64s0.13,0.22,0.69,0.32c0.68,0.12,1.38-0.05,1.94-0.46c0.16-0.13,0.3-0.28,0.43-0.44
				c-0.01,0-0.02,0.02-0.03,0.02c0.35-0.5,0.32-1.17-0.07-1.63l-2.86-3.25c0,0-0.41-0.38-0.27-0.54s0.39,0.07,0.56,0.22
				c0.91,0.76,2.19,2.07,3.41,3.28c0.84,0.57,1.95,0.53,2.75-0.1c0.65-0.37,1.04-1.07,1.02-1.81c-0.06-0.46-0.27-0.88-0.6-1.21
				l-3.91-3.97c0,0-0.41-0.36-0.27-0.54s0.39,0.07,0.56,0.22c1.24,1.05,4.62,4.18,4.62,4.18c0.81,0.53,1.86,0.51,2.65-0.05
				c0.51-0.3,0.83-0.83,0.87-1.42C49.08,25.07,48.83,24.5,48.39,24.08z"/>
			<path id="Trazado_29" class="st0" d="M29.43,29.12c-0.46,0.06-0.91,0.16-1.36,0.3c-0.05-0.03,0.04-0.28,0.09-0.42
				s0.86-2.57-1.09-3.41c-0.89-0.49-2-0.32-2.71,0.41c-0.08,0.09-0.12,0.08-0.13-0.03c-0.02-0.93-0.63-1.74-1.51-2.02
				c-1.25-0.39-2.6,0.1-3.32,1.2c-0.16-1.17-1.24-1.99-2.41-1.83s-1.99,1.24-1.83,2.41s1.24,1.99,2.41,1.83
				c0.45-0.06,0.87-0.27,1.2-0.58c0.01,0.01,0.02,0.03,0.01,0.07c-0.3,1.37,0.44,2.75,1.75,3.26c0.69,0.27,1.48,0.15,2.06-0.32
				c0.17-0.12,0.19-0.07,0.17,0.09c-0.11,1,0.54,1.92,1.51,2.17c0.75,0.37,1.66,0.2,2.23-0.42c0.19-0.17,0.24-0.15,0.25,0.12
				c0.08,1.48,1.35,2.61,2.83,2.52c1.48-0.08,2.61-1.35,2.52-2.83C32.04,30.23,30.86,29.12,29.43,29.12L29.43,29.12z"/>
			<path id="Trazado_30" class="st2" d="M48.77,23.05c-3.01-2.67-9.98-8.78-11.87-10.21c-0.73-0.62-1.56-1.11-2.45-1.45
				c-0.39-0.12-0.8-0.19-1.21-0.19c-0.52,0.01-1.04,0.1-1.53,0.26c-1.33,0.56-2.55,1.34-3.61,2.31l-0.06,0.05
				c-0.9,0.85-1.94,1.52-3.08,1.98c-0.37,0.09-0.76,0.13-1.14,0.13c-0.78,0.07-1.55-0.19-2.14-0.7c-0.05-0.07-0.02-0.18,0.11-0.34
				l0.02-0.02l2.65-2.89c2.07-2.62,5.21-4.17,8.55-4.19h0.23c2.05,0.09,4.07,0.57,5.94,1.42c2.51,1.27,5.28,1.94,8.09,1.96
				c3.08-0.05,6.11-0.79,8.88-2.15c-0.34-0.29-0.7-0.57-1.07-0.86c-2.45,1.13-5.1,1.74-7.8,1.79c-2.63-0.02-5.22-0.65-7.57-1.84
				c-2.03-0.94-4.23-1.46-6.46-1.54h-0.26c-2.69-0.04-5.31,0.9-7.36,2.65c-1.25,0.07-2.48,0.29-3.68,0.68
				c-0.84,0.28-1.71,0.45-2.59,0.5c-0.33,0-0.93-0.03-0.98-0.03c-3.18-0.57-6.3-1.44-9.31-2.61C8.69,8.03,8.32,8.31,7.97,8.6
				c3.24,1.37,6.63,2.36,10.1,2.95c0.41,0.03,0.86,0.07,1.3,0.08c1-0.05,1.98-0.23,2.92-0.55c0.56-0.16,1.18-0.33,1.84-0.46
				l-0.52,0.53l-2.69,2.95c-0.42,0.38-0.57,0.97-0.38,1.5c0.16,0.33,0.4,0.6,0.71,0.79c0.87,0.5,1.86,0.75,2.86,0.73
				c0.38,0,0.77-0.04,1.14-0.12c1.33-0.49,2.54-1.24,3.57-2.22c1.04-0.91,2.22-1.62,3.51-2.12c0.32-0.09,0.65-0.13,0.98-0.14
				c0.08,0,0.17,0,0.25,0.02c0.99,0.16,1.91,0.61,2.65,1.28c2.21,1.68,12,10.33,12.09,10.42c0.4,0.38,0.61,0.91,0.59,1.46
				c-0.03,0.52-0.33,1-0.78,1.26c-0.38,0.26-0.83,0.39-1.28,0.4c-0.4,0-0.79-0.12-1.13-0.33c-0.04-0.03-3.39-3.14-4.62-4.19
				c-0.15-0.16-0.36-0.27-0.58-0.31c-0.1,0-0.19,0.04-0.26,0.12c-0.19,0.24,0.02,0.57,0.28,0.8l3.92,3.98
				c0.29,0.29,0.48,0.67,0.54,1.07c0.02,0.68-0.34,1.31-0.93,1.64c-0.41,0.29-0.89,0.45-1.39,0.46c-0.4,0-0.79-0.12-1.12-0.34
				l-0.56-0.56c-1.03-1.02-2.09-2.08-2.86-2.73c-0.16-0.16-0.36-0.27-0.58-0.31c-0.09,0-0.18,0.03-0.25,0.1
				c-0.09,0.1-0.15,0.28,0.07,0.57c0.06,0.08,0.13,0.15,0.2,0.22l2.86,3.24c0.34,0.39,0.37,0.96,0.06,1.39l-0.1,0.13
				c-0.08,0.09-0.17,0.18-0.27,0.26c-0.4,0.3-0.9,0.46-1.4,0.45c-0.13,0-0.25-0.01-0.38-0.03c-0.21-0.02-0.41-0.1-0.56-0.24
				l-0.03-0.04c-0.16-0.16-1.6-1.65-2.79-2.66c-0.15-0.16-0.34-0.26-0.56-0.3c-0.1,0-0.19,0.04-0.26,0.12
				c-0.23,0.26,0.12,0.65,0.27,0.79l2.44,2.72c-0.02,0.06-0.05,0.12-0.09,0.17c-0.09,0.12-0.38,0.42-1.27,0.53
				c-0.11,0.01-0.22,0.02-0.32,0.02c-0.84-0.05-1.66-0.3-2.39-0.72c0.86-1.83,0.08-4.01-1.74-4.89c-0.48-0.23-1.01-0.35-1.55-0.35
				h-0.13c0.22-1.43-0.53-2.84-1.84-3.45c-0.48-0.22-1-0.33-1.52-0.34c-1.01,0.51-2.24,0.1-2.75-0.92c-0.06-0.13-0.12-0.26-0.15-0.4
				c-0.42-0.15-0.86-0.23-1.31-0.23c-0.73,0-1.44,0.23-2.03,0.66c-1.04-1.32-2.95-1.56-4.27-0.52c-0.01,0.01-0.02,0.02-0.04,0.03
				c-0.09,0.07-0.18,0.15-0.26,0.23c-0.75-0.59-3.77-2.52-11.82-4.37c-0.39-0.09-1.29-0.35-1.83-0.51
				c-0.09,0.44-0.16,0.89-0.21,1.33c0,0,1.49,0.36,1.78,0.43c8.23,1.85,10.95,3.77,11.41,4.13c-0.65,1.59,0.09,3.41,1.67,4.08
				c0.55,0.23,1.15,0.3,1.74,0.19c0.24,1.25,1.13,2.28,2.33,2.72c0.35,0.14,0.72,0.21,1.1,0.22c0.24,0,0.47-0.03,0.7-0.09
				c0.57,1.22,1.78,2.02,3.13,2.06c0.32,0,0.64-0.06,0.94-0.17c0.73,1.85,2.83,2.76,4.69,2.03c0.48-0.19,0.92-0.48,1.28-0.86
				c0.94,0.55,1.99,0.87,3.08,0.93c0.16,0,0.31-0.01,0.46-0.03c0.81-0.03,1.57-0.4,2.09-1.03c0.05-0.07,0.09-0.14,0.13-0.21
				c0.32,0.1,0.65,0.15,0.98,0.16c0.72-0.01,1.42-0.27,1.99-0.72c0.6-0.4,1.02-1.02,1.17-1.72v-0.03c0.22,0.05,0.44,0.07,0.67,0.07
				c0.73-0.01,1.44-0.24,2.04-0.66c0.94-0.55,1.5-1.57,1.47-2.66c0.22,0.05,0.45,0.07,0.67,0.07c0.68-0.01,1.35-0.22,1.92-0.6
				c0.77-0.48,1.26-1.29,1.33-2.19c0.05-0.62-0.1-1.24-0.42-1.77c4.11-1.7,8.36-3.04,12.7-4.02c-0.04-0.45-0.1-0.89-0.18-1.33
				C57.56,19.65,53.08,21.13,48.77,23.05z M29.43,34.35c-1.34,0-2.44-1.06-2.48-2.4c0-0.12-0.02-0.42-0.27-0.42
				c-0.12,0.01-0.22,0.07-0.3,0.16c-0.32,0.34-0.76,0.54-1.22,0.56c-0.28-0.01-0.55-0.07-0.8-0.18c-1.42-0.57-1.44-1.57-1.38-1.96
				c0.03-0.1,0.01-0.21-0.05-0.3l-0.09-0.08h-0.09c-0.09,0.01-0.18,0.04-0.25,0.1c-0.34,0.27-0.76,0.42-1.2,0.43
				c-0.23,0-0.46-0.05-0.67-0.13c-1.23-0.47-1.92-1.77-1.63-3.05c0.02-0.09-0.01-0.19-0.08-0.25l-0.13-0.11l-0.12,0.12
				c-0.76,0.75-1.98,0.74-2.72-0.02c-0.01-0.01-0.01-0.01-0.02-0.02c-0.75-0.78-0.73-2.02,0.04-2.78c0.76-0.75,1.98-0.73,2.72,0.02
				c0.01,0.01,0.01,0.01,0.02,0.02c0.29,0.3,0.48,0.69,0.53,1.11l0.07,0.53l0.29-0.45c0.66-1.04,1.93-1.5,3.1-1.11
				c0.81,0.26,1.36,1,1.37,1.84c0.02,0.26,0.2,0.27,0.24,0.27c0.09-0.01,0.17-0.05,0.22-0.12c0.37-0.39,0.89-0.61,1.43-0.61
				c0.37,0.01,0.73,0.09,1.07,0.24c1.82,0.79,1,3.14,0.99,3.16c-0.16,0.38-0.16,0.56-0.02,0.66l0.07,0.03h0.05
				c0.12-0.01,0.24-0.04,0.35-0.09c0.31-0.12,0.64-0.2,0.97-0.22l0,0c1.39,0.03,2.49,1.18,2.47,2.57c-0.03,1.35-1.12,2.44-2.47,2.47
				L29.43,34.35z"/>
			<path id="Trazado_31" class="st2" d="M171.81,7.6c-2.86-2.88-7.51-2.91-10.39-0.05c-0.02,0.02-0.04,0.03-0.05,0.05
				c-2.3,3.06-2.3,7.26,0,10.32c2.89,2.86,7.55,2.86,10.44,0C174.11,14.87,174.11,10.66,171.81,7.6z M168.97,15.94
				c-1.11,1.32-3.07,1.5-4.4,0.39c-0.01-0.01-0.02-0.02-0.04-0.03c-0.13-0.11-0.25-0.23-0.36-0.36c-1.12-1.97-1.12-4.39,0-6.36
				c1.12-1.32,3.09-1.49,4.42-0.37c0.01,0.01,0.02,0.02,0.03,0.03c0.12,0.11,0.24,0.22,0.34,0.34
				C170.08,11.55,170.08,13.96,168.97,15.94L168.97,15.94z"/>
			<path id="Trazado_32" class="st2" d="M142.51,6.39c-1.24-0.62-2.61-0.92-3.99-0.9c-1.82-0.19-3.62,0.48-4.87,1.82
				c-0.63,0.87-0.98,1.9-1.01,2.97h3.44c0.05-0.46,0.23-0.9,0.51-1.27c0.48-0.47,1.14-0.7,1.81-0.63c0.6-0.03,1.19,0.08,1.73,0.32
				c0.41,0.24,0.64,0.7,0.59,1.17c-0.01,0.47-0.32,0.89-0.77,1.02c-0.46,0.17-0.94,0.27-1.43,0.32l-1.22,0.15
				c-1.1,0.09-2.17,0.39-3.15,0.89c-1.3,0.75-2.06,2.18-1.95,3.68c-0.07,1.14,0.38,2.25,1.21,3.03c0.87,0.71,1.96,1.08,3.08,1.07
				c7.78,0.35,7.69-4.14,7.76-5.08V9.77C144.41,8.4,143.72,7.07,142.51,6.39z M140.71,14.24c0.09,0.95-0.29,1.88-1.02,2.49
				c-0.63,0.45-1.38,0.69-2.15,0.68c-0.45,0.01-0.9-0.13-1.25-0.41c-0.37-0.34-0.56-0.83-0.51-1.33c-0.03-0.63,0.29-1.22,0.84-1.52
				c0.52-0.25,1.07-0.42,1.64-0.49l0.81-0.15c0.32-0.06,0.64-0.14,0.95-0.25c0.24-0.09,0.47-0.21,0.69-0.34V14.24z"/>
			<path id="Trazado_33" class="st2" d="M124.77,8.57c0.75-0.06,1.48,0.25,1.96,0.83c0.29,0.41,0.48,0.89,0.54,1.39h3.84
				c-0.03-1.6-0.77-3.11-2.03-4.1c-1.32-0.82-2.86-1.22-4.41-1.16c-1.86-0.1-3.68,0.62-4.97,1.97c-1.28,1.54-1.92,3.5-1.8,5.5
				c-0.08,1.84,0.5,3.65,1.63,5.1c1.3,1.4,3.18,2.13,5.09,1.97c2.02,0.13,3.98-0.75,5.22-2.36c0.7-0.89,1.13-1.97,1.23-3.1h-3.82
				c-0.05,0.64-0.28,1.26-0.67,1.77c-0.49,0.5-1.18,0.75-1.87,0.68c-1.14,0.07-2.17-0.63-2.53-1.71c-0.28-0.78-0.4-1.6-0.38-2.42
				c-0.03-0.86,0.1-1.72,0.38-2.54C122.53,9.25,123.59,8.51,124.77,8.57z"/>
			<path id="Trazado_34" class="st2" d="M116.86,5.54c-7.88,0-7.42,7.05-7.42,7.05v7.17h3.58v-6.72c-0.05-0.84,0.09-1.67,0.41-2.45
				c0.6-1,1.73-1.55,2.88-1.41c0.11,0,0.25,0,0.42,0.01s0.38,0.03,0.6,0.05V5.55l-0.31-0.02C116.97,5.54,116.91,5.54,116.86,5.54z"
				/>
			<path id="Trazado_35" class="st2" d="M103.72,16.01c-0.14,0.2-0.3,0.39-0.49,0.55c-0.58,0.41-1.29,0.61-2,0.55
				c-0.67,0.04-1.33-0.12-1.9-0.46c-0.95-0.64-1.5-1.73-1.45-2.87h9.9c0.03-0.91-0.01-1.82-0.12-2.72
				c-0.14-1.02-0.51-1.99-1.08-2.84c-0.57-0.89-1.39-1.59-2.35-2.03c-1.01-0.44-2.1-0.66-3.2-0.64c-1.81-0.07-3.57,0.62-4.86,1.9
				c-1.34,1.5-2.02,3.47-1.88,5.47c-0.19,2.05,0.57,4.08,2.07,5.5c1.34,1.11,3.04,1.71,4.79,1.69c1.91,0.11,3.78-0.62,5.11-2.01
				c0.58-0.58,1.01-1.3,1.24-2.09H103.72z M98.91,9.28c0.57-0.55,1.34-0.83,2.12-0.78c0.77-0.02,1.52,0.24,2.11,0.74
				c0.6,0.56,0.94,1.35,0.94,2.17h-6.12C98.04,10.61,98.38,9.87,98.91,9.28L98.91,9.28z"/>
			<path id="Trazado_36" class="st2" d="M92.86,19.76h-3.27v-8.32c0.15-1.26-0.75-2.4-2.01-2.55c-0.13-0.02-0.26-0.02-0.39-0.01
				c-1.33-0.03-2.44,1.02-2.48,2.36l0,0c0,0.07,0,0.14,0,0.21v8.32h-3.27v-8.32c0.15-1.25-0.74-2.4-1.99-2.55
				c-0.13-0.02-0.26-0.02-0.39-0.01c-1.32-0.05-2.44,0.99-2.48,2.32v0.01c0,0.08,0,0.16,0,0.24v8.32h-3.27v-8.25
				c-0.21-3.11,2.13-5.8,5.24-6.02c0.17-0.01,0.34-0.01,0.51-0.01c1.58-0.04,3.09,0.67,4.06,1.92c0.99-1.22,2.49-1.93,4.06-1.92
				c3.03-0.11,5.58,2.25,5.69,5.28c0,0,0,0,0,0.01c0.01,0.25,0,0.5-0.02,0.75L92.86,19.76z"/>
			<path id="Trazado_37" class="st2" d="M158.58,1.19c0,0-3.6-0.38-3.6,2.54V7.6c-0.78-1.32-2.22-2.11-3.75-2.07
				c-1.67-0.05-3.26,0.7-4.28,2.02c-1.15,1.64-1.71,3.62-1.6,5.63c-0.08,1.81,0.5,3.58,1.63,5c1.37,1.3,3.22,1.97,5.1,1.87
				c6.59,0,6.51-5.71,6.51-5.71L158.58,1.19z M154.29,15.97c-0.51,0.76-1.38,1.19-2.29,1.14c-0.9,0.05-1.76-0.38-2.25-1.14
				c-0.53-0.96-0.79-2.04-0.74-3.14c-0.04-1.03,0.22-2.06,0.73-2.96c0.48-0.79,1.36-1.25,2.29-1.19c0.66-0.01,1.3,0.22,1.8,0.66
				c0.93,1,1.39,2.34,1.26,3.7C155.12,14.07,154.85,15.09,154.29,15.97z"/>
			<path id="Trazado_38" class="st3" d="M99.44,42.71c-0.01,0.98-0.81,1.78-1.79,1.78h-1.79V31.93c-0.16-1.92,0.65-3.8,2.16-5.01
				c1.36-0.98,3.01-1.45,4.68-1.33c1.77-0.04,3.47,0.67,4.68,1.96c1.18,1.48,1.77,3.34,1.68,5.23c0.09,1.91-0.47,3.8-1.58,5.35
				c-0.95,1.28-2.46,2.02-4.05,1.99c-0.8,0.02-1.59-0.14-2.31-0.47c-0.71-0.36-1.3-0.93-1.68-1.63V42.71z M105.43,32.93
				c0.07-1.11-0.21-2.21-0.79-3.15c-0.52-0.73-1.37-1.14-2.26-1.1c-0.88-0.03-1.71,0.38-2.21,1.1c-0.56,0.95-0.82,2.05-0.73,3.15
				c-0.08,1.06,0.2,2.11,0.79,2.99c0.52,0.73,1.37,1.15,2.26,1.1c0.86,0.03,1.67-0.39,2.16-1.1
				C105.22,35.03,105.49,33.98,105.43,32.93"/>
			<path id="Trazado_39" class="st3" d="M132.76,38.95v-0.89c-0.55,0.93-1.45,1.59-2.51,1.83c-1.04,0.24-2.14,0.15-3.12-0.27
				c-1.11-0.48-2.04-1.29-2.66-2.33c-0.8-1.36-1.18-2.91-1.11-4.48c-0.09-1.87,0.43-3.71,1.47-5.27c1.16-1.4,2.92-2.15,4.73-2.02
				c1.65-0.15,3.3,0.34,4.6,1.36c1.49,1.23,2.28,3.11,2.12,5.03v7.4c0.13,3.39-2.51,6.24-5.9,6.37c-0.27,0.01-0.54,0-0.81-0.03
				c-2.78,0.07-5.23-1.81-5.89-4.51h3.77c0.29,0.5,0.74,0.9,1.27,1.12c0.53,0.26,1.13,0.33,1.7,0.21c0.62-0.16,1.16-0.52,1.55-1.02
				C132.49,40.74,132.77,39.86,132.76,38.95 M126.88,32.93c0,2.41,0.69,3.75,2.07,4.01c1.12,0.34,2.33-0.04,3.05-0.97
				c0.37-0.54,0.6-1.16,0.67-1.81c0.14-0.81,0.15-1.63,0.03-2.44c-0.11-0.77-0.4-1.51-0.85-2.15c-0.45-0.63-1.19-0.99-1.96-0.95
				c-0.99-0.1-1.94,0.42-2.38,1.31C127.07,30.87,126.86,31.9,126.88,32.93"/>
			<path id="Trazado_40" class="st3" d="M120.3,26.53c-1.24-0.61-2.61-0.92-3.99-0.9c-1.82-0.19-3.63,0.48-4.88,1.82
				c-0.63,0.87-0.98,1.9-1.01,2.97h3.44c0.05-0.46,0.23-0.9,0.51-1.26c0.48-0.47,1.14-0.7,1.81-0.63c0.6-0.04,1.19,0.07,1.73,0.32
				c0.41,0.24,0.64,0.7,0.59,1.17c-0.01,0.47-0.32,0.89-0.77,1.03c-0.46,0.17-0.94,0.27-1.43,0.32l-1.22,0.15
				c-1.1,0.09-2.16,0.39-3.15,0.89c-1.3,0.75-2.06,2.18-1.95,3.68c-0.07,1.14,0.38,2.25,1.21,3.03c0.87,0.71,1.96,1.08,3.07,1.07
				c7.78,0.35,7.69-4.14,7.76-5.08v-5.17C122.2,28.54,121.51,27.2,120.3,26.53 M118.49,34.38c0.09,0.95-0.29,1.88-1.02,2.49
				c-0.63,0.45-1.38,0.68-2.15,0.68c-0.45,0.01-0.89-0.13-1.25-0.41c-0.37-0.34-0.56-0.83-0.51-1.33c-0.03-0.63,0.3-1.22,0.84-1.52
				c0.52-0.25,1.07-0.42,1.64-0.49l0.81-0.15c0.32-0.06,0.64-0.14,0.95-0.25c0.24-0.09,0.47-0.21,0.69-0.35L118.49,34.38z"/>
			<path id="Trazado_41" class="st3" d="M149.8,27.68c-2.86-2.89-7.51-2.91-10.39-0.05c-0.02,0.02-0.04,0.04-0.05,0.05
				c-2.29,3.06-2.29,7.26,0,10.32c2.9,2.86,7.55,2.86,10.45,0C152.09,34.94,152.09,30.74,149.8,27.68 M146.96,36.01
				c-1.1,1.32-3.07,1.5-4.39,0.4c-0.01-0.01-0.02-0.02-0.03-0.03c-0.13-0.11-0.25-0.23-0.36-0.37c-1.12-1.97-1.12-4.39,0-6.36
				c1.11-1.32,3.09-1.49,4.41-0.38c0.01,0.01,0.02,0.02,0.04,0.03c0.12,0.11,0.24,0.22,0.34,0.34
				C148.07,31.62,148.07,34.03,146.96,36.01"/>
		</g>
		<g id="Haz_el_pago_de_tus_cotizaciones_aquí" transform="translate(62.881 11.077)">
			<g class="st4">
				<path class="st0" d="M13.95,22.88h-2.07v-7.23H4v7.23H1.93V7.24H4v6.72h7.88V7.24h2.07V22.88z"/>
				<path class="st0" d="M24.48,22.88c-0.11-0.23-0.21-0.64-0.28-1.22c-0.92,0.96-2.03,1.44-3.31,1.44c-1.15,0-2.09-0.32-2.82-0.97
					s-1.1-1.47-1.1-2.46c0-1.21,0.46-2.15,1.38-2.82s2.21-1,3.88-1h1.93v-0.91c0-0.69-0.21-1.25-0.62-1.66
					c-0.42-0.41-1.03-0.62-1.84-0.62c-0.71,0-1.3,0.18-1.78,0.54c-0.48,0.36-0.72,0.79-0.72,1.3h-2c0-0.58,0.21-1.14,0.62-1.68
					c0.41-0.54,0.97-0.97,1.68-1.28c0.71-0.32,1.48-0.47,2.33-0.47c1.34,0,2.39,0.33,3.15,1s1.15,1.59,1.18,2.77v5.35
					c0,1.07,0.14,1.92,0.41,2.55v0.17h-2.09V22.88z M21.18,21.37c0.62,0,1.21-0.16,1.77-0.48s0.96-0.74,1.21-1.26v-2.38H22.6
					c-2.44,0-3.65,0.71-3.65,2.14c0,0.62,0.21,1.11,0.62,1.46C20,21.19,20.53,21.37,21.18,21.37z"/>
				<path class="st0" d="M31.14,21.26h6.8v1.62h-9.23v-1.46l6.41-8.52H28.8v-1.64h8.81v1.41L31.14,21.26z"/>
				<path class="st0" d="M50.45,23.1c-1.58,0-2.86-0.52-3.85-1.55c-0.99-1.03-1.48-2.42-1.48-4.15v-0.37c0-1.15,0.22-2.18,0.66-3.09
					s1.06-1.61,1.85-2.13c0.79-0.51,1.65-0.77,2.57-0.77c1.51,0,2.69,0.5,3.52,1.49s1.26,2.42,1.26,4.28v0.83h-7.87
					c0.03,1.15,0.36,2.07,1,2.78c0.64,0.71,1.46,1.06,2.44,1.06c0.7,0,1.3-0.14,1.78-0.43c0.49-0.29,0.91-0.67,1.28-1.14l1.21,0.95
					C53.85,22.35,52.39,23.1,50.45,23.1z M50.2,12.68c-0.8,0-1.48,0.29-2.02,0.88c-0.54,0.58-0.88,1.4-1.01,2.46h5.82v-0.15
					c-0.06-1.01-0.33-1.79-0.82-2.35C51.69,12.96,51.03,12.68,50.2,12.68z"/>
				<path class="st0" d="M59.44,22.88h-1.99V6.38h1.99V22.88z"/>
				<path class="st0" d="M77.88,17.2c0,1.77-0.4,3.19-1.21,4.28c-0.81,1.08-1.91,1.62-3.29,1.62c-1.41,0-2.52-0.45-3.33-1.34v5.6
					h-1.99v-16.1h1.82l0.1,1.29c0.81-1,1.93-1.5,3.37-1.5c1.4,0,2.5,0.53,3.31,1.58s1.22,2.52,1.22,4.39V17.2z M75.89,16.97
					c0-1.31-0.28-2.35-0.84-3.1s-1.33-1.14-2.3-1.14c-1.2,0-2.11,0.53-2.71,1.6v5.55c0.59,1.06,1.5,1.59,2.73,1.59
					c0.95,0,1.71-0.38,2.27-1.13C75.61,19.59,75.89,18.46,75.89,16.97z"/>
				<path class="st0" d="M87.58,22.88c-0.11-0.23-0.21-0.64-0.28-1.22c-0.92,0.96-2.03,1.44-3.31,1.44c-1.15,0-2.09-0.32-2.82-0.97
					s-1.1-1.47-1.1-2.46c0-1.21,0.46-2.15,1.38-2.82s2.21-1,3.88-1h1.93v-0.91c0-0.69-0.21-1.25-0.62-1.66
					c-0.42-0.41-1.03-0.62-1.84-0.62c-0.71,0-1.3,0.18-1.78,0.54c-0.48,0.36-0.72,0.79-0.72,1.3h-2c0-0.58,0.21-1.14,0.62-1.68
					s0.97-0.97,1.68-1.28c0.71-0.32,1.48-0.47,2.33-0.47c1.34,0,2.39,0.33,3.15,1s1.15,1.59,1.18,2.77v5.35
					c0,1.07,0.14,1.92,0.41,2.55v0.17h-2.09V22.88z M84.28,21.37c0.62,0,1.21-0.16,1.77-0.48s0.96-0.74,1.21-1.26v-2.38H85.7
					c-2.44,0-3.65,0.71-3.65,2.14c0,0.62,0.21,1.11,0.62,1.46C83.1,21.19,83.63,21.37,84.28,21.37z"/>
				<path class="st0" d="M91.9,16.97c0-1.81,0.42-3.25,1.26-4.32c0.84-1.07,1.95-1.61,3.33-1.61c1.42,0,2.52,0.5,3.32,1.5l0.1-1.29
					h1.82V22.6c0,1.5-0.45,2.69-1.34,3.56s-2.09,1.3-3.59,1.3c-0.84,0-1.66-0.18-2.46-0.54c-0.8-0.36-1.41-0.85-1.84-1.47l1.03-1.19
					c0.85,1.05,1.89,1.58,3.13,1.58c0.97,0,1.72-0.27,2.26-0.82c0.54-0.54,0.81-1.31,0.81-2.3v-1c-0.79,0.92-1.88,1.38-3.25,1.38
					c-1.36,0-2.46-0.55-3.3-1.64C92.32,20.36,91.9,18.87,91.9,16.97z M93.9,17.2c0,1.31,0.27,2.34,0.81,3.09s1.29,1.12,2.26,1.12
					c1.25,0,2.17-0.57,2.76-1.71v-5.3c-0.61-1.11-1.52-1.67-2.74-1.67c-0.97,0-1.72,0.38-2.27,1.13
					C94.17,14.61,93.9,15.72,93.9,17.2z"/>
				<path class="st0" d="M104.19,16.96c0-1.14,0.22-2.16,0.67-3.07s1.07-1.61,1.87-2.11c0.8-0.49,1.71-0.74,2.73-0.74
					c1.58,0,2.86,0.55,3.84,1.64s1.47,2.55,1.47,4.37v0.14c0,1.13-0.22,2.15-0.65,3.05s-1.05,1.6-1.86,2.1s-1.73,0.75-2.78,0.75
					c-1.58,0-2.85-0.55-3.83-1.64s-1.47-2.55-1.47-4.35v-0.14H104.19z M106.19,17.2c0,1.29,0.3,2.32,0.9,3.1s1.4,1.17,2.4,1.17
					c1.01,0,1.81-0.4,2.41-1.19c0.59-0.79,0.89-1.9,0.89-3.33c0-1.27-0.3-2.31-0.91-3.1c-0.61-0.79-1.41-1.19-2.41-1.19
					c-0.98,0-1.77,0.39-2.37,1.17S106.19,15.75,106.19,17.2z"/>
				<path class="st0" d="M122.23,16.97c0-1.78,0.42-3.22,1.27-4.3c0.84-1.08,1.95-1.63,3.32-1.63c1.36,0,2.44,0.47,3.23,1.4V6.38
					h1.99v16.5h-1.83l-0.1-1.25c-0.79,0.97-1.9,1.46-3.32,1.46c-1.35,0-2.44-0.55-3.29-1.65s-1.27-2.54-1.27-4.32V16.97z
					 M124.21,17.2c0,1.32,0.27,2.35,0.82,3.09c0.54,0.75,1.3,1.12,2.26,1.12c1.26,0,2.18-0.57,2.76-1.7v-5.34
					c-0.59-1.1-1.51-1.64-2.74-1.64c-0.97,0-1.73,0.38-2.28,1.13C124.48,14.61,124.21,15.72,124.21,17.2z"/>
				<path class="st0" d="M139.94,23.1c-1.58,0-2.86-0.52-3.85-1.55c-0.99-1.03-1.48-2.42-1.48-4.15v-0.37
					c0-1.15,0.22-2.18,0.66-3.09s1.06-1.61,1.85-2.13c0.79-0.51,1.65-0.77,2.57-0.77c1.51,0,2.69,0.5,3.52,1.49s1.26,2.42,1.26,4.28
					v0.83h-7.87c0.03,1.15,0.36,2.07,1,2.78c0.64,0.71,1.46,1.06,2.44,1.06c0.7,0,1.3-0.14,1.78-0.43c0.49-0.29,0.91-0.67,1.28-1.14
					l1.21,0.95C143.35,22.35,141.89,23.1,139.94,23.1z M139.69,12.68c-0.8,0-1.48,0.29-2.02,0.88c-0.54,0.58-0.88,1.4-1.01,2.46
					h5.82v-0.15c-0.06-1.01-0.33-1.79-0.82-2.35C141.18,12.96,140.52,12.68,139.69,12.68z"/>
				<path class="st0" d="M154.91,8.45v2.81h2.17v1.54h-2.17v7.22c0,0.47,0.1,0.82,0.29,1.05c0.19,0.23,0.52,0.35,0.99,0.35
					c0.23,0,0.54-0.04,0.95-0.13v1.6c-0.52,0.14-1.03,0.21-1.53,0.21c-0.89,0-1.56-0.27-2.01-0.81s-0.68-1.3-0.68-2.29v-7.2h-2.12
					v-1.54h2.12V8.45H154.91z"/>
				<path class="st0" d="M166.58,21.73c-0.77,0.91-1.91,1.36-3.41,1.36c-1.24,0-2.18-0.36-2.83-1.08c-0.65-0.72-0.98-1.78-0.98-3.2
					v-7.56h1.99v7.51c0,1.76,0.72,2.64,2.15,2.64c1.52,0,2.53-0.57,3.03-1.7v-8.45h1.99v11.62h-1.89L166.58,21.73z"/>
				<path class="st0" d="M178.3,19.8c0-0.54-0.2-0.95-0.61-1.25c-0.4-0.3-1.11-0.55-2.12-0.77c-1.01-0.21-1.8-0.47-2.4-0.77
					s-1.03-0.66-1.31-1.07c-0.28-0.42-0.42-0.91-0.42-1.48c0-0.95,0.4-1.76,1.21-2.42s1.83-0.99,3.09-0.99
					c1.32,0,2.39,0.34,3.21,1.02s1.23,1.55,1.23,2.61h-2c0-0.54-0.23-1.01-0.69-1.41s-1.04-0.59-1.75-0.59
					c-0.72,0-1.29,0.16-1.7,0.47s-0.61,0.73-0.61,1.24c0,0.48,0.19,0.84,0.57,1.08s1.06,0.48,2.06,0.7c0.99,0.22,1.8,0.49,2.41,0.79
					c0.62,0.31,1.07,0.68,1.37,1.11c0.3,0.43,0.45,0.96,0.45,1.58c0,1.04-0.42,1.87-1.25,2.5s-1.91,0.94-3.23,0.94
					c-0.93,0-1.75-0.17-2.47-0.49c-0.72-0.33-1.28-0.79-1.68-1.38c-0.4-0.59-0.61-1.23-0.61-1.92h1.99c0.04,0.67,0.3,1.19,0.8,1.58
					s1.15,0.58,1.97,0.58c0.75,0,1.35-0.15,1.81-0.46C178.07,20.72,178.3,20.31,178.3,19.8z"/>
			</g>
		</g>
	</g>
</g>
<g>
	<path class="st0" d="M70.98,68.12c0.71,0,1.33-0.21,1.86-0.64c0.53-0.43,0.82-0.97,0.88-1.61h1.88c-0.04,0.67-0.27,1.3-0.69,1.9
		c-0.42,0.6-0.99,1.08-1.69,1.44c-0.71,0.36-1.45,0.54-2.24,0.54c-1.58,0-2.84-0.53-3.78-1.58c-0.93-1.06-1.4-2.5-1.4-4.33v-0.33
		c0-1.13,0.21-2.14,0.62-3.02c0.42-0.88,1.01-1.56,1.79-2.05c0.78-0.49,1.7-0.73,2.76-0.73c1.3,0,2.39,0.39,3.25,1.17
		c0.86,0.78,1.32,1.79,1.38,3.04h-1.88c-0.06-0.75-0.34-1.37-0.85-1.85c-0.51-0.48-1.14-0.72-1.9-0.72c-1.01,0-1.79,0.36-2.35,1.09
		c-0.56,0.73-0.83,1.78-0.83,3.15v0.38c0,1.34,0.28,2.37,0.83,3.09C69.17,67.76,69.95,68.12,70.98,68.12z"/>
	<path class="st0" d="M77.3,63.61c0-1.14,0.22-2.16,0.67-3.07c0.45-0.91,1.07-1.61,1.87-2.11c0.8-0.49,1.71-0.74,2.73-0.74
		c1.58,0,2.86,0.55,3.84,1.64s1.47,2.55,1.47,4.37v0.14c0,1.13-0.22,2.15-0.65,3.05c-0.43,0.9-1.05,1.6-1.86,2.1
		s-1.73,0.75-2.78,0.75c-1.58,0-2.85-0.55-3.83-1.64s-1.47-2.55-1.47-4.35V63.61z M79.3,63.85c0,1.29,0.3,2.32,0.9,3.1
		c0.6,0.78,1.4,1.17,2.4,1.17c1.01,0,1.81-0.4,2.41-1.19c0.59-0.79,0.89-1.9,0.89-3.33c0-1.27-0.3-2.31-0.91-3.1
		c-0.61-0.79-1.41-1.19-2.41-1.19c-0.98,0-1.77,0.39-2.37,1.17S79.3,62.39,79.3,63.85z"/>
	<path class="st0" d="M93.07,55.09v2.81h2.17v1.54h-2.17v7.22c0,0.47,0.1,0.82,0.29,1.05c0.19,0.23,0.52,0.35,0.99,0.35
		c0.23,0,0.54-0.04,0.95-0.13v1.6c-0.52,0.14-1.03,0.21-1.53,0.21c-0.89,0-1.56-0.27-2.01-0.81s-0.68-1.3-0.68-2.29v-7.21h-2.12
		v-1.54h2.12v-2.81H93.07z"/>
	<path class="st0" d="M97.57,54.82c0-0.32,0.1-0.59,0.3-0.82c0.2-0.22,0.49-0.33,0.88-0.33s0.68,0.11,0.88,0.33
		c0.2,0.22,0.3,0.49,0.3,0.82s-0.1,0.59-0.3,0.81c-0.2,0.21-0.49,0.32-0.88,0.32s-0.68-0.11-0.88-0.32
		C97.67,55.41,97.57,55.14,97.57,54.82z M99.72,69.53h-1.99V57.91h1.99V69.53z"/>
	<path class="st0" d="M104.77,67.91h6.8v1.62h-9.23v-1.46l6.41-8.52h-6.32v-1.64h8.81v1.41L104.77,67.91z"/>
	<path class="st0" d="M120.98,69.53c-0.11-0.23-0.21-0.64-0.28-1.22c-0.92,0.96-2.03,1.44-3.31,1.44c-1.15,0-2.09-0.32-2.82-0.97
		c-0.73-0.65-1.1-1.47-1.1-2.46c0-1.21,0.46-2.15,1.38-2.82c0.92-0.67,2.21-1,3.88-1h1.93v-0.91c0-0.69-0.21-1.25-0.62-1.66
		c-0.42-0.41-1.03-0.62-1.84-0.62c-0.71,0-1.3,0.18-1.78,0.54c-0.48,0.36-0.72,0.79-0.72,1.3h-2c0-0.58,0.21-1.14,0.62-1.68
		c0.41-0.54,0.97-0.97,1.68-1.28c0.71-0.32,1.48-0.47,2.33-0.47c1.34,0,2.39,0.33,3.15,1c0.76,0.67,1.15,1.59,1.18,2.77v5.35
		c0,1.07,0.14,1.92,0.41,2.55v0.17H120.98z M117.68,68.01c0.62,0,1.21-0.16,1.77-0.48s0.96-0.74,1.21-1.26v-2.38h-1.56
		c-2.44,0-3.65,0.71-3.65,2.14c0,0.62,0.21,1.11,0.62,1.46C116.5,67.84,117.03,68.01,117.68,68.01z"/>
	<path class="st0" d="M130.44,68.12c0.71,0,1.33-0.21,1.86-0.64c0.53-0.43,0.82-0.97,0.88-1.61h1.88c-0.04,0.67-0.27,1.3-0.69,1.9
		c-0.42,0.6-0.99,1.08-1.69,1.44c-0.71,0.36-1.45,0.54-2.24,0.54c-1.58,0-2.84-0.53-3.78-1.58c-0.93-1.06-1.4-2.5-1.4-4.33v-0.33
		c0-1.13,0.21-2.14,0.62-3.02c0.42-0.88,1.01-1.56,1.79-2.05c0.78-0.49,1.7-0.73,2.76-0.73c1.3,0,2.39,0.39,3.25,1.17
		c0.86,0.78,1.32,1.79,1.38,3.04h-1.88c-0.06-0.75-0.34-1.37-0.85-1.85c-0.51-0.48-1.14-0.72-1.9-0.72c-1.01,0-1.79,0.36-2.35,1.09
		c-0.56,0.73-0.83,1.78-0.83,3.15v0.38c0,1.34,0.28,2.37,0.83,3.09C128.62,67.76,129.41,68.12,130.44,68.12z"/>
	<path class="st0" d="M137.3,54.82c0-0.32,0.1-0.59,0.3-0.82c0.2-0.22,0.49-0.33,0.88-0.33s0.68,0.11,0.88,0.33
		c0.2,0.22,0.3,0.49,0.3,0.82s-0.1,0.59-0.3,0.81c-0.2,0.21-0.49,0.32-0.88,0.32s-0.68-0.11-0.88-0.32
		C137.4,55.41,137.3,55.14,137.3,54.82z M139.45,69.53h-1.99V57.91h1.99V69.53z"/>
	<path class="st0" d="M142.1,63.61c0-1.14,0.22-2.16,0.67-3.07c0.45-0.91,1.07-1.61,1.87-2.11c0.8-0.49,1.71-0.74,2.73-0.74
		c1.58,0,2.86,0.55,3.84,1.64s1.47,2.55,1.47,4.37v0.14c0,1.13-0.22,2.15-0.65,3.05c-0.43,0.9-1.05,1.6-1.86,2.1
		s-1.73,0.75-2.78,0.75c-1.58,0-2.85-0.55-3.83-1.64s-1.47-2.55-1.47-4.35V63.61z M144.1,63.85c0,1.29,0.3,2.32,0.9,3.1
		c0.6,0.78,1.4,1.17,2.4,1.17c1.01,0,1.81-0.4,2.41-1.19c0.59-0.79,0.89-1.9,0.89-3.33c0-1.27-0.3-2.31-0.91-3.1
		c-0.61-0.79-1.41-1.19-2.41-1.19c-0.98,0-1.77,0.39-2.37,1.17S144.1,62.39,144.1,63.85z"/>
	<path class="st0" d="M157.05,57.91l0.06,1.46c0.89-1.12,2.05-1.68,3.48-1.68c2.46,0,3.7,1.39,3.72,4.16v7.68h-1.99v-7.69
		c-0.01-0.84-0.2-1.46-0.57-1.86s-0.96-0.6-1.76-0.6c-0.64,0-1.21,0.17-1.7,0.52c-0.49,0.34-0.87,0.79-1.14,1.35v8.28h-1.99V57.91
		H157.05z"/>
	<path class="st0" d="M172.14,69.74c-1.58,0-2.86-0.52-3.85-1.55c-0.99-1.03-1.48-2.42-1.48-4.15v-0.37c0-1.15,0.22-2.18,0.66-3.09
		c0.44-0.91,1.06-1.61,1.85-2.13c0.79-0.51,1.65-0.77,2.57-0.77c1.51,0,2.69,0.5,3.52,1.49s1.26,2.42,1.26,4.28v0.83h-7.87
		c0.03,1.15,0.36,2.07,1,2.78c0.64,0.71,1.46,1.06,2.44,1.06c0.7,0,1.3-0.14,1.78-0.43c0.49-0.29,0.91-0.67,1.28-1.14l1.21,0.95
		C175.54,69,174.08,69.74,172.14,69.74z M171.89,59.32c-0.8,0-1.48,0.29-2.02,0.88c-0.54,0.58-0.88,1.4-1.01,2.46h5.82V62.5
		c-0.06-1.01-0.33-1.79-0.82-2.35C173.38,59.6,172.72,59.32,171.89,59.32z"/>
	<path class="st0" d="M185.74,66.45c0-0.54-0.2-0.95-0.61-1.25c-0.4-0.3-1.11-0.55-2.12-0.77c-1.01-0.21-1.8-0.47-2.4-0.77
		s-1.03-0.66-1.31-1.07c-0.28-0.42-0.42-0.91-0.42-1.48c0-0.95,0.4-1.76,1.21-2.42s1.83-0.99,3.09-0.99c1.32,0,2.39,0.34,3.21,1.02
		c0.82,0.68,1.23,1.55,1.23,2.61h-2c0-0.54-0.23-1.01-0.69-1.41s-1.04-0.59-1.75-0.59c-0.72,0-1.29,0.16-1.7,0.47
		s-0.61,0.73-0.61,1.24c0,0.48,0.19,0.84,0.57,1.08c0.38,0.24,1.06,0.48,2.06,0.7c0.99,0.22,1.8,0.49,2.41,0.79
		c0.62,0.31,1.07,0.68,1.37,1.11c0.3,0.43,0.45,0.96,0.45,1.58c0,1.04-0.42,1.87-1.25,2.5c-0.83,0.63-1.91,0.94-3.23,0.94
		c-0.93,0-1.75-0.17-2.47-0.49c-0.72-0.33-1.28-0.79-1.68-1.38c-0.4-0.59-0.61-1.23-0.61-1.92h1.99c0.04,0.67,0.3,1.19,0.8,1.58
		c0.5,0.39,1.15,0.58,1.97,0.58c0.75,0,1.35-0.15,1.81-0.46C185.51,67.36,185.74,66.95,185.74,66.45z"/>
	<path class="st0" d="M200.42,68.12c0.71,0,1.33-0.21,1.86-0.64c0.53-0.43,0.82-0.97,0.88-1.61h1.88c-0.04,0.67-0.27,1.3-0.69,1.9
		c-0.42,0.6-0.99,1.08-1.69,1.44c-0.71,0.36-1.45,0.54-2.24,0.54c-1.58,0-2.84-0.53-3.78-1.58c-0.93-1.06-1.4-2.5-1.4-4.33v-0.33
		c0-1.13,0.21-2.14,0.62-3.02c0.42-0.88,1.01-1.56,1.79-2.05c0.78-0.49,1.7-0.73,2.76-0.73c1.3,0,2.39,0.39,3.25,1.17
		c0.86,0.78,1.32,1.79,1.38,3.04h-1.88c-0.06-0.75-0.34-1.37-0.85-1.85c-0.51-0.48-1.14-0.72-1.9-0.72c-1.01,0-1.79,0.36-2.35,1.09
		c-0.56,0.73-0.83,1.78-0.83,3.15v0.38c0,1.34,0.28,2.37,0.83,3.09C198.61,67.76,199.4,68.12,200.42,68.12z"/>
	<path class="st0" d="M206.75,63.61c0-1.14,0.22-2.16,0.67-3.07c0.45-0.91,1.07-1.61,1.87-2.11c0.8-0.49,1.71-0.74,2.73-0.74
		c1.58,0,2.86,0.55,3.84,1.64s1.47,2.55,1.47,4.37v0.14c0,1.13-0.22,2.15-0.65,3.05c-0.43,0.9-1.05,1.6-1.86,2.1
		s-1.73,0.75-2.78,0.75c-1.58,0-2.85-0.55-3.83-1.64s-1.47-2.55-1.47-4.35V63.61z M208.75,63.85c0,1.29,0.3,2.32,0.9,3.1
		c0.6,0.78,1.4,1.17,2.4,1.17c1.01,0,1.81-0.4,2.41-1.19c0.59-0.79,0.89-1.9,0.89-3.33c0-1.27-0.3-2.31-0.91-3.1
		c-0.61-0.79-1.41-1.19-2.41-1.19c-0.98,0-1.77,0.39-2.37,1.17S208.75,62.39,208.75,63.85z"/>
	<path class="st0" d="M221.7,57.91l0.06,1.46c0.89-1.12,2.05-1.68,3.48-1.68c2.46,0,3.7,1.39,3.72,4.16v7.68h-1.99v-7.69
		c-0.01-0.84-0.2-1.46-0.57-1.86s-0.96-0.6-1.76-0.6c-0.64,0-1.21,0.17-1.7,0.52c-0.49,0.34-0.87,0.79-1.14,1.35v8.28h-1.99V57.91
		H221.7z"/>
	<path class="st0" d="M231.9,68.49c0-0.34,0.1-0.63,0.31-0.86s0.51-0.34,0.92-0.34s0.72,0.11,0.93,0.34
		c0.21,0.23,0.32,0.52,0.32,0.86c0,0.33-0.11,0.61-0.32,0.83c-0.21,0.22-0.52,0.33-0.93,0.33s-0.71-0.11-0.92-0.33
		S231.9,68.82,231.9,68.49z M231.91,59c0-0.34,0.1-0.63,0.31-0.86s0.51-0.34,0.92-0.34s0.72,0.11,0.93,0.34
		c0.21,0.23,0.32,0.52,0.32,0.86c0,0.33-0.11,0.61-0.32,0.83c-0.21,0.22-0.52,0.33-0.93,0.33s-0.71-0.11-0.92-0.33
		S231.91,59.33,231.91,59z"/>
</g>
</svg>
