<?xml version="1.0" encoding="utf-8"?>
<!-- Generator: Adobe Illustrator 24.2.1, SVG Export Plug-In . SVG Version: 6.00 Build 0)  -->
<svg version="1.1" id="Capa_1" xmlns="http://www.w3.org/2000/svg" xmlns:xlink="http://www.w3.org/1999/xlink" x="0px" y="0px"
	 viewBox="0 0 14 14" style="enable-background:new 0 0 14 14;" xml:space="preserve">
<style type="text/css">
	.st0{fill:#EE6F57;}
</style>
<path id="Trazado_201" class="st0" d="M10.78,0.42C10.53,0.15,10.17,0,9.8,0H4.2C3.83,0,3.47,0.15,3.22,0.42
	C2.95,0.67,2.8,1.03,2.8,1.4v11.2c0.01,0.77,0.63,1.39,1.4,1.4h5.6c0.77-0.01,1.39-0.63,1.4-1.4V1.4
	C11.2,1.03,11.05,0.67,10.78,0.42z M6.13,1.4h1.75c0.08-0.01,0.16,0.05,0.18,0.13c0,0.01,0,0.03,0,0.04C8.06,1.66,8,1.74,7.92,1.75
	c-0.01,0-0.03,0-0.04,0H6.13C6.04,1.76,5.96,1.7,5.95,1.62c0-0.01,0-0.03,0-0.04C5.94,1.49,6,1.41,6.08,1.4
	C6.1,1.4,6.11,1.4,6.13,1.4z M7.62,13.22c-0.34,0.34-0.89,0.34-1.23,0s-0.34-0.89,0-1.23c0.34-0.34,0.89-0.34,1.23,0
	c0.16,0.16,0.25,0.38,0.25,0.62C7.88,12.83,7.79,13.06,7.62,13.22z M10.15,10.85c0,0.19-0.16,0.35-0.35,0.35H4.2
	c-0.19,0-0.35-0.16-0.35-0.35v-7.7c0-0.19,0.16-0.35,0.35-0.35h5.6c0.19,0,0.35,0.16,0.35,0.35V10.85L10.15,10.85z"/>
</svg>
