<?xml version="1.0" encoding="utf-8"?>
<!-- Generator: Adobe Illustrator 24.2.1, SVG Export Plug-In . SVG Version: 6.00 Build 0)  -->
<svg version="1.1" id="Capa_1" xmlns="http://www.w3.org/2000/svg" xmlns:xlink="http://www.w3.org/1999/xlink" x="0px" y="0px"
	 viewBox="0 0 14 14" style="enable-background:new 0 0 14 14;" xml:space="preserve">
<style type="text/css">
	.st0{fill:#EE6F57;}
</style>
<g id="Grupo_10">
	<path id="Trazado_211" class="st0" d="M7,7c0.93,0.01,1.82-0.36,2.47-1.03c0.67-0.65,1.04-1.54,1.03-2.47
		c0.01-0.93-0.36-1.83-1.03-2.47c-1.37-1.37-3.58-1.37-4.95,0C3.86,1.67,3.49,2.57,3.5,3.5C3.49,4.43,3.86,5.33,4.53,5.97
		C5.17,6.64,6.07,7.01,7,7z"/>
	<path id="Trazado_212" class="st0" d="M13.39,10.69c-0.02-0.33-0.07-0.67-0.13-0.99c-0.06-0.33-0.14-0.67-0.24-0.99
		c-0.1-0.31-0.23-0.61-0.39-0.89c-0.15-0.27-0.34-0.52-0.57-0.74c-0.23-0.21-0.49-0.38-0.78-0.49c-0.32-0.12-0.67-0.19-1.02-0.18
		c-0.14,0.04-0.27,0.11-0.38,0.2C9.68,6.75,9.45,6.89,9.2,7.05C8.89,7.24,8.56,7.39,8.22,7.49c-0.79,0.26-1.64,0.26-2.43,0
		C5.44,7.39,5.11,7.24,4.8,7.05C4.55,6.89,4.32,6.75,4.12,6.61c-0.11-0.09-0.24-0.16-0.38-0.2c-0.35,0-0.69,0.06-1.02,0.18
		C2.43,6.71,2.17,6.87,1.94,7.08C1.72,7.3,1.53,7.55,1.38,7.82C1.22,8.1,1.09,8.4,0.99,8.71C0.88,9.04,0.8,9.37,0.74,9.7
		c-0.06,0.33-0.1,0.66-0.13,0.99C0.59,11,0.58,11.32,0.58,11.64c-0.03,0.64,0.21,1.27,0.67,1.73C1.73,13.8,2.37,14.03,3.02,14h7.97
		c0.65,0.03,1.29-0.2,1.77-0.63c0.46-0.46,0.7-1.08,0.67-1.73C13.42,11.32,13.41,11,13.39,10.69z"/>
</g>
</svg>
