<?xml version="1.0" encoding="utf-8"?>
<!-- Generator: Adobe Illustrator 24.2.3, SVG Export Plug-In . SVG Version: 6.00 Build 0)  -->
<svg version="1.1" id="Capa_1" focusable="false" xmlns="http://www.w3.org/2000/svg" xmlns:xlink="http://www.w3.org/1999/xlink"
	 x="0px" y="0px" viewBox="0 0 512 512" style="enable-background:new 0 0 512 512;" xml:space="preserve">
<style type="text/css">
	.st0{fill:#606060;}
</style>
<path class="st0" d="M300,416h24c6.6,0,12-5.4,12-12V188c0-6.6-5.4-12-12-12h-24c-6.6,0-12,5.4-12,12v216
	C288,410.6,293.4,416,300,416z M464,80h-82.4l-34-56.7C338.9,8.8,323.3,0,306.4,0H205.6c-16.9,0-32.5,8.8-41.2,23.3l-34,56.7H48
	c-8.8,0-16,7.2-16,16v16c0,8.8,7.2,16,16,16h16v336c0,26.5,21.5,48,48,48l0,0h288c26.5,0,48-21.5,48-48l0,0V128h16
	c8.8,0,16-7.2,16-16V96C480,87.2,472.8,80,464,80z M203.8,50.9c1.1-1.8,3-2.9,5.2-2.9h94c2.1,0,4.1,1.1,5.1,2.9L325.6,80H186.4
	L203.8,50.9z M400,464H112V128h288V464z M188,416h24c6.6,0,12-5.4,12-12V188c0-6.6-5.4-12-12-12h-24c-6.6,0-12,5.4-12,12v216
	C176,410.6,181.4,416,188,416z"/>
</svg>
