<?xml version="1.0" encoding="utf-8"?>
<!-- Generator: Adobe Illustrator 25.0.0, SVG Export Plug-In . SVG Version: 6.00 Build 0)  -->
<svg version="1.1" id="Capa_1" xmlns="http://www.w3.org/2000/svg" xmlns:xlink="http://www.w3.org/1999/xlink" x="0px" y="0px"
	 viewBox="0 0 32 32" style="enable-background:new 0 0 32 32;" xml:space="preserve">
<style type="text/css">
	.st0{clip-path:url(#SVGID_2_);}
	.st1{fill:#FFFFFF;}
</style>
<g>
	<defs>
		<rect id="SVGID_1_" width="32" height="32"/>
	</defs>
	<clipPath id="SVGID_2_">
		<use xlink:href="#SVGID_1_"  style="overflow:visible;"/>
	</clipPath>
	<g id="Grupo_40" class="st0">
		<path id="Trazado_298" class="st1" d="M24.7,20H7.3c-0.7,0-1.2-0.5-1.3-1.2L4.7,8.2C4.6,7.4,5.1,6.8,5.8,6.7c0.1,0,0.1,0,0.2,0h20
			c0.7,0,1.3,0.6,1.3,1.3c0,0.1,0,0.1,0,0.2L26,18.8C25.9,19.5,25.3,20,24.7,20 M8.5,17.3h15l1-8h-17L8.5,17.3z"/>
		<path id="Trazado_299" class="st1" d="M23.3,24H8c-0.7,0-1.2-0.5-1.3-1.1l-0.7-4c-0.1-0.7,0.4-1.4,1.1-1.5
			c0.7-0.1,1.4,0.4,1.5,1.1l0.5,2.9h14.2c0.7,0,1.3,0.6,1.3,1.3C24.7,23.4,24.1,24,23.3,24"/>
		<path id="Trazado_300" class="st1" d="M23.3,27.3c0,1.1-0.9,2-2,2c-1.1,0-2-0.9-2-2s0.9-2,2-2C22.4,25.3,23.3,26.2,23.3,27.3"/>
		<path id="Trazado_301" class="st1" d="M12,27.3c0,1.1-0.9,2-2,2s-2-0.9-2-2s0.9-2,2-2S12,26.2,12,27.3"/>
		<path id="Trazado_302" class="st1" d="M6,9.3c-0.6,0-1.1-0.4-1.3-1L4.3,6.7H2.7c-0.7,0-1.3-0.6-1.3-1.3S1.9,4,2.7,4h2.7
			c0.6,0,1.1,0.4,1.3,1l0.7,2.7c0.2,0.7-0.3,1.4-1,1.6C6.2,9.3,6.1,9.3,6,9.3"/>
	</g>
</g>
</svg>
