<?xml version="1.0" encoding="utf-8"?>
<!-- Generator: Adobe Illustrator 25.0.0, SVG Export Plug-In . SVG Version: 6.00 Build 0)  -->
<svg version="1.1" id="Capa_1" xmlns="http://www.w3.org/2000/svg" xmlns:xlink="http://www.w3.org/1999/xlink" x="0px" y="0px"
	 viewBox="0 0 32 32" style="enable-background:new 0 0 32 32;" xml:space="preserve">
<style type="text/css">
	.st0{fill:none;}
	.st1{fill:#FFFFFF;}
</style>
<g id="worker" transform="translate(-581 -597)">
	<rect id="Rectángulo_55" x="581" y="597" class="st0" width="32" height="32"/>
	<g id="Grupo_35" transform="translate(-254.567 344.57)">
		<path id="Trazado_253" class="st1" d="M861.7,275c-1,0-1.8,0-2.7,0c-0.1,0-0.2-0.1-0.3-0.2c-0.8-1-1.6-2-2.3-3
			c-0.1-0.1-0.2-0.3-0.3-0.4l-0.8,3.7h-6.5c0.1-0.8,0.3-1.5,0.4-2.3c0.2-1.1,0.4-2.1,0.5-3.2c0-0.2,0-0.3-0.2-0.5
			c-1.1-0.9-2.1-1.9-3.2-2.8c-0.2-0.2-0.3-0.4-0.3-0.6c0-1.1,0-2.3,0-3.4h-2.7v2.7c-0.2-0.1-0.4-0.2-0.6-0.4c-0.7-0.4-1.3-0.9-2-1.3
			c-0.1-0.1-0.2-0.2-0.2-0.4c0-1.4,0-2.8,0-4.2c0,0,0-0.1,0-0.1h2.7v1.8h4.3c0.7,0,1.1,0.2,1.2,0.7c0.1,0.5-0.1,0.8-0.8,1.2
			c0.1,0.8,0.2,1.6,0.3,2.4c0,0.1,0.1,0.2,0.2,0.3c0.9,0.5,1.8,1.1,2.7,1.6c0.2,0.1,0.3,0.1,0.5,0.2c1.2,0.3,2.4,0.6,3.6,1
			c0.7,0.2,1.3,0.6,1.8,1.2C858.7,270.8,860.2,272.9,861.7,275z"/>
		<path id="Trazado_254" class="st1" d="M851.6,278.7c-3.6,0-7.3,0-10.9,0c-0.6,0-1-0.3-1.1-0.8c-0.1-0.5,0.3-1,0.8-1c0,0,0,0,0,0
			c0.1,0,0.3,0,0.4,0c7.2,0,14.4,0,21.6,0c0.2,0,0.4,0,0.6,0.1c0.4,0.1,0.7,0.5,0.6,1c0,0.4-0.4,0.8-0.8,0.8c-0.1,0-0.3,0-0.4,0
			L851.6,278.7z"/>
		<path id="Trazado_255" class="st1" d="M858,263c0,1.5-1.2,2.8-2.7,2.8c-1.5,0-2.8-1.2-2.8-2.7c0-1.5,1.2-2.8,2.7-2.8c0,0,0,0,0,0
			C856.8,260.3,858,261.5,858,263z"/>
	</g>
</g>
</svg>
