<?xml version="1.0" encoding="utf-8"?>
<!-- Generator: Adobe Illustrator 25.0.0, SVG Export Plug-In . SVG Version: 6.00 Build 0)  -->
<svg version="1.1" id="Capa_1" xmlns="http://www.w3.org/2000/svg" xmlns:xlink="http://www.w3.org/1999/xlink" x="0px" y="0px"
	 viewBox="0 0 941.9 215.6" style="enable-background:new 0 0 941.9 215.6;" xml:space="preserve">
<style type="text/css">
	.st0{clip-path:url(#SVGID_2_);}
	.st1{fill:#005AFD;}
	.st2{fill:#FFFFFF;}
	.st3{clip-path:url(#SVGID_4_);}
	.st4{fill:#F60052;}
	.st5{clip-path:url(#SVGID_5_);fill:url(#SVGID_7_);}
	.st6{fill-rule:evenodd;clip-rule:evenodd;}
</style>
<g id="Grupo_53" transform="translate(543 26)">
	<g id="Grupo_50" transform="translate(0 0.105)">
		<g>
			<defs>
				<rect id="SVGID_1_" x="-306.4" y="-25.8" width="705.2" height="129"/>
			</defs>
			<clipPath id="SVGID_2_">
				<use xlink:href="#SVGID_1_"  style="overflow:visible;"/>
			</clipPath>
			<g id="Grupo_49" class="st0">
				<path id="Trazado_443" class="st1" d="M-70.7,34.1c-5-0.1-9.9,1.5-13.9,4.6V0.6c0-0.5-0.4-0.9-0.9-0.9c0,0,0,0,0,0h-0.1l-11,1.2
					c-0.5,0.1-0.8,14.2-0.8,14.6v70.3c0,0.5,0.4,0.9,0.9,0.9h0h11.1c0.5,0,0.9-0.4,0.9-0.9c0,0,0,0,0,0v-3.2
					c3.9,3.1,8.8,4.8,13.9,4.7c15.7,0,25.8-10.5,25.8-26.6S-55,34.1-70.7,34.1 M-71.2,46.6c7.3-0.2,13.5,5.6,13.7,12.9c0,0,0,0,0,0
					c0,0.4,0,0.8,0,1.2c0.2,7.5-5.8,13.8-13.3,14c-7.4,0.2-13.6-5.5-13.9-12.9c0-0.3,0-0.7,0-1c-0.5-7.3,5-13.6,12.3-14.1
					C-72,46.6-71.6,46.6-71.2,46.6"/>
				<path id="Trazado_444" class="st1" d="M-13.5,34.1c-14.7,0.7-26,13.2-25.3,27.9c0.7,14.7,13.2,26,27.9,25.3
					c10.1-0.5,19-6.6,23.1-15.8c0.2-0.5-0.1-1-0.5-1.2c-0.1,0-0.2-0.1-0.3-0.1H-1.9c-0.3,0-0.6,0.2-0.8,0.4
					c-2.6,3.2-6.5,4.8-10.6,4.4c-6,0.1-11.3-3.9-13-9.6h37.9c0.4,0,0.8-0.3,0.9-0.8c0.2-1.3,0.3-2.6,0.3-4
					C13.1,46.2,1.5,34.3-13,34.1c0,0,0,0,0,0L-13.5,34.1 M-13.5,46.2c5.2,0,9.9,3,12.1,7.6h-24.1C-23.4,49.1-18.7,46.2-13.5,46.2"/>
				<path id="Trazado_445" class="st1" d="M43.2,34.1c-4.4-0.3-8.8,1.3-12,4.3v-2.8c0-0.5-0.4-0.9-0.9-0.9h-11
					c-0.5,0-0.9,0.4-0.9,0.9v50.2c0,0.5,0.4,0.9,0.9,0.9h11c0.5,0,0.9-0.4,0.9-0.9V58.1c-0.5-5.9,3.9-11.1,9.8-11.5
					c0.4,0,0.8,0,1.2,0h1c0.5,0,0.9-0.4,0.9-0.9v0V35C44.2,34.5,43.8,34.1,43.2,34.1C43.3,34.1,43.3,34.1,43.2,34.1L43.2,34.1"/>
				<path id="Trazado_446" class="st1" d="M102.7,33.4c-5.7-0.1-11.2,2.2-15,6.4c-3-4.3-8.1-6.7-13.3-6.4c-4.5,0-8.9,1.7-12.2,4.8
					v-3.3c0-0.5-0.4-0.9-0.9-0.9c0,0,0,0,0,0h-11c-0.5,0-0.9,0.4-0.9,0.9v0l0,0v50.2c0,0.5,0.4,0.9,0.9,0.9c0,0,0,0,0,0h11.1
					c0.5,0,0.9-0.4,0.9-0.9V54.9c0-5.7,3.2-9.3,8-9.3c6.6,0,8,5.1,8,9.3v30.1c0,0.5,0.4,0.9,0.9,0.9l0,0h11c0.5,0,0.9-0.4,0.9-0.9
					c0,0,0,0,0,0l0,0V54.9c0-5.7,3.2-9.3,8-9.3c5.3,0,8,3.1,8,9.3v30.1c0,0.5,0.4,0.9,0.9,0.9h11.1c0.5,0,0.9-0.4,0.9-0.9V52.1
					C120.1,39.9,114.1,33.4,102.7,33.4"/>
				<path id="Trazado_447" class="st1" d="M152.2,33.4c-14.4-0.3-26.3,11.1-26.6,25.4c0,0,0,0,0,0c0,0.4,0,0.8,0,1.2
					c0,14.7,11.9,26.6,26.6,26.6c14.7,0,26.6-11.9,26.6-26.6c0.3-14.4-11-26.3-25.4-26.6c0,0,0,0,0,0
					C153,33.4,152.6,33.4,152.2,33.4 M152.2,74.1c-7.3,0.2-13.4-5.6-13.6-12.9c0,0,0,0,0,0c0-0.4,0-0.8,0-1.2
					c-0.4-7.5,5.3-13.9,12.8-14.3c7.5-0.4,13.9,5.3,14.3,12.8c0,0.1,0,0.2,0,0.3c0,0.4,0,0.8,0,1.2c0.5,7.3-5,13.6-12.3,14.1
					c0,0,0,0,0,0C153,74.1,152.6,74.1,152.2,74.1"/>
				<path id="Trazado_448" class="st1" d="M209.9,33.4c-4.8-0.1-9.4,1.7-12.9,4.9v-3.4c0-0.5-0.4-0.9-0.9-0.9l0,0h-11.1
					c-0.5,0-0.9,0.4-0.9,0.9c0,0,0,0,0,0v50.2c0,0.5,0.4,0.9,0.9,0.9c0,0,0,0,0,0h11.1c0.5,0,0.9-0.4,0.9-0.9c0,0,0,0,0,0l0,0V57.4
					c0-7.4,3.8-11.8,10.1-11.8c6.9,0,10,3.6,10,11.8v27.7c0,0.5,0.4,0.9,0.9,0.9l0,0h11c0.5,0,0.9-0.4,0.9-0.9l0,0V54.9
					C230,41,222.9,33.4,209.9,33.4"/>
				<path id="Trazado_449" class="st1" d="M287.2-2.1l-11,1.2c-0.5,0-0.8,0.4-0.8,0.9v38c-3.9-3.1-8.8-4.7-13.9-4.6
					c-15.7,0-25.8,10.4-25.8,26.6s10.1,26.6,25.8,26.6c5,0.1,9.9-1.6,13.9-4.7v3.2c0,0.5,0.4,0.9,0.9,0.9l0,0h11
					c0.5,0,0.9-0.4,0.9-0.9V-1.2C288.2-1.7,287.8-2.1,287.2-2.1C287.3-2.1,287.3-2.1,287.2-2.1 M262,74.1
					c-7.3,0.2-13.5-5.6-13.7-12.9c0-0.4,0-0.8,0-1.2c-0.3-7.5,5.5-13.9,13-14.2c7.5-0.3,13.9,5.5,14.2,13c0,0.4,0,0.7,0,1.1
					c0.5,7.3-5,13.6-12.3,14.1C262.8,74.1,262.4,74.1,262,74.1"/>
				<path id="Trazado_450" class="st1" d="M398.7,34.4c-0.2-0.3-0.5-0.4-0.8-0.4h-11.4c-0.4,0-0.7,0.2-0.8,0.5l-11.6,27.3
					l-11.6-27.3c-0.1-0.3-0.5-0.5-0.8-0.5h-11.4c-0.3,0-0.6,0.2-0.8,0.4c-0.2,0.3-0.2,0.6-0.1,0.9l18.3,41.2v25.4
					c0,0.5,0.4,0.9,0.9,0.9h0.1l11-1.2c0.5,0,0.8-0.4,0.8-0.9V76.4l18.3-41.2C398.9,35,398.9,34.6,398.7,34.4"/>
				<path id="Trazado_451" class="st1" d="M-103.4,34.3c-0.2-0.3-0.5-0.4-0.8-0.4h-11.4c-0.4,0-0.7,0.2-0.8,0.5l-11.6,27.3
					l-11.6-27.3c-0.1-0.3-0.5-0.5-0.8-0.5h-11.4c-0.3,0-0.6,0.2-0.8,0.4c-0.2,0.3-0.2,0.6-0.1,0.9l18.3,41.2v25.4
					c0,0.5,0.4,0.9,0.9,0.9h0c0,0,0.1,0,0.1,0l11-1.2c0.5,0,0.8-0.4,0.8-0.9V76.4l18.3-41.2C-103.2,34.9-103.2,34.6-103.4,34.3"/>
				<path id="Trazado_452" class="st1" d="M-153.6,69.9l-9.8-5.2c-0.3-0.2-0.7,0-0.9,0.3c0,0,0,0,0,0l0,0l-0.1,0.3
					c-1.3,5-5.7,8.5-10.9,8.7c-5.4-0.1-9.9-4-10.8-9.2c-0.5-1.7-0.7-3.4-0.7-5.1c-0.2-3.9,1-7.7,3.4-10.7c1.9-2.3,4.8-3.6,7.8-3.5
					c2.9-0.1,5.6,1,7.6,3.1c1.3,1.3,2.2,2.9,2.7,4.6c0.1,0.4,0.5,0.6,0.8,0.5c0,0,0.1,0,0.1,0l10.3-4.8c0.3-0.2,0.5-0.5,0.3-0.9
					c-2.3-5.5-6.7-9.9-12.1-12.3c-10.3-4.1-22.1-0.9-28.9,7.8c-3.6,4.8-5.5,10.6-5.3,16.6c0,4.1,1,17.9,14.2,23.9
					c3.2,1.5,6.7,2.2,10.3,2.3c7.5,0.1,14.7-3.4,19.2-9.4c1.3-1.9,2.4-3.9,3.2-6C-153.2,70.4-153.3,70-153.6,69.9"/>
				<path id="Trazado_453" class="st1" d="M344.3,34h-11.3c-0.5,0-0.9,0.4-0.9,0.9c0,0,0,0,0,0V38c-3.9-3-8.7-4.6-13.6-4.6
					c-14.2-0.4-25.9,10.8-26.3,25c0,0.6,0,1.2,0,1.8c-0.6,14.2,10.4,26.1,24.5,26.8c0.6,0,1.2,0,1.8,0c4.9,0,9.7-1.6,13.6-4.6v3.1
					c0,0.5,0.4,0.9,0.9,0.9c0,0,0,0,0,0h11.3c0.5,0,0.9-0.4,0.9-0.9V34.9C345.2,34.4,344.8,34,344.3,34 M318.9,74.5
					c-7.9,0.4-14.6-5.7-15-13.6c-0.4-7.9,5.7-14.6,13.6-15c7.9-0.4,14.6,5.7,15,13.6c0,0.5,0,1,0,1.4
					C332.1,68.2,326.2,74.1,318.9,74.5"/>
				<path id="Trazado_454" class="st1" d="M-218.3,103.2h-88l2.2-103.8h83.6L-218.3,103.2z"/>
				<path id="Trazado_455" class="st2" d="M-262.4,47.5c-12.9,0-23.4-10.5-23.4-23.4V20c0-1.5,1.2-2.7,2.7-2.7
					c1.5,0,2.7,1.2,2.7,2.7v4.1c0,9.9,8,17.9,17.9,17.9c9.9,0,17.9-8,17.9-17.9V20c0-1.5,1.2-2.7,2.7-2.7c1.5,0,2.7,1.2,2.7,2.7v4.1
					C-239.1,37-249.5,47.5-262.4,47.5"/>
				<path id="Trazado_456" class="st2" d="M-276.6,19.6c-1,0-1.8-0.8-1.8-1.8l0,0c-0.2-2.5-2.4-4.4-4.9-4.2c-2.3,0.2-4.1,2-4.2,4.2
					c0,1-0.8,1.8-1.8,1.8c-1,0-1.8-0.7-1.8-1.7c0-0.1,0-0.1,0-0.2c-0.1-4.5,3.5-8.3,8.1-8.4c4.5-0.1,8.3,3.5,8.4,8.1
					c0,0.1,0,0.2,0,0.3C-274.7,18.8-275.6,19.6-276.6,19.6C-276.6,19.6-276.6,19.6-276.6,19.6L-276.6,19.6"/>
				<path id="Trazado_457" class="st2" d="M-235.4,19.6c-1,0-1.8-0.8-1.8-1.8c0,0,0,0,0,0c0.2-2.5-1.6-4.7-4.1-5s-4.7,1.6-5,4.1
					c0,0.1,0,0.1,0,0.2c0,0.2,0,0.4,0,0.6c0,1-0.7,1.9-1.8,1.9c-1,0-1.9-0.7-1.9-1.8v-0.2c-0.2-4.5,3.4-8.4,7.9-8.5
					c4.5-0.2,8.4,3.4,8.5,7.9c0,0.1,0,0.2,0,0.3c0,0.1,0,0.2,0,0.3C-233.6,18.7-234.4,19.6-235.4,19.6
					C-235.4,19.6-235.4,19.6-235.4,19.6L-235.4,19.6"/>
				<path id="Trazado_458" class="st1" d="M-237.8-0.6h-5.1v-0.6c-0.3-10.7-9.2-19.2-19.9-19c-10.4,0.2-18.7,8.6-19,19v0.6h-5.1
					v-0.6c-0.2-13.6,10.7-24.7,24.3-24.9c13.6-0.2,24.7,10.7,24.9,24.3V-0.6L-237.8-0.6z"/>
			</g>
		</g>
	</g>
	<g id="Grupo_52" transform="translate(0 0)">
		<g>
			<defs>
				<rect id="SVGID_3_" x="-306.4" y="-26" width="705.2" height="215.6"/>
			</defs>
			<clipPath id="SVGID_4_">
				<use xlink:href="#SVGID_3_"  style="overflow:visible;"/>
			</clipPath>
			<g id="Grupo_51" class="st3">
				<path id="Trazado_459" class="st4" d="M-278.6,173c-5.8,5.8-15.3,5.8-21.1,0c-3.9-4.2-5.9-9.9-5.7-15.6
					c-0.3-5.8,1.8-11.4,5.7-15.7c5.8-5.8,15.3-5.8,21.1,0c3.9,4.3,5.9,9.9,5.7,15.7C-272.6,163.1-274.7,168.7-278.6,173
					 M-292.2,147.4c-2.3,2.8-3.5,6.4-3.3,10c-0.1,3.6,1.1,7.2,3.3,10c0.8,0.8,1.9,1.2,3,1.2c1.1,0,2.2-0.5,3-1.2
					c2.3-2.8,3.4-6.3,3.3-9.9c0.1-3.6-1.1-7.2-3.3-10c-0.8-0.8-1.9-1.2-3-1.2C-290.3,146.2-291.3,146.7-292.2,147.4"/>
				<path id="Trazado_460" class="st4" d="M-239.7,176.5h-30.7l9.7-10.2c2.9-3,5.6-6.2,7.9-9.7c1.3-1.7,2-3.8,2.1-6
					c0-1.3-0.4-2.6-1.1-3.7c-0.7-0.8-1.8-1.2-2.8-1.1c-1.3,0-2.5,0.5-3.3,1.6c-0.9,1.4-1.3,3-1.4,4.7h-10.3c0-4,1.5-7.8,4.2-10.6
					c2.9-2.8,6.8-4.3,10.9-4.1c4-0.2,7.9,1.2,10.8,4c2.5,2.5,3.8,5.9,3.7,9.4c-0.1,4.4-2.2,8.6-5.7,11.4l-6.4,6h12.5V176.5z"/>
				<path id="Trazado_461" class="st4" d="M-230.8,166.9h8.6L-232,185h-5.9L-230.8,166.9z"/>
				<path id="Trazado_462" class="st4" d="M-172.4,173c-5.8,5.8-15.3,5.8-21.1,0c-3.9-4.2-5.9-9.9-5.7-15.6
					c-0.3-5.8,1.8-11.4,5.7-15.7c5.8-5.8,15.3-5.8,21.1,0c3.9,4.3,5.9,9.9,5.7,15.7C-166.4,163.1-168.5,168.7-172.4,173 M-186,147.4
					c-2.3,2.8-3.5,6.4-3.3,10c-0.1,3.6,1.1,7.2,3.3,10c1.7,1.6,4.4,1.6,6.1,0c2.3-2.8,3.4-6.3,3.3-9.9c0.1-3.6-1.1-7.2-3.3-10
					C-181.6,145.8-184.3,145.8-186,147.4"/>
				<path id="Trazado_463" class="st4" d="M-153.9,163.4c0,1.4,0.6,2.8,1.6,3.8c1,1,2.5,1.6,3.9,1.5c1.5,0,2.9-0.6,3.9-1.7
					c0.8-0.9,1.2-2,1.1-3.2c0-1.3-0.5-2.5-1.5-3.4c-1.1-0.8-2.4-1.1-3.7-1.1c-0.6,0-1.1,0.1-1.7,0.2v-6.7c1.4,0.3,2.9-0.1,4.1-1
					c0.8-0.7,1.3-1.7,1.3-2.7c0-1-0.4-2-1-2.8c-0.8-0.7-1.8-1.1-2.8-1c-1,0-2,0.3-2.8,1c-0.9,0.9-1.3,2.1-1.3,3.4h-9.2
					c0.1-3.3,1.5-6.4,3.7-8.8c2.7-2.6,6.4-4,10.1-3.7c3.5-0.2,6.9,1,9.5,3.4c2,2,3.1,4.6,3.1,7.4c0,1.6-0.4,3.3-1.1,4.7
					c-0.6,1.3-1.6,2.3-2.9,2.9c1.8,0.7,3.4,1.9,4.5,3.5c1.1,1.7,1.7,3.6,1.6,5.6c0.1,3.1-1.2,6.2-3.4,8.4c-3.1,2.8-7.2,4.3-11.4,4.1
					c-4,0.2-8-1.3-11-4c-2.8-2.6-4.5-6.2-4.8-10L-153.9,163.4z"/>
				<path id="Trazado_464" class="st4" d="M-105.5,173l-12.4-22.2h10.7l6.8,13.1l6.7-13.1h10.5l-20.6,38.8h-10.3L-105.5,173z"/>
				<path id="Trazado_465" class="st4" d="M-42,173c-5.8,5.8-15.3,5.8-21.1,0c-3.9-4.2-5.9-9.9-5.7-15.6c-0.3-5.8,1.8-11.4,5.7-15.7
					c5.8-5.8,15.3-5.8,21.1,0c3.9,4.3,5.9,9.9,5.7,15.7C-36.1,163.1-38.1,168.7-42,173 M-55.6,147.4c-2.3,2.8-3.5,6.4-3.3,10
					c-0.1,3.6,1.1,7.2,3.3,10c1.7,1.6,4.4,1.6,6.1,0c2.3-2.8,3.4-6.3,3.3-9.9c0.1-3.6-1.1-7.2-3.3-10
					C-51.2,145.8-53.9,145.8-55.6,147.4"/>
				<path id="Trazado_466" class="st4" d="M-5.5,161.6h4.6v7.6h-4.6v7.2h-9.2v-7.2h-18.6v-6.4l14.8-24.7h13L-5.5,161.6z
					 M-14.7,161.6V146l-9,15.6H-14.7z"/>
				<path id="Trazado_467" class="st4" d="M46.2,176.4H37v-2.8c-1.8,2.4-4.7,3.8-7.8,3.7c-3.4,0.1-6.6-1.2-9-3.5
					c-2.7-2.7-4.2-6.4-4.1-10.2c0-3.8,1.5-7.5,4.2-10.2c2.5-2.3,5.7-3.5,9.1-3.4c2.9,0,5.7,1.2,7.6,3.3v-18.7h9.2L46.2,176.4z
					 M35.3,167.9c1.2-1.1,1.9-2.7,2-4.4c-0.1-1.5-0.7-3-1.7-4.1c-2.3-2.3-6-2.3-8.3-0.1c-1.1,1.2-1.8,2.7-1.8,4.4c0,1.5,0.7,3,1.8,4
					c1.1,1.1,2.5,1.7,4.1,1.7C32.8,169.5,34.2,168.9,35.3,167.9"/>
				<path id="Trazado_468" class="st4" d="M79.7,165.3H60.6c0,1.6,0.6,3.1,1.6,4.3c1,0.9,2.4,1.4,3.8,1.3c1,0,2.1-0.2,3-0.7
					c0.7-0.4,1.2-1,1.6-1.7h8.8c-0.5,2-1.6,3.8-3.1,5.3c-2.8,2.6-6.6,3.9-10.4,3.5c-3.9,0.2-7.8-1.2-10.6-3.9
					c-2.5-2.6-3.9-6.1-3.8-9.7c-0.1-3.7,1.3-7.3,3.8-9.9c2.9-2.6,6.6-3.9,10.5-3.7c3.6-0.1,7.2,1.1,9.9,3.5
					c2.8,2.9,4.3,6.8,4.1,10.8L79.7,165.3z M71.3,160c-0.3-1-0.8-2-1.5-2.8c-1-0.9-2.4-1.4-3.8-1.4c-1.4-0.1-2.7,0.4-3.7,1.4
					c-0.7,0.8-1.2,1.7-1.4,2.8H71.3z"/>
				<path id="Trazado_469" class="st4" d="M99.2,176.5v-38.3h9.9l18.3,23.4v-23.4h9.9v38.3h-9.9L109.2,153v23.4H99.2z"/>
				<path id="Trazado_470" class="st4" d="M170.5,173.1c-6.6,5.7-16.3,5.7-22.9,0c-5.2-5.1-5.3-13.5-0.2-18.7
					c0.1-0.1,0.1-0.1,0.2-0.2c3.1-2.9,7.2-4.4,11.4-4.2c4.2-0.1,8.4,1.4,11.5,4.2c5.2,5.1,5.3,13.5,0.2,18.7
					C170.6,173,170.5,173,170.5,173.1 M154.9,159.4c-2.3,2.3-2.3,6,0,8.3c1.1,1.1,2.6,1.7,4.1,1.7c1.5,0,3-0.6,4.1-1.7
					c1.1-1.1,1.8-2.5,1.8-4.1c0-1.6-0.7-3.1-1.8-4.2C160.8,157.2,157.2,157.2,154.9,159.4"/>
				<path id="Trazado_471" class="st4" d="M186.2,150.8l6.1,13.1l6.3-13.1h10.2l-13.4,25.7h-6.3L176,150.8H186.2z"/>
				<path id="Trazado_472" class="st4" d="M216.6,134.9c2.9,0,5.2,2.3,5.2,5.2c0,2.9-2.3,5.2-5.2,5.2c-2.9,0-5.2-2.3-5.2-5.2
					C211.5,137.3,213.8,135,216.6,134.9C216.6,134.9,216.6,134.9,216.6,134.9 M221.2,176.5H212v-25.7h9.2V176.5z"/>
				<path id="Trazado_473" class="st4" d="M254.7,165.3h-19.1c0,1.6,0.6,3.1,1.6,4.3c1,0.9,2.4,1.4,3.8,1.3c1,0,2.1-0.2,3-0.7
					c0.7-0.4,1.2-1,1.6-1.7h8.8c-0.5,2-1.6,3.8-3.1,5.3c-2.8,2.6-6.6,3.9-10.4,3.5c-3.9,0.2-7.8-1.2-10.6-3.9
					c-2.5-2.6-3.9-6.1-3.8-9.7c-0.1-3.7,1.3-7.3,3.8-9.9c2.9-2.6,6.6-3.9,10.5-3.7c3.6-0.1,7.2,1.1,9.9,3.5
					c2.8,2.9,4.3,6.8,4.1,10.8L254.7,165.3z M246.3,160c-0.3-1-0.8-2-1.5-2.8c-1-0.9-2.4-1.4-3.8-1.4c-1.4-0.1-2.7,0.4-3.7,1.4
					c-0.7,0.8-1.2,1.7-1.4,2.8H246.3z"/>
				<path id="Trazado_474" class="st4" d="M260,150.8h9.2v3.1c1.9-2.3,4.7-3.6,7.7-3.5c1.7,0,3.4,0.4,4.9,1.1
					c1.6,0.8,2.8,2.1,3.5,3.7c0.8-1.5,2-2.7,3.5-3.5c1.6-0.9,3.5-1.3,5.3-1.3c2.6-0.1,5.1,0.7,7.1,2.4c1.7,1.9,2.6,4.5,2.4,7.1v16.7
					h-9.2v-12.7c0.3-1.9-0.2-3.9-1.3-5.5c-0.7-0.6-1.5-0.9-2.4-0.9c-1,0-2,0.3-2.7,1c-1.2,1.3-1.8,3.1-1.7,4.9v13.1h-9.2v-12.7
					c0.3-1.9-0.2-3.9-1.2-5.5c-0.7-0.7-1.7-1.1-2.8-1c-0.9-0.1-1.9,0.3-2.5,0.9c-1.3,1.6-1.8,3.6-1.6,5.6v12.7H260V150.8z"/>
				<path id="Trazado_475" class="st4" d="M319.3,134.6v18.6c2-2.2,4.7-3.4,7.6-3.3c3.4-0.1,6.6,1.2,9.1,3.4
					c2.7,2.7,4.2,6.3,4.2,10.2c0.1,3.8-1.4,7.5-4.1,10.2c-2.4,2.4-5.6,3.6-9,3.5c-3,0.1-5.9-1.3-7.8-3.7v2.8h-9.2v-41.8H319.3z
					 M329,167.8c1.1-1.1,1.7-2.5,1.8-4c0-1.6-0.6-3.2-1.8-4.4c-2.3-2.2-6-2.2-8.3,0.1c-1,1.1-1.6,2.6-1.7,4.1c0,1.7,0.7,3.2,2,4.4
					c1.1,1,2.5,1.5,4,1.5C326.5,169.5,328,168.9,329,167.8"/>
				<path id="Trazado_476" class="st4" d="M345.5,150.8h9.2v4.2c0.8-1.5,2.1-2.8,3.6-3.5c1.5-0.7,3.1-1.1,4.8-1
					c0.2,0,0.6,0.1,1.8,0.1v8.7c-1.2-0.6-2.6-1-4-0.9c-1.5-0.1-3,0.4-4.2,1.4c-1.5,1.6-2.2,3.7-2.1,5.9v11h-9.2V150.8z"/>
				<path id="Trazado_477" class="st4" d="M396.2,165.3h-19.1c0,1.6,0.6,3.1,1.6,4.3c1,0.9,2.4,1.4,3.8,1.3c1,0,2.1-0.2,3-0.7
					c0.7-0.4,1.2-1,1.6-1.7h8.8c-0.5,2-1.6,3.8-3.1,5.3c-2.8,2.6-6.6,3.9-10.4,3.5c-3.9,0.2-7.8-1.2-10.6-3.9
					c-2.5-2.6-3.9-6.1-3.8-9.7c-0.1-3.7,1.3-7.3,3.8-9.9c2.9-2.6,6.7-3.9,10.5-3.7c3.6-0.1,7.2,1.1,9.9,3.5
					c2.8,2.9,4.3,6.8,4.1,10.8L396.2,165.3z M387.8,160c-0.3-1-0.8-2-1.5-2.8c-1-0.9-2.4-1.4-3.8-1.4c-1.4-0.1-2.7,0.4-3.7,1.4
					c-0.7,0.8-1.2,1.7-1.4,2.8H387.8z"/>
			</g>
		</g>
	</g>
</g>
<g>
	<g>
		<defs>
			<path id="SVGID_6_" d="M0,107.8c0,59.5,48.3,107.8,107.8,107.8c59.5,0,107.8-48.3,107.8-107.8C215.6,48.3,167.3,0,107.8,0
				C48.3,0,0,48.3,0,107.8"/>
		</defs>
		<clipPath id="SVGID_5_">
			<use xlink:href="#SVGID_6_"  style="overflow:visible;"/>
		</clipPath>
		
			<linearGradient id="SVGID_7_" gradientUnits="userSpaceOnUse" x1="-493.1472" y1="647.7813" x2="-492.0354" y2="647.7813" gradientTransform="matrix(193.927 0 0 -193.927 95634.5703 125730.1094)">
			<stop  offset="0" style="stop-color:#C3942E"/>
			<stop  offset="0.1231" style="stop-color:#AF7E10"/>
			<stop  offset="0.2623" style="stop-color:#F5DA7B"/>
			<stop  offset="0.3672" style="stop-color:#F5DA7B"/>
			<stop  offset="0.3756" style="stop-color:#F3D878"/>
			<stop  offset="0.4972" style="stop-color:#DBB753"/>
			<stop  offset="0.6187" style="stop-color:#C89E36"/>
			<stop  offset="0.7386" style="stop-color:#BA8C21"/>
			<stop  offset="0.8563" style="stop-color:#B28214"/>
			<stop  offset="0.9689" style="stop-color:#AF7E10"/>
			<stop  offset="1" style="stop-color:#AF7E10"/>
		</linearGradient>
		<rect y="0" class="st5" width="215.6" height="215.6"/>
	</g>
	<g>
		<path d="M105,209.6L105,209.6c-0.6,0-1.1-0.5-1-1.1c0-0.6,0.5-1.1,1.1-1c0.6,0,1.1,0.5,1,1.1C106,209.1,105.6,209.6,105,209.6
			C105,209.6,105,209.6,105,209.6 M109.7,208.5c0-0.6,0.5-1.1,1-1.1c0.6,0,1.1,0.5,1.1,1c0,0.6-0.5,1.1-1,1.1h0
			C110.2,209.6,109.7,209.1,109.7,208.5 M99.2,209.2c-0.6,0-1-0.6-1-1.2c0.1-0.6,0.6-1,1.2-1c0.6,0.1,1,0.6,1,1.2
			C100.3,208.8,99.8,209.2,99.2,209.2C99.2,209.2,99.2,209.2,99.2,209.2 M115.4,208.3c0-0.6,0.4-1.1,1-1.2c0.6-0.1,1.1,0.4,1.2,1
			c0,0.6-0.4,1.1-1,1.2v0c0,0-0.1,0-0.1,0C115.9,209.2,115.5,208.8,115.4,208.3 M93.4,208.6c-0.6-0.1-1-0.6-0.9-1.2
			c0.1-0.6,0.6-1,1.2-0.9c0.6,0.1,1,0.6,0.9,1.2c-0.1,0.5-0.5,0.9-1.1,0.9C93.5,208.6,93.4,208.6,93.4,208.6 M121.1,207.7
			c-0.1-0.6,0.3-1.1,0.9-1.2c0.6-0.1,1.1,0.3,1.2,0.9c0.1,0.6-0.3,1.1-0.9,1.2c-0.1,0-0.1,0-0.2,0
			C121.7,208.6,121.2,208.2,121.1,207.7 M87.6,207.6c-0.6-0.1-1-0.7-0.8-1.3c0.1-0.6,0.7-1,1.3-0.8c0.6,0.1,1,0.7,0.8,1.3
			c-0.1,0.5-0.6,0.9-1.1,0.9C87.8,207.6,87.7,207.6,87.6,207.6 M126.8,206.7c-0.1-0.6,0.3-1.2,0.8-1.3c0.6-0.1,1.2,0.3,1.3,0.8
			c0.1,0.6-0.3,1.2-0.8,1.3c-0.1,0-0.1,0-0.2,0C127.4,207.6,126.9,207.3,126.8,206.7 M82,206.3c-0.6-0.2-0.9-0.7-0.8-1.3
			s0.7-0.9,1.3-0.8c0.6,0.2,0.9,0.7,0.8,1.3c-0.1,0.5-0.6,0.8-1,0.8C82.2,206.3,82.1,206.3,82,206.3 M132.4,205.5
			c-0.2-0.6,0.2-1.2,0.8-1.3c0.6-0.2,1.2,0.2,1.3,0.8c0.2,0.6-0.2,1.2-0.8,1.3c-0.1,0-0.2,0-0.3,0C133,206.3,132.5,206,132.4,205.5
			 M76.4,204.7c-0.6-0.2-0.9-0.8-0.7-1.4c0.2-0.6,0.8-0.9,1.4-0.7c0.6,0.2,0.9,0.8,0.7,1.4c-0.1,0.5-0.6,0.7-1,0.7
			C76.6,204.7,76.5,204.7,76.4,204.7 M138,203.9c-0.2-0.6,0.1-1.2,0.7-1.4c0.6-0.2,1.2,0.1,1.4,0.7c0.2,0.6-0.1,1.2-0.7,1.4
			c-0.1,0-0.2,0.1-0.3,0.1C138.5,204.7,138.1,204.4,138,203.9 M70.9,202.7c-0.6-0.2-0.8-0.8-0.6-1.4c0.2-0.6,0.8-0.8,1.4-0.6
			c0.6,0.2,0.8,0.8,0.6,1.4c-0.2,0.4-0.6,0.7-1,0.7C71.2,202.8,71,202.8,70.9,202.7 M143.4,202.1c-0.2-0.6,0.1-1.2,0.6-1.4
			c0.6-0.2,1.2,0.1,1.4,0.6c0.2,0.6-0.1,1.2-0.6,1.4c-0.1,0.1-0.3,0.1-0.4,0.1C144,202.8,143.6,202.5,143.4,202.1 M65.6,200.5
			c-0.5-0.2-0.8-0.9-0.5-1.4c0.2-0.5,0.9-0.8,1.4-0.5c0.5,0.2,0.8,0.9,0.5,1.4c-0.2,0.4-0.6,0.6-1,0.6
			C65.9,200.6,65.7,200.5,65.6,200.5 M148.7,199.9c-0.2-0.5,0-1.2,0.5-1.4c0.5-0.3,1.2,0,1.4,0.5c0.2,0.5,0,1.2-0.5,1.4
			c-0.1,0.1-0.3,0.1-0.4,0.1C149.3,200.5,148.9,200.3,148.7,199.9 M60.3,197.9c-0.5-0.3-0.7-0.9-0.4-1.5c0.3-0.5,0.9-0.7,1.5-0.4
			c0.5,0.3,0.7,0.9,0.5,1.5c-0.2,0.4-0.6,0.6-1,0.6C60.7,198,60.5,198,60.3,197.9 M153.9,197.4c-0.3-0.5-0.1-1.2,0.5-1.5h0
			c0.5-0.3,1.2-0.1,1.5,0.4c0.3,0.5,0.1,1.2-0.4,1.5c-0.2,0.1-0.3,0.1-0.5,0.1C154.4,198,154.1,197.8,153.9,197.4 M55.3,195
			L55.3,195c-0.5-0.3-0.7-1-0.4-1.5c0.3-0.5,1-0.7,1.5-0.4v0c0.5,0.3,0.7,1,0.4,1.5c-0.2,0.3-0.6,0.5-0.9,0.5
			C55.6,195.2,55.4,195.1,55.3,195 M158.9,194.6c-0.3-0.5-0.1-1.2,0.4-1.5c0.5-0.3,1.2-0.1,1.5,0.4c0.3,0.5,0.1,1.2-0.4,1.5
			c-0.2,0.1-0.4,0.2-0.6,0.2C159.5,195.1,159.1,195,158.9,194.6 M50.4,191.9c-0.5-0.3-0.6-1-0.3-1.5c0.3-0.5,1-0.6,1.5-0.3
			c0.5,0.3,0.6,1,0.3,1.5c-0.2,0.3-0.5,0.5-0.9,0.5C50.8,192.1,50.6,192,50.4,191.9 M163.8,191.6c-0.3-0.5-0.2-1.2,0.3-1.5
			c0.5-0.3,1.2-0.2,1.5,0.3c0.3,0.5,0.2,1.2-0.3,1.5c-0.2,0.1-0.4,0.2-0.6,0.2C164.3,192,164,191.9,163.8,191.6 M45.7,188.5
			c-0.5-0.4-0.6-1-0.2-1.5c0.4-0.5,1-0.6,1.5-0.2c0.5,0.4,0.6,1,0.2,1.5c-0.2,0.3-0.5,0.4-0.9,0.4C46.1,188.7,45.9,188.6,45.7,188.5
			 M168.5,188.2c-0.4-0.5-0.3-1.1,0.2-1.5c0.5-0.4,1.1-0.3,1.5,0.2c0.4,0.5,0.3,1.1-0.2,1.5c-0.2,0.2-0.4,0.2-0.7,0.2
			C169,188.7,168.7,188.5,168.5,188.2 M41.2,184.8c-0.5-0.4-0.5-1.1-0.1-1.5c0.4-0.5,1.1-0.5,1.5-0.1c0.4,0.4,0.5,1.1,0.1,1.5
			c-0.2,0.2-0.5,0.4-0.8,0.4C41.6,185,41.4,184.9,41.2,184.8 M172.9,184.6c-0.4-0.4-0.3-1.1,0.1-1.5c0.4-0.4,1.1-0.3,1.5,0.1
			c0.4,0.4,0.3,1.1-0.1,1.5c-0.2,0.2-0.5,0.3-0.7,0.3C173.5,185,173.2,184.9,172.9,184.6 M36.9,180.8c-0.4-0.4-0.4-1.1,0-1.5
			c0.4-0.4,1.1-0.4,1.5,0c0.4,0.4,0.4,1.1,0,1.5c-0.2,0.2-0.5,0.3-0.8,0.3C37.4,181.1,37.1,181,36.9,180.8 M177.2,180.8
			c-0.4-0.4-0.4-1.1,0-1.5c0.4-0.4,1.1-0.4,1.5,0c0.4,0.4,0.4,1.1,0,1.5c-0.2,0.2-0.5,0.3-0.7,0.3
			C177.7,181.1,177.4,181,177.2,180.8 M32.8,176.7c-0.4-0.4-0.4-1.1,0.1-1.5c0.4-0.4,1.1-0.4,1.5,0.1c0.4,0.4,0.4,1.1-0.1,1.5
			c-0.2,0.2-0.5,0.3-0.7,0.3C33.3,177,33,176.9,32.8,176.7 M181.3,176.7c-0.4-0.4-0.5-1.1-0.1-1.5c0.4-0.4,1.1-0.5,1.5-0.1
			c0.4,0.4,0.5,1.1,0.1,1.5c-0.2,0.2-0.5,0.3-0.8,0.3C181.7,177,181.5,176.9,181.3,176.7 M29,172.3L29,172.3
			c-0.4-0.5-0.3-1.1,0.2-1.5c0.5-0.4,1.1-0.3,1.5,0.1v0c0.4,0.5,0.3,1.1-0.1,1.5c-0.2,0.2-0.4,0.2-0.7,0.2
			C29.5,172.7,29.2,172.5,29,172.3 M185.1,172.4c-0.5-0.4-0.5-1.1-0.2-1.5v0c0.4-0.5,1.1-0.5,1.5-0.2c0.5,0.4,0.5,1.1,0.1,1.5l0,0
			c-0.2,0.3-0.5,0.4-0.8,0.4C185.5,172.6,185.3,172.6,185.1,172.4 M25.5,167.7c-0.4-0.5-0.2-1.2,0.2-1.5c0.5-0.4,1.2-0.2,1.5,0.2
			c0.3,0.5,0.2,1.2-0.2,1.5c-0.2,0.1-0.4,0.2-0.6,0.2C26,168.1,25.7,168,25.5,167.7 M188.7,167.9c-0.5-0.3-0.6-1-0.2-1.5h0
			c0.3-0.5,1-0.6,1.5-0.2c0.5,0.4,0.6,1,0.2,1.5c-0.2,0.3-0.5,0.4-0.9,0.4C189.1,168.1,188.8,168,188.7,167.9 M22.2,162.9
			L22.2,162.9c-0.3-0.5-0.2-1.2,0.3-1.5c0.5-0.3,1.2-0.2,1.5,0.3v0c0.3,0.5,0.2,1.2-0.3,1.5c-0.2,0.1-0.4,0.2-0.6,0.2
			C22.7,163.4,22.4,163.2,22.2,162.9 M192,163.2c-0.5-0.3-0.6-1-0.3-1.5c0.3-0.5,1-0.6,1.5-0.3c0.5,0.3,0.6,1,0.3,1.5
			c-0.2,0.3-0.6,0.5-0.9,0.5C192.3,163.3,192.1,163.3,192,163.2 M19.2,157.9c-0.3-0.5-0.1-1.2,0.4-1.5c0.5-0.3,1.2-0.1,1.5,0.4
			c0.3,0.5,0.1,1.2-0.4,1.5c-0.2,0.1-0.4,0.1-0.5,0.1C19.7,158.5,19.4,158.3,19.2,157.9 M195,158.3c-0.5-0.3-0.7-1-0.4-1.5
			c0.3-0.5,1-0.7,1.5-0.4c0.5,0.3,0.7,0.9,0.4,1.5c-0.2,0.4-0.6,0.5-0.9,0.5C195.3,158.4,195.2,158.4,195,158.3 M16.5,152.8
			c-0.3-0.5,0-1.2,0.5-1.4c0.5-0.3,1.2,0,1.4,0.5c0.3,0.5,0,1.2-0.5,1.4c-0.2,0.1-0.3,0.1-0.5,0.1C17,153.4,16.6,153.2,16.5,152.8
			 M197.7,153.2c-0.5-0.3-0.8-0.9-0.5-1.4c0.3-0.5,0.9-0.8,1.4-0.5c0.5,0.3,0.8,0.9,0.5,1.4c-0.2,0.4-0.6,0.6-1,0.6
			C198,153.3,197.9,153.3,197.7,153.2 M14,147.5c-0.2-0.5,0-1.2,0.6-1.4c0.5-0.2,1.2,0,1.4,0.6c0.2,0.5,0,1.2-0.6,1.4
			c-0.1,0.1-0.3,0.1-0.4,0.1C14.6,148.2,14.2,147.9,14,147.5 M200.2,148c-0.5-0.2-0.8-0.9-0.6-1.4c0.2-0.5,0.9-0.8,1.4-0.6
			c0.5,0.2,0.8,0.9,0.6,1.4c-0.2,0.4-0.6,0.7-1,0.7C200.5,148.1,200.3,148.1,200.2,148 M11.9,142.1L11.9,142.1
			c-0.2-0.6,0.1-1.2,0.7-1.4c0.6-0.2,1.2,0.1,1.4,0.7c0.2,0.6-0.1,1.2-0.7,1.4c-0.1,0-0.2,0.1-0.4,0.1
			C12.5,142.8,12.1,142.6,11.9,142.1 M202.3,142.7c-0.6-0.2-0.9-0.8-0.7-1.4c0.2-0.6,0.8-0.9,1.4-0.7c0.6,0.2,0.9,0.8,0.7,1.4
			c-0.2,0.4-0.6,0.7-1,0.7C202.6,142.7,202.5,142.7,202.3,142.7 M10.1,136.6c-0.2-0.6,0.2-1.2,0.7-1.3c0.6-0.2,1.2,0.2,1.3,0.7
			c0.2,0.6-0.2,1.2-0.7,1.3c-0.1,0-0.2,0-0.3,0C10.7,137.4,10.3,137.1,10.1,136.6 M204.2,137.2c-0.6-0.2-0.9-0.8-0.7-1.3
			c0.2-0.6,0.8-0.9,1.3-0.7c0.6,0.2,0.9,0.8,0.7,1.3c-0.1,0.5-0.6,0.8-1,0.8C204.4,137.3,204.3,137.2,204.2,137.2 M8.7,131L8.7,131
			c-0.1-0.6,0.2-1.2,0.8-1.3c0.6-0.1,1.2,0.2,1.3,0.8c0.1,0.6-0.2,1.2-0.8,1.3c-0.1,0-0.2,0-0.2,0C9.2,131.8,8.8,131.5,8.7,131
			 M205.7,131.7c-0.6-0.1-0.9-0.7-0.8-1.3c0.1-0.6,0.7-0.9,1.3-0.8c0.6,0.1,0.9,0.7,0.8,1.3c-0.1,0.5-0.6,0.8-1,0.8
			C205.9,131.7,205.8,131.7,205.7,131.7 M7.5,125.3c-0.1-0.6,0.3-1.1,0.9-1.2c0.6-0.1,1.1,0.3,1.2,0.9c0.1,0.6-0.3,1.1-0.9,1.2
			c-0.1,0-0.1,0-0.2,0C8,126.2,7.6,125.8,7.5,125.3 M206.9,126c-0.6-0.1-1-0.7-0.9-1.2c0.1-0.6,0.7-1,1.2-0.9c0.6,0.1,1,0.7,0.9,1.2
			c-0.1,0.5-0.5,0.9-1.1,0.9C207,126.1,206.9,126,206.9,126 M6.7,119.5c-0.1-0.6,0.4-1.1,0.9-1.2c0.6-0.1,1.1,0.4,1.2,0.9
			c0.1,0.6-0.4,1.1-0.9,1.2c0,0-0.1,0-0.1,0C7.2,120.5,6.7,120.1,6.7,119.5 M207.8,120.4c-0.6-0.1-1-0.6-1-1.2c0.1-0.6,0.6-1,1.2-1
			c0.6,0.1,1,0.6,0.9,1.2c-0.1,0.5-0.5,1-1.1,1C207.8,120.4,207.8,120.4,207.8,120.4 M6.2,113.7c0-0.6,0.4-1.1,1-1.1
			c0.6,0,1.1,0.4,1.1,1v0c0,0.6-0.4,1.1-1,1.1c0,0,0,0-0.1,0C6.7,114.8,6.2,114.3,6.2,113.7 M208.3,114.6c-0.6,0-1-0.5-1-1.1
			c0-0.6,0.5-1.1,1.1-1c0.6,0,1,0.5,1,1.1C209.4,114.2,208.9,114.6,208.3,114.6C208.3,114.6,208.3,114.6,208.3,114.6 M6,107.9
			L6,107.9c0-0.6,0.5-1.1,1.1-1.1c0.6,0,1.1,0.5,1.1,1.1c0,0.6-0.5,1.1-1.1,1.1C6.5,109,6,108.5,6,107.9 M207.4,107.8
			c0,0,0-0.1,0-0.1c0,0,0-0.1,0-0.1v0c0-0.6,0.5-1.1,1.1-1.1c0.6,0,1.1,0.5,1.1,1.1c0,0,0,0.1,0,0.1c0,0,0,0.1,0,0.1
			c0,0.6-0.5,1.1-1.1,1.1S207.4,108.4,207.4,107.8 M7.2,103.3c-0.6,0-1-0.5-1-1.1c0-0.6,0.5-1,1.1-1c0.6,0,1,0.5,1,1.1h0
			C8.3,102.8,7.8,103.3,7.2,103.3C7.2,103.3,7.2,103.3,7.2,103.3 M207.3,101.9c0-0.6,0.4-1.1,1-1.1c0.6,0,1.1,0.4,1.1,1h0
			c0,0.6-0.4,1.1-1,1.1h-0.1C207.8,102.9,207.3,102.5,207.3,101.9 M7.6,97.5c-0.6-0.1-1-0.6-1-1.2c0.1-0.6,0.6-1,1.2-1
			c0.6,0.1,1,0.6,1,1.2h0c-0.1,0.6-0.5,1-1.1,1C7.7,97.5,7.6,97.5,7.6,97.5 M206.8,96.2c-0.1-0.6,0.4-1.1,0.9-1.2
			c0.6-0.1,1.1,0.4,1.2,0.9c0.1,0.6-0.4,1.1-0.9,1.2c0,0-0.1,0-0.1,0C207.3,97.2,206.8,96.8,206.8,96.2 M8.3,91.8
			c-0.6-0.1-1-0.7-0.9-1.2c0.1-0.6,0.7-1,1.2-0.9c0.6,0.1,1,0.7,0.9,1.2c-0.1,0.5-0.5,0.9-1.1,0.9C8.5,91.8,8.4,91.8,8.3,91.8
			 M206,90.6c-0.1-0.6,0.3-1.1,0.9-1.2c0.6-0.1,1.1,0.3,1.2,0.9c0.1,0.6-0.3,1.1-0.9,1.2c-0.1,0-0.1,0-0.2,0
			C206.5,91.5,206.1,91.1,206,90.6 M9.4,86.2c-0.6-0.1-0.9-0.7-0.8-1.3c0.1-0.6,0.7-0.9,1.3-0.8c0.6,0.1,0.9,0.7,0.8,1.3
			c-0.1,0.5-0.6,0.8-1,0.8C9.6,86.2,9.5,86.2,9.4,86.2 M204.8,85c-0.1-0.6,0.2-1.2,0.8-1.3c0.6-0.1,1.2,0.2,1.3,0.8
			c0.1,0.6-0.2,1.2-0.8,1.3c-0.1,0-0.2,0-0.2,0C205.4,85.8,204.9,85.5,204.8,85 M10.8,80.6c-0.6-0.2-0.9-0.8-0.7-1.3
			c0.2-0.6,0.8-0.9,1.3-0.7c0.6,0.2,0.9,0.8,0.7,1.3c-0.1,0.5-0.6,0.8-1,0.8C11,80.6,10.9,80.6,10.8,80.6 M203.4,79.5
			c-0.2-0.6,0.2-1.2,0.7-1.3c0.6-0.2,1.2,0.2,1.3,0.7c0.2,0.6-0.2,1.2-0.7,1.3c-0.1,0-0.2,0-0.3,0C203.9,80.3,203.5,80,203.4,79.5
			 M12.5,75.1c-0.6-0.2-0.9-0.8-0.7-1.4c0.2-0.6,0.8-0.9,1.4-0.7c0.6,0.2,0.9,0.8,0.7,1.4c-0.2,0.4-0.6,0.7-1,0.7
			C12.7,75.2,12.6,75.1,12.5,75.1 M201.6,74.1c-0.2-0.6,0.1-1.2,0.6-1.4c0.6-0.2,1.2,0.1,1.4,0.7c0.2,0.6-0.1,1.2-0.7,1.4
			c-0.1,0-0.2,0.1-0.4,0.1C202.2,74.8,201.8,74.5,201.6,74.1 M14.5,69.7c-0.5-0.2-0.8-0.9-0.6-1.4c0.2-0.5,0.9-0.8,1.4-0.6
			c0.5,0.2,0.8,0.9,0.6,1.4c-0.2,0.4-0.6,0.7-1,0.7C14.8,69.8,14.7,69.8,14.5,69.7 M199.5,68.8c-0.2-0.5,0-1.2,0.6-1.4
			c0.5-0.2,1.2,0,1.4,0.6c0.2,0.5,0,1.2-0.6,1.4c-0.1,0.1-0.3,0.1-0.4,0.1C200.1,69.5,199.7,69.2,199.5,68.8 M16.9,64.4
			c-0.5-0.3-0.8-0.9-0.5-1.4v0c0.3-0.5,0.9-0.8,1.4-0.5c0.5,0.3,0.8,0.9,0.5,1.4c-0.2,0.4-0.6,0.6-1,0.6
			C17.2,64.5,17,64.5,16.9,64.4 M197.2,63.7c-0.3-0.5,0-1.2,0.5-1.4c0.5-0.3,1.2,0,1.4,0.5c0.3,0.5,0,1.2-0.5,1.4
			c-0.2,0.1-0.3,0.1-0.5,0.1C197.7,64.3,197.3,64,197.2,63.7 M19.5,59.3c-0.5-0.3-0.7-0.9-0.4-1.5c0.3-0.5,1-0.7,1.5-0.4
			c0.5,0.3,0.7,0.9,0.4,1.5c-0.2,0.4-0.6,0.5-0.9,0.5C19.8,59.4,19.7,59.4,19.5,59.3 M194.5,58.6L194.5,58.6
			c-0.3-0.5-0.1-1.2,0.4-1.5c0.5-0.3,1.2-0.1,1.5,0.4l0,0c0.3,0.5,0.1,1.2-0.4,1.5c-0.2,0.1-0.4,0.1-0.5,0.1
			C195.1,59.2,194.7,59,194.5,58.6 M22.4,54.3c-0.5-0.3-0.6-1-0.3-1.5v0c0.3-0.5,1-0.6,1.5-0.3c0.5,0.3,0.6,1,0.3,1.5
			c-0.2,0.3-0.6,0.5-0.9,0.5C22.8,54.5,22.6,54.5,22.4,54.3 M191.5,53.8c-0.3-0.5-0.2-1.2,0.3-1.5c0.5-0.3,1.2-0.2,1.5,0.3h0
			c0.3,0.5,0.2,1.2-0.3,1.5c-0.2,0.1-0.4,0.2-0.6,0.2C192.1,54.3,191.7,54.1,191.5,53.8 M25.6,49.6c-0.5-0.4-0.6-1-0.2-1.5h0
			c0.3-0.5,1-0.6,1.5-0.2c0.5,0.3,0.6,1,0.2,1.5c-0.2,0.3-0.5,0.4-0.9,0.4C26,49.8,25.8,49.7,25.6,49.6 M188.3,49.1L188.3,49.1
			c-0.4-0.5-0.2-1.2,0.2-1.5c0.5-0.4,1.2-0.2,1.5,0.2c0.4,0.5,0.2,1.2-0.2,1.5c-0.2,0.1-0.4,0.2-0.6,0.2
			C188.9,49.5,188.5,49.4,188.3,49.1 M29.1,45c-0.5-0.4-0.5-1.1-0.2-1.5c0.4-0.5,1.1-0.5,1.5-0.2c0.5,0.4,0.5,1.1,0.2,1.5
			c-0.2,0.3-0.5,0.4-0.8,0.4C29.5,45.2,29.3,45.1,29.1,45 M184.8,44.6L184.8,44.6c-0.4-0.5-0.3-1.1,0.1-1.5c0.5-0.4,1.1-0.3,1.5,0.1
			c0.4,0.5,0.3,1.1-0.2,1.5c-0.2,0.2-0.4,0.2-0.7,0.2C185.4,45,185,44.9,184.8,44.6 M32.8,40.6c-0.4-0.4-0.5-1.1-0.1-1.5
			c0.4-0.4,1.1-0.5,1.5-0.1c0.4,0.4,0.5,1.1,0.1,1.5c-0.2,0.2-0.5,0.3-0.8,0.3C33.3,40.9,33,40.8,32.8,40.6 M181.1,40.3
			c-0.4-0.4-0.4-1.1,0.1-1.5c0.4-0.4,1.1-0.4,1.5,0.1h0c0.4,0.4,0.4,1.1-0.1,1.5c-0.2,0.2-0.5,0.3-0.7,0.3
			C181.6,40.7,181.3,40.5,181.1,40.3 M36.8,36.4c-0.4-0.4-0.4-1.1,0-1.5c0.4-0.4,1.1-0.4,1.5,0c0.4,0.4,0.4,1.1,0,1.5
			c-0.2,0.2-0.5,0.3-0.8,0.3C37.2,36.7,37,36.6,36.8,36.4 M177.1,36.2c-0.4-0.4-0.4-1.1,0-1.5c0.4-0.4,1.1-0.4,1.5,0
			c0.4,0.4,0.4,1.1,0,1.5c-0.2,0.2-0.5,0.3-0.8,0.3C177.6,36.5,177.3,36.4,177.1,36.2 M40.9,32.5c-0.4-0.5-0.3-1.1,0.1-1.5
			c0.4-0.4,1.1-0.3,1.5,0.1c0.4,0.4,0.3,1.1-0.1,1.5v0c-0.2,0.2-0.5,0.3-0.7,0.3C41.5,32.8,41.2,32.7,40.9,32.5 M172.9,32.4
			L172.9,32.4c-0.4-0.4-0.5-1.1-0.1-1.5c0.4-0.5,1.1-0.5,1.5-0.1c0.5,0.4,0.5,1.1,0.1,1.5c-0.2,0.2-0.5,0.4-0.8,0.4
			C173.4,32.7,173.1,32.6,172.9,32.4 M45.3,28.8c-0.4-0.5-0.3-1.1,0.2-1.5c0.5-0.4,1.1-0.3,1.5,0.2c0.4,0.5,0.3,1.1-0.2,1.5
			c-0.2,0.2-0.4,0.2-0.7,0.2C45.9,29.2,45.6,29,45.3,28.8 M168.5,28.8L168.5,28.8c-0.5-0.4-0.6-1-0.2-1.5c0.4-0.5,1-0.6,1.5-0.2
			c0.5,0.4,0.6,1,0.2,1.5c-0.2,0.3-0.5,0.4-0.9,0.4C168.9,29,168.7,28.9,168.5,28.8 M50,25.3c-0.3-0.5-0.2-1.2,0.3-1.5
			c0.5-0.3,1.2-0.2,1.5,0.3c0.3,0.5,0.2,1.2-0.3,1.5c-0.2,0.1-0.4,0.2-0.6,0.2C50.5,25.8,50.2,25.6,50,25.3 M163.9,25.5
			c-0.5-0.3-0.6-1-0.3-1.5c0.3-0.5,1-0.6,1.5-0.3s0.6,1,0.3,1.5c-0.2,0.3-0.5,0.5-0.9,0.5C164.3,25.6,164.1,25.6,163.9,25.5
			 M54.7,22.2c-0.3-0.5-0.1-1.2,0.4-1.5c0.5-0.3,1.2-0.1,1.5,0.4c0.3,0.5,0.1,1.2-0.4,1.5c-0.2,0.1-0.4,0.2-0.6,0.2
			C55.3,22.7,55,22.5,54.7,22.2 M159.1,22.4c-0.5-0.3-0.7-1-0.4-1.5c0.3-0.5,1-0.7,1.5-0.4c0.5,0.3,0.7,1,0.4,1.5
			c-0.2,0.3-0.6,0.5-0.9,0.5C159.5,22.5,159.3,22.5,159.1,22.4 M59.7,19.3c-0.3-0.5-0.1-1.2,0.4-1.5c0.5-0.3,1.2-0.1,1.5,0.4
			c0.3,0.5,0.1,1.2-0.4,1.5c-0.2,0.1-0.3,0.1-0.5,0.1C60.3,19.8,59.9,19.6,59.7,19.3 M154.2,19.6c-0.5-0.3-0.7-0.9-0.5-1.5
			c0.3-0.5,0.9-0.7,1.5-0.5s0.7,0.9,0.5,1.5c-0.2,0.4-0.6,0.6-1,0.6C154.5,19.7,154.3,19.7,154.2,19.6 M64.8,16.7
			c-0.2-0.5,0-1.2,0.5-1.4c0.5-0.2,1.2,0,1.4,0.5c0.2,0.5,0,1.2-0.5,1.4c-0.1,0.1-0.3,0.1-0.5,0.1C65.4,17.3,65,17.1,64.8,16.7
			 M149,17.1L149,17.1c-0.5-0.2-0.8-0.9-0.5-1.4c0.2-0.5,0.9-0.8,1.4-0.5c0.5,0.2,0.8,0.9,0.5,1.4c-0.2,0.4-0.6,0.6-1,0.6
			C149.3,17.2,149.2,17.1,149,17.1 M70.1,14.4c-0.2-0.6,0.1-1.2,0.6-1.4c0.6-0.2,1.2,0.1,1.4,0.6c0.2,0.6-0.1,1.2-0.6,1.4
			c-0.1,0.1-0.3,0.1-0.4,0.1C70.7,15.1,70.3,14.8,70.1,14.4 M143.8,14.9c-0.6-0.2-0.8-0.8-0.6-1.4c0.2-0.6,0.8-0.8,1.4-0.6
			c0.6,0.2,0.8,0.8,0.6,1.4c-0.2,0.4-0.6,0.7-1,0.7C144.1,14.9,143.9,14.9,143.8,14.9 M75.5,12.4c-0.2-0.6,0.1-1.2,0.7-1.4
			c0.6-0.2,1.2,0.1,1.4,0.7c0.2,0.6-0.1,1.2-0.7,1.4c-0.1,0-0.2,0.1-0.3,0.1C76.1,13.1,75.6,12.8,75.5,12.4 M138.4,13
			c-0.6-0.2-0.9-0.8-0.7-1.4c0.2-0.6,0.8-0.9,1.4-0.7c0.6,0.2,0.9,0.8,0.7,1.4c-0.1,0.5-0.6,0.7-1,0.7C138.6,13,138.5,13,138.4,13
			 M81,10.7c-0.2-0.6,0.2-1.2,0.8-1.3c0.6-0.2,1.2,0.2,1.3,0.8c0.2,0.6-0.2,1.2-0.8,1.3v0c-0.1,0-0.2,0-0.3,0
			C81.5,11.5,81.1,11.2,81,10.7 M133,11.4c-0.6-0.2-0.9-0.7-0.8-1.3c0.2-0.6,0.7-0.9,1.3-0.8c0.6,0.1,0.9,0.7,0.8,1.3
			c-0.1,0.5-0.6,0.8-1,0.8C133.1,11.4,133,11.4,133,11.4 M86.6,9.3c-0.1-0.6,0.3-1.2,0.8-1.3v0c0.6-0.1,1.2,0.3,1.3,0.8
			c0.1,0.6-0.3,1.2-0.8,1.3c-0.1,0-0.1,0-0.2,0C87.1,10.2,86.7,9.8,86.6,9.3 M127.4,10.1c-0.6-0.1-1-0.7-0.8-1.3
			c0.1-0.6,0.7-1,1.3-0.8c0.6,0.1,1,0.7,0.8,1.3c-0.1,0.5-0.6,0.9-1.1,0.9C127.6,10.1,127.5,10.1,127.4,10.1 M92.2,8.3
			c-0.1-0.6,0.3-1.1,0.9-1.2C93.7,7,94.3,7.4,94.4,8c0.1,0.6-0.3,1.1-0.9,1.2c-0.1,0-0.1,0-0.2,0C92.8,9.2,92.3,8.8,92.2,8.3
			 M121.8,9.1c-0.6-0.1-1-0.6-0.9-1.2c0.1-0.6,0.6-1,1.2-0.9c0.6,0.1,1,0.6,0.9,1.2c-0.1,0.5-0.5,0.9-1.1,0.9
			C121.9,9.1,121.9,9.1,121.8,9.1 M97.9,7.6c-0.1-0.6,0.4-1.1,1-1.2c0.6-0.1,1.1,0.4,1.2,1c0.1,0.6-0.4,1.1-1,1.2c0,0-0.1,0-0.1,0
			C98.4,8.5,98,8.1,97.9,7.6 M116.2,8.5L116.2,8.5c-0.6,0-1-0.6-1-1.2c0-0.6,0.6-1,1.2-1c0.6,0.1,1,0.6,1,1.2
			C117.3,8.1,116.8,8.5,116.2,8.5C116.2,8.5,116.2,8.5,116.2,8.5 M103.7,7.2c0-0.6,0.4-1.1,1-1.1c0.6,0,1.1,0.4,1.1,1
			c0,0.6-0.5,1.1-1,1.1h0C104.2,8.2,103.7,7.7,103.7,7.2 M110.5,8.2c-0.6,0-1.1-0.5-1-1.1c0-0.6,0.5-1.1,1.1-1c0.6,0,1.1,0.5,1,1.1
			C111.6,7.7,111.1,8.2,110.5,8.2L110.5,8.2z"/>
		<path d="M134,123.7H81.6l1.4-60.9h49.5L134,123.7z M83.1,122.3h49.5l-1.4-58.1H84.4L83.1,122.3z"/>
		<path d="M121.1,63.4H119c0-6.2-5-11.2-11.2-11.2c-6.2,0-11.2,5-11.2,11.2h-2.1c0-7.3,6-13.3,13.3-13.3
			C115.1,50.1,121.1,56.1,121.1,63.4"/>
		<path d="M107.8,90.8c-7.3,0-13.3-6-13.3-13.3v-2.1c0-0.6,0.5-1.1,1.1-1.1c0.6,0,1.1,0.5,1.1,1.1v2.1c0,6.2,5,11.2,11.2,11.2
			c6.2,0,11.2-5,11.2-11.2v-2.1c0-0.6,0.5-1.1,1.1-1.1c0.6,0,1.1,0.5,1.1,1.1v2.1C121.1,84.8,115.1,90.8,107.8,90.8"/>
		<path d="M99.4,75c-0.4,0-0.7-0.3-0.7-0.7c0-1.7-1.4-3.2-3.2-3.2c-1.7,0-3.2,1.4-3.2,3.2c0,0.4-0.3,0.7-0.7,0.7
			c-0.4,0-0.7-0.3-0.7-0.7c0-2.5,2.1-4.6,4.6-4.6c2.5,0,4.6,2.1,4.6,4.6C100.1,74.7,99.8,75,99.4,75"/>
		<path d="M123.9,75c-0.4,0-0.7-0.3-0.7-0.7c0-1.7-1.4-3.2-3.2-3.2s-3.2,1.4-3.2,3.2c0,0.4-0.3,0.7-0.7,0.7c-0.4,0-0.7-0.3-0.7-0.7
			c0-2.5,2.1-4.6,4.6-4.6c2.5,0,4.6,2.1,4.6,4.6C124.6,74.7,124.3,75,123.9,75"/>
		<path class="st6" d="M132.2,142.3c-1.7-0.7-3.1-1.2-3.1-2.6c0-1.4,1.5-2.5,3-2.5c1.6,0,2.8,0.7,3.7,1.8l2.2-3
			c-1.5-1.5-4.5-2.5-6.7-2.5c-4.1,0-7.2,3-7.2,6.6c0,0.9,0.1,1.5,0.4,2.1H132.2z"/>
		<path class="st6" d="M133.2,148.1c0.4,0.5,0.7,1.1,0.7,1.8c0,1.7-1.2,3.2-3.2,3.2c-2.1,0-3.8-1.5-4.4-3.2l-3.1,2.7
			c1.7,2.6,4.2,4.3,7.6,4.3c5,0,8.1-3.1,8.1-7.6c0-0.4,0-0.9-0.1-1.2H133.2z"/>
		<path class="st6" d="M84.4,148.1c1.2,2.4,3.7,4,6.6,4c1.9,0,3.6-0.7,4.9-1.8l0.9-0.7l3.3,3.5l-1.4,1.3c-2.1,1.5-4.7,2.4-7.5,2.4
			c-5.9,0-10.8-3.7-12.2-8.8L84.4,148.1z"/>
		<path class="st6" d="M78.8,142.3c1.2-5.3,6.3-9.2,12.4-9.2c2.9,0,6.1,1,8.8,3.3l-3.2,3.5c-1.4-1.5-3.8-2.5-5.8-2.5
			c-3.3,0-6.1,2-7,4.9H78.8z"/>
		<path class="st6" d="M101.2,142.3c1.3-5.2,6.3-9.1,12.3-9.1c2.9,0,6.1,1,8.8,3.3l-3.2,3.5c-1.4-1.5-3.8-2.5-5.8-2.5
			c-3.2,0-6,1.9-7,4.8H101.2z"/>
		<path class="st6" d="M64.4,143.7c-0.3-0.1-0.5-0.2-0.8-0.2c-1,0-1.8,0.8-1.8,1.7c0,1,0.8,1.7,1.8,1.7c0.3,0,0.5-0.1,0.8-0.2V146
			c-0.3,0.3-0.5,0.4-0.8,0.4c-0.7,0-1.1-0.5-1.1-1.1c0-0.6,0.5-1.1,1.1-1.1c0.3,0,0.5,0.1,0.8,0.4V143.7z"/>
		<path class="st6" d="M67.3,146.2l0.3,0.7h0.7l-1.4-3.4h-0.5l-1.4,3.4h0.7l0.3-0.7H67.3z M67.1,145.7h-0.9l0.5-1.2L67.1,145.7z"/>
		<polygon class="st6" points="68.7,146.9 69.3,146.9 69.7,144.9 70.6,146.9 70.7,146.9 71.6,144.9 71.9,146.9 72.6,146.9 72,143.5 
			71.6,143.5 70.7,145.7 69.7,143.5 69.3,143.5 		"/>
		<path class="st6" d="M75.4,146.2l0.3,0.7h0.7l-1.4-3.4h-0.5l-1.4,3.4h0.7l0.3-0.7H75.4z M75.2,145.7h-0.9l0.5-1.2L75.2,145.7z"/>
		<path class="st6" d="M78.3,145.5c0.5-0.1,0.8-0.4,0.8-0.9c0-0.6-0.4-1-1.2-1h-1v3.3h0.6v-1.3h0.1l0.9,1.3h0.8L78.3,145.5z
			 M77.6,145.1v-1h0.2c0.4,0,0.6,0.2,0.6,0.5c0,0.3-0.2,0.5-0.6,0.5H77.6z"/>
		<path class="st6" d="M82,146.2l0.3,0.7H83l-1.4-3.4h-0.5l-1.4,3.4h0.7l0.3-0.7H82z M81.8,145.7h-0.9l0.5-1.2L81.8,145.7z"/>
		<path class="st6" d="M85,146.9h0.9c0.5,0,0.9-0.1,1.2-0.4c0.4-0.3,0.6-0.8,0.6-1.3c0-1-0.7-1.7-1.8-1.7h-1V146.9z M85.6,146.3
			v-2.2h0.2c0.4,0,0.7,0.1,0.9,0.3c0.2,0.2,0.4,0.5,0.4,0.8c0,0.3-0.1,0.6-0.4,0.8c-0.2,0.2-0.5,0.3-0.9,0.3H85.6z"/>
		<polygon class="st6" points="90.4,144.1 90.4,143.6 88.6,143.6 88.6,146.9 90.4,146.9 90.4,146.3 89.2,146.3 89.2,145.4 
			90.3,145.4 90.3,144.9 89.2,144.9 89.2,144.1 		"/>
		<path class="st6" d="M95,143.7c-0.3-0.1-0.5-0.2-0.8-0.2c-1,0-1.8,0.8-1.8,1.7c0,1,0.8,1.7,1.8,1.7c0.3,0,0.5-0.1,0.8-0.2V146
			c-0.3,0.3-0.5,0.4-0.8,0.4c-0.7,0-1.1-0.5-1.1-1.1c0-0.6,0.5-1.1,1.1-1.1c0.3,0,0.5,0.1,0.8,0.4V143.7z"/>
		<path class="st6" d="M97.5,143.5c-1,0-1.8,0.8-1.8,1.7c0,1,0.8,1.7,1.8,1.7c1,0,1.8-0.8,1.8-1.7C99.2,144.3,98.5,143.5,97.5,143.5
			 M97.5,144.1c0.6,0,1.1,0.5,1.1,1.1c0,0.6-0.5,1.1-1.1,1.1c-0.6,0-1.1-0.5-1.1-1.1C96.4,144.6,96.9,144.1,97.5,144.1"/>
		<polygon class="st6" points="99.9,146.9 100.5,146.9 100.9,144.9 101.7,146.9 101.9,146.9 102.8,144.9 103.1,146.9 103.8,146.9 
			103.2,143.5 102.8,143.5 101.8,145.7 100.9,143.5 100.5,143.5 		"/>
		<polygon class="st6" points="106.4,144.1 106.4,143.6 104.6,143.6 104.6,146.9 106.4,146.9 106.4,146.3 105.2,146.3 105.2,145.4 
			106.4,145.4 106.4,144.9 105.2,144.9 105.2,144.1 		"/>
		<path class="st6" d="M108.7,145.5c0.5-0.1,0.8-0.4,0.8-0.9c0-0.6-0.4-1-1.2-1h-1v3.3h0.6v-1.3h0.1l0.9,1.3h0.8L108.7,145.5z
			 M107.9,145.1v-1h0.2c0.4,0,0.6,0.2,0.6,0.5c0,0.3-0.2,0.5-0.6,0.5H107.9z"/>
		<path class="st6" d="M112.7,143.7c-0.3-0.1-0.5-0.2-0.8-0.2c-1,0-1.8,0.8-1.8,1.7c0,1,0.8,1.7,1.8,1.7c0.3,0,0.5-0.1,0.8-0.2V146
			c-0.3,0.3-0.5,0.4-0.8,0.4c-0.7,0-1.1-0.5-1.1-1.1c0-0.6,0.5-1.1,1.1-1.1c0.3,0,0.5,0.1,0.8,0.4V143.7z"/>
		<rect x="113.5" y="143.6" class="st6" width="0.6" height="3.3"/>
		<path class="st6" d="M116.8,143.5c-1,0-1.8,0.8-1.8,1.7c0,1,0.8,1.7,1.8,1.7c1,0,1.8-0.8,1.8-1.7
			C118.5,144.3,117.8,143.5,116.8,143.5 M116.8,144.1c0.6,0,1.1,0.5,1.1,1.1c0,0.6-0.5,1.1-1.1,1.1c-0.6,0-1.1-0.5-1.1-1.1
			C115.7,144.6,116.2,144.1,116.8,144.1"/>
		<path class="st6" d="M120.8,146.9h0.9c0.5,0,0.9-0.1,1.2-0.4c0.4-0.3,0.6-0.8,0.6-1.3c0-1-0.7-1.7-1.8-1.7h-1V146.9z M121.4,146.3
			v-2.2h0.2c0.4,0,0.7,0.1,0.9,0.3c0.2,0.2,0.4,0.5,0.4,0.8c0,0.3-0.1,0.6-0.4,0.8c-0.2,0.2-0.5,0.3-0.9,0.3H121.4z"/>
		<polygon class="st6" points="126.1,144.1 126.1,143.6 124.3,143.6 124.3,146.9 126.1,146.9 126.1,146.3 125,146.3 125,145.4 
			126.1,145.4 126.1,144.9 125,144.9 125,144.1 		"/>
		<path class="st6" d="M130.3,143.9c-0.3-0.2-0.6-0.4-1-0.4c-0.6,0-1,0.4-1,1c0,0.5,0.2,0.7,0.8,0.9c0.3,0.1,0.4,0.1,0.4,0.2
			c0.1,0.1,0.2,0.2,0.2,0.3c0,0.3-0.2,0.5-0.5,0.5c-0.3,0-0.6-0.2-0.7-0.4l-0.4,0.4c0.3,0.4,0.7,0.6,1.2,0.6c0.7,0,1.1-0.4,1.1-1.1
			c0-0.5-0.2-0.8-1-1c-0.4-0.1-0.5-0.2-0.5-0.4c0-0.2,0.2-0.4,0.5-0.4c0.2,0,0.4,0.1,0.5,0.3L130.3,143.9z"/>
		<path class="st6" d="M133.2,146.2l0.3,0.7h0.7l-1.4-3.4h-0.5l-1.4,3.4h0.7l0.3-0.7H133.2z M133,145.7H132l0.5-1.2L133,145.7z"/>
		<polygon class="st6" points="134.8,146.9 135.4,146.9 135.4,144.7 137.5,147 137.9,147 137.9,143.6 137.3,143.6 137.3,145.8 
			135.2,143.5 134.8,143.5 		"/>
		<polygon class="st6" points="139.9,146.9 139.9,144.1 140.7,144.1 140.7,143.6 138.5,143.6 138.5,144.1 139.3,144.1 139.3,146.9 
					"/>
		<rect x="141.3" y="143.6" class="st6" width="0.6" height="3.3"/>
		<path class="st6" d="M144.9,146.2l0.3,0.7h0.7l-1.4-3.4H144l-1.4,3.4h0.7l0.3-0.7H144.9z M144.7,145.7h-0.9l0.5-1.2L144.7,145.7z"
			/>
		<path class="st6" d="M148.1,145.1v0.6h0.8c0,0.4-0.4,0.7-0.9,0.7c-0.6,0-1.1-0.5-1.1-1.1c0-0.7,0.5-1.2,1.1-1.2
			c0.4,0,0.7,0.2,0.9,0.5l0.6-0.3c-0.3-0.5-0.8-0.8-1.4-0.8c-1,0-1.8,0.7-1.8,1.8c0,1,0.7,1.7,1.7,1.7c1,0,1.6-0.7,1.6-1.7v-0.1
			H148.1z"/>
		<path class="st6" d="M152,143.5c-1,0-1.8,0.8-1.8,1.7c0,1,0.8,1.7,1.8,1.7c1,0,1.8-0.8,1.8-1.7C153.8,144.3,153,143.5,152,143.5
			 M152,144.1c0.6,0,1.1,0.5,1.1,1.1c0,0.6-0.5,1.1-1.1,1.1c-0.6,0-1.1-0.5-1.1-1.1C150.9,144.6,151.4,144.1,152,144.1"/>
		<path class="st6" d="M106.7,148.3c1.2,2.4,3.7,4,6.6,4c1.9,0,3.6-0.7,4.9-1.8l0.9-0.7l3.3,3.5l-1.4,1.3c-2.1,1.5-4.7,2.4-7.5,2.4
			c-5.9,0-10.8-3.7-12.2-8.8L106.7,148.3z"/>
		<path d="M36.5,92.3L35,104.2c-5.3-0.7-10.6-1.4-16-2.1l1.6-11.9l2.9,0.4l-1.2,9L26,100l1.1-8.6l2.8,0.4l-1.1,8.6l3.6,0.5l1.2-9
			L36.5,92.3z"/>
		<polygon points="31.4,71.6 36,79.1 35.7,79.7 27.3,81.8 38.2,86.2 37.1,89 22.1,83 23.4,79.8 31.7,77.6 27.2,70.4 28.4,67.2 
			43.4,73.2 42.3,76 		"/>
		<path d="M46.1,61l-2.7,3.7l3.8,2.8l-1.8,2.4l-12.9-9.6c1.5-2,3-4.1,4.5-6.1C41.6,47.9,50.8,54.7,46.1,61 M41.2,63l2.7-3.7
			c2.3-3.1-2.3-6.5-4.6-3.4l-2.7,3.7L41.2,63z"/>
		<path d="M66.4,47.6l-2.7,2.3l-7.1-1l-2.2,1.9l3.5,4.1l-2.3,2L45.1,44.6c1.9-1.7,3.9-3.3,5.8-5c2.9-2.4,6.1-1.8,7.9,0.3
			c1.4,1.7,2.1,4,0.2,6.5l7.3,1L66.4,47.6z M49.2,44.8l3.3,3.9l3.5-3c1.5-1.3,1.3-2.8,0.4-3.7c-0.8-1-2.3-1.4-3.8-0.2L49.2,44.8z"/>
		<path d="M79,40.8l-10.6,5.7c-2.5-4.7-5-9.5-7.6-14.2l10.6-5.7l1.4,2.6l-8,4.2l1.7,3.3l7.7-4.1l1.3,2.5l-7.7,4.1l1.7,3.2l8-4.2
			L79,40.8z"/>
		<path d="M88.9,25c-0.8-0.7-2.5-1.2-4.2-0.7c-2.2,0.6-3,1.8-2.7,2.9c0.4,1.4,2.1,1.3,4,1c3.3-0.5,6.6-0.5,7.6,3.3
			c0.9,3.5-1.7,5.8-5.2,6.7c-3.2,0.9-5.9,0.5-7.8-2l2.1-1.9c1.2,1.5,3.2,1.8,5,1.3c1.8-0.5,3.4-1.6,2.9-3.3
			c-0.4-1.5-2.1-1.6-4.2-1.3c-3.3,0.5-6.4,0.4-7.4-3.1c-0.9-3.2,1.9-5.4,4.8-6.2c2.4-0.7,5.1-0.6,6.9,1.4L88.9,25z"/>
		<path d="M109.5,32l-8.4,0.2l-1.3,3.1l-3.3,0.1l6.8-16.3l3.3-0.1l7.7,15.9L111,35L109.5,32z M105.1,22.5l-2.8,6.9l6-0.2L105.1,22.5
			z"/>
		<path d="M140,33.4c-1.3,4-5,7.1-10.4,5.4c-5.4-1.7-6.6-6.4-5.3-10.4c1.3-4,5.2-7.3,10.5-5.6C140,24.5,141.3,29.4,140,33.4
			 M127.1,29.4c-0.7,2.5-0.2,5.7,3.4,6.8c3.6,1.2,5.8-1.1,6.7-3.6c0.9-2.6,0.4-5.9-3.3-7.1C130.2,24.3,127.8,26.7,127.1,29.4"/>
		<polygon points="140.4,42.6 148.7,28.8 158.6,34.8 157.1,37.3 149.8,32.9 147.5,36.6 154.4,40.8 153,43.2 146,39 143,44.1 		"/>
		<rect x="151.3" y="44.2" transform="matrix(0.6417 -0.767 0.767 0.6417 22.0686 138.5909)" width="16.1" height="3"/>
		<path d="M169.4,64.8c-2.3-0.2-4.3-1.3-5.8-3.1c-3.9-4.5-2.5-9.1,0.7-11.9c3.2-2.8,8.2-3.5,12,0.9c1.4,1.7,2.2,3.8,2,6.1l-2.8-0.3
			c0.1-1.5-0.5-2.9-1.4-3.9c-2.5-2.9-5.8-2.3-7.9-0.5c-2,1.8-3.1,4.7-0.5,7.8c0.9,1.1,2.4,1.9,3.9,2L169.4,64.8z"/>
		<rect x="168.8" y="64.4" transform="matrix(0.8562 -0.5166 0.5166 0.8562 -8.6327 100.8323)" width="16.1" height="3"/>
		<path d="M179.9,84.3l-3-7.9l-3.3-0.2l-1.2-3.1l17.6,1l1.2,3.1l-12.4,12.5l-1.2-3.1L179.9,84.3z M187.4,76.9l-7.5-0.3l2.1,5.6
			L187.4,76.9z"/>
		<polygon points="195.4,93.2 182.3,95 183.4,103.2 180.6,103.6 179.1,92.4 195,90.2 		"/>
		<path d="M31.6,151.3c-2.2-0.8-3.8-2.4-4.7-4.6c-2.5-5.4,0.2-9.5,4-11.2c3.8-1.8,8.8-1.1,11.3,4.2c0.9,2,1,4.2,0.2,6.4l-2.6-1
			c0.5-1.4,0.3-2.9-0.2-4.2c-1.6-3.5-5-3.8-7.4-2.7c-2.4,1.1-4.3,3.7-2.6,7.3c0.6,1.3,1.8,2.5,3.2,3L31.6,151.3z"/>
		<polygon points="44.1,156.1 52,155.5 54.2,158.4 54.1,158.5 42.8,159 37.5,163 35.7,160.6 41,156.6 44.6,146 44.7,146 46.9,148.8 
					"/>
		<path d="M62.6,171.6c-0.8,1-2,1.5-3.6,1c1.1,1.7,0.3,3.6-0.3,4.4c-2.3,2.7-5.1,1.9-7.7-0.2c-2-1.6-3.9-3.3-5.8-4.9l10.3-12.3
			c1.9,1.6,3.9,3.3,5.8,4.9C63.8,166.5,64.6,169.1,62.6,171.6 M49.2,171.7l3.6,3c1,0.8,2.6,1.6,3.5,0.5c0.9-1.1,0.1-2.8-0.9-3.6
			l-3.6-3L49.2,171.7z M53.6,166.4l3.6,3c1.5,1.2,2.5,1,3,0.3c0.5-0.6,0.8-1.9-0.7-3.1l-3.6-3L53.6,166.4z"/>
		<path d="M71.3,189.6L60.6,184c2.5-4.7,5-9.5,7.5-14.2l10.6,5.6l-1.4,2.6l-8-4.2l-1.7,3.3l7.7,4.1l-1.3,2.5l-7.7-4.1l-1.7,3.2
			l8,4.2L71.3,189.6z"/>
		<path d="M90.9,195.9l-3.5-1l-3.1-6.5l-2.8-0.8l-1.5,5.2l-2.9-0.8l4.4-15.5c2.5,0.7,4.9,1.4,7.4,2.1c3.6,1.1,4.9,4,4.1,6.7
			c-0.6,2.1-2.2,4-5.3,3.8l3.2,6.6L90.9,195.9z M83.7,180.1l-1.4,5l4.4,1.3c1.9,0.5,3-0.5,3.4-1.7c0.3-1.2-0.1-2.7-2-3.2L83.7,180.1
			z"/>
		<polygon points="110.7,185.7 105.3,192.5 104.7,192.5 99.7,185.3 99.4,197 96.4,196.9 96.8,180.8 100.3,180.9 105.2,188 
			110.4,181.2 113.9,181.3 113.4,197.4 110.4,197.3 		"/>
		<path d="M134.3,185.3c0.9,4.1-0.6,8.7-6.1,10c-5.5,1.3-9-2.1-10-6.2c-1-4.1,0.7-8.9,6.1-10.2C129.7,177.6,133.3,181.2,134.3,185.3
			 M121.1,188.4c0.7,2.6,2.7,5,6.4,4.1c3.7-0.9,4.4-4,3.9-6.6c-0.6-2.7-2.7-5.3-6.4-4.4C121.2,182.5,120.4,185.8,121.1,188.4"/>
		<polygon points="144.2,171.5 146.9,170.1 154.3,184.5 152.6,185.3 152.6,185.3 140.1,179.5 145,189.2 142.3,190.6 135,176.2 
			137.2,175.1 148.8,180.4 		"/>
		<path d="M165.6,165.3c2.7,3.1,3.4,7.8-0.9,11.4c-1.5,1.3-3.3,2.8-4.8,4.1l-10.4-12.3c1.5-1.3,3.3-2.8,4.8-4.1
			C158.6,160.9,163,162.3,165.6,165.3 M160.3,176.6l2.5-2.1c2.8-2.4,2.2-5.3,0.4-7.3c-1.7-1.9-4.4-2.8-7.1-0.6l-2.5,2.1L160.3,176.6
			z"/>
		<path d="M179.5,156.1l-5,6.8l1.6,2.9l-2,2.6l-8.6-15.4l2-2.7l17.2,3.8l-2,2.7L179.5,156.1z M169.2,153.7l3.7,6.5l3.6-4.8
			L169.2,153.7z"/>
		<polygon points="180.2,141.7 176,135 177.6,131.7 177.7,131.8 183.4,141.5 189.4,144.3 188.1,147.1 182.1,144.3 171.1,145.9 
			170.9,145.9 172.5,142.6 		"/>
		<polygon points="187.6,112.4 189.1,115.4 192.4,115.8 190,118.2 190.6,121.5 187.6,119.9 184.6,121.5 185.2,118.2 182.8,115.8 
			186.1,115.4 		"/>
		<polygon points="25.4,112.4 26.9,115.4 30.2,115.8 27.8,118.2 28.4,121.5 25.4,119.9 22.5,121.5 23,118.2 20.6,115.8 24,115.4 		
			"/>
	</g>
</g>
</svg>
