<?xml version="1.0" encoding="utf-8"?>
<!-- Generator: Adobe Illustrator 25.0.0, SVG Export Plug-In . SVG Version: 6.00 Build 0)  -->
<svg version="1.1" id="Capa_1" xmlns="http://www.w3.org/2000/svg" xmlns:xlink="http://www.w3.org/1999/xlink" x="0px" y="0px"
	 viewBox="0 0 32 32" style="enable-background:new 0 0 32 32;" xml:space="preserve">
<style type="text/css">
	.st0{fill:#FFFFFF;}
</style>
<g id="Grupo_37" transform="translate(-899.52 -165.474)">
	<path id="Trazado_277" class="st0" d="M904.8,169.5c1.1,0.6,2.2,1.3,3.3,1.9c0.2,0.1,0.4,0.3,0.3,0.5c-0.2,0.6,0,1.4,0.5,1.7
		c2.5,2.4,4.9,4.9,7.4,7.4c0.1,0.1,0.2,0.3,0.3,0.4c0.2-0.3,0.4-0.5,0.6-0.7c0.3-0.4,0.9-0.4,1.3-0.1c0,0,0.1,0.1,0.1,0.1
		c0.6,0.5,0.6,0.7,0.3,1.5c0.3,0.3,0.7,0.6,1.1,0.9c0.1,0.1,0.2,0.1,0.3,0.1c0.5-0.1,1.1,0.1,1.5,0.5c1.7,1.7,3.4,3.4,5,5.1
		c1,1,0.9,2.6-0.1,3.6c0,0-0.1,0.1-0.1,0.1c-1,1-2.6,1.1-3.7,0.1c0,0,0,0,0,0c-1.2-1.1-2.3-2.3-3.4-3.4c-0.5-0.5-1-1-1.5-1.5
		c-0.4-0.4-0.6-1-0.6-1.5c0-0.1,0-0.2-0.1-0.3c-0.3-0.3-0.6-0.6-0.9-0.9c-0.6,0.3-1.4,0.1-1.8-0.6c-0.1-0.1-0.1-0.2-0.1-0.4
		c0-0.3,0.1-0.6,0.3-0.8c0.2-0.2,0.4-0.4,0.6-0.7c-0.1-0.1-0.1-0.2-0.2-0.2c-2.6-2.6-5.3-5.3-7.9-7.9c-0.2-0.2-0.4-0.3-0.6-0.2
		c-0.3,0.1-0.7,0.2-1,0.1s-0.4-0.5-0.5-0.8l-1.6-2.7v-0.1L904.8,169.5L904.8,169.5z M925.6,191c-0.1-0.1-0.2-0.3-0.3-0.4
		c-1.7-1.7-3.4-3.4-5.2-5.2c0-0.1-0.1-0.1-0.2-0.1c-0.2-0.2-0.5-0.2-0.7,0c-0.2,0.2-0.2,0.4,0,0.6c0,0,0,0,0,0
		c0.1,0.1,0.1,0.1,0.2,0.2c1.7,1.7,3.4,3.4,5.1,5.1c0.1,0.1,0.2,0.2,0.3,0.3C925.2,191.7,925.6,191.4,925.6,191L925.6,191z"/>
	<path id="Trazado_278" class="st0" d="M923.4,169.7c-0.1,0.1-0.2,0.2-0.3,0.3c-0.8,0.8-1.5,1.5-2.3,2.3c-0.4,0.3-0.5,0.9-0.2,1.3
		c0.1,0.1,0.1,0.1,0.2,0.2c0.8,0.8,1.6,1.6,2.5,2.5c0.3,0.4,0.9,0.5,1.3,0.2c0.1-0.1,0.2-0.1,0.2-0.2c1-1,2.5-2.5,2.5-2.5
		c0.2,0.4,0.2,0.7,0.2,1.1c-0.2,1.9-1.1,3.6-2.5,4.9c-0.9,0.8-2.1,1-3.2,0.6c-0.4-0.1-0.7-0.3-1.1-0.5c-0.2-0.1-0.3-0.1-0.4,0.1
		c-0.2,0.2-0.4,0.4-0.6,0.7c-0.6-1-1.9-1.3-2.9-0.6c-0.1,0-0.1,0.1-0.2,0.1l-1.4-1.5c0.6-0.6,1.1-1.1,1.7-1.7
		c0.2-0.1,0.3-0.4,0.1-0.6c0,0,0,0,0-0.1c-0.5-0.7-0.7-1.6-0.7-2.4c0-1,0.5-1.9,1.3-2.5c1.2-1,2.6-1.6,4.2-1.8
		C922.4,169.5,922.9,169.5,923.4,169.7z"/>
	<path id="Trazado_279" class="st0" d="M903.5,188.3c0.1-0.2,0.1-0.5,0.2-0.7c0.6-2.3,2.9-3.7,5.2-3.3c0.2,0.1,0.5,0,0.6-0.2
		c1-1,2-2,3-3l1.6,1.6c-0.8,1-0.4,2,0.5,2.9c-0.6,0.6-1.2,1.2-1.7,1.7c-0.2,0.1-0.2,0.4-0.2,0.6c0.6,2.5-0.9,5-3.4,5.5
		c-2.5,0.6-5-0.9-5.5-3.4c0-0.1-0.1-0.2-0.1-0.4c0-0.1,0-0.1-0.1-0.2L903.5,188.3z M910.5,188.3c0-0.1-0.1-0.1-0.1-0.2
		c-0.5-0.5-1-1-1.5-1.5c-0.1-0.1-0.2-0.1-0.3-0.1c-0.7,0.2-1.3,0.3-2,0.5c-0.1,0-0.2,0.1-0.3,0.3c-0.2,0.7-0.4,1.3-0.5,2
		c0,0.1,0,0.2,0.1,0.3c0.5,0.5,1,1,1.5,1.5c0.1,0.1,0.2,0.1,0.3,0.1c0.7-0.2,1.3-0.3,2-0.5c0.1,0,0.2-0.1,0.2-0.2
		C910.1,189.7,910.3,189,910.5,188.3z"/>
	<path id="Trazado_280" class="st0" d="M904.7,169.5l-1.2,1.2v-1.2H904.7z"/>
</g>
</svg>
