<?xml version="1.0" encoding="utf-8"?>
<!-- Generator: Adobe Illustrator 25.0.0, SVG Export Plug-In . SVG Version: 6.00 Build 0)  -->
<svg version="1.1" id="Capa_1" xmlns="http://www.w3.org/2000/svg" xmlns:xlink="http://www.w3.org/1999/xlink" x="0px" y="0px"
	 viewBox="0 0 32 32" style="enable-background:new 0 0 32 32;" xml:space="preserve">
<style type="text/css">
	.st0{fill:#FFFFFF;}
</style>
<g id="Grupo_36" transform="translate(-609.415 -168.512)">
	<path id="Trazado_275" class="st0" d="M625.5,177.4c0.1,0.1,0.1,0.2,0.2,0.3c3.3,3.3,6.5,6.5,9.8,9.8c0.2,0.2,0.3,0.4,0.3,0.7
		c0,1.5,0,3,0,4.5c0.1,1.6-1,2.9-2.6,3.1c-0.2,0-0.3,0-0.5,0c-4.9,0-9.8,0-14.7,0c-1.4,0.1-2.6-0.9-2.9-2.2
		c-0.1-0.3-0.1-0.6-0.1-0.8c0-1.6,0-3.1,0-4.7c0-0.2,0.1-0.4,0.2-0.5c3.3-3.4,6.7-6.7,10-10C625.3,177.5,625.3,177.5,625.5,177.4z
		 M622.6,190.1c0,0.9,0,1.8,0,2.6c0,0.8,0.4,1.1,1.1,1.1c1.1,0,2.3,0,3.4,0c0.5,0.1,1-0.3,1.1-0.8c0-0.1,0-0.2,0-0.3
		c0-1.8,0-3.5,0-5.3c0.1-0.5-0.3-1-0.8-1.1c-0.1,0-0.2,0-0.3,0c-1.1,0-2.3,0-3.5,0c-0.8,0-1.1,0.4-1.1,1.1
		C622.6,188.4,622.6,189.3,622.6,190.1L622.6,190.1z"/>
	<path id="Trazado_276" class="st0" d="M631,178.6c0-1.4,0-2.7,0-4c0-0.2,0-0.4,0-0.6c0-0.5,0.4-0.8,0.9-0.8c0.3,0,0.5,0,0.8,0
		c0.5-0.1,1,0.3,1.1,0.8c0,0.1,0,0.2,0,0.3c0,1.4,0,2.8,0,4.2c0,0.9,0,1.8,0,2.7c0,0.2,0.1,0.4,0.2,0.5c1,1,2,2,3,3
		c0.4,0.3,0.5,0.9,0.1,1.3c0,0-0.1,0.1-0.1,0.1c-0.3,0.3-0.8,0.4-1.2,0.1c-0.1-0.1-0.2-0.2-0.3-0.3l-9.9-9.9
		c-0.1-0.1-0.2-0.2-0.3-0.3c-0.1,0.1-0.2,0.2-0.3,0.3l-9.9,9.9c-0.5,0.5-1.1,0.6-1.5,0.2s-0.4-1,0.2-1.5l10.6-10.6
		c0.7-0.7,1.1-0.7,1.8,0l4.4,4.4C630.8,178.4,630.9,178.5,631,178.6z"/>
</g>
</svg>
