<?xml version="1.0" encoding="utf-8"?>
<!-- Generator: Adobe Illustrator 25.0.0, SVG Export Plug-In . SVG Version: 6.00 Build 0)  -->
<svg version="1.1" id="Capa_1" xmlns="http://www.w3.org/2000/svg" xmlns:xlink="http://www.w3.org/1999/xlink" x="0px" y="0px"
	 viewBox="0 0 32 32" style="enable-background:new 0 0 32 32;" xml:space="preserve">
<style type="text/css">
	.st0{fill:none;}
	.st1{fill:#FFFFFF;}
</style>
<g id="Grupo_34" transform="translate(-419 -597)">
	<rect id="Rectángulo_54" x="419" y="597" class="st0" width="32" height="32"/>
	<path id="toolbox" class="st1" d="M445,611.9v2h-3v-3.2c2.3-0.9,3.6-3.4,2.7-5.8c-0.8-2.2-3.2-3.5-5.5-2.8l1.8,1.8v3H438l-1.8-1.8
		c-0.7,2.3,0.5,4.9,2.9,5.6v3.1h-8v-8h3v-4h-6.3l-3.7,2v2h4v8h-3v-2h-2v12h24v-12H445z M445,621.9h-20v-2h20L445,621.9z M445,617.9
		h-20v-2h20L445,617.9z"/>
</g>
</svg>
