<?xml version="1.0" encoding="utf-8"?>
<!-- Generator: Adobe Illustrator 25.0.0, SVG Export Plug-In . SVG Version: 6.00 Build 0)  -->
<svg version="1.1" id="Capa_1" xmlns="http://www.w3.org/2000/svg" xmlns:xlink="http://www.w3.org/1999/xlink" x="0px" y="0px"
	 viewBox="0 0 32 32" style="enable-background:new 0 0 32 32;" xml:space="preserve">
<style type="text/css">
	.st0{clip-path:url(#SVGID_2_);}
	.st1{fill:#FFFFFF;}
</style>
<g id="bomba" transform="translate(0 0)">
	<g>
		<defs>
			<rect id="SVGID_1_" x="2" y="5.5" width="28" height="21"/>
		</defs>
		<clipPath id="SVGID_2_">
			<use xlink:href="#SVGID_1_"  style="overflow:visible;"/>
		</clipPath>
		<g id="Grupo_38" transform="translate(0 0.001)" class="st0">
			<path id="Trazado_281" class="st1" d="M29.2,15.4c-0.4-1.2-1.5-1.9-2.7-1.7c-0.9,0.1-1.8,0-2.7,0c0.6-2.2,0.4-3.4-1.1-4.2
				c-3.1-1.9-6.6-3.2-10.1-3.8c-2-0.5-4.1,0.4-5.2,2.2c-1.1,1.7-0.9,3.9,0.4,5.4c0.1,0.1,0.1,0.2,0.1,0.4C6.3,14,4.6,13,3.3,14.5
				c-1,1.3-1.5,3-1.3,4.7c0.1,3.6,1.2,4.9,4.6,5.1c0.3,1.2,0.9,2.2,2.4,2.2c1.5,0,2.1-1,2.5-2.3h9.1c0.3,1.2,1,2.3,2.4,2.3
				s2.1-1,2.5-2.4c1.7,0.2,3.1,0,3.8-1.6C30.3,20.2,30.3,17.7,29.2,15.4 M8.9,25.2c-0.6,0-1.1-0.5-1.1-1.1c0-0.6,0.5-1.1,1.1-1.1
				c0.6,0,1.1,0.5,1.1,1.1S9.5,25.2,8.9,25.2 M11.2,13.7c-1.9-0.1-3.4-1.7-3.3-3.7c0.1-1.9,1.7-3.4,3.7-3.3c1.9,0.1,3.4,1.7,3.3,3.6
				C14.7,12.2,13.1,13.7,11.2,13.7 M14.7,13.6c1.4-1.7,1.8-4.1,0.9-6.1l4.3,1.8c-1.5,1.2-1.9,2.6-1,4.3L14.7,13.6z M21.2,13.8
				c-1,0-1.9-0.8-1.9-1.9s0.8-1.9,1.9-1.9c1,0,1.9,0.8,1.9,1.9c0,0,0,0,0,0C23.1,13,22.3,13.8,21.2,13.8 M22.9,25.2
				c-0.6,0-1.1-0.5-1.1-1.1s0.5-1.1,1.1-1.1s1.1,0.5,1.1,1.1l0,0C24,24.7,23.5,25.2,22.9,25.2"/>
		</g>
	</g>
</g>
</svg>
