<?xml version="1.0" encoding="utf-8"?>
<!-- Generator: Adobe Illustrator 25.0.0, SVG Export Plug-In . SVG Version: 6.00 Build 0)  -->
<svg version="1.1" id="Capa_1" xmlns="http://www.w3.org/2000/svg" xmlns:xlink="http://www.w3.org/1999/xlink" x="0px" y="0px"
	 viewBox="0 0 608.9 271.9" style="enable-background:new 0 0 608.9 271.9;" xml:space="preserve">
<style type="text/css">
	.st0{clip-path:url(#SVGID_2_);}
	.st1{fill:#FFFFFF;}
	.st2{clip-path:url(#SVGID_4_);}
	.st3{fill-rule:evenodd;clip-rule:evenodd;fill:#FCC030;}
	.st4{fill:#E52B24;}
	.st5{fill-rule:evenodd;clip-rule:evenodd;fill:#FFFFFF;}
	.st6{clip-path:url(#SVGID_6_);}
	.st7{clip-path:url(#SVGID_8_);}
	.st8{clip-path:url(#SVGID_10_);}
	.st9{fill:#007EB8;}
	.st10{fill:#2F292A;}
	.st11{fill:#008FCB;}
	.st12{fill:#EE3831;}
	.st13{fill:#733D96;}
	.st14{fill:#FABC1B;}
	.st15{fill:#154A8F;}
	.st16{fill:#F37A2B;}
	.st17{fill:#EA3630;}
	.st18{fill:#F9AC22;}
</style>
<g>
	<defs>
		<rect id="SVGID_1_" width="608.9" height="271.9"/>
	</defs>
	<clipPath id="SVGID_2_">
		<use xlink:href="#SVGID_1_"  style="overflow:visible;"/>
	</clipPath>
	<g id="Grupo_66" class="st0">
		<path id="Trazado_490" class="st1" d="M89.9,57l-14.7,47.8L62.5,57H47.6l-13,47.8L20.2,57H0l28.4,78.3h11.4l15-50.8l14.9,50.8
			h11.6L109.8,57H89.9z"/>
		<g id="Grupo_59" transform="translate(0 0)">
			<g>
				<defs>
					<rect id="SVGID_3_" width="608.9" height="271.9"/>
				</defs>
				<clipPath id="SVGID_4_">
					<use xlink:href="#SVGID_3_"  style="overflow:visible;"/>
				</clipPath>
				<g id="Grupo_58" class="st2">
					<path id="Trazado_491" class="st1" d="M178.9,95c0-22.5-18-40.9-40.6-41.2c-23.1,0.3-41.6,19.4-41.2,42.5
						c-0.2,22.8,18.1,41.5,40.9,41.7c0.2,0,0.3,0,0.5,0c17.1-0.2,32.2-11.2,37.6-27.4h-20.7c-3.4,6.4-10.2,10.4-17.5,10.2
						c-9.8-0.2-18.3-6.8-20.8-16.3h60.8C178.5,101.4,178.9,98.2,178.9,95 M116.4,89.4c2-10.7,11.4-18.4,22.2-18.3
						c10.8,0,20.1,7.7,21.9,18.3H116.4z"/>
					<path id="Trazado_492" class="st1" d="M194,135.3v-9.4c6.4,7.9,16.2,12.3,26.3,12.1c21.9,0,39-18.2,39-41.7
						c0-23.3-17.5-42-39.3-42c-9.2-0.3-18,3.3-24.4,9.9V30.8h-18.8v104.5H194z M217.7,71.5c13.2,0,22.9,10.5,22.9,24.4
						c0,14.4-9.4,24.8-22.6,24.8c-13.2-0.1-23.8-10.9-23.7-24.1c0-0.4,0-0.7,0-1.1c-0.2-13,10.1-23.7,23.1-24
						C217.5,71.6,217.6,71.6,217.7,71.5"/>
					<path id="Trazado_493" class="st3" d="M276.5,154.3v-32.6c5.9,6.6,14.5,10.2,23.4,9.8c21.4,0,38.4-18.2,38.4-41.1
						s-16.7-40.5-38.2-40.5c-9.7-0.3-19,4-25.1,11.6v-9h-16.8v101.8H276.5z M297.8,66.7c12.7,0.5,22.7,11.3,22.2,24
						c0.9,12.3-8.3,23.1-20.7,24c-12.3,0.9-23.1-8.3-24-20.7c-0.1-1.1-0.1-2.2,0-3.3c-0.5-12.7,9.4-23.5,22.1-24
						C297.6,66.7,297.7,66.7,297.8,66.7"/>
					<path id="Trazado_494" class="st3" d="M396.4,52.5v9.6c-6.4-7.6-15.8-12-25.7-12.2c-21.7,0-38.2,17.4-38.2,40.4
						c0,23.7,15.7,41.3,37.2,41.3c10.1-0.3,19.8-4.6,26.8-11.9v9.3h16.8V52.5H396.4z M373.5,114.7c-12.6-0.1-22.8-10.5-22.6-23.2
						c0-0.1,0-0.3,0-0.4c0-13.9,9.8-24.5,22.6-24.5c12.4,0,22.5,10,22.5,22.4c0,0.4,0,0.9,0,1.3C396,104.5,386.5,114.7,373.5,114.7"
						/>
					<path id="Trazado_495" class="st3" d="M445.8,154.3l44-101.8h-20.9l-18.5,49l-17.3-49h-21l28,69.2l-14.1,32.7L445.8,154.3z"/>
					<path id="Trazado_496" class="st4" d="M494.4,56.7c0.4-2.1,1.1-4,2.3-5.8l48.6-48.3c1.5-1.5,4-1.5,5.6,0l55.5,55.2
						c1.5,1.5,1.5,3.9,0.1,5.5c0,0,0,0-0.1,0.1l-48.6,48.3c-1.9,1.1-4,1.7-6.2,1.9h-53.3c-2.2,0-3.9-1.7-3.9-3.9V56.7z"/>
					<path id="Trazado_497" class="st1" d="M551.6,114.9h-53.3c-2.9,0-5.3-2.4-5.3-5.3v-53c0.3-2.4,1.3-4.8,2.7-6.8l48.6-48.3
						c2.1-2,5.4-2,7.5,0l55.6,55.2c2.1,2,2.1,5.4,0,7.4c0,0,0,0,0,0l-48.6,48.3C556.6,113.9,554.1,114.7,551.6,114.9 M495.8,56.7v53
						c0,1.4,1.1,2.5,2.5,2.5h53.3c1.8-0.2,3.6-0.7,5.2-1.6l48.6-48.3c1-1,1-2.5,0-3.5c0,0,0,0,0,0L549.8,3.5c-1-1-2.6-1-3.6,0
						l-48.6,48.3C496.8,53.3,496.1,55,495.8,56.7"/>
					<path id="Trazado_498" class="st5" d="M508.8,90.4v-11c2,2.2,4.9,3.4,7.9,3.3c7.4-0.2,13.2-6.4,13-13.8c0-0.1,0-0.1,0-0.2
						c0.3-7.2-5.3-13.4-12.5-13.7c-0.1,0-0.3,0-0.4,0c-3.3-0.1-6.4,1.3-8.5,3.9v-3.1h-5.7v34.5H508.8z M516,60.7
						c4.5-0.3,8.4,3.1,8.6,7.6s-3.1,8.4-7.6,8.6c-4.5,0.3-8.4-3.1-8.6-7.6c0-0.2,0-0.4,0-0.5c-0.2-4.3,3.2-7.9,7.5-8.1
						C515.9,60.7,515.9,60.7,516,60.7"/>
					<rect id="Rectángulo_81" x="531.2" y="47.3" class="st1" width="6.2" height="34.5"/>
					<path id="Trazado_499" class="st5" d="M556.8,69.2c0,5.1-1.9,7.8-5.4,7.8s-5.3-2.6-5.3-7.8V55.9H540v15.2
						c-0.4,3.3,0.8,6.5,3.2,8.8c2,1.8,4.7,2.8,7.4,2.8c2.7,0.2,5.3-1.2,6.7-3.5v2.6h5.7V55.9h-6.2L556.8,69.2z"/>
					<path id="Trazado_500" class="st5" d="M563.7,73.7c0,1.5,0.4,2.9,1,4.2c2.6,4.6,8.3,6.2,12.9,3.6c2.8-1.6,4.7-4.6,4.8-7.8
						c0.1-2.1-0.8-4.2-2.4-5.5c-1.4-1-3-1.8-4.8-2.2l-1.8-0.6c-2-0.7-2.6-1.2-2.6-2.4c0-1.2,1.1-2.2,2.3-2.2c0,0,0.1,0,0.1,0
						c1.3,0,2.3,0.9,2.4,2.2h6.1c-0.4-4.7-4.5-8.3-9.2-7.9c-4.2,0.3-7.6,3.7-7.9,8c-0.1,2.1,0.8,4.1,2.3,5.5c1.4,1.2,3.1,2,4.9,2.4
						c3.5,1.1,4.4,1.9,4.4,3.4c0,1.5-1.2,2.7-2.7,2.6c0,0-0.1,0-0.1,0c-1.8,0-2.8-1-3.4-3.3L563.7,73.7z"/>
					<path id="Trazado_501" class="st1" d="M566.7,105.1c2,0,3.5,1.6,3.5,3.5c0,2-1.6,3.5-3.5,3.5c-2,0-3.5-1.6-3.5-3.5
						C563.1,106.6,564.7,105.1,566.7,105.1L566.7,105.1z M566.7,105.7c-1.6,0-2.9,1.3-2.9,2.9c0,1.6,1.3,2.9,2.9,2.9
						c1.5,0,2.8-1.3,2.8-2.8c0,0,0-0.1,0-0.1c0.1-1.5-1.1-2.9-2.7-2.9C566.7,105.7,566.7,105.7,566.7,105.7L566.7,105.7z M566,110.5
						h-0.7v-3.7c0.4-0.1,0.9-0.1,1.3-0.1c0.4-0.1,0.8,0.1,1.2,0.3c0.2,0.2,0.4,0.5,0.4,0.8c0,0.4-0.3,0.8-0.7,0.9v0
						c0.3,0.2,0.6,0.5,0.6,0.9c0,0.3,0.1,0.6,0.3,0.9h-0.7c-0.2-0.3-0.3-0.6-0.3-0.9c-0.1-0.4-0.3-0.6-0.8-0.6H566V110.5z
						 M566,108.4h0.5c0.5,0,1-0.2,1-0.6c0-0.3-0.3-0.6-0.9-0.6c-0.2,0-0.4,0-0.5,0V108.4z"/>
					<path id="Trazado_502" class="st1" d="M536.9,231.2c0.9,0,1.7-0.7,1.7-1.7c0-0.9-0.7-1.7-1.7-1.7c-0.9,0-1.7,0.7-1.7,1.7
						c0,0,0,0,0,0C535.2,230.4,535.9,231.2,536.9,231.2"/>
					<path id="Trazado_503" class="st1" d="M525.2,231.2c0.9,0,1.7-0.7,1.7-1.6c0-0.9-0.7-1.7-1.6-1.7c-0.9,0-1.7,0.7-1.7,1.6
						c0,0,0,0,0,0C523.6,230.4,524.3,231.2,525.2,231.2"/>
					<path id="Trazado_504" class="st1" d="M513.6,231.2c0.9,0,1.7-0.7,1.7-1.7c0-0.9-0.7-1.7-1.7-1.7c-0.9,0-1.7,0.7-1.7,1.7
						c0,0,0,0,0,0C511.9,230.4,512.7,231.2,513.6,231.2L513.6,231.2"/>
					<path id="Trazado_505" class="st1" d="M502,231.2c0.9,0,1.7-0.7,1.7-1.7c0-0.9-0.7-1.7-1.7-1.7c-0.9,0-1.7,0.7-1.7,1.7
						c0,0,0,0,0,0C500.3,230.4,501.1,231.2,502,231.2"/>
					<path id="Trazado_506" class="st1" d="M490.3,231.2c0.9,0,1.7-0.7,1.7-1.7c0-0.9-0.7-1.7-1.7-1.7c-0.9,0-1.7,0.7-1.7,1.7
						c0,0,0,0,0,0C488.7,230.4,489.4,231.2,490.3,231.2L490.3,231.2"/>
					<path id="Trazado_507" class="st1" d="M478.7,231.2c0.9,0,1.7-0.7,1.7-1.7c0-0.9-0.7-1.7-1.7-1.7c-0.9,0-1.7,0.7-1.7,1.7
						c0,0,0,0,0,0C477.1,230.4,477.8,231.2,478.7,231.2L478.7,231.2"/>
					<path id="Trazado_508" class="st1" d="M467.1,231.2c0.9,0,1.7-0.7,1.7-1.7c0-0.9-0.7-1.7-1.7-1.7c-0.9,0-1.7,0.7-1.7,1.7
						c0,0,0,0,0,0C465.4,230.4,466.2,231.2,467.1,231.2L467.1,231.2"/>
					<path id="Trazado_509" class="st1" d="M455.5,231.2c0.9,0,1.7-0.7,1.7-1.7c0-0.9-0.7-1.7-1.7-1.7c-0.9,0-1.7,0.7-1.7,1.7
						c0,0,0,0,0,0C453.8,230.4,454.6,231.2,455.5,231.2L455.5,231.2"/>
					<path id="Trazado_510" class="st1" d="M443.8,231.2c0.9,0,1.7-0.7,1.7-1.7c0-0.9-0.7-1.7-1.7-1.7c-0.9,0-1.7,0.7-1.7,1.7
						c0,0,0,0,0,0C442.2,230.4,442.9,231.2,443.8,231.2C443.8,231.2,443.8,231.2,443.8,231.2"/>
					<path id="Trazado_511" class="st1" d="M432.2,231.2c0.9,0,1.7-0.7,1.7-1.7c0-0.9-0.7-1.7-1.7-1.7c-0.9,0-1.7,0.7-1.7,1.7
						c0,0,0,0,0,0C430.6,230.4,431.3,231.2,432.2,231.2"/>
					<path id="Trazado_512" class="st1" d="M420.6,231.2c0.9,0,1.7-0.7,1.7-1.7c0-0.9-0.7-1.7-1.7-1.7c-0.9,0-1.7,0.7-1.7,1.7
						c0,0,0,0,0,0C418.9,230.4,419.7,231.2,420.6,231.2"/>
					<path id="Trazado_513" class="st1" d="M409,231.2c0.9,0,1.7-0.7,1.7-1.7c0-0.9-0.7-1.7-1.7-1.7c-0.9,0-1.7,0.7-1.7,1.7
						c0,0,0,0,0,0C407.3,230.4,408,231.2,409,231.2L409,231.2"/>
					<path id="Trazado_514" class="st1" d="M397.3,231.2c0.9,0,1.7-0.7,1.7-1.7c0-0.9-0.7-1.7-1.7-1.7c-0.9,0-1.7,0.7-1.7,1.7
						c0,0,0,0,0,0C395.7,230.4,396.4,231.2,397.3,231.2L397.3,231.2"/>
					<path id="Trazado_515" class="st1" d="M560,231.2c0.9,0,1.7-0.7,1.7-1.7c0-0.9-0.7-1.7-1.7-1.7c-0.9,0-1.7,0.7-1.7,1.7
						c0,0,0,0,0,0C558.3,230.4,559,231.2,560,231.2L560,231.2"/>
					<path id="Trazado_516" class="st1" d="M548.3,231.2c0.9,0,1.7-0.7,1.7-1.7c0-0.9-0.7-1.7-1.7-1.7c-0.9,0-1.7,0.7-1.7,1.7
						c0,0,0,0,0,0C546.7,230.4,547.4,231.2,548.3,231.2L548.3,231.2"/>
					<path id="Trazado_517" class="st1" d="M606.5,231.2c0.9,0,1.7-0.7,1.7-1.7c0-0.9-0.7-1.7-1.7-1.7c-0.9,0-1.7,0.7-1.7,1.7
						c0,0,0,0,0,0C604.9,230.4,605.6,231.2,606.5,231.2"/>
					<path id="Trazado_518" class="st1" d="M594.9,231.2c0.9,0,1.7-0.7,1.7-1.6c0-0.9-0.7-1.7-1.6-1.7c-0.9,0-1.7,0.7-1.7,1.6
						c0,0,0,0,0,0C593.3,230.4,594,231.2,594.9,231.2"/>
					<path id="Trazado_519" class="st1" d="M583.3,231.2c0.9,0,1.7-0.7,1.7-1.7c0-0.9-0.7-1.7-1.7-1.7c-0.9,0-1.7,0.7-1.7,1.7
						c0,0,0,0,0,0C581.6,230.4,582.4,231.2,583.3,231.2"/>
					<path id="Trazado_520" class="st1" d="M571.7,231.2c0.9,0,1.7-0.7,1.7-1.6c0-0.9-0.7-1.7-1.6-1.7c-0.9,0-1.7,0.7-1.7,1.6
						c0,0,0,0,0,0C570,230.4,570.7,231.2,571.7,231.2"/>
					<path id="Trazado_521" class="st1" d="M281.2,231.2c0.9,0,1.7-0.7,1.7-1.7c0-0.9-0.7-1.7-1.7-1.7c-0.9,0-1.7,0.7-1.7,1.7l0,0
						C279.5,230.4,280.2,231.2,281.2,231.2L281.2,231.2"/>
					<path id="Trazado_522" class="st1" d="M269.5,231.2c0.9,0,1.7-0.7,1.7-1.7c0-0.9-0.7-1.7-1.7-1.7c-0.9,0-1.7,0.7-1.7,1.7
						c0,0,0,0,0,0C267.9,230.4,268.6,231.2,269.5,231.2L269.5,231.2"/>
					<path id="Trazado_523" class="st1" d="M257.9,231.2c0.9,0,1.7-0.7,1.7-1.7c0-0.9-0.7-1.7-1.7-1.7c-0.9,0-1.7,0.7-1.7,1.7
						c0,0,0,0,0,0C256.3,230.4,257,231.2,257.9,231.2L257.9,231.2"/>
					<path id="Trazado_524" class="st1" d="M246.3,231.2c0.9,0,1.7-0.7,1.7-1.6c0-0.9-0.7-1.7-1.6-1.7c-0.9,0-1.7,0.7-1.7,1.6
						c0,0,0,0,0,0C244.6,230.4,245.4,231.2,246.3,231.2"/>
					<path id="Trazado_525" class="st1" d="M234.7,231.2c0.9,0,1.7-0.7,1.7-1.7c0-0.9-0.7-1.7-1.7-1.7c-0.9,0-1.7,0.7-1.7,1.7
						c0,0,0,0,0,0C233,230.4,233.8,231.2,234.7,231.2L234.7,231.2"/>
					<path id="Trazado_526" class="st1" d="M223,231.2c0.9,0,1.7-0.7,1.7-1.7c0-0.9-0.7-1.7-1.7-1.7c-0.9,0-1.7,0.7-1.7,1.7
						c0,0,0,0,0,0C221.4,230.4,222.1,231.2,223,231.2L223,231.2"/>
					<path id="Trazado_527" class="st1" d="M304.3,231.2c0.9,0,1.7-0.7,1.7-1.7c0-0.9-0.7-1.7-1.7-1.7c-0.9,0-1.7,0.7-1.7,1.7
						c0,0,0,0,0,0C302.6,230.4,303.4,231.2,304.3,231.2"/>
					<path id="Trazado_528" class="st1" d="M292.6,231.2c0.9,0,1.7-0.7,1.7-1.6c0-0.9-0.7-1.7-1.6-1.7c-0.9,0-1.7,0.7-1.7,1.6
						c0,0,0,0,0,0C291,230.4,291.7,231.2,292.6,231.2"/>
					<path id="Trazado_529" class="st1" d="M385.7,231.2c0.9,0,1.7-0.7,1.7-1.7c0-0.9-0.7-1.7-1.7-1.7c-0.9,0-1.7,0.7-1.7,1.7
						c0,0,0,0,0,0C384,230.4,384.8,231.2,385.7,231.2"/>
					<path id="Trazado_530" class="st1" d="M374,231.2c0.9,0,1.7-0.7,1.7-1.6c0-0.9-0.7-1.7-1.6-1.7c-0.9,0-1.7,0.7-1.7,1.6
						c0,0,0,0,0,0C372.4,230.4,373.1,231.2,374,231.2"/>
					<path id="Trazado_531" class="st1" d="M362.4,231.2c0.9,0,1.7-0.7,1.7-1.7c0-0.9-0.7-1.7-1.7-1.7c-0.9,0-1.7,0.7-1.7,1.7
						c0,0,0,0,0,0C360.8,230.4,361.5,231.2,362.4,231.2L362.4,231.2"/>
					<path id="Trazado_532" class="st1" d="M350.8,231.2c0.9,0,1.7-0.7,1.7-1.7c0-0.9-0.7-1.7-1.7-1.7c-0.9,0-1.7,0.7-1.7,1.7
						c0,0,0,0,0,0C349.1,230.4,349.9,231.2,350.8,231.2"/>
					<path id="Trazado_533" class="st1" d="M339.2,231.2c0.9,0,1.7-0.7,1.7-1.7c0-0.9-0.7-1.7-1.7-1.7c-0.9,0-1.7,0.7-1.7,1.7
						c0,0,0,0,0,0C337.5,230.4,338.2,231.2,339.2,231.2"/>
					<path id="Trazado_534" class="st1" d="M327.5,231.2c0.9,0,1.7-0.7,1.7-1.7c0-0.9-0.7-1.7-1.7-1.7c-0.9,0-1.7,0.7-1.7,1.7
						c0,0,0,0,0,0C325.9,230.4,326.6,231.2,327.5,231.2C327.5,231.2,327.5,231.2,327.5,231.2"/>
					<path id="Trazado_535" class="st1" d="M315.9,231.2c0.9,0,1.7-0.7,1.7-1.7c0-0.9-0.7-1.7-1.7-1.7c-0.9,0-1.7,0.7-1.7,1.7
						c0,0,0,0,0,0C314.3,230.4,315,231.2,315.9,231.2"/>
					<path id="Trazado_536" class="st1" d="M141.5,231.2c0.9,0,1.7-0.7,1.7-1.7c0-0.9-0.7-1.7-1.7-1.7c-0.9,0-1.7,0.7-1.7,1.7
						c0,0,0,0,0,0C139.8,230.4,140.6,231.2,141.5,231.2"/>
					<path id="Trazado_537" class="st1" d="M129.9,231.2c0.9,0,1.7-0.7,1.7-1.6c0-0.9-0.7-1.7-1.6-1.7c-0.9,0-1.7,0.7-1.7,1.6
						c0,0,0,0,0,0C128.2,230.4,128.9,231.2,129.9,231.2"/>
					<path id="Trazado_538" class="st1" d="M118.2,231.2c0.9,0,1.7-0.7,1.7-1.7c0-0.9-0.7-1.7-1.7-1.7c-0.9,0-1.7,0.7-1.7,1.7
						c0,0,0,0,0,0C116.6,230.4,117.3,231.2,118.2,231.2L118.2,231.2"/>
					<path id="Trazado_539" class="st1" d="M106.6,231.2c0.9,0,1.7-0.7,1.7-1.7c0-0.9-0.7-1.7-1.7-1.7c-0.9,0-1.7,0.7-1.7,1.7
						c0,0,0,0,0,0C105,230.4,105.7,231.2,106.6,231.2"/>
					<path id="Trazado_540" class="st1" d="M95,231.2c0.9,0,1.7-0.7,1.7-1.7c0-0.9-0.7-1.7-1.7-1.7c-0.9,0-1.7,0.7-1.7,1.7
						c0,0,0,0,0,0C93.3,230.4,94.1,231.2,95,231.2C95,231.2,95,231.2,95,231.2"/>
					<path id="Trazado_541" class="st1" d="M83.4,231.2c0.9,0,1.7-0.7,1.7-1.7c0-0.9-0.7-1.7-1.7-1.7c-0.9,0-1.7,0.7-1.7,1.7
						c0,0,0,0,0,0C81.7,230.4,82.4,231.2,83.4,231.2C83.4,231.2,83.4,231.2,83.4,231.2"/>
					<path id="Trazado_542" class="st1" d="M71.7,231.2c0.9,0,1.7-0.7,1.7-1.6c0-0.9-0.7-1.7-1.6-1.7c-0.9,0-1.7,0.7-1.7,1.6
						c0,0,0,0,0,0C70.1,230.4,70.8,231.2,71.7,231.2"/>
					<path id="Trazado_543" class="st1" d="M60.1,231.2c0.9,0,1.7-0.7,1.7-1.7c0-0.9-0.7-1.7-1.7-1.7c-0.9,0-1.7,0.7-1.7,1.7
						c0,0,0,0,0,0C58.4,230.4,59.2,231.2,60.1,231.2"/>
					<path id="Trazado_544" class="st1" d="M48.5,231.2c0.9,0,1.7-0.7,1.7-1.7c0-0.9-0.7-1.7-1.7-1.7c-0.9,0-1.7,0.7-1.7,1.7
						c0,0,0,0,0,0C46.8,230.4,47.6,231.2,48.5,231.2C48.5,231.2,48.5,231.2,48.5,231.2"/>
					<path id="Trazado_545" class="st1" d="M36.8,231.2c0.9,0,1.7-0.7,1.7-1.7c0-0.9-0.7-1.7-1.7-1.7c-0.9,0-1.7,0.7-1.7,1.7
						c0,0,0,0,0,0C35.2,230.4,35.9,231.2,36.8,231.2"/>
					<path id="Trazado_546" class="st1" d="M25.2,231.2c0.9,0,1.7-0.7,1.7-1.7c0-0.9-0.7-1.7-1.7-1.7c-0.9,0-1.7,0.7-1.7,1.7
						c0,0,0,0,0,0C23.6,230.4,24.3,231.2,25.2,231.2"/>
					<path id="Trazado_547" class="st1" d="M13.6,231.2c0.9,0,1.7-0.7,1.7-1.7c0-0.9-0.7-1.7-1.7-1.7c-0.9,0-1.7,0.7-1.7,1.7
						c0,0,0,0,0,0C11.9,230.4,12.7,231.2,13.6,231.2"/>
					<path id="Trazado_548" class="st1" d="M2,231.2c0.9,0,1.7-0.7,1.7-1.7c0-0.9-0.7-1.7-1.7-1.7s-1.7,0.7-1.7,1.7c0,0,0,0,0,0
						C0.3,230.4,1,231.2,2,231.2"/>
					<path id="Trazado_549" class="st1" d="M164.6,231.2c0.9,0,1.7-0.7,1.7-1.7c0-0.9-0.7-1.7-1.7-1.7c-0.9,0-1.7,0.7-1.7,1.7
						c0,0,0,0,0,0C162.9,230.4,163.7,231.2,164.6,231.2L164.6,231.2"/>
					<path id="Trazado_550" class="st1" d="M153,231.2c0.9,0,1.7-0.7,1.7-1.7c0-0.9-0.7-1.7-1.7-1.7c-0.9,0-1.7,0.7-1.7,1.7
						c0,0,0,0,0,0C151.3,230.4,152,231.2,153,231.2L153,231.2"/>
					<path id="Trazado_551" class="st1" d="M211.2,231.2c0.9,0,1.7-0.7,1.7-1.7c0-0.9-0.7-1.7-1.7-1.7c-0.9,0-1.7,0.7-1.7,1.7
						c0,0,0,0,0,0C209.5,230.4,210.3,231.2,211.2,231.2L211.2,231.2"/>
					<path id="Trazado_552" class="st1" d="M199.6,231.2c0.9,0,1.7-0.7,1.7-1.6c0-0.9-0.7-1.7-1.6-1.7c-0.9,0-1.7,0.7-1.7,1.6
						c0,0,0,0,0,0C197.9,230.4,198.6,231.2,199.6,231.2"/>
					<path id="Trazado_553" class="st1" d="M187.9,231.2c0.9,0,1.7-0.7,1.7-1.7c0-0.9-0.7-1.7-1.7-1.7c-0.9,0-1.7,0.7-1.7,1.7
						c0,0,0,0,0,0C186.3,230.4,187,231.2,187.9,231.2"/>
					<path id="Trazado_554" class="st1" d="M176.3,231.2c0.9,0,1.7-0.7,1.7-1.6c0-0.9-0.7-1.7-1.6-1.7c-0.9,0-1.7,0.7-1.7,1.6
						c0,0,0,0,0,0C174.7,230.4,175.4,231.2,176.3,231.2"/>
					<path id="Trazado_555" class="st1" d="M602.3,270.7l-2.7-3.8l-5.4-7.9l4.2-4.5l2.5-2.6l0.1-0.2c0.2-0.2,0.2-0.5,0.1-0.7
						c0,0,0,0,0,0c-0.1-0.1-0.3-0.2-0.5-0.2h-2.8c-0.2,0-0.4,0.1-0.5,0.2l0,0l-9.5,10.1v-15.9c0-0.2-0.1-0.3-0.2-0.4
						c-0.1-0.1-0.3-0.2-0.5-0.2h-2.2c-0.2,0-0.3,0.1-0.5,0.2c-0.1,0.1-0.2,0.3-0.2,0.4v25.6c0,0.2,0.1,0.3,0.2,0.4
						c0.1,0.1,0.3,0.2,0.5,0.2h2.2c0.2,0,0.3-0.1,0.5-0.2c0.1-0.1,0.2-0.3,0.2-0.4v-5.2l4.1-4.4l2.8,4.1l0,0l3.9,5.8
						c0.1,0.2,0.3,0.3,0.6,0.3h2.8c0.2,0,0.3-0.1,0.5-0.2C602.5,271.2,602.4,270.9,602.3,270.7"/>
					<path id="Trazado_556" class="st1" d="M577.9,244.8h0.4l0.6,1.7l0.6-1.7h0.4v2h-0.3v-1.4c0-0.1,0-0.2,0-0.3l-0.6,1.7h-0.3
						l-0.6-1.7v0.3c0,0.1,0,0.2,0,0.2v1.2h-0.3L577.9,244.8z"/>
					<path id="Trazado_557" class="st1" d="M581,244.8h0.9c0.1,0,0.3,0,0.4,0.1c0.2,0.1,0.3,0.3,0.3,0.5c0,0.1,0,0.2-0.1,0.3
						c-0.1,0.1-0.1,0.1-0.2,0.2c0.1,0,0.1,0.1,0.2,0.1c0,0.1,0.1,0.2,0.1,0.2v0.3c0,0.1,0,0.1,0,0.2c0,0.1,0,0.1,0.1,0.1v0.1h-0.3
						c0,0,0,0,0-0.1c0-0.1,0-0.1,0-0.2v-0.3c0-0.1-0.1-0.2-0.1-0.3c-0.1,0-0.2,0-0.2,0h-0.6v0.9H581L581,244.8z M581.9,245.7
						c0.1,0,0.2,0,0.3-0.1c0.1-0.1,0.1-0.2,0.1-0.3c0-0.1,0-0.2-0.2-0.3c-0.1,0-0.1-0.1-0.2-0.1h-0.7v0.7L581.9,245.7z"/>
					<path id="Trazado_558" class="st1" d="M580.4,246.8c-0.1,0-0.1-0.1-0.1-0.1c0,0,0,0,0,0c0-0.1,0.1-0.1,0.1-0.1
						c0.1,0,0.1,0.1,0.1,0.1C580.6,246.7,580.5,246.8,580.4,246.8"/>
					<path id="Trazado_559" class="st1" d="M583.1,246.8c-0.1,0-0.1-0.1-0.1-0.2c0-0.1,0.1-0.1,0.1-0.1c0.1,0,0.1,0.1,0.1,0.2
						C583.3,246.7,583.2,246.8,583.1,246.8"/>
					<path id="Trazado_560" class="st1" d="M440.1,254.9c1.2,0,2.2-1,2.2-2.1c0-1.2-1-2.2-2.1-2.2c-1.2,0-2.2,1-2.2,2.1c0,0,0,0,0,0
						C437.9,253.9,438.9,254.9,440.1,254.9C440.1,254.9,440.1,254.9,440.1,254.9"/>
					<path id="Trazado_561" class="st1" d="M606.1,271.7c1.2,0,2.2-1,2.2-2.1c0-1.2-1-2.2-2.1-2.2c-1.2,0-2.2,1-2.2,2.1c0,0,0,0,0,0
						C603.9,270.8,604.9,271.7,606.1,271.7L606.1,271.7"/>
					<path id="Trazado_562" class="st1" d="M504.4,258.7L504.4,258.7c0.1-2.2-0.8-4.3-2.4-5.8l-0.1-0.1l0,0c-1.6-1.3-3.6-2-5.7-1.9
						h-0.1c0,0-0.1,0-0.1,0c0,0-0.1,0-0.1,0h-0.2c-2-0.1-4,0.6-5.6,1.9l0,0l-0.1,0.1c-1.6,1.5-2.4,3.6-2.4,5.8v11.7
						c0,0.1,0,0.1,0,0.2v0.6c0,0.2,0.1,0.3,0.2,0.4c0.1,0.1,0.3,0.2,0.5,0.2h2.2c0.2,0,0.3-0.1,0.5-0.2c0.1-0.1,0.2-0.3,0.2-0.4
						v-0.7c0,0,0,0,0-0.1v-11.2c-0.1-1.4,0.4-2.8,1.3-3.8c2.1-1.7,5.1-1.7,7.2,0c0.9,1.1,1.4,2.4,1.3,3.8v12c0,0.2,0.1,0.3,0.2,0.4
						c0.1,0.1,0.3,0.2,0.5,0.2h2.2c0.2,0,0.3-0.1,0.5-0.2c0.1-0.1,0.2-0.3,0.2-0.4v-1.9c0-0.1,0-0.1,0-0.2L504.4,258.7z"/>
					<path id="Trazado_563" class="st1" d="M581.4,258.7L581.4,258.7c0.1-2.2-0.8-4.3-2.4-5.8l-0.1-0.1l0,0c-1.6-1.3-3.6-2-5.7-1.9
						h-0.1c0,0-0.1,0-0.1,0c0,0-0.1,0-0.1,0h-0.2c-2-0.1-4,0.6-5.6,1.9l0,0l-0.1,0.1c-1.6,1.5-2.4,3.6-2.4,5.8v11.7
						c0,0.1,0,0.1,0,0.2v0.6c0,0.2,0.1,0.3,0.2,0.4c0.1,0.1,0.3,0.2,0.5,0.2h2.2c0.2,0,0.3-0.1,0.5-0.2c0.1-0.1,0.2-0.3,0.2-0.4
						v-0.7c0,0,0,0,0-0.1v-11.2c-0.1-1.4,0.4-2.8,1.3-3.8c2.1-1.7,5.1-1.7,7.2,0c0.9,1.1,1.4,2.4,1.3,3.8v12c0,0.2,0.1,0.3,0.2,0.4
						c0.1,0.1,0.3,0.2,0.5,0.2h2.2c0.2,0,0.3-0.1,0.5-0.2c0.1-0.1,0.2-0.3,0.2-0.4v-1.9c0-0.1,0-0.1,0-0.2L581.4,258.7z"/>
					<path id="Trazado_564" class="st1" d="M540.1,261.3v0.1c0.1,1.8-0.2,3.6-1,5.3c-0.8,1.5-2.5,2.4-4.2,2.3h-0.1
						c-1.7,0.2-3.4-0.7-4.3-2.3c-0.7-1.7-1.1-3.5-1-5.3v-0.1c-0.1-1.7,0.2-3.4,1-4.9c0.8-1.5,2.5-2.4,4.3-2.2h0.1
						c1.7-0.2,3.4,0.7,4.3,2.2C539.9,257.8,540.2,259.5,540.1,261.3L540.1,261.3z M540.8,252.9C540.8,252.9,540.7,252.9,540.8,252.9
						c-1.6-1.3-3.6-2-5.6-1.9H535c-2-0.1-3.9,0.6-5.4,1.8v-7.5c0-0.2-0.1-0.3-0.2-0.4c-0.1-0.1-0.3-0.2-0.5-0.2h-2.2
						c-0.2,0-0.3,0.1-0.5,0.2c-0.1,0.1-0.2,0.3-0.2,0.4V271c0,0.2,0.1,0.3,0.2,0.4c0.1,0.1,0.3,0.2,0.5,0.2h2.2
						c0.2,0,0.3-0.1,0.5-0.2c0.1-0.1,0.2-0.3,0.2-0.4v-1.3c1.4,1.5,3.4,2.3,5.4,2.2h0.1c2,0.1,4-0.6,5.6-1.9
						c2.1-2.4,3.2-5.6,2.9-8.8C543.9,258.2,542.8,255.2,540.8,252.9"/>
					<path id="Trazado_565" class="st1" d="M481.5,264.2c0.1,1.1-0.2,2.2-0.9,3c-1.2,1-2.8,1.4-4.4,1.2h0c-1.2,0.1-2.4-0.2-3.5-0.8
						c-0.7-0.5-1-1.3-0.9-2.1v0c-0.1-0.8,0.3-1.7,0.9-2.2c1-0.6,2.2-0.9,3.3-0.8h5.4L481.5,264.2z M485.1,257.8L485.1,257.8
						c0.1-1.9-0.7-3.8-2.2-5.1c-1.8-1.3-4.1-1.9-6.3-1.8h-0.1c-2.5-0.2-5.1,0.7-6.9,2.5l0,0l-0.1,0.1c-0.1,0.1-0.3,0.3-0.4,0.4l0,0
						l-0.2,0.2c-0.1,0.1-0.2,0.3-0.1,0.5c0,0.2,0.1,0.3,0.2,0.5l0.1,0.1c0,0,0.1,0.1,0.1,0.1l0.4,0.3l1,0.9c0.1,0.1,0.3,0.2,0.5,0.2
						c0.2,0,0.3-0.1,0.4-0.2l0.7-0.8c0.4-0.4,0.8-0.8,1.3-1c1-0.4,2-0.5,3-0.5h0.1c1.3-0.1,2.7,0.2,3.8,1c0.8,0.7,1.1,1.8,1,2.9v1.4
						h-5.7c-2-0.1-3.9,0.5-5.6,1.6c-1.4,1.1-2.2,2.8-2.1,4.6v0.1c0,1.6,0.6,3.1,1.7,4.2c1.7,1.5,4,2.2,6.3,1.9h1.5
						c2.1,0.2,4.3-0.5,5.8-2c1.3-1.6,1.9-3.6,1.7-5.6L485.1,257.8L485.1,257.8z"/>
					<path id="Trazado_566" class="st1" d="M548.7,265.6L548.7,265.6c-0.1-0.9,0.3-1.7,0.9-2.2c1-0.6,2.2-0.9,3.3-0.8h5.4v1.7
						c0.1,1.1-0.2,2.2-0.9,3c-1.3,1-2.8,1.4-4.4,1.2h0c-1.2,0.1-2.4-0.2-3.5-0.8C549,267.2,548.6,266.4,548.7,265.6 M562.1,257.8
						L562.1,257.8c0.1-1.9-0.7-3.8-2.2-5.1c-1.8-1.3-4.1-1.9-6.3-1.8h-0.1c-2.5-0.2-5,0.7-6.9,2.5l0,0l-0.1,0.1
						c-0.1,0.1-0.3,0.3-0.4,0.5l0,0l-0.2,0.2c-0.1,0.1-0.2,0.3-0.1,0.5c0,0.2,0.1,0.3,0.2,0.5l0.1,0.1c0,0,0.1,0.1,0.1,0.1l0.4,0.3
						l1,0.9c0.1,0.1,0.3,0.2,0.5,0.2c0.2,0,0.3-0.1,0.4-0.2l0.7-0.8c0.4-0.4,0.8-0.8,1.3-1c1-0.4,2-0.5,3-0.5h0.1
						c1.3-0.1,2.7,0.2,3.8,1c0.8,0.7,1.1,1.8,1,2.8v1.4h-5.7c-2-0.1-3.9,0.5-5.6,1.6c-1.4,1.1-2.2,2.8-2.1,4.6v0.1
						c0,1.6,0.6,3.1,1.7,4.2c1.7,1.5,4,2.2,6.3,1.9h1.5c2.1,0.2,4.3-0.5,5.8-2c1.3-1.6,1.9-3.6,1.7-5.6L562.1,257.8L562.1,257.8z"/>
					<path id="Trazado_567" class="st1" d="M450.9,251h-3.7v-5.6c0-0.3-0.3-0.6-0.6-0.6h-2.2c-0.2,0-0.3,0.1-0.5,0.2
						c-0.1,0.1-0.2,0.3-0.2,0.4v21.1c0,1.4,0.4,2.7,1.3,3.7c1,1,2.4,1.6,3.9,1.6h1.1l0,0h0.9c0.2,0,0.3-0.1,0.4-0.2
						c0.1-0.1,0.2-0.3,0.2-0.5v-2.2c0-0.2-0.1-0.3-0.2-0.5c-0.1-0.1-0.3-0.2-0.4-0.2h-1.7c-0.3,0-0.6,0-0.9-0.1
						c-0.1,0-0.2-0.1-0.3-0.2c-0.1-0.1-0.2-0.1-0.3-0.2c-0.4-0.5-0.6-1.1-0.5-1.7v-11.4h3.7c0.2,0,0.3-0.1,0.4-0.2
						c0.1-0.1,0.2-0.3,0.2-0.5v-2.2c0-0.2-0.1-0.3-0.2-0.5C451.2,251.1,451.1,251,450.9,251"/>
					<path id="Trazado_568" class="st1" d="M467.2,253.5l-0.2-0.2c0,0,0-0.1-0.1-0.1l-0.1-0.1l0,0l-0.2-0.2l-0.1-0.2l0,0
						c-1.2-1.2-2.8-1.9-4.5-1.9h-0.1c-1.3,0-2.6,0.6-3.4,1.6l-0.6,0.7v-1.6c0-0.2-0.1-0.3-0.2-0.4c-0.1-0.1-0.3-0.2-0.5-0.2H455
						c-0.2,0-0.4,0.1-0.5,0.2c-0.1,0.1-0.2,0.3-0.2,0.4v19.5c0,0.2,0.1,0.3,0.2,0.4c0.1,0.1,0.3,0.2,0.5,0.2h2.2
						c0.2,0,0.3-0.1,0.5-0.2c0.1-0.1,0.2-0.3,0.2-0.4v-11.9c0,0,0,0,0-0.1v-0.9c0-1,0.4-2,1-2.8c0.6-0.8,1.6-1.3,2.7-1.2
						c0.5,0,1,0.1,1.4,0.2c0.4,0.2,0.8,0.5,1.2,0.9l0.1,0.1l0.5,0.5c0.1,0.1,0.3,0.2,0.4,0.2c0.2,0,0.3-0.1,0.5-0.2l1.6-1.5
						c0.1-0.1,0.2-0.3,0.2-0.5C467.4,253.8,467.3,253.7,467.2,253.5"/>
					<path id="Trazado_569" class="st1" d="M522,261L522,261L522,261c-1.4-0.9-3-1.3-4.6-1.4l-3.2-0.3c-0.9,0-1.9-0.3-2.7-0.8
						c-0.5-0.4-0.7-1-0.7-1.6V257c0-0.8,0.3-1.6,1-2c1-0.6,2.2-0.9,3.3-0.8l0,0c1.7,0,3.5,0.4,4.9,1.3l0.8,0.6
						c0.1,0.1,0.3,0.1,0.5,0.1c0.2,0,0.3-0.1,0.4-0.3l1.2-1.8c0.1-0.1,0.1-0.3,0.1-0.5c0-0.1,0-0.2-0.1-0.3c0-0.1-0.1-0.2-0.2-0.2
						l-0.1-0.1c-2.2-1.5-4.9-2.2-7.5-2.2c-2-0.1-4.1,0.5-5.8,1.6c-1.4,1-2.3,2.7-2.3,4.5v0.1c-0.1,1.5,0.6,3,1.8,4
						c1.5,1.1,3.2,1.6,5,1.7l3.3,0.3c0.9,0,1.7,0.3,2.4,0.8c0.5,0.4,0.7,1,0.6,1.6v0l0,0c0,0.9-0.4,1.7-1.2,2.2
						c-1.2,0.6-2.6,0.9-4,0.8l0,0h0h0c-2,0.1-3.9-0.5-5.5-1.7l-0.7-0.6c-0.1-0.1-0.3-0.2-0.5-0.1c-0.2,0-0.3,0.1-0.4,0.2l-1.4,1.7
						c-0.1,0.1-0.2,0.3-0.2,0.5c0,0.2,0.1,0.3,0.2,0.4l0.7,0.6l0,0l0,0l0.1,0.1l0,0c2.3,1.5,5,2.3,7.7,2.2h0.1
						c2.2,0.1,4.4-0.5,6.4-1.7c1.6-1,2.5-2.8,2.5-4.7v-0.1C524,263.6,523.3,262,522,261"/>
				</g>
			</g>
		</g>
		<g id="Grupo_63" transform="translate(99.003 42.069)">
			<g>
				<defs>
					<rect id="SVGID_5_" x="285.6" y="121.4" width="224.3" height="45.4"/>
				</defs>
				<clipPath id="SVGID_6_">
					<use xlink:href="#SVGID_5_"  style="overflow:visible;"/>
				</clipPath>
				<g id="Grupo_62" class="st6">
					<g id="Grupo_61" transform="translate(0 -0.001)">
						<g>
							<defs>
								<rect id="SVGID_7_" x="285.6" y="121.4" width="224.3" height="45.4"/>
							</defs>
							<clipPath id="SVGID_8_">
								<use xlink:href="#SVGID_7_"  style="overflow:visible;"/>
							</clipPath>
							<g id="Grupo_60" class="st7">
								
									<image style="overflow:visible;enable-background:new    ;" width="3105" height="630" id="Rectángulo_83" xlink:href="F5753B7D.png"  transform="matrix(7.207809e-02 0 0 7.207809e-02 285.609 121.3604)">
								</image>
							</g>
						</g>
					</g>
				</g>
			</g>
		</g>
		<g id="Grupo_65" transform="translate(0 0)">
			<g>
				<defs>
					<rect id="SVGID_9_" width="608.9" height="271.9"/>
				</defs>
				<clipPath id="SVGID_10_">
					<use xlink:href="#SVGID_9_"  style="overflow:visible;"/>
				</clipPath>
				<g id="Grupo_64" class="st8">
					<path id="Trazado_570" class="st1" d="M603.3,203.3c1.7-0.1,3.1,1.3,3.2,3c0.1,1.7-1.3,3.1-3,3.2c-0.1,0-0.1,0-0.2,0
						c-1.7,0.1-3.1-1.3-3.2-3c-0.1-1.7,1.3-3.1,3-3.2C603.2,203.3,603.2,203.3,603.3,203.3z M603.3,203.8c-1.4,0.1-2.5,1.3-2.4,2.7
						c0.1,1.3,1.1,2.4,2.5,2.4c1.3,0,2.4-1.1,2.4-2.4c0,0,0-0.1,0-0.1C605.8,205,604.7,203.9,603.3,203.8
						C603.3,203.8,603.3,203.8,603.3,203.8L603.3,203.8z M602.7,208h-0.6v-3.2c0.4-0.1,0.7-0.1,1.1-0.1c0.4,0,0.7,0.1,1,0.3
						c0.4,0.3,0.4,0.8,0.2,1.1c-0.1,0.2-0.3,0.3-0.5,0.3v0c0.3,0.2,0.5,0.4,0.5,0.8c0,0.3,0.1,0.5,0.2,0.8h-0.6
						c-0.1-0.3-0.2-0.5-0.3-0.8c-0.1-0.4-0.3-0.5-0.7-0.5h-0.4L602.7,208z M602.7,206.2h0.4c0.4,0,0.8-0.1,0.8-0.5
						c0-0.3-0.2-0.5-0.8-0.5c-0.2,0-0.3,0-0.5,0L602.7,206.2z"/>
					<path id="Trazado_571" class="st1" d="M374.7,206.3c0,2.3-2,4.2-4.3,4.2h-54.9c-2.3,0-4.3-1.9-4.3-4.2v-37.9
						c0-2.3,2-4.2,4.3-4.2h54.9c2.3,0,4.3,1.9,4.3,4.2L374.7,206.3z"/>
					<path id="Trazado_572" class="st9" d="M315.5,210.9c-2.5,0-4.6-2-4.7-4.6c0,0,0,0,0,0v-37.9c0-2.5,2.1-4.6,4.7-4.6h54.9
						c2.5,0,4.6,2,4.7,4.6v37.9c0,2.5-2.1,4.6-4.7,4.6H315.5z M311.6,168.4v37.9c0,2.1,1.8,3.9,3.9,3.8c0,0,0,0,0,0h54.9
						c2.1,0,3.9-1.7,3.9-3.8c0,0,0,0,0,0v-37.9c0-2.1-1.8-3.9-3.9-3.8c0,0,0,0,0,0h-54.9C313.3,164.5,311.6,166.3,311.6,168.4
						C311.6,168.4,311.6,168.4,311.6,168.4"/>
					<path id="Trazado_573" class="st9" d="M345.4,190.1c6.1,0,11.2-4.8,11.5-10.9c-0.1-6.2-5.2-11.2-11.4-11.1c0,0-0.1,0-0.1,0
						h-5.2c-6-0.1-10.9,4.6-11.1,10.6c0,0.2,0,0.3,0,0.5c0.1,6.1,5,10.9,11.1,10.9H345.4z"/>
					<path id="Trazado_574" class="st1" d="M340.3,169c-5.6,0-10.1,4.5-10,10.1c0,5.6,4.5,10.1,10.1,10c5.5,0,10-4.5,10-10.1
						C350.3,173.5,345.8,169,340.3,169 M333.9,179.1c0-2.6,1.6-5,4.1-5.9V185C335.6,184.1,333.9,181.7,333.9,179.1 M342.6,185v-11.9
						c3.3,1.3,4.9,4.9,3.7,8.2C345.6,183.1,344.3,184.4,342.6,185"/>
					<path id="Trazado_575" class="st10" d="M317,192.2c0-1-0.5-1-1.1-1V191c0.5,0,0.9,0,1.4,0s1.1,0,2,0c2.3-0.2,4.4,1.5,4.6,3.8
						c0,0.1,0,0.2,0,0.3c0,1.2-0.7,4-4.8,4c-0.6,0-1.1,0-1.7,0c-0.5,0-1,0-1.6,0v-0.3c0.7-0.1,1-0.1,1.1-0.9L317,192.2z
						 M318.1,197.7c0,0.9,0.6,1,1.2,1c1.8,0.1,3.3-1.3,3.3-3.1c0-0.2,0-0.3,0-0.5c0.1-1.9-1.3-3.6-3.2-3.7c-0.1,0-0.3,0-0.4,0
						c-0.5,0-0.7,0-0.9,0L318.1,197.7z"/>
					<path id="Trazado_576" class="st10" d="M324.3,198.7h0.2c0.3,0,0.6,0,0.6-0.4v-3.1c0-0.5-0.2-0.6-0.6-0.8v-0.2
						c0.6-0.2,1.2-0.4,1.2-0.4c0.1,0,0.1-0.1,0.2-0.1c0.1,0,0.1,0.1,0.1,0.2v4.4c0,0.4,0.3,0.4,0.6,0.4h0.2v0.3c-0.4,0-0.8,0-1.2,0
						c-0.4,0-0.8,0-1.3,0L324.3,198.7z M325.6,192c-0.3,0-0.6-0.3-0.6-0.6c0-0.3,0.3-0.6,0.6-0.6c0.3,0,0.6,0.2,0.6,0.6
						C326.1,191.7,325.9,192,325.6,192"/>
					<path id="Trazado_577" class="st10" d="M327.9,195.3c0-0.4-0.1-0.5-0.7-0.8v-0.2c0.5-0.2,1-0.3,1.5-0.6c0,0,0.1,0,0.1,0.1v0.7
						c0.6-0.5,1.3-0.8,2-0.9c1,0,1.3,0.7,1.3,1.6v3c0,0.4,0.3,0.4,0.6,0.4h0.2v0.3c-0.4,0-0.8,0-1.2,0c-0.4,0-0.8,0-1.2,0v-0.3h0.2
						c0.3,0,0.6,0,0.6-0.4v-3c0-0.7-0.4-1-1.1-1c-0.5,0.1-0.9,0.3-1.3,0.6v3.4c0,0.4,0.3,0.4,0.6,0.4h0.2v0.3c-0.4,0-0.8,0-1.2,0
						c-0.4,0-0.8,0-1.2,0v-0.3h0.2c0.3,0,0.6,0,0.6-0.4L327.9,195.3z"/>
					<path id="Trazado_578" class="st10" d="M333.8,195.8c0,0.2,0,0.4,0,0.7c0,1,0.7,1.9,1.7,2c0.6,0,1.2-0.3,1.6-0.8l0.2,0.2
						c-0.5,0.8-1.3,1.2-2.1,1.3c-1.3-0.1-2.3-1.2-2.2-2.4c0,0,0-0.1,0-0.1c0-2.3,1.5-2.9,2.3-2.9c1-0.1,1.9,0.7,1.9,1.7
						c0,0,0,0.1,0,0.1c0,0.1,0,0.1,0,0.2l-0.1,0.1L333.8,195.8z M335.9,195.5c0.3,0,0.3-0.1,0.3-0.3c0-0.5-0.4-1-0.9-1.1
						c0,0-0.1,0-0.1,0c-0.7,0-1.2,0.5-1.3,1.3L335.9,195.5z"/>
					<path id="Trazado_579" class="st10" d="M337.5,198.7h0.3c0.3,0,0.6,0,0.6-0.4v-3.2c0-0.4-0.4-0.4-0.6-0.5v-0.2
						c0.8-0.4,1.3-0.7,1.4-0.7s0.1,0,0.1,0.2v1h0c0.3-0.5,0.8-1.2,1.5-1.2c0.3,0,0.6,0.3,0.7,0.6c0,0,0,0,0,0c0,0.3-0.2,0.6-0.5,0.6
						c0,0,0,0,0,0c-0.4,0-0.4-0.3-0.8-0.3c-0.5,0.1-0.8,0.5-0.8,1v2.7c0,0.4,0.2,0.4,0.6,0.4h0.6v0.3c-0.6,0-1.1,0-1.6,0
						c-0.5,0-1,0-1.4,0L337.5,198.7z"/>
					<path id="Trazado_580" class="st10" d="M341.9,197.4c0.1,0.8,0.7,1.4,1.5,1.4c0.7,0,0.9-0.4,0.9-0.8c0-1.4-2.5-0.9-2.5-2.8
						c0.1-0.9,0.8-1.5,1.7-1.5c0,0,0.1,0,0.1,0c0.5,0,0.9,0.1,1.3,0.3l0.1,1.2h-0.3c0-0.6-0.5-1.2-1.2-1.1c0,0,0,0-0.1,0
						c-0.4-0.1-0.8,0.3-0.9,0.7c0,0,0,0,0,0c0,1.4,2.7,0.9,2.7,2.8c0,0.8-0.6,1.6-2,1.6c-0.5,0-1-0.1-1.4-0.4l-0.1-1.3L341.9,197.4z
						"/>
					<path id="Trazado_581" class="st10" d="M355.7,193h-0.3c-0.2-1.2-1.3-2.1-2.5-1.9c-1.8,0-3.3,1.5-3.3,3.3c0,0.1,0,0.2,0,0.4
						c-0.1,2.1,1.4,3.8,3.4,4c1.2,0,2.2-0.8,2.3-2l0.3,0.1l-0.3,1.7c-0.8,0.4-1.7,0.6-2.6,0.6c-2.3,0.2-4.2-1.5-4.4-3.8
						c0-0.2,0-0.4,0-0.6c0.1-2.3,2.1-4.1,4.4-4.1c0.9,0,1.9,0.3,2.7,0.6L355.7,193z"/>
					<path id="Trazado_582" class="st10" d="M356.1,198.7h0.2c0.3,0,0.6,0,0.6-0.4v-6.4c0-0.8-0.2-0.8-0.6-0.9v-0.2
						c0.4-0.1,0.8-0.3,1.2-0.5c0.1-0.1,0.2-0.1,0.3-0.1c0.1,0,0.1,0.1,0.1,0.2v8c0,0.4,0.3,0.4,0.6,0.4h0.2v0.3c-0.4,0-0.8,0-1.2,0
						s-0.8,0-1.3,0L356.1,198.7z"/>
					<path id="Trazado_583" class="st10" d="M363.5,198.4c0,0.2,0.1,0.2,0.3,0.2s0.3,0,0.5,0v0.2c-0.6,0.1-1.1,0.2-1.7,0.4l-0.1,0
						v-0.9c-0.5,0.6-1.3,0.9-2,1c-0.7,0-1.3-0.5-1.3-1.2c0-0.1,0-0.1,0-0.2v-3c0-0.3,0-0.6-0.7-0.6V194c0.4,0,1.3-0.1,1.5-0.1
						c0.1,0,0.1,0.1,0.1,0.3v3c0,0.3,0,1.3,1,1.3c0.5-0.1,1-0.3,1.4-0.7v-3.1c0-0.2-0.6-0.4-1-0.5v-0.2c1-0.1,1.7-0.2,1.8-0.2
						s0.1,0.1,0.1,0.2L363.5,198.4z"/>
					<path id="Trazado_584" class="st10" d="M365.8,194.6c0.5-0.5,1.1-0.8,1.7-0.8c1.2,0,2.2,1.1,2.2,2.3c0,0,0,0.1,0,0.1
						c0.1,1.6-1.2,2.9-2.8,3c-0.6,0-1.1-0.1-1.6-0.4l-0.3,0.3l-0.2-0.1c0.1-0.7,0.2-1.4,0.2-2.1v-5c0-0.8-0.2-0.8-0.6-0.9v-0.2
						c0.4-0.1,0.8-0.3,1.2-0.5c0.1-0.1,0.2-0.1,0.3-0.1c0.1,0,0.1,0.1,0.1,0.2L365.8,194.6z M365.8,197.7c0,0.6,0.6,1.1,1.2,1.2
						c1.2,0,1.8-1.2,1.8-2.2c0.1-1.1-0.7-2.1-1.9-2.3c-0.4,0-0.8,0.2-1.1,0.5L365.8,197.7z"/>
					<path id="Trazado_585" class="st10" d="M315.9,205.7L315.9,205.7c0.3,0,0.6,0,0.6-0.4v-3.3c0-0.3-0.2-0.4-0.5-0.4h-0.1v-0.2
						c0.2,0,0.6,0,0.9,0s0.7,0,1,0v0.2h-0.1c-0.2,0-0.5,0-0.5,0.4v3.3c0,0.3,0.2,0.4,0.5,0.4h0.1v0.2c-0.3,0-0.7,0-1,0
						c-0.3,0-0.7,0-0.9,0L315.9,205.7z"/>
					<path id="Trazado_586" class="st10" d="M317.9,206c-0.3,0-0.7,0-1,0s-0.7,0-0.9,0h0v-0.2h0.1c0.2,0,0.4,0,0.4-0.3v-3.3
						c0-0.3-0.2-0.3-0.4-0.3h-0.1v-0.2h0c0.2,0,0.6,0,0.9,0s0.7,0,1,0h0v0.2h-0.1c-0.2,0-0.4,0-0.4,0.3v3.3c0,0.3,0.2,0.3,0.4,0.3
						h0.1L317.9,206L317.9,206z M317.8,205.9v-0.1h-0.1c-0.2,0-0.5,0-0.5-0.4v-3.3c0-0.3,0.3-0.4,0.5-0.4h0.1v-0.1c-0.3,0-0.7,0-1,0
						c-0.3,0-0.7,0-0.9,0v0.1h0.1c0.2,0,0.5,0,0.5,0.4v3.3c0,0.3-0.3,0.4-0.5,0.4H316v0.1c0.2,0,0.6,0,0.9,0
						S317.5,205.9,317.8,205.9"/>
					<path id="Trazado_587" class="st10" d="M322.2,204.7L322.2,204.7v-2.4c0-0.3-0.1-0.5-0.4-0.6c0,0-0.1,0-0.1,0h-0.1v-0.2
						c0.3,0,0.6,0,0.9,0s0.5,0,0.8,0v0.2h-0.1c-0.3,0-0.6,0-0.6,0.8v2.9c0,0.2,0,0.4,0,0.6h-0.2l-3.2-3.6v2.6c0,0.5,0.1,0.7,0.6,0.7
						h0.1v0.2c-0.3,0-0.5,0-0.8,0s-0.6,0-0.9,0v-0.2h0.1c0.4,0,0.6-0.3,0.6-0.8v-2.6c0-0.3-0.2-0.6-0.6-0.6c0,0,0,0,0,0h-0.1v-0.2
						c0.2,0,0.5,0,0.7,0s0.4,0,0.6,0L322.2,204.7z"/>
					<path id="Trazado_588" class="st10" d="M322.5,206.1h-0.3l-3.2-3.6v2.5c0,0.5,0.1,0.7,0.6,0.7h0.1v0.2l0,0c-0.3,0-0.5,0-0.8,0
						c-0.3,0-0.6,0-0.9,0h0v-0.2h0.1c0.4,0,0.5-0.3,0.5-0.8v-2.6c0-0.3-0.2-0.5-0.5-0.5c0,0,0,0,0,0h-0.1v-0.2h0c0.2,0,0.5,0,0.7,0
						c0.2,0,0.4,0,0.6,0l2.8,3.1v-2.3c0-0.5-0.3-0.6-0.5-0.6h-0.2v-0.2h0c0.3,0,0.6,0,0.9,0s0.5,0,0.8,0h0v0.2h-0.1
						c-0.3,0-0.5,0-0.5,0.8v2.9C322.6,205.6,322.6,205.8,322.5,206.1L322.5,206.1L322.5,206.1z M322.3,206h0.2c0-0.2,0-0.4,0-0.6
						v-2.9c0-0.8,0.3-0.8,0.6-0.8h0.1v-0.1c-0.2,0-0.5,0-0.7,0c-0.3,0-0.6,0-0.9,0v0.1h0.1c0.3,0,0.6,0.2,0.6,0.5c0,0,0,0.1,0,0.1
						v2.4l0,0h0l-2.8-3.2c-0.2,0-0.4,0-0.6,0c-0.2,0-0.5,0-0.7,0v0.1h0.1c0.3,0,0.6,0.3,0.6,0.6c0,0,0,0,0,0v2.6
						c0,0.5-0.1,0.8-0.6,0.8h-0.1v0.1c0.3,0,0.6,0,0.8,0s0.5,0,0.8,0v-0.1h-0.1c-0.5,0-0.6-0.2-0.6-0.8v-2.7L322.3,206z
						 M322.2,204.7L322.2,204.7L322.2,204.7z M322.2,204.7L322.2,204.7L322.2,204.7z"/>
					<path id="Trazado_589" class="st10" d="M324.1,201.9c-0.5,0-0.5,0.1-0.6,0.6h-0.2c0-0.2,0.1-0.4,0.1-0.5c0-0.2,0-0.4,0-0.5h0.2
						c0.1,0.2,0.2,0.2,0.4,0.2h3.2c0.2,0,0.3,0,0.3-0.2h0.2c0,0.2,0,0.3-0.1,0.5c0,0.2,0,0.3,0,0.5l-0.2,0.1c0-0.2,0-0.6-0.5-0.6h-1
						v3.3c0,0.5,0.2,0.5,0.5,0.5h0.1v0.2c-0.2,0-0.7,0-1,0c-0.3,0-0.8,0-1.1,0v-0.2h0.1c0.4,0,0.5,0,0.5-0.5v-3.4L324.1,201.9z"/>
					<path id="Trazado_590" class="st10" d="M326.6,206c-0.2,0-0.7,0-1,0c-0.3,0-0.8,0-1.1,0h0v-0.2h0.1c0.4,0,0.5,0,0.5-0.5v-3.3
						h-1v0h1.1v3.4c0,0.5-0.2,0.6-0.6,0.6h-0.1v0.1c0.2,0,0.7,0,1,0C325.9,205.9,326.3,205.9,326.6,206l0-0.2h-0.1
						c-0.3,0-0.5-0.1-0.5-0.6v-3.4h1.1c0.4,0,0.5,0.4,0.5,0.6l0.1-0.1c0-0.2,0-0.3,0-0.5c0-0.2,0-0.3,0.1-0.5h-0.1
						c0,0.2-0.2,0.2-0.4,0.2h-3.3c-0.1,0-0.3,0-0.4-0.2h-0.1c0,0.2,0,0.3,0,0.5c0,0.2-0.1,0.3-0.1,0.5h0.1c0.1-0.4,0.1-0.6,0.6-0.6
						v0.1c-0.5,0-0.5,0.1-0.6,0.6l0,0h-0.2v0c0-0.2,0.1-0.3,0.1-0.5c0-0.2,0-0.4,0-0.5v0h0.2v0c0,0.2,0.2,0.2,0.3,0.2h3.3
						c0.2,0,0.3,0,0.3-0.2v0h0l0.2,0v0c0,0.2-0.1,0.3-0.1,0.5c0,0.2,0,0.3,0,0.5l0,0l0,0l-0.2,0.1v0c0-0.2,0-0.6-0.4-0.6h-1v3.3
						c0,0.5,0.2,0.5,0.5,0.5h0.2L326.6,206L326.6,206z"/>
					<path id="Trazado_591" class="st10" d="M327.9,205.7L327.9,205.7c0.3,0,0.6,0,0.6-0.4v-3.3c0-0.3-0.2-0.4-0.5-0.4h-0.1v-0.2
						c0.4,0,1,0,1.6,0s1.2,0,1.6,0c0,0.3,0,0.7,0,1l-0.2,0.1c0-0.4-0.1-0.7-0.8-0.7h-0.9v1.6h0.7c0.4,0,0.5-0.2,0.5-0.6h0.2
						c0,0.2,0,0.5,0,0.7c0,0.2,0,0.5,0,0.7l-0.2,0c0-0.4-0.1-0.6-0.5-0.6h-0.7v1.5c0,0.4,0.4,0.4,0.8,0.4c0.8,0,1.1,0,1.3-0.8l0.2,0
						c-0.1,0.3-0.2,0.7-0.2,1c-0.4,0-1.1,0-1.7,0c-0.6,0-1.3,0-1.7,0L327.9,205.7z"/>
					<path id="Trazado_592" class="st10" d="M331.3,206c-0.4,0-1.1,0-1.7,0c-0.6,0-1.3,0-1.7,0l0,0v-0.2h0.1c0.2,0,0.4,0,0.4-0.3
						v-3.3c0-0.3-0.2-0.3-0.4-0.3h-0.1v-0.2l0,0c0.4,0,1,0,1.6,0s1.2,0,1.6,0h0v0c0,0.1,0,0.2,0,0.3c0,0.2,0,0.5,0,0.6v0h0l-0.2,0.1
						v0c0-0.4-0.1-0.7-0.7-0.7h-0.9v1.6h0.7c0.4,0,0.4-0.2,0.5-0.5v0h0.2v0c0,0.2,0,0.5,0,0.7s0,0.5,0,0.7l0,0h0l-0.2,0.1v0
						c0-0.4-0.1-0.6-0.5-0.6h-0.7v1.4c0,0.4,0.3,0.4,0.7,0.4c0.8,0,1.1,0,1.2-0.8v0h0l0.2,0.1v0C331.4,205.3,331.3,205.6,331.3,206
						L331.3,206L331.3,206z M331.2,205.9c0.1-0.3,0.1-0.6,0.2-1l-0.1,0c-0.2,0.7-0.6,0.8-1.3,0.8c-0.4,0-0.8,0-0.8-0.4v-1.5h0.8
						c0.4,0,0.5,0.3,0.5,0.6l0.1,0c0-0.2,0-0.5,0-0.7s0-0.5,0-0.7h-0.1c0,0.3-0.1,0.6-0.5,0.6h-0.8v-1.7h0.9c0.7,0,0.8,0.3,0.8,0.7
						l0.1,0c0-0.2,0-0.4,0-0.6c0-0.1,0-0.2,0-0.3c-0.4,0-1.1,0-1.6,0s-1.1,0-1.5,0v0.1h0.1c0.2,0,0.5,0,0.5,0.4v3.3
						c0,0.3-0.3,0.4-0.5,0.4h-0.1v0.1c0.4,0,1.1,0,1.6,0S330.8,205.9,331.2,205.9"/>
					<path id="Trazado_593" class="st10" d="M332.3,202.2c0-0.5-0.3-0.5-0.5-0.5h-0.1v-0.2c0.2,0,0.6,0,1,0s0.7,0,1,0
						c0.8,0,1.5,0.2,1.5,1.1c0,0.5-0.4,1-0.9,1.1l1.1,1.6c0.1,0.2,0.3,0.4,0.6,0.4v0.2c-0.2,0-0.4,0-0.6,0s-0.4,0-0.6,0
						c-0.5-0.6-0.9-1.3-1.3-2h-0.4v1.3c0,0.5,0.2,0.5,0.5,0.5h0.1v0.2c-0.4,0-0.7,0-1.1,0c-0.3,0-0.6,0-0.9,0v-0.2h0.1
						c0.2,0,0.5-0.1,0.5-0.3L332.3,202.2z M333.1,203.7h0.3c0.6,0,1-0.2,1-1c0-0.5-0.3-0.9-0.8-0.9c0,0-0.1,0-0.1,0
						c-0.1,0-0.2,0-0.4,0L333.1,203.7z"/>
					<path id="Trazado_594" class="st10" d="M336.1,206c-0.2,0-0.4,0-0.6,0s-0.4,0-0.6,0c-0.5-0.6-0.9-1.3-1.3-2h-0.4v1.3
						c0,0.5,0.2,0.5,0.5,0.5h0.1v0.2h0c-0.4,0-0.7,0-1.1,0c-0.3,0-0.6,0-0.9,0h0v-0.2h0.1c0.2,0,0.4-0.1,0.4-0.3v-3.2
						c0-0.4-0.2-0.4-0.4-0.5h-0.1v-0.2h0c0.2,0,0.6,0,1,0c0.4,0,0.7,0,1,0c0.8,0,1.5,0.2,1.5,1.1c0,0.5-0.4,1-0.9,1.1l1.1,1.6
						c0.1,0.2,0.3,0.4,0.6,0.4h0L336.1,206L336.1,206z M333.1,203.9h0.4l0,0c0.4,0.7,0.8,1.4,1.3,2c0.2,0,0.4,0,0.6,0
						c0.2,0,0.4,0,0.6,0v-0.1c-0.3,0-0.5-0.2-0.6-0.4l-1.1-1.6h0c0.5-0.1,0.8-0.6,0.9-1.1c0-0.9-0.7-1.1-1.5-1.1c-0.3,0-0.6,0-1,0
						s-0.7,0-0.9,0v0.1h0.1c0.2,0,0.5,0,0.5,0.5v3.2c0,0.2-0.2,0.4-0.5,0.4h-0.1v0.1c0.3,0,0.6,0,0.9,0c0.3,0,0.7,0,1.1,0v-0.1h-0.1
						c-0.3,0-0.5,0-0.5-0.5L333.1,203.9L333.1,203.9z M333.1,203.7L333.1,203.7l0-1.9h0c0.1,0,0.2,0,0.4,0c0.5,0,0.9,0.3,0.9,0.8
						c0,0,0,0.1,0,0.1c0,0.7-0.4,1-1,1L333.1,203.7z M333.4,203.6c0.6,0,0.9-0.2,0.9-1c0-0.5-0.3-0.9-0.8-0.9c0,0-0.1,0-0.1,0
						c-0.2,0-0.2,0-0.3,0v1.8L333.4,203.6z"/>
					<path id="Trazado_595" class="st10" d="M340.3,204.7L340.3,204.7v-2.4c0-0.3-0.1-0.5-0.4-0.6c0,0-0.1,0-0.1,0h-0.1v-0.2
						c0.3,0,0.6,0,0.9,0c0.3,0,0.5,0,0.8,0v0.2h-0.1c-0.3,0-0.6,0-0.6,0.8v2.9c0,0.2,0,0.4,0,0.6h-0.2l-3.2-3.6v2.6
						c0,0.5,0.1,0.7,0.6,0.7h0.1v0.2c-0.3,0-0.5,0-0.8,0s-0.6,0-0.9,0v-0.2h0.1c0.4,0,0.6-0.3,0.6-0.8v-2.6c0-0.3-0.3-0.6-0.6-0.6
						c0,0,0,0,0,0h-0.1v-0.2c0.2,0,0.5,0,0.7,0c0.2,0,0.4,0,0.6,0L340.3,204.7z"/>
					<path id="Trazado_596" class="st10" d="M340.7,206.1h-0.3l-3.2-3.6v2.5c0,0.5,0.1,0.7,0.6,0.7h0.1v0.2h0c-0.3,0-0.5,0-0.8,0
						c-0.3,0-0.6,0-0.9,0h0v-0.2h0.1c0.4,0,0.5-0.3,0.5-0.8v-2.6c0-0.3-0.2-0.5-0.5-0.5c0,0,0,0,0,0h-0.1v-0.2h0c0.2,0,0.5,0,0.7,0
						s0.4,0,0.6,0l2.8,3.1v-2.3c0-0.5-0.3-0.6-0.5-0.6h-0.2v-0.2h0c0.3,0,0.6,0,0.9,0c0.3,0,0.5,0,0.8,0h0v0.2h-0.1
						c-0.3,0-0.5,0-0.5,0.8v2.9C340.7,205.6,340.7,205.8,340.7,206.1L340.7,206.1L340.7,206.1z M340.5,206h0.2c0-0.2,0-0.4,0-0.6
						v-2.9c0-0.8,0.3-0.8,0.6-0.8h0.1v-0.1c-0.2,0-0.5,0-0.7,0c-0.2,0-0.6,0-0.9,0v0.1h0.1c0.3,0,0.6,0.2,0.6,0.5c0,0,0,0.1,0,0.1
						v2.4h0v0l-2.8-3.2c-0.2,0-0.4,0-0.6,0s-0.5,0-0.7,0v0.1h0.1c0.3,0,0.6,0.3,0.6,0.6c0,0,0,0,0,0v2.6c0,0.5-0.1,0.8-0.6,0.8h-0.1
						v0.1c0.3,0,0.6,0,0.8,0c0.3,0,0.5,0,0.8,0v-0.1h-0.1c-0.5,0-0.6-0.2-0.6-0.8v-2.7L340.5,206z M340.3,204.7L340.3,204.7
						L340.3,204.7z M340.3,204.7L340.3,204.7L340.3,204.7z"/>
					<path id="Trazado_597" class="st10" d="M342.3,205c-0.1,0.2-0.1,0.3-0.1,0.5c0,0.2,0.3,0.2,0.5,0.2h0.1v0.2c-0.3,0-0.5,0-0.8,0
						s-0.5,0-0.7,0v-0.2h0c0.3,0,0.5-0.2,0.6-0.4l1-2.9c0.1-0.3,0.2-0.5,0.2-0.8c0.2-0.1,0.4-0.2,0.6-0.3c0,0,0,0,0.1,0c0,0,0,0,0,0
						l0.1,0.2l1.2,3.3c0.1,0.2,0.2,0.5,0.2,0.6c0.1,0.2,0.2,0.3,0.4,0.3h0v0.2c-0.3,0-0.6,0-0.9,0c-0.3,0-0.6,0-1,0v-0.2h0.1
						c0.1,0,0.4,0,0.4-0.2c0-0.2-0.1-0.3-0.1-0.5l-0.2-0.7h-1.4L342.3,205z M343.2,202.3L343.2,202.3l-0.6,1.8h1.2L343.2,202.3z"/>
					<path id="Trazado_598" class="st10" d="M345.7,206c-0.3,0-0.6,0-0.9,0c-0.3,0-0.6,0-0.9,0h0v-0.2h0.1c0.1,0,0.4,0,0.4-0.2
						c0-0.2-0.1-0.3-0.1-0.4l-0.2-0.7h-1.4l-0.2,0.6c-0.1,0.2-0.1,0.3-0.1,0.5c0,0.2,0.2,0.2,0.4,0.2h0.1v0.2h0c-0.3,0-0.5,0-0.8,0
						s-0.5,0-0.7,0h0v-0.2h0.1c0.2,0,0.5-0.2,0.5-0.4l1-2.9c0.1-0.2,0.2-0.6,0.2-0.8c0.2-0.1,0.4-0.2,0.6-0.3h0.1c0,0,0.1,0,0.1,0
						c0,0.1,0,0.1,0.1,0.2l1.2,3.3c0.1,0.2,0.1,0.5,0.2,0.6c0.1,0.2,0.2,0.2,0.4,0.2h0.1L345.7,206L345.7,206z M343.9,205.9
						c0.3,0,0.6,0,0.9,0c0.3,0,0.6,0,0.8,0v-0.1l0,0c-0.2,0-0.4-0.1-0.4-0.3c-0.1-0.2-0.2-0.4-0.2-0.6l-1.2-3.3c0-0.1,0-0.1-0.1-0.2
						l0,0l0,0h0c-0.2,0.1-0.4,0.2-0.6,0.3c-0.1,0.3-0.1,0.5-0.2,0.8l-1,2.9c-0.1,0.3-0.3,0.4-0.6,0.4l0,0v0.1c0.2,0,0.4,0,0.6,0
						c0.2,0,0.5,0,0.7,0v-0.1h0c-0.2,0-0.5,0-0.5-0.2c0-0.2,0.1-0.3,0.1-0.5l0,0l0.2-0.7h1.5l0.2,0.7c0.1,0.1,0.1,0.3,0.1,0.5
						c0,0.2-0.3,0.2-0.4,0.2h-0.1L343.9,205.9z M342.6,204.1l0.6-1.8h0v0l0,0v0l0,0l0.6,1.8H342.6z M342.7,204h1.1l-0.5-1.7
						L342.7,204z M343.2,202.3L343.2,202.3z"/>
					<path id="Trazado_599" class="st10" d="M345.9,201.9c-0.5,0-0.5,0.1-0.6,0.6h-0.2c0-0.2,0.1-0.4,0.1-0.5c0-0.2,0-0.4,0-0.5h0.1
						c0.1,0.2,0.2,0.2,0.4,0.2h3.2c0.2,0,0.3,0,0.3-0.2h0.2c0,0.2-0.1,0.3-0.1,0.5c0,0.2,0,0.3,0,0.5l-0.2,0.1
						c0-0.2-0.1-0.6-0.5-0.6h-1v3.3c0,0.5,0.2,0.5,0.5,0.5h0.1v0.2c-0.2,0-0.7,0-1,0s-0.8,0-1.1,0v-0.2h0.1c0.3,0,0.5,0,0.5-0.5
						v-3.4L345.9,201.9z"/>
					<path id="Trazado_600" class="st10" d="M348.4,206c-0.2,0-0.7,0-1,0c-0.3,0-0.8,0-1.1,0h0v-0.2h0.1c0.3,0,0.5,0,0.5-0.5v-3.3
						h-1v0h1.1v3.4c0,0.5-0.2,0.6-0.5,0.6h-0.1v0.1c0.2,0,0.7,0,1,0C347.8,205.9,348.1,205.9,348.4,206l0-0.2h-0.1
						c-0.3,0-0.6-0.1-0.6-0.6v-3.4h1.1c0.4,0,0.5,0.4,0.5,0.6l0.1-0.1c0-0.2,0-0.3,0-0.5c0-0.2,0-0.3,0.1-0.5h-0.1
						c0,0.2-0.2,0.2-0.4,0.2h-3.3c-0.2,0-0.3,0-0.4-0.2h-0.1c0,0.2,0,0.3,0,0.5c0,0.2,0,0.3-0.1,0.5h0.1c0.1-0.4,0.1-0.6,0.6-0.6
						v0.1c-0.5,0-0.5,0.1-0.6,0.6l0,0h-0.2v0c0-0.2,0.1-0.3,0.1-0.5c0-0.2,0-0.4,0-0.5v0h0.2v0c0,0.2,0.2,0.2,0.3,0.2h3.3
						c0.2,0,0.3,0,0.3-0.2v0h0l0.2,0v0c0,0.2-0.1,0.3-0.1,0.5c0,0.2,0,0.3,0,0.5l0,0h0l-0.2,0.1v0c0-0.2,0-0.6-0.4-0.6h-1v3.3
						c0,0.5,0.2,0.5,0.5,0.5h0.1L348.4,206L348.4,206z"/>
					<path id="Trazado_601" class="st10" d="M349.8,205.7L349.8,205.7c0.3,0,0.6,0,0.6-0.4v-3.3c0-0.3-0.2-0.4-0.5-0.4h-0.1v-0.2
						c0.2,0,0.6,0,0.9,0s0.7,0,1,0v0.2h-0.1c-0.2,0-0.5,0-0.5,0.4v3.3c0,0.3,0.2,0.4,0.5,0.4h0.1v0.2c-0.3,0-0.7,0-1,0s-0.7,0-0.9,0
						L349.8,205.7z"/>
					<path id="Trazado_602" class="st10" d="M351.7,206c-0.3,0-0.7,0-1,0c-0.3,0-0.7,0-0.9,0h0v-0.2h0.1c0.2,0,0.4,0,0.4-0.3v-3.3
						c0-0.3-0.2-0.3-0.4-0.3h-0.1v-0.2h0c0.2,0,0.6,0,0.9,0c0.3,0,0.7,0,1,0h0v0.2h-0.1c-0.2,0-0.4,0-0.4,0.3v3.3
						c0,0.3,0.2,0.3,0.4,0.3h0.1L351.7,206L351.7,206z M351.7,205.9v-0.1h-0.1c-0.2,0-0.5,0-0.5-0.4v-3.3c0-0.3,0.3-0.4,0.5-0.4h0.1
						v-0.1c-0.3,0-0.7,0-1,0c-0.3,0-0.7,0-0.9,0v0.1h0.1c0.2,0,0.5,0,0.5,0.4v3.3c0,0.3-0.3,0.4-0.5,0.4h-0.1v0.1c0.2,0,0.6,0,0.9,0
						C351,205.9,351.4,205.9,351.7,205.9"/>
					<path id="Trazado_603" class="st10" d="M354.2,201.5c1.2-0.1,2.3,0.8,2.4,2c0,0.1,0,0.1,0,0.2c0.1,1.3-0.9,2.3-2.2,2.4
						c-0.1,0-0.1,0-0.2,0c-1.2,0.1-2.3-0.9-2.4-2.1c0-0.1,0-0.1,0-0.2C351.9,202.5,352.9,201.5,354.2,201.5
						C354.2,201.4,354.2,201.4,354.2,201.5 M354.3,205.7c1.2,0,1.4-1.1,1.4-2c0-0.9-0.5-2-1.6-2s-1.4,1-1.4,1.8
						C352.8,204.7,353.3,205.7,354.3,205.7"/>
					<path id="Trazado_604" class="st10" d="M351.9,203.8c0-1.3,1-2.3,2.3-2.3v0.1C352.9,201.5,351.9,202.5,351.9,203.8
						C351.9,203.7,351.9,203.8,351.9,203.8c0,1.2,1,2.2,2.2,2.3c0.1,0,0.1,0,0.2,0c1.3,0,2.3-1,2.4-2.2c0-0.1,0-0.1,0-0.2
						c0-1.2-1-2.2-2.2-2.1c-0.1,0-0.1,0-0.2,0v-0.1c1.2-0.1,2.3,0.8,2.4,2c0,0.1,0,0.1,0,0.2c0.1,1.3-0.9,2.4-2.2,2.4
						c-0.1,0-0.1,0-0.2,0c-1.2,0.1-2.3-0.9-2.4-2.1C351.9,203.9,351.9,203.8,351.9,203.8 M352.7,203.6c0-0.8,0.3-1.8,1.5-1.8
						c1.1,0,1.6,1.1,1.6,2.1s-0.2,2-1.5,2v-0.1c1.2,0,1.4-1,1.4-2c0-0.9-0.5-2-1.5-2C353.1,201.8,352.8,202.7,352.7,203.6
						c0,1.1,0.5,2.2,1.5,2.2v0.1C353.2,205.8,352.7,204.7,352.7,203.6"/>
					<path id="Trazado_605" class="st10" d="M360.9,204.7L360.9,204.7v-2.4c0-0.3-0.2-0.6-0.4-0.6c0,0-0.1,0-0.1,0h-0.1v-0.2
						c0.3,0,0.6,0,0.9,0s0.5,0,0.8,0v0.2h-0.1c-0.3,0-0.6,0-0.6,0.8v2.9c0,0.2,0,0.4,0,0.6H361l-3.2-3.6v2.6c0,0.5,0.1,0.7,0.6,0.7
						h0.1v0.2c-0.3,0-0.5,0-0.8,0s-0.6,0-0.9,0v-0.2h0.1c0.4,0,0.6-0.3,0.6-0.8v-2.6c0-0.3-0.2-0.6-0.6-0.6c0,0,0,0,0,0h-0.1v-0.2
						c0.2,0,0.5,0,0.7,0s0.4,0,0.6,0L360.9,204.7z"/>
					<path id="Trazado_606" class="st10" d="M361.2,206.1H361l-3.2-3.6v2.5c0,0.5,0.1,0.7,0.6,0.7h0.1v0.2h0c-0.3,0-0.5,0-0.8,0
						c-0.3,0-0.6,0-0.9,0h0v-0.2h0.1c0.4,0,0.5-0.3,0.5-0.8v-2.6c0-0.3-0.2-0.5-0.5-0.5c0,0,0,0,0,0h-0.1v-0.2h0c0.2,0,0.5,0,0.7,0
						s0.4,0,0.6,0l2.8,3.1v-2.3c0-0.5-0.3-0.6-0.5-0.6h-0.2v-0.2h0c0.3,0,0.6,0,0.9,0s0.5,0,0.8,0h0v0.2h-0.1c-0.3,0-0.5,0-0.5,0.8
						v2.9C361.2,205.6,361.2,205.8,361.2,206.1L361.2,206.1L361.2,206.1z M361,206h0.2c0-0.2,0-0.4,0-0.6v-2.9
						c0-0.8,0.3-0.8,0.6-0.8h0.1v-0.1c-0.2,0-0.5,0-0.7,0c-0.2,0-0.6,0-0.9,0v0.1h0.1c0.3,0,0.6,0.2,0.6,0.5c0,0,0,0.1,0,0.1v2.4
						l0,0l0,0l-2.8-3.2c-0.2,0-0.4,0-0.6,0s-0.5,0-0.7,0v0.1h0.1c0.3,0,0.6,0.3,0.6,0.6c0,0,0,0,0,0v2.6c0,0.5-0.1,0.8-0.6,0.8h-0.1
						v0.1c0.3,0,0.6,0,0.8,0s0.5,0,0.8,0v-0.1h-0.1c-0.5,0-0.6-0.2-0.6-0.8v-2.7L361,206z M360.9,204.7L360.9,204.7L360.9,204.7z
						 M360.9,204.7L360.9,204.7L360.9,204.7z"/>
					<path id="Trazado_607" class="st10" d="M362.8,205c-0.1,0.2-0.1,0.3-0.1,0.5c0,0.2,0.3,0.2,0.5,0.2h0.1v0.2c-0.2,0-0.5,0-0.8,0
						c-0.2,0-0.5,0-0.7,0v-0.2h0c0.3,0,0.5-0.2,0.5-0.4l1-2.9c0.1-0.3,0.2-0.5,0.2-0.8c0.2-0.1,0.4-0.2,0.6-0.3c0,0,0,0,0.1,0
						c0,0,0,0,0,0c0,0.1,0,0.1,0.1,0.2l1.2,3.3c0.1,0.2,0.2,0.5,0.2,0.6c0.1,0.2,0.2,0.3,0.4,0.3h0v0.2c-0.3,0-0.6,0-0.9,0
						c-0.3,0-0.6,0-0.9,0v-0.2h0.1c0.1,0,0.4,0,0.4-0.2c0-0.2-0.1-0.3-0.1-0.5l-0.2-0.7h-1.4L362.8,205z M363.8,202.3L363.8,202.3
						l-0.6,1.8h1.2L363.8,202.3z"/>
					<path id="Trazado_608" class="st10" d="M366.2,206c-0.3,0-0.6,0-0.9,0c-0.3,0-0.6,0-0.9,0h0v-0.2h0.1c0.1,0,0.4,0,0.4-0.2
						c0-0.2-0.1-0.3-0.1-0.4l-0.2-0.7h-1.4l-0.2,0.6c-0.1,0.2-0.1,0.3-0.1,0.5c0,0.2,0.2,0.2,0.4,0.2h0.1v0.2h0c-0.3,0-0.5,0-0.8,0
						c-0.2,0-0.5,0-0.7,0h0v-0.2h0.1c0.2,0,0.5-0.2,0.5-0.4l1-2.9c0.1-0.2,0.2-0.6,0.3-0.8c0.2-0.1,0.4-0.2,0.6-0.3h0.1
						c0,0,0.1,0,0.1,0c0,0.1,0,0.1,0.1,0.2l1.2,3.3c0.1,0.2,0.2,0.5,0.2,0.6c0.1,0.2,0.2,0.2,0.4,0.2h0.1L366.2,206L366.2,206z
						 M364.4,205.9c0.3,0,0.6,0,0.9,0c0.3,0,0.6,0,0.8,0v-0.1l0,0c-0.2,0-0.4-0.1-0.4-0.3c-0.1-0.2-0.2-0.4-0.2-0.6l-1.2-3.3
						l-0.1-0.2l0,0l0,0h0c-0.2,0.1-0.4,0.2-0.6,0.3c-0.1,0.3-0.1,0.5-0.2,0.8l-1,2.9c-0.1,0.3-0.3,0.4-0.6,0.4l0,0v0.1
						c0.2,0,0.4,0,0.7,0s0.5,0,0.7,0v-0.1h0c-0.2,0-0.5,0-0.5-0.2c0-0.2,0.1-0.3,0.1-0.5l0,0l0.2-0.7h1.5l0.3,0.7
						c0.1,0.1,0.1,0.3,0.1,0.5c0,0.2-0.3,0.2-0.4,0.2h0L364.4,205.9z M363.1,204.1l0.6-1.8h0v0l0,0v0h0l0.6,1.8H363.1z M363.2,204
						h1.1l-0.5-1.7L363.2,204z M363.7,202.3L363.7,202.3z"/>
					<path id="Trazado_609" class="st10" d="M367.8,205.3c0,0.3,0.2,0.3,0.4,0.4c0.3,0,0.6,0,0.8,0c0.2,0,0.5-0.1,0.6-0.3
						c0.1-0.1,0.2-0.3,0.2-0.5h0.2c-0.1,0.4-0.2,0.7-0.2,1.1c-0.6,0-1.1,0-1.7,0s-1.1,0-1.7,0v-0.2h0.1c0.2,0,0.5,0,0.5-0.4v-3.2
						c0-0.3-0.2-0.4-0.5-0.4h-0.1v-0.2c0.3,0,0.7,0,1,0c0.3,0,0.6,0,1,0v0.2h-0.2c-0.2,0-0.4,0-0.4,0.3L367.8,205.3z"/>
					<path id="Trazado_610" class="st10" d="M369.7,206c-0.6,0-1.1,0-1.7,0s-1.1,0-1.7,0h0v-0.2h0.1c0.2,0,0.4,0,0.4-0.4v-3.2
						c0-0.3-0.2-0.3-0.4-0.3h-0.1v-0.2h0c0.3,0,0.7,0,1,0c0.3,0,0.6,0,1,0h0v0.2h-0.2c-0.2,0-0.4,0-0.4,0.3v3.2
						c0,0.2,0.2,0.3,0.4,0.3c0.1,0,0.2,0,0.3,0c0.2,0,0.3,0,0.5,0c0.2,0,0.4-0.1,0.6-0.3c0.1-0.1,0.1-0.3,0.2-0.4v0h0.2v0
						C369.9,205.2,369.9,205.6,369.7,206L369.7,206L369.7,206z M369.7,205.9c0.1-0.3,0.2-0.7,0.2-1h-0.1c0,0.2-0.1,0.3-0.2,0.4
						c-0.2,0.2-0.4,0.3-0.6,0.3c-0.2,0-0.3,0-0.5,0c-0.1,0-0.2,0-0.4,0c-0.2,0-0.4-0.1-0.4-0.4v-3.2c0-0.3,0.2-0.4,0.5-0.4h0.1v-0.1
						c-0.3,0-0.6,0-0.9,0s-0.6,0-1,0v0.1h0.1c0.2,0,0.5,0,0.5,0.4v3.2c0,0.4-0.3,0.4-0.5,0.4h-0.1v0.1c0.5,0,1.1,0,1.6,0
						S369.2,205.9,369.7,205.9"/>
					<path id="Trazado_611" class="st10" d="M369.9,201.4c0.4,0,0.7,0.3,0.7,0.6c0,0,0,0,0,0c0,0.4-0.3,0.7-0.7,0.7
						c-0.4,0-0.7-0.3-0.7-0.7C369.2,201.7,369.5,201.4,369.9,201.4C369.9,201.4,369.9,201.4,369.9,201.4 M369.9,202.6
						c0.3,0,0.5-0.2,0.6-0.5c0-0.3-0.2-0.5-0.5-0.6c-0.3,0-0.5,0.2-0.6,0.5c0,0,0,0,0,0C369.4,202.3,369.6,202.6,369.9,202.6
						 M369.6,202.4L369.6,202.4C369.6,202.3,369.6,202.3,369.6,202.4l0.1-0.6c0-0.1,0-0.1-0.1-0.1v0h0.3c0.1,0,0.2,0.1,0.2,0.2
						c0,0.1-0.1,0.2-0.2,0.2l0.1,0.2c0,0.1,0.1,0.1,0.1,0.2v0h-0.1c-0.1,0-0.1-0.1-0.2-0.3h-0.1v0.2c0,0,0,0,0.1,0v0L369.6,202.4z
						 M369.8,202L369.8,202c0.2,0,0.2-0.1,0.2-0.2s-0.1-0.1-0.1-0.1h-0.1V202z"/>
					<path id="Trazado_612" class="st11" d="M303.2,164.2h-46.9v47h46.9v-15.5c0.2-0.3,0.3-0.7,0.3-1c0-0.4-0.1-0.7-0.3-1V164.2z"/>
					<path id="Trazado_613" class="st1" d="M256.4,188h2.2l0.5-1.2h1.1l0.5,1.2h4.4v-0.9l0.4,0.9h2.3l0.4-1v0.9h11v-2h0.2
						c0.1,0,0.2,0,0.2,0.3v1.7h5.7v-0.5c0.7,0.3,1.4,0.5,2.1,0.5h2.4l0.5-1.2h1.1l0.5,1.2h4.6v-1.2l0.7,1.2h3.7v-7.7h-3.7v0.9
						l-0.5-0.9h-3.8v0.9l-0.5-0.9h-5.1c-0.8,0-1.5,0.1-2.2,0.4v-0.4h-3.5v0.4c-0.4-0.3-1-0.5-1.5-0.4h-12.8l-0.9,2l-0.9-2h-4v0.9
						l-0.4-0.9H258l-1.6,3.7L256.4,188z M299.9,186.9H298l-2.5-4.1v4.1h-2.7l-0.5-1.2h-2.7l-0.5,1.2h-1.6c-1.3,0.2-2.5-0.7-2.6-2
						c0-0.2,0-0.5,0-0.7c-0.1-0.8,0.2-1.6,0.7-2.2c0.6-0.5,1.3-0.7,2-0.6h1.3v1.2h-1.2c-0.4,0-0.7,0.1-1,0.3
						c-0.3,0.4-0.4,0.8-0.4,1.2c0,0.5,0.1,0.9,0.4,1.3c0.3,0.2,0.6,0.3,0.9,0.3h0.6l1.9-4.3h2l2.2,5.2v-5.2h2l2.3,3.8v-3.8h1.3
						L299.9,186.9z M284.3,186.9h-1.3v-5.5h1.3V186.9z M282.2,182.9c0,0.6-0.3,1.2-0.9,1.5c0.3,0.1,0.5,0.3,0.6,0.5
						c0.2,0.3,0.3,0.7,0.2,1v1.1h-1.3v-0.7c0.1-0.4,0-0.7-0.2-1.1c-0.2-0.2-0.5-0.2-1-0.2h-1.4v2h-1.3v-5.5h3c0.5-0.1,1.1,0,1.6,0.3
						C281.9,181.9,282.2,182.4,282.2,182.9 M275.9,186.9h-4.4v-5.5h4.4v1.2h-3.1v1h3v1.1h-3v1.1h3.1L275.9,186.9z M270.6,186.9h-1.3
						v-4.3l-1.9,4.3h-1.2l-1.9-4.3v4.3h-2.7l-0.5-1.2h-2.7l-0.5,1.2h-1.4l2.4-5.5h1.9l2.2,5.2v-5.2h2.2l1.7,3.7l1.6-3.7h2.2
						L270.6,186.9z M291.8,184.6l-0.9-2.2l-0.9,2.2H291.8z M280.4,183.7c-0.2,0.1-0.4,0.1-0.7,0.1h-1.6v-1.2h1.6
						c0.2,0,0.4,0,0.6,0.1c0.2,0.1,0.3,0.3,0.3,0.5C280.7,183.4,280.6,183.6,280.4,183.7 M260.6,184.6l-0.9-2.2l-0.9,2.2H260.6z"/>
					<path id="Trazado_614" class="st1" d="M281.9,192.7c0,1.5-1.1,1.8-2.3,1.8H278v1.8h-2.6l-1.6-1.8l-1.7,1.8h-5.2v-5.5h5.3
						l1.6,1.8l1.7-1.8h4.2C280.7,190.9,281.9,191.2,281.9,192.7 M271.4,195.3h-3.2v-1.1h2.9V193h-2.9v-1h3.3l1.4,1.6L271.4,195.3z
						 M276.7,195.9l-2-2.2l2-2.2V195.9z M279.7,193.5H278v-1.4h1.7c0.5,0,0.8,0.2,0.8,0.7C280.5,193.2,280.2,193.5,279.7,193.5
						 M288.6,190.9h4.4v1.1h-3.1v1h3v1.1h-3v1.1h3.1v1.2h-4.4L288.6,190.9z M286.9,193.9c0.3,0.1,0.5,0.3,0.6,0.5
						c0.2,0.3,0.3,0.7,0.2,1v1.1h-1.3v-0.7c0-0.3,0-0.8-0.2-1.1s-0.5-0.2-1-0.2h-1.4v2h-1.3v-5.5h3c0.5,0,1.1,0,1.6,0.3
						c0.4,0.2,0.7,0.7,0.7,1.2C287.8,193,287.5,193.6,286.9,193.9 M286.1,193.2c-0.2,0.1-0.4,0.1-0.6,0.1h-1.6v-1.2h1.6
						c0.2,0,0.4,0,0.6,0.1c0.2,0.1,0.3,0.3,0.3,0.5C286.4,192.9,286.3,193.1,286.1,193.2 M298,193.5c0.3,0.3,0.4,0.7,0.4,1.2
						c0,1.2-0.7,1.7-2.1,1.7h-2.6v-1.2h2.6c0.2,0,0.4,0,0.5-0.1c0.1-0.1,0.2-0.2,0.2-0.4c0-0.1-0.1-0.3-0.2-0.4
						c-0.1-0.1-0.3-0.1-0.5-0.1c-1.2,0-2.8,0-2.8-1.7c0-0.9,0.7-1.6,1.6-1.7c0.1,0,0.2,0,0.3,0h2.7v1.2h-2.4c-0.2,0-0.4,0-0.5,0.1
						c-0.2,0.1-0.3,0.4-0.1,0.6c0.1,0.1,0.1,0.1,0.2,0.2c0.2,0,0.3,0.1,0.5,0.1h0.7C297,193,297.6,193.2,298,193.5 M303.2,195.7
						c-0.4,0.5-1.1,0.8-1.8,0.7h-2.6v-1.2h2.5c0.2,0,0.4,0,0.5-0.1c0.1-0.1,0.2-0.2,0.2-0.4c0-0.1-0.1-0.3-0.2-0.4
						c-0.1-0.1-0.3-0.1-0.5-0.1c-1.2,0-2.8,0-2.8-1.7c0-0.9,0.7-1.7,1.6-1.7c0.1,0,0.2,0,0.3,0h2.6v-1.1h-2.4
						c-0.6,0-1.2,0.1-1.7,0.5v-0.5h-3.6c-0.6,0-1.1,0.1-1.6,0.5v-0.5h-6.4v0.5c-0.5-0.3-1.2-0.5-1.8-0.5h-4.2v0.5
						c-0.6-0.4-1.2-0.5-1.9-0.5h-4.8l-1.1,1.2l-1-1.2h-7.1v7.7h7l1.1-1.2l1.1,1.2h4.3v-1.8h0.4c0.6,0,1.2-0.1,1.8-0.3v2.1h3.5v-2
						h0.2c0.2,0,0.2,0,0.2,0.2v1.8h10.8c0.6,0,1.3-0.1,1.8-0.5v0.5h3.4c0.7,0,1.3-0.1,1.9-0.4L303.2,195.7z M303.2,192.1h-2.4
						c-0.2,0-0.4,0-0.5,0.1c-0.1,0.1-0.2,0.2-0.2,0.4c0,0.2,0.1,0.4,0.3,0.4c0.2,0,0.3,0.1,0.5,0.1h0.7c0.5,0,1.1,0.1,1.5,0.4
						c0,0,0.1,0.1,0.1,0.1L303.2,192.1z"/>
					<path id="Trazado_615" class="st11" d="M253.5,209.9H253c0-0.2-0.1-0.4-0.1-0.5c0-0.1,0-0.3-0.3-0.3h-0.6v0.9h-0.4v-2.1h1
						c0.3,0,0.7,0.1,0.7,0.6c0,0.2-0.1,0.4-0.2,0.5c0.1,0.1,0.2,0.1,0.2,0.4v0.4c0,0.1,0,0.1,0.1,0.2V209.9z M253,208.4
						c0-0.3-0.2-0.3-0.3-0.3h-0.6v0.6h0.6C252.8,208.7,253,208.7,253,208.4 M254.7,208.9c0-1.2-1-2.2-2.2-2.2c-1.2,0-2.2,1-2.2,2.2
						s1,2.2,2.2,2.2c0,0,0,0,0,0C253.7,211.1,254.7,210.1,254.7,208.9 M254.4,208.9c0,1-0.8,1.9-1.9,1.9c-1,0-1.9-0.8-1.9-1.9
						s0.8-1.9,1.9-1.9l0,0C253.5,207,254.4,207.8,254.4,208.9C254.4,208.9,254.4,208.9,254.4,208.9"/>
					<rect id="Rectángulo_86" x="168.2" y="164.2" class="st12" width="78.5" height="47.1"/>
					<path id="Trazado_616" class="st13" d="M215.4,190.3c-0.1-0.1-0.1-0.2-0.1-0.3C215.3,190.1,215.3,190.2,215.4,190.3"/>
					<path id="Trazado_617" class="st1" d="M184.6,197.2h-2.7c-0.3,0-0.7,0.2-0.8,0.5l-3.1,6.6l-3.1-6.6c-0.1-0.3-0.5-0.5-0.8-0.5
						h-2.6c-0.5,0-0.9,0.4-0.9,0.9c0,0,0,0,0,0v9.2c0,0.5,0.4,0.9,0.9,0.9c0,0,0,0,0,0h1.3c0.5,0,0.9-0.4,0.9-0.9v-5.3l2.8,5.7
						c0.1,0.3,0.4,0.5,0.8,0.5h1.4c0.3,0,0.7-0.2,0.8-0.5l2.8-5.8v5.5c0,0.5,0.4,0.9,0.9,0.9h1.4c0.5,0,0.9-0.4,0.9-0.9v-9.2
						C185.5,197.6,185.1,197.2,184.6,197.2C184.6,197.2,184.6,197.2,184.6,197.2"/>
					<path id="Trazado_618" class="st1" d="M195.4,197.6c-0.2-0.3-0.5-0.4-0.8-0.4h-1.9c-0.3,0-0.6,0.2-0.8,0.4l-5.4,9.2
						c-0.2,0.3-0.2,0.6,0,0.9c0.2,0.3,0.5,0.4,0.8,0.4h1.5c0.3,0,0.6-0.2,0.8-0.4l1-1.6v0c0.1,0.3,0.4,0.4,0.7,0.4h5.8l0.7,1.2
						c0.2,0.3,0.5,0.4,0.8,0.4h1.6c0.3,0,0.6-0.2,0.8-0.4c0.2-0.3,0.2-0.6,0-0.9L195.4,197.6z M191.7,204l1.9-3.3l1.9,3.3H191.7"/>
					<path id="Trazado_619" class="st1" d="M214.6,201.4h-5.8c-0.5,0-0.9,0.4-0.9,0.9c0,0,0,0,0,0v0.9c0,0.5,0.4,0.9,0.9,0.9
						c0,0,0,0,0,0h3.6v0.6c-1.1,0.7-2.3,1-3.6,1c-2.5,0-4.2-1.2-4.2-3s1.7-2.9,4.2-2.9c1.2-0.1,2.4,0.3,3.3,1.2
						c0.3,0.4,0.8,0.4,1.2,0.1l1-0.8c0.2-0.2,0.3-0.4,0.3-0.6c0-0.2-0.1-0.5-0.2-0.7c-1.6-1.3-3.6-2-5.6-1.9c-4.6,0-7.6,2.3-7.6,5.6
						s3.1,5.6,7.6,5.6c2.2,0,4.5-0.6,6.3-1.9c0.2-0.2,0.3-0.4,0.3-0.7v-3.4C215.5,201.8,215.1,201.4,214.6,201.4
						C214.6,201.4,214.6,201.4,214.6,201.4"/>
					<path id="Trazado_620" class="st1" d="M228,197.2h-1.4c-0.5,0-0.9,0.4-0.9,0.9c0,0,0,0,0,0v6l-5.2-6.5
						c-0.2-0.2-0.4-0.3-0.7-0.3h-1.8c-0.5,0-0.9,0.4-0.9,0.9c0,0,0,0,0,0v9.2c0,0.5,0.4,0.9,0.9,0.9h1.4c0.5,0,0.9-0.4,0.9-0.9V202
						l4.6,5.8c0.2,0.2,0.4,0.3,0.7,0.3h2.4c0.5,0,0.9-0.4,0.9-0.9v-9.2C228.8,197.6,228.5,197.2,228,197.2
						C228,197.2,228,197.2,228,197.2"/>
					<path id="Trazado_621" class="st1" d="M244.2,206.8L244.2,206.8l-5.4-9.2c-0.2-0.3-0.5-0.4-0.8-0.4h-1.9
						c-0.3,0-0.6,0.2-0.8,0.4l-5.4,9.2c-0.2,0.3-0.2,0.6,0,0.9c0.2,0.3,0.5,0.4,0.8,0.4h1.5c0.3,0,0.6-0.2,0.8-0.4l1-1.6v0
						c0.1,0.3,0.4,0.4,0.7,0.4h5.8l0.7,1.2c0.2,0.3,0.5,0.4,0.8,0.4h1.6c0.3,0,0.6-0.2,0.8-0.4C244.4,207.4,244.4,207.1,244.2,206.8
						 M235.2,204l1.9-3.3l1.9,3.3H235.2"/>
					<path id="Trazado_622" class="st1" d="M202,189.7c-0.1-0.2-0.3-0.3-0.6-0.3c-0.2,0-0.4,0.2-0.5,0.4c-0.7,2-1.1,1.9-1.2,1.9
						c-1.1,0-2.7-4.3-4.2-8.1c-0.8-2.2-1.2-3.4-2.3-5.7c-0.1-0.2-0.3-0.4-0.5-0.4l0,0c-0.2,0-0.5,0.1-0.5,0.4l-0.7,1.5
						c-0.1,0.2-0.1,0.3,0,0.5c0.8,1.9,1.1,2.7,1.8,4.6c2.1,5.5,3.8,9.9,6.4,10h0c1.2,0,1.9-0.5,3-3c0.1-0.2,0.1-0.4,0-0.5L202,189.7
						z"/>
					<path id="Trazado_623" class="st1" d="M203.8,181.1L203.8,181.1l0.6,1.2c0.1,0.2,0.3,0.3,0.5,0.3h0.1c0.2,0,0.5-0.2,0.5-0.5
						l0.8-3.5c0.2-0.9,0.5-1.9,0.7-2.8c0-0.1,0-0.1,0.1-0.2l0,0c0.1-0.2,0.1-0.4,0.2-0.6c0.1,0.2,0.2,0.4,0.2,0.6l0,0
						c0,0.1,0,0.1,0.1,0.2c0.3,0.9,0.5,1.9,0.7,2.8l0.8,3.5c0.1,0.2,0.3,0.4,0.5,0.5h0.1c0.2,0,0.4-0.1,0.5-0.3l0.6-1.2
						c0.1-0.2,0.1-0.3,0.2-0.5c0-0.2,0-0.4-0.1-0.5c-0.5-1.8-0.5-2-1.1-3.9c-0.3-1-0.6-1.9-1-2.9c-0.2-0.5-0.5-1-0.9-1.4
						c-0.4-0.3-0.9-0.3-1.3,0c-0.4,0.4-0.7,0.9-0.9,1.4c-0.4,0.9-0.7,1.9-1,2.9c-0.6,1.9-0.6,2.1-1.1,3.9c-0.1,0.2-0.1,0.3-0.1,0.5
						C203.7,180.8,203.7,181,203.8,181.1"/>
					<path id="Trazado_624" class="st1" d="M222.6,177.9c-0.1-0.2-0.3-0.4-0.5-0.4l0,0c-0.2,0-0.4,0.1-0.5,0.4
						c-1,2.3-1.4,3.5-2.3,5.7c-1.4,3.8-3,8-4.2,8.1c0,0-0.5,0.1-1.2-1.9c-0.1-0.3-0.5-0.5-0.8-0.4c-0.1,0-0.3,0.1-0.3,0.3l-0.7,1.3
						c-0.1,0.2-0.1,0.3,0,0.5c1.1,2.5,1.7,3,3,3h0c2.6-0.1,4.2-4.4,6.4-10c0.7-1.9,1-2.7,1.8-4.6c0.1-0.2,0.1-0.3,0-0.5L222.6,177.9
						z"/>
					<path id="Trazado_625" class="st1" d="M233.8,175c0-0.1-0.1-0.3-0.1-0.4v-0.1l0-0.1v-0.1c0-0.1,0-0.1,0-0.2v0v-0.1l0,0v0
						c-1-3.7-2.2-7-4.7-7l0,0c-1.4,0-2.4,0.6-4.4,4.6c-0.1,0.2-0.1,0.4,0,0.5l0.7,1.4c0.1,0.2,0.3,0.3,0.5,0.3l0,0
						c0.2,0,0.4-0.1,0.5-0.3c1.9-4.1,2.6-3.8,2.7-3.8c0.7,0,3.2,1.4,4.3,17.4c-0.2,1.9-0.6,3-1.2,3l0,0c-0.9,0-2.9-5.3-4.1-8.5
						c-2.5-6.4-5.1-13-8.2-13h-0.1c-3,0.1-4.9,4.8-6.9,9.8c-1.6,3.9-3.3,8.3-5.2,8.6c-0.1,0-0.1,0-0.2,0c-0.1,0-0.1,0-0.2,0
						c-1.9-0.3-3.6-4.7-5.2-8.6c-2-5-3.9-9.7-6.9-9.8h0c-3.1,0-5.7,6.6-8.1,13c-1.2,3.2-3.2,8.5-4.1,8.5l0,0c-0.6,0-1-1.1-1.2-3
						c1.1-16,3.6-17.3,4.3-17.4c0.1,0,0.7-0.3,2.7,3.8c0.1,0.3,0.5,0.4,0.8,0.3c0.1-0.1,0.2-0.2,0.3-0.3l0.7-1.4
						c0.1-0.2,0.1-0.4,0-0.5c-2.1-4-3-4.6-4.4-4.6l0,0c-2.4,0-3.7,3.3-4.6,7v0l0,0v0.1v0l0,0.2v0.1l0,0.1v0.1c0,0.1-0.1,0.3-0.1,0.4
						c-1.1,4.8-2.8,15.2-0.3,18.3c0.5,0.6,1.2,1,2,1c2.7,0,4.6-5.2,6.8-11.3c1.7-4.6,3.7-10.2,5.5-10.2l0,0c1.6,0,2.8,3.9,3.9,7.7
						c1.7,5.7,3.7,12.2,8.4,12.3l0,0c4.7,0,6.7-6.5,8.4-12.3c1.1-3.8,2.3-7.7,3.9-7.7l0,0c1.8,0,3.8,5.7,5.5,10.2
						c2.2,6,4.1,11.3,6.8,11.3c0.8,0,1.5-0.4,2-1C236.6,190.2,234.9,179.9,233.8,175"/>
					<rect id="Rectángulo_87" y="164.4" class="st1" width="74.2" height="47.2"/>
					<rect id="Rectángulo_88" x="1.2" y="204" class="st14" width="71.7" height="6.4"/>
					<rect id="Rectángulo_89" x="1.2" y="165.6" class="st15" width="71.7" height="6.4"/>
					<path id="Trazado_626" class="st15" d="M29.9,179.2l-7.4,17.7h-4.8l-3.6-14.1c-0.1-0.7-0.5-1.3-1.1-1.6c-1.4-0.7-3-1.2-4.5-1.5
						l0.1-0.5h7.8c1.1,0,1.9,0.8,2.1,1.8l1.9,10.3l4.8-12L29.9,179.2z M48.9,191.1c0-4.7-6.4-4.9-6.4-7c0-0.6,0.6-1.3,1.9-1.5
						c1.5-0.2,3.1,0.1,4.5,0.8l0.8-3.8c-1.4-0.5-2.8-0.8-4.3-0.8c-4.5,0-7.7,2.4-7.7,5.9c0,2.6,2.3,4,4,4.8s2.4,1.4,2.4,2.2
						c0,1.2-1.4,1.7-2.7,1.7c-1.6,0-3.2-0.4-4.7-1.1l-0.8,3.9c1.6,0.6,3.3,1,5.1,0.9C45.7,197.2,48.9,194.8,48.9,191.1 M60.8,196.9
						H65l-3.7-17.7h-3.9c-0.9,0-1.6,0.5-1.9,1.3l-6.9,16.4h4.8l0.9-2.7h5.9L60.8,196.9z M55.7,190.6l2.4-6.7l1.4,6.7H55.7z
						 M36.5,179.2l-3.8,17.7h-4.6l3.8-17.7H36.5z"/>
					<rect id="Rectángulo_90" x="84.6" y="164.3" class="st10" width="73.9" height="46.7"/>
					<path id="Trazado_627" class="st1" d="M105.2,207.2v-2.6c0.1-0.8-0.6-1.6-1.4-1.7c-0.1,0-0.2,0-0.2,0c-0.6,0-1.2,0.2-1.5,0.7
						c-0.3-0.5-0.8-0.8-1.4-0.7c-0.5,0-1,0.2-1.3,0.6V203h-0.8v4.2h0.9v-2.4c-0.1-0.6,0.3-1,0.9-1.1c0.1,0,0.1,0,0.2,0
						c0.6,0,0.9,0.4,0.9,1.1v2.4h0.9v-2.4c-0.1-0.6,0.4-1.1,0.9-1.1c0,0,0.1,0,0.1,0c0.6,0,1,0.4,1,1.1v2.4L105.2,207.2z M118.9,203
						h-1.5v-1.3h-0.9v1.3h-0.9v0.8h0.9v2c0,1,0.3,1.6,1.4,1.6c0.4,0,0.8-0.1,1.1-0.3l-0.3-0.7c-0.2,0.1-0.5,0.2-0.8,0.2
						c-0.5,0-0.6-0.3-0.6-0.7v-2h1.5L118.9,203z M126.7,202.9c-0.5,0-0.9,0.2-1.1,0.6V203h-0.8v4.2h0.8v-2.4c0-0.7,0.3-1.1,0.9-1.1
						c0.2,0,0.4,0,0.6,0.1l0.3-0.8C127.1,202.9,126.9,202.9,126.7,202.9 M114.9,203.3c-0.5-0.3-1.1-0.5-1.7-0.4
						c-1.1,0-1.7,0.5-1.7,1.3c0,0.7,0.5,1.1,1.4,1.2l0.4,0.1c0.5,0.1,0.8,0.2,0.8,0.5c0,0.3-0.4,0.5-1,0.5c-0.5,0-1-0.1-1.4-0.4
						l-0.4,0.7c0.5,0.4,1.2,0.6,1.8,0.5c1.2,0,1.9-0.6,1.9-1.4c0-0.7-0.5-1.1-1.4-1.2l-0.4-0.1c-0.4-0.1-0.7-0.2-0.7-0.5
						c0-0.3,0.3-0.5,0.8-0.5c0.5,0,0.9,0.1,1.3,0.4L114.9,203.3z M127.7,205.1c-0.1,1.2,0.8,2.1,2,2.2c0.1,0,0.2,0,0.2,0
						c0.5,0,1.1-0.2,1.5-0.5l-0.4-0.7c-0.3,0.2-0.7,0.4-1.1,0.4c-0.8-0.1-1.4-0.8-1.3-1.6c0.1-0.7,0.6-1.2,1.3-1.3
						c0.4,0,0.8,0.1,1.1,0.4l0.4-0.7c-0.4-0.4-1-0.5-1.5-0.5c-1.2-0.1-2.1,0.8-2.2,2C127.7,205,127.7,205,127.7,205.1 M121.8,202.9
						c-1.1,0-2.1,0.9-2.1,2c0,0.1,0,0.1,0,0.2c-0.1,1.1,0.8,2.1,1.9,2.2c0.1,0,0.1,0,0.2,0c0.6,0,1.2-0.2,1.7-0.6l-0.5-0.6
						c-0.3,0.3-0.8,0.4-1.2,0.4c-0.7,0-1.2-0.4-1.3-1.1h3.1c0-0.1,0-0.2,0-0.3c0.1-1.1-0.7-2.1-1.8-2.2
						C121.9,202.9,121.8,202.9,121.8,202.9 M121.7,203.7c0.6,0,1.1,0.4,1.1,1c0,0,0,0,0,0h-2.3C120.6,204.1,121.1,203.7,121.7,203.7
						 M110.4,205.1V203h-0.8v0.5c-0.3-0.4-0.8-0.6-1.4-0.6c-1.2,0.1-2.1,1.1-2.1,2.3c0.1,1.1,1,2,2.1,2.1c0.5,0,1-0.2,1.4-0.6v0.5
						h0.8V205.1z M107,205.1c-0.1-0.7,0.5-1.4,1.2-1.4c0,0,0.1,0,0.1,0c0.8,0.1,1.4,0.8,1.3,1.6c-0.1,0.7-0.6,1.2-1.3,1.3
						c-0.7,0-1.3-0.6-1.3-1.3C107,205.2,107,205.1,107,205.1 M139.4,202.9c-0.5,0-0.9,0.2-1.1,0.6V203h-0.8v4.2h0.9v-2.4
						c0-0.7,0.3-1.1,0.9-1.1c0.2,0,0.4,0,0.6,0.1l0.3-0.8C139.9,202.9,139.6,202.9,139.4,202.9 M146.2,206.6c0.1,0,0.1,0,0.2,0
						c0.1,0,0.1,0.1,0.1,0.1c0,0,0.1,0.1,0.1,0.1c0,0.1,0,0.1,0,0.2c0,0.1,0,0.1,0,0.2c0,0-0.1,0.1-0.1,0.1c0,0-0.1,0.1-0.1,0.1
						c-0.1,0-0.1,0-0.2,0c-0.1,0-0.1,0-0.2,0c-0.1,0-0.1,0-0.1-0.1c0,0-0.1-0.1-0.1-0.1c0,0,0-0.1,0-0.2c0-0.1,0-0.1,0-0.2
						c0,0,0.1-0.1,0.1-0.1c0,0,0.1-0.1,0.1-0.1C146.1,206.6,146.1,206.6,146.2,206.6 M146.2,207.4c0,0,0.1,0,0.1,0
						c0,0,0.1,0,0.1-0.1c0,0,0.1-0.1,0.1-0.1c0,0,0-0.1,0-0.1c0,0,0-0.1,0-0.1c0,0,0-0.1-0.1-0.1c0,0-0.1-0.1-0.1-0.1
						c0,0-0.1,0-0.1,0c0,0-0.1,0-0.1,0c0,0-0.1,0-0.1,0.1c0,0-0.1,0.1-0.1,0.1c0,0,0,0.1,0,0.1c0,0,0,0.1,0,0.1
						c0,0.1,0.1,0.1,0.2,0.2C146.1,207.3,146.1,207.4,146.2,207.4 M146.2,206.8c0,0,0.1,0,0.1,0c0,0,0,0.1,0,0.1c0,0,0,0.1,0,0.1
						c0,0-0.1,0-0.1,0l0.1,0.1h-0.1l-0.1-0.1h0v0.1H146v-0.4L146.2,206.8z M146.1,206.9v0.1h0.1c0,0,0,0,0.1,0c0,0,0,0,0,0
						c0,0,0,0,0,0C146.2,206.9,146.2,206.9,146.1,206.9L146.1,206.9z M136.2,205.1V203h-0.8v0.5c-0.3-0.4-0.8-0.6-1.4-0.6
						c-1.2,0.1-2.1,1.1-2.1,2.3c0.1,1.1,1,2,2.1,2.1c0.5,0,1-0.2,1.4-0.6v0.5h0.8V205.1z M132.8,205.1c0.1-0.7,0.7-1.2,1.4-1.2
						c0.7,0.1,1.2,0.7,1.2,1.4c-0.1,0.7-0.6,1.2-1.3,1.2c-0.7,0-1.3-0.6-1.3-1.3C132.8,205.2,132.8,205.2,132.8,205.1 M144.7,205.1
						v-3.8h-0.8v2.2c-0.3-0.4-0.8-0.6-1.4-0.6c-1.2,0.1-2.1,1.1-2.1,2.3c0.1,1.1,1,2,2.1,2.1c0.5,0,1-0.2,1.4-0.6v0.5h0.8
						L144.7,205.1z M141.3,205.1c-0.1-0.7,0.5-1.4,1.2-1.4c0,0,0.1,0,0.1,0c0.8,0.1,1.4,0.8,1.3,1.6c-0.1,0.7-0.6,1.2-1.3,1.3
						c-0.7,0-1.3-0.6-1.3-1.3C141.3,205.2,141.3,205.2,141.3,205.1"/>
					<rect id="Rectángulo_91" x="114" y="171" class="st16" width="15.2" height="24.9"/>
					<path id="Trazado_628" class="st17" d="M115.5,183.4c0-4.9,2.2-9.4,6-12.4c-6.9-5.4-16.8-4.2-22.2,2.7
						c-5.4,6.9-4.2,16.8,2.7,22.2c5.7,4.5,13.8,4.5,19.5,0C117.7,192.9,115.5,188.3,115.5,183.4"/>
					<path id="Trazado_629" class="st1" d="M145.6,193.2v-0.5h0.2v-0.1h-0.5v0.1h0.2v0.5L145.6,193.2z M146.6,193.2v-0.6h-0.2
						l-0.2,0.4l-0.2-0.4H146v0.6h0.1v-0.5l0.2,0.4h0.1l0.2-0.4L146.6,193.2L146.6,193.2z"/>
					<path id="Trazado_630" class="st18" d="M147.2,183.4c0,8.7-7.1,15.8-15.8,15.8c-3.5,0-7-1.2-9.8-3.4c6.9-5.4,8.1-15.3,2.7-22.2
						c-0.8-1-1.7-1.9-2.7-2.7c6.9-5.4,16.8-4.2,22.2,2.7C146,176.4,147.2,179.9,147.2,183.4"/>
				</g>
			</g>
		</g>
	</g>
</g>
</svg>
