<?xml version="1.0" encoding="utf-8"?>
<!-- Generator: Adobe Illustrator 25.0.0, SVG Export Plug-In . SVG Version: 6.00 Build 0)  -->
<svg version="1.1" id="Capa_1" xmlns="http://www.w3.org/2000/svg" xmlns:xlink="http://www.w3.org/1999/xlink" x="0px" y="0px"
	 viewBox="0 0 32 32" style="enable-background:new 0 0 32 32;" xml:space="preserve">
<style type="text/css">
	.st0{fill:#FFFFFF;}
</style>
<g id="pisomadera" transform="translate(-128.289 -286.952)">
	<path id="Trazado_256" class="st0" d="M139.7,292.4l1.4,1.5c0,0.1-0.1,0.2-0.2,0.2c-2.3,2.3-4.5,4.5-6.8,6.8
		c-0.5,0.5-0.7,0.5-1.2,0c-0.8-0.8-0.8-0.9,0-1.7l6.5-6.5C139.5,292.6,139.6,292.5,139.7,292.4z"/>
	<path id="Trazado_257" class="st0" d="M149,304.5l-1.5-1.5c0.1-0.1,0.2-0.2,0.3-0.3l6.7-6.7c0.5-0.5,0.7-0.5,1.2,0
		c0.9,0.9,0.9,0.9,0,1.7c-2.1,2.1-4.3,4.3-6.4,6.4C149.2,304.2,149.1,304.3,149,304.5z"/>
	<path id="Trazado_258" class="st0" d="M139.7,296.9l1.5,1.5c-0.1,0.1-0.2,0.2-0.3,0.3c-2.2,2.2-4.5,4.5-6.7,6.7
		c-0.5,0.5-0.7,0.5-1.2,0c-0.8-0.8-0.8-0.9,0-1.7c2.1-2.1,4.3-4.3,6.4-6.4C139.4,297.2,139.6,297.1,139.7,296.9z"/>
	<path id="Trazado_259" class="st0" d="M149,309l-1.5-1.5c0.1-0.1,0.2-0.2,0.3-0.3l6.7-6.7c0.5-0.5,0.7-0.5,1.2,0
		c0.9,0.9,0.9,0.9,0,1.8c-2.1,2.1-4.2,4.2-6.3,6.3C149.2,308.7,149.1,308.9,149,309z"/>
	<path id="Trazado_260" class="st0" d="M139.6,301.5l1.5,1.5c-0.1,0.1-0.1,0.2-0.2,0.2c-2.2,2.2-4.5,4.5-6.7,6.7
		c-0.5,0.5-0.7,0.5-1.2,0c-0.9-0.9-0.9-0.9,0-1.7c2.1-2.1,4.3-4.3,6.4-6.4C139.5,301.7,139.6,301.6,139.6,301.5z"/>
	<path id="Trazado_261" class="st0" d="M148.9,313.6l-1.5-1.5c0,0,4.7-4.8,7-7c0.5-0.5,0.7-0.5,1.2,0c0.8,0.8,0.8,0.9,0,1.7
		C153.5,308.9,148.9,313.6,148.9,313.6z"/>
	<path id="Trazado_262" class="st0" d="M139.7,306.1l1.4,1.5c-0.1,0.1-0.2,0.2-0.3,0.3c-2.2,2.2-4.5,4.5-6.7,6.7
		c-0.5,0.5-0.7,0.5-1.2,0c-0.9-0.9-0.9-0.9,0-1.7l6.5-6.5C139.5,306.3,139.6,306.2,139.7,306.1z"/>
	<path id="Trazado_263" class="st0" d="M148,300.7l-1.4,1.4l-5.9-5.9l1.4-1.4L148,300.7z"/>
	<path id="Trazado_264" class="st0" d="M148,305.3l-1.4,1.4l-6-6l1.4-1.4L148,305.3z"/>
	<path id="Trazado_265" class="st0" d="M140.6,305.2l1.4-1.4l6,6l-1.4,1.4L140.6,305.2z"/>
	<path id="Trazado_266" class="st0" d="M140.6,309.8l1.5-1.5c0.1,0.1,0.2,0.1,0.2,0.2c1.9,1.9,5.7,5.7,5.7,5.7s0.3,0.3,0.3,0.5
		s-0.6,0.2-0.6,0.2h-1.6c-0.2,0-0.4-0.1-0.6-0.2C143.8,313.1,142.2,311.5,140.6,309.8z"/>
	<path id="Trazado_267" class="st0" d="M149.9,315c-0.1,0-0.3-0.1-0.3-0.2c0-0.1,0-0.3,0.1-0.4c0.5-0.5,1-1,1.5-1.5
		c1.1-1.1,2.2-2.2,3.3-3.3c0.4-0.4,0.7-0.4,1.1,0c0.9,0.9,0.9,0.9,0,1.9c-1,1-2,2-3,3c-0.3,0.4-0.8,0.6-1.3,0.6L149.9,315z"/>
	<path id="Trazado_268" class="st0" d="M141.1,312.2c-0.9,0.9-1.7,1.7-2.6,2.6c-0.1,0.1-0.3,0.2-0.5,0.2h-1.9c0,0-0.3-0.1-0.3-0.2
		c0-0.1,0-0.2,0.1-0.3c1.2-1.3,2.5-2.5,3.7-3.8L141.1,312.2z"/>
	<path id="Trazado_269" class="st0" d="M142,312.9c0.5,0.5,1,1,1.5,1.5c0.1,0.1,0.1,0.2,0.1,0.3c0,0.1-0.3,0.2-0.3,0.2l-2,0
		c0,0-0.5-0.3-0.8-0.5L142,312.9z"/>
	<path id="Trazado_270" class="st0" d="M148.9,299.8l-1.5-1.5c0.1-0.1,0.2-0.2,0.3-0.3c2.2-2.2,4.5-4.5,6.7-6.7
		c0.5-0.5,0.7-0.5,1.2,0c0.9,0.9,0.9,0.9,0,1.7l-6.5,6.5C149.1,299.6,149,299.7,148.9,299.8z"/>
	<path id="Trazado_271" class="st0" d="M148,296.1l-1.5,1.5c-0.1-0.1-0.2-0.1-0.2-0.2c-1.9-1.9-5.7-5.7-5.7-5.7s-0.3-0.3-0.3-0.5
		s0.6-0.2,0.6-0.2h1.6c0.2,0,0.4,0.1,0.6,0.2C144.7,292.8,146.4,294.4,148,296.1z"/>
	<path id="Trazado_272" class="st0" d="M138.7,290.9c0.1,0,0.3,0.1,0.3,0.2c0,0.1,0,0.3-0.1,0.4c-0.5,0.5-1,1-1.5,1.5
		c-1.1,1.1-2.2,2.2-3.3,3.3c-0.4,0.4-0.7,0.4-1.1,0c-0.9-0.9-0.9-0.9,0-1.9c1-1,2-2,3-3c0.3-0.4,0.8-0.6,1.3-0.6L138.7,290.9z"/>
	<path id="Trazado_273" class="st0" d="M147.4,293.8c0.9-0.9,1.7-1.7,2.6-2.6c0.1-0.1,0.3-0.2,0.5-0.2h1.9c0,0,0.3,0.1,0.3,0.2
		c0,0.1,0,0.2-0.1,0.3c-1.2,1.3-2.5,2.5-3.7,3.8L147.4,293.8z"/>
	<path id="Trazado_274" class="st0" d="M146.6,293c-0.5-0.5-1-1-1.5-1.5c-0.1-0.1-0.1-0.2-0.1-0.3c0-0.1,0.3-0.2,0.3-0.2h2
		c0,0,0.5,0.3,0.8,0.5L146.6,293z"/>
</g>
</svg>
