<?xml version="1.0" encoding="utf-8"?>
<!-- Generator: Adobe Illustrator 24.2.3, SVG Export Plug-In . SVG Version: 6.00 Build 0)  -->
<svg version="1.1" id="Capa_1" xmlns="http://www.w3.org/2000/svg" xmlns:xlink="http://www.w3.org/1999/xlink" x="0px" y="0px"
	 viewBox="0 0 801.2 316.7" style="enable-background:new 0 0 801.2 316.7;" xml:space="preserve">
<style type="text/css">
	.st0{fill:#FF0A00;}
	.st1{fill:#E30613;}
	.st2{fill:#FFFFFF;}
</style>
<g>
	<polygon class="st0" points="0,0 0,44.3 22.1,44.3 22.1,22.2 44.3,22.2 44.3,0 	"/>
	<polygon class="st0" points="0,253.3 0,209 22.1,209 22.1,231.1 44.3,231.1 44.3,253.3 	"/>
	<rect y="66.2" class="st0" width="22.2" height="120.8"/>
	<polygon class="st0" points="801.1,0 801.1,44.3 779,44.3 779,22.2 756.8,22.2 756.8,0 	"/>
	<polygon class="st0" points="801.1,253.3 801.1,209 779,209 779,231.1 756.8,231.1 756.8,253.3 	"/>
	<rect x="66.5" y="231.1" class="st0" width="668.1" height="22.2"/>
	<rect x="64.5" y="0" class="st0" width="668.1" height="22.2"/>
	<rect x="779" y="66.2" class="st0" width="22.2" height="120.8"/>
	<path d="M700.8,145.2l-19.3-7.8l-10.9,4.6l-7.8,19.3l-10.8-4.4l7.8-19.3l-4.6-10.9l-19.3-7.8l4.4-10.8l19.3,7.8l10.9-4.6l7.8-19.3
		l10.8,4.4l-7.8,19.3l4.6,10.9l19.3,7.8L700.8,145.2z M670.5,63.9c-34.7,0-63.8,28.2-63.8,62.7c0,34.5,29.1,62.7,63.8,62.7
		c35.2,0,63.8-28.2,63.8-62.7C734.3,92.1,705.7,63.9,670.5,63.9"/>
	<path d="M271.4,183.6c-0.8,2-2.9,3.4-5.1,3.4h-23.2c-2.2,0-4.3-1.4-5.1-3.4L192,69.7c-0.6-1.5,0.5-3.4,2.3-3.4h26.3
		c2.2,0,4.2,1.4,4.9,3.4l28,74.8c0.3,1.1,1.9,1.1,2.2,0l28.2-74.8c0.8-2,2.8-3.4,5-3.4h26.3c1.9,0,2.9,1.9,2.3,3.4L271.4,183.6z"/>
	<path d="M328.2,70c0-2,1.7-3.7,3.7-3.7h23.5c2,0,3.7,1.7,3.7,3.7v113.3c0,2-1.7,3.7-3.7,3.7h-23.5c-2,0-3.7-1.7-3.7-3.7V70z"/>
	<path d="M381.5,187c-2,0-3.7-1.7-3.7-3.7V70c0-2,1.7-3.7,3.7-3.7h85.3c2,0,3.7,1.7,3.7,3.7v22.6c0,2-1.7,3.7-3.7,3.7h-55
		c-1.7,0-3.1,1.4-3.1,3.1v11.1c0,1.7,1.4,3.1,3.1,3.1h44c2,0,3.7,1.7,3.7,3.7v20.6c0,2-1.7,3.7-3.7,3.7h-44c-1.7,0-3.1,1.4-3.1,3.1
		v9.3c0,1.7,1.4,3.1,3.1,3.1h55c2,0,3.7,1.7,3.7,3.7v22.4c0,2-1.7,3.7-3.7,3.7L381.5,187L381.5,187z"/>
	<path d="M539.2,96.3h-19.7c-1.7,0-3.1,1.4-3.1,3.1V154c0,1.7,1.4,3.1,3.1,3.1h19.7c18.4,0,28.2-12.4,28.2-30.5
		C567.4,108.5,557.7,96.3,539.2,96.3 M489.2,187c-2,0-3.7-1.7-3.7-3.7V70c0-2,1.7-3.7,3.7-3.7h52.3c37.8,0,57.1,27.6,57.1,60.4
		c0,33-19.4,60.4-57.1,60.4L489.2,187L489.2,187z"/>
	<path d="M97.8,126.6c0,18.3,14.7,32.8,32.8,32.8c18.6,0,32.8-14.6,32.8-32.8s-14.2-32.8-32.8-32.8
		C112.5,93.8,97.8,108.4,97.8,126.6 M66.5,126.6c0-34.5,29.3-62.7,64.1-62.7c35.3,0,64.1,28.2,64.1,62.7s-28.8,62.7-64.1,62.7
		C95.8,189.3,66.5,161.2,66.5,126.6"/>
</g>
<path d="M46.4,311.2c-0.7,0-1.3-0.6-1.3-1.3v-38.3c0-0.7,0.6-1.3,1.3-1.3h27.8c0.7,0,1.3,0.6,1.3,1.3v7.6c0,0.7-0.6,1.3-1.3,1.3
	H56.6c-0.6,0-1,0.5-1,1v5.1c0,0.6,0.5,1,1,1h14.4c0.7,0,1.3,0.6,1.3,1.3v7c0,0.7-0.6,1.3-1.3,1.3H56.6c-0.6,0-1,0.5-1,1v11.7
	c0,0.7-0.6,1.3-1.3,1.3L46.4,311.2L46.4,311.2z"/>
<path d="M91.6,311.2c-0.7,0-1.3-0.6-1.3-1.3v-38.3c0-0.7,0.6-1.3,1.3-1.3h28.8c0.7,0,1.3,0.6,1.3,1.3v7.6c0,0.7-0.6,1.3-1.3,1.3
	h-18.6c-0.6,0-1,0.5-1,1v3.8c0,0.6,0.5,1,1,1h14.9c0.7,0,1.3,0.6,1.3,1.3v7c0,0.7-0.6,1.3-1.3,1.3h-14.9c-0.6,0-1,0.5-1,1v3.1
	c0,0.6,0.5,1,1,1h18.6c0.7,0,1.3,0.6,1.3,1.3v7.6c0,0.7-0.6,1.3-1.3,1.3L91.6,311.2L91.6,311.2z"/>
<path d="M156.6,279.9h-7.9c-0.6,0-1,0.5-1,1v8.8c0,0.6,0.5,1,1,1h7.9c4.2,0,5.8-2.6,5.8-5.4C162.3,282.2,160.8,279.9,156.6,279.9
	 M137.2,271.6c0-0.7,0.6-1.3,1.3-1.3h18.7c10.5,0,15.3,6.8,15.3,14.9c0,5.4-2.2,10.4-7.1,13.1c-0.5,0.3-0.6,0.9-0.3,1.4l7.5,10.4
	c0.3,0.5,0,1-0.5,1h-10c-0.8,0-1.5-0.4-2-1l-6.4-9c-0.4-0.5-1-0.8-1.7-0.8h-3.2c-0.6,0-1,0.5-1,1v8.6c0,0.7-0.6,1.3-1.3,1.3h-7.9
	c-0.7,0-1.3-0.6-1.3-1.3V271.6z"/>
<path d="M207.1,279.9h-7.9c-0.6,0-1,0.5-1,1v8.8c0,0.6,0.5,1,1,1h7.9c4.2,0,5.8-2.6,5.8-5.4C212.9,282.2,211.3,279.9,207.1,279.9
	 M187.8,271.6c0-0.7,0.6-1.3,1.3-1.3h18.7c10.5,0,15.3,6.8,15.3,14.9c0,5.4-2.2,10.4-7.1,13.1c-0.5,0.3-0.6,0.9-0.3,1.4l7.5,10.4
	c0.3,0.5,0,1-0.5,1h-10c-0.8,0-1.5-0.4-2-1l-6.4-9c-0.4-0.5-1-0.8-1.7-0.8h-3.2c-0.6,0-1,0.5-1,1v8.6c0,0.7-0.6,1.3-1.3,1.3H189
	c-0.7,0-1.3-0.6-1.3-1.3V271.6z"/>
<path d="M239.5,311.2c-0.7,0-1.3-0.6-1.3-1.3v-38.3c0-0.7,0.6-1.3,1.3-1.3h28.8c0.7,0,1.3,0.6,1.3,1.3v7.6c0,0.7-0.6,1.3-1.3,1.3
	h-18.6c-0.6,0-1,0.5-1,1v3.8c0,0.6,0.5,1,1,1h14.9c0.7,0,1.3,0.6,1.3,1.3v7c0,0.7-0.6,1.3-1.3,1.3h-14.9c-0.6,0-1,0.5-1,1v3.1
	c0,0.6,0.5,1,1,1h18.6c0.7,0,1.3,0.6,1.3,1.3v7.6c0,0.7-0.6,1.3-1.3,1.3L239.5,311.2L239.5,311.2z"/>
<path d="M283.9,280.5c-0.7,0-1.3-0.6-1.3-1.3v-7.6c0-0.7,0.6-1.3,1.3-1.3h33.4c0.7,0,1.3,0.6,1.3,1.3v7.6c0,0.7-0.6,1.3-1.3,1.3
	h-10.4c-0.6,0-1,0.5-1,1v28.4c0,0.7-0.6,1.3-1.3,1.3h-8c-0.7,0-1.3-0.6-1.3-1.3v-28.4c0-0.6-0.5-1-1-1H283.9z"/>
<path d="M334,311.2c-0.7,0-1.3-0.6-1.3-1.3v-38.3c0-0.7,0.6-1.3,1.3-1.3h28.8c0.7,0,1.3,0.6,1.3,1.3v7.6c0,0.7-0.6,1.3-1.3,1.3
	h-18.6c-0.6,0-1,0.5-1,1v3.8c0,0.6,0.5,1,1,1h14.9c0.7,0,1.3,0.6,1.3,1.3v7c0,0.7-0.6,1.3-1.3,1.3h-14.9c-0.6,0-1,0.5-1,1v3.1
	c0,0.6,0.5,1,1,1h18.6c0.7,0,1.3,0.6,1.3,1.3v7.6c0,0.7-0.6,1.3-1.3,1.3L334,311.2L334,311.2z"/>
<path d="M399,279.9h-7.9c-0.6,0-1,0.5-1,1v8.8c0,0.6,0.5,1,1,1h7.9c4.2,0,5.8-2.6,5.8-5.4C404.8,282.2,403.2,279.9,399,279.9
	 M379.6,271.6c0-0.7,0.6-1.3,1.3-1.3h18.7c10.5,0,15.3,6.8,15.3,14.9c0,5.4-2.2,10.4-7.1,13.1c-0.5,0.3-0.6,0.9-0.3,1.4l7.5,10.4
	c0.3,0.5,0,1-0.5,1h-10c-0.8,0-1.5-0.4-2-1l-6.4-9c-0.4-0.5-1-0.8-1.7-0.8h-3.2c-0.6,0-1,0.5-1,1v8.6c0,0.7-0.6,1.3-1.3,1.3h-7.9
	c-0.7,0-1.3-0.6-1.3-1.3V271.6z"/>
<path d="M430.2,271.6c0-0.7,0.6-1.3,1.3-1.3h8c0.7,0,1.3,0.6,1.3,1.3v38.3c0,0.7-0.6,1.3-1.3,1.3h-8c-0.7,0-1.3-0.6-1.3-1.3V271.6z"
	/>
<path d="M479.4,295.7c0.5,0,0.8-0.5,0.7-1l-3.7-10c-0.1-0.4-0.6-0.4-0.7,0l-3.8,10c-0.2,0.5,0.2,1,0.7,1H479.4z M470.3,271.5
	c0.3-0.7,1-1.1,1.7-1.1h7.8c0.7,0,1.5,0.5,1.7,1.1l15.5,38.5c0.2,0.5-0.2,1.1-0.8,1.1h-8.9c-0.7,0-1.4-0.5-1.7-1.1l-1.5-3.8
	c-0.2-0.6-0.8-1-1.4-1h-14c-0.6,0-1.2,0.4-1.4,1l-1.5,3.8c-0.3,0.7-0.9,1.1-1.7,1.1h-8.9c-0.6,0-1-0.6-0.8-1.1L470.3,271.5z"/>
<path d="M507.6,300.4c-0.1-0.7,0.6-1.5,1.4-1.5h7.1c1.2,0,1.5,0.3,2.1,1.4c0.7,1.4,2.9,2.6,6.5,2.6c3.9,0,5.2-1.3,5.2-2.5
	c0-1.7-2-2.8-7-4.4c-6.5-2.1-15-5.3-15-13.7c0-7.8,6.6-12.7,16-12.7c9.5,0,16.2,5,16.7,12.3c0.1,0.7-0.6,1.5-1.4,1.5h-7.3
	c-1,0-1.5-0.5-1.8-1.4c-0.6-1.7-2.6-3.3-6.1-3.3c-3.6,0-5,1.4-5,2.8c0,1.6,1.9,2.5,6.8,4.1c5.6,2,15.3,5.3,15.3,14.3
	c0,8-6.9,12.1-16.2,12.1C515.6,312,508.3,307.9,507.6,300.4"/>
<g>
	<rect x="573.4" y="269.6" class="st1" width="184.8" height="47.1"/>
	<polygon class="st2" points="619.7,274.7 611.7,310.8 629.7,310.8 632.4,291 640.3,310.8 651.2,310.8 659.4,290.9 662.1,310.8 
		679.9,310.8 671.2,274.7 652.9,274.7 645.7,293.5 638.9,274.7 	"/>
	<polygon class="st2" points="675.6,274.7 714.2,274.7 714.2,286.6 704.2,286.6 704.2,310.8 685.6,310.8 685.6,286.6 675.6,286.6 	
		"/>
	<polygon class="st2" points="590.3,297.5 577.5,297.5 577.5,288.6 579,288.6 579,295.8 583,295.8 583,289.1 584.5,289.1 
		584.5,295.8 588.8,295.8 588.8,288.3 590.3,288.3 	"/>
	<path class="st2" d="M714,307.9c4.5,1.4,10.7,2.5,10.7,2.5c3.8,0.6,4.6,0.8,10.7,0.7c6-0.1,11.5-2.5,11.5-2.5
		c5.9-2.4,7.2-6.5,7.2-6.5c2.5-4.7-0.5-8.7-0.5-8.7c-2.1-3.1-7.7-4.6-7.7-4.6c-1.5-0.8-9.9-1.7-9.9-1.7c-2.7-0.2-1.9-1.7-1.9-1.7
		c0.1-1.8,5.3-1.5,5.7-1.5c2.6,0,8.5,2.7,8.5,2.7l5.1-9.5c-4.8-2.6-13.5-3-13.5-3c-7.3-0.8-14.2,1.9-14.2,1.9
		c-10.4,3.3-9.8,11.2-9.8,11.2c-0.1,2.3,1.2,5.3,4,7c4.2,2.5,10.4,3.1,10.7,3.1c3.1,0,4.7,0.7,4.7,0.7c2.4,0.7,0.6,2.5,0.6,2.5
		c-1.3,0.7-3.7,0.8-3.7,0.8c-6.1,0.4-12.7-3.8-12.7-3.8L714,307.9z"/>
	<path class="st2" d="M583.2,308.8v-3.5c0-0.7-0.1-1.3-0.2-1.7c-0.2-0.4-0.4-0.7-0.8-1c-0.4-0.2-0.7-0.3-1.2-0.3
		c-0.6,0-1.1,0.2-1.5,0.6c-0.4,0.4-0.6,1.1-0.6,2v3.9H583.2z M590.3,310.5h-12.8V305c0-1.1,0.1-1.9,0.4-2.5c0.2-0.6,0.6-1,1.2-1.4
		c0.6-0.3,1.2-0.5,1.9-0.5c0.9,0,1.7,0.3,2.3,0.8c0.6,0.6,1,1.4,1.2,2.6c0.2-0.4,0.4-0.8,0.6-1c0.5-0.5,1-0.9,1.7-1.3l3.5-2.1v2
		l-2.7,1.6c-0.8,0.5-1.4,0.9-1.8,1.2c-0.4,0.3-0.7,0.6-0.9,0.8c-0.2,0.2-0.3,0.5-0.3,0.7c0,0.2-0.1,0.5-0.1,0.9v1.9h5.7V310.5z"/>
	<path class="st2" d="M588.8,283.8v-2.6c0-0.8-0.1-1.4-0.2-1.9c-0.2-0.5-0.4-0.8-0.7-1.1c-0.4-0.4-0.9-0.7-1.6-0.9
		c-0.7-0.2-1.5-0.3-2.5-0.3c-1.3,0-2.4,0.2-3.1,0.6c-0.7,0.4-1.2,0.9-1.5,1.5c-0.2,0.4-0.3,1.1-0.3,2.1v2.6H588.8z M590.3,285.4
		h-12.8v-4.2c0-1,0.1-1.7,0.2-2.2c0.2-0.7,0.5-1.3,0.9-1.8c0.6-0.6,1.3-1.1,2.2-1.4c0.9-0.3,1.9-0.5,3-0.5c1,0,1.8,0.1,2.6,0.3
		c0.8,0.2,1.4,0.5,1.9,0.8c0.5,0.3,0.9,0.7,1.2,1.1c0.3,0.4,0.5,0.9,0.6,1.5c0.1,0.6,0.2,1.2,0.2,2V285.4z"/>
</g>
</svg>
