<?xml version="1.0" encoding="utf-8"?>
<!-- Generator: Adobe Illustrator 24.2.1, SVG Export Plug-In . SVG Version: 6.00 Build 0)  -->
<svg version="1.1" id="Capa_1" xmlns="http://www.w3.org/2000/svg" xmlns:xlink="http://www.w3.org/1999/xlink" x="0px" y="0px"
	 viewBox="0 0 751.22 324.91" style="enable-background:new 0 0 751.22 324.91;" xml:space="preserve">
<style type="text/css">
	.st0{fill:#FF0A00;}
</style>
<polygon class="st0" points="0,0.01 0,41.54 20.76,41.54 20.76,20.78 41.53,20.78 41.53,0.01 "/>
<polygon class="st0" points="0,237.47 0,195.93 20.76,195.93 20.76,216.7 41.53,216.7 41.53,237.47 "/>
<rect x="0" y="62.12" class="st0" width="20.79" height="113.24"/>
<polygon class="st0" points="751.18,0 751.18,41.53 730.41,41.53 730.41,20.77 709.65,20.77 709.65,0 "/>
<polygon class="st0" points="751.18,237.48 751.18,195.94 730.41,195.94 730.41,216.71 709.65,216.71 709.65,237.48 "/>
<rect x="62.4" y="216.68" class="st0" width="626.42" height="20.79"/>
<rect x="60.46" y="0.01" class="st0" width="626.42" height="20.77"/>
<rect x="730.43" y="62.12" class="st0" width="20.79" height="113.24"/>
<path d="M657.1,136.13l-18.07-7.3l-10.25,4.35l-7.3,18.07l-10.12-4.09l7.3-18.07l-4.35-10.25l-18.07-7.3l4.09-10.12l18.07,7.3
	l10.25-4.35l7.3-18.07l10.12,4.09l-7.3,18.07l4.35,10.25l18.07,7.3L657.1,136.13z M628.71,59.94c-32.53,0-59.85,26.41-59.85,58.76
	c0,32.36,27.32,58.76,59.85,58.76c32.96,0,59.85-26.41,59.85-58.76C688.57,86.35,661.68,59.94,628.71,59.94"/>
<path d="M254.46,172.16c-0.73,1.89-2.76,3.19-4.79,3.19H227.9c-2.03,0-4.07-1.31-4.79-3.19L179.99,65.32
	c-0.58-1.45,0.43-3.19,2.18-3.19h24.68c2.03,0,3.92,1.31,4.64,3.19l26.28,70.12c0.29,1.02,1.74,1.02,2.03,0l26.42-70.12
	c0.73-1.89,2.61-3.19,4.65-3.19h24.68c1.74,0,2.76,1.74,2.18,3.19L254.46,172.16z"/>
<path d="M307.74,65.61c0-1.89,1.6-3.48,3.48-3.48h22.07c1.89,0,3.48,1.6,3.48,3.48v106.27c0,1.89-1.6,3.48-3.48,3.48h-22.07
	c-1.89,0-3.48-1.6-3.48-3.48V65.61z"/>
<path d="M357.68,175.36c-1.89,0-3.48-1.6-3.48-3.48V65.61c0-1.89,1.6-3.48,3.48-3.48h79.99c1.89,0,3.48,1.6,3.48,3.48v21.2
	c0,1.89-1.6,3.48-3.48,3.48h-51.54c-1.6,0-2.9,1.31-2.9,2.9v10.45c0,1.6,1.31,2.9,2.9,2.9h41.23c1.89,0,3.48,1.6,3.48,3.48v19.31
	c0,1.89-1.6,3.49-3.48,3.49h-41.23c-1.6,0-2.9,1.31-2.9,2.9v8.71c0,1.6,1.31,2.9,2.9,2.9h51.54c1.89,0,3.48,1.6,3.48,3.48v21.05
	c0,1.89-1.6,3.48-3.48,3.48H357.68z"/>
<path d="M505.61,90.29h-18.44c-1.6,0-2.9,1.31-2.9,2.9v51.25c0,1.6,1.31,2.9,2.9,2.9h18.44c17.28,0,26.42-11.61,26.42-28.6
	C532.03,101.75,522.89,90.29,505.61,90.29 M458.72,175.36c-1.89,0-3.48-1.6-3.48-3.48V65.61c0-1.89,1.6-3.48,3.48-3.48h49.07
	c35.42,0,53.57,25.84,53.57,56.62c0,30.92-18.15,56.62-53.57,56.62H458.72z"/>
<path d="M91.72,118.74c0,17.13,13.79,30.78,30.78,30.78c17.42,0,30.78-13.65,30.78-30.78c0-17.13-13.36-30.78-30.78-30.78
	C105.52,87.96,91.72,101.61,91.72,118.74 M62.4,118.74c0-32.37,27.44-58.79,60.1-58.79c33.1,0,60.1,26.42,60.1,58.79
	c0,32.37-27,58.8-60.1,58.8C89.84,177.54,62.4,151.11,62.4,118.74"/>
<path d="M87.98,324c-0.79,0-1.46-0.67-1.46-1.46V277.9c0-0.79,0.67-1.46,1.46-1.46h32.38c0.79,0,1.46,0.67,1.46,1.46v8.9
	c0,0.79-0.67,1.46-1.46,1.46H99.87c-0.67,0-1.22,0.55-1.22,1.22v5.98c0,0.67,0.55,1.22,1.22,1.22h16.77c0.79,0,1.46,0.67,1.46,1.46
	v8.11c0,0.79-0.67,1.46-1.46,1.46H99.87c-0.67,0-1.22,0.55-1.22,1.22v13.6c0,0.79-0.67,1.46-1.46,1.46H87.98z"/>
<path d="M140.73,324c-0.79,0-1.46-0.67-1.46-1.46V277.9c0-0.79,0.67-1.46,1.46-1.46h33.6c0.79,0,1.46,0.67,1.46,1.46v8.9
	c0,0.79-0.67,1.46-1.46,1.46h-21.65c-0.67,0-1.22,0.55-1.22,1.22v4.39c0,0.67,0.55,1.22,1.22,1.22H170c0.79,0,1.46,0.67,1.46,1.46
	v8.11c0,0.79-0.67,1.46-1.46,1.46h-17.32c-0.67,0-1.22,0.55-1.22,1.22v3.66c0,0.67,0.55,1.22,1.22,1.22h21.65
	c0.79,0,1.46,0.67,1.46,1.46v8.84c0,0.79-0.67,1.46-1.46,1.46H140.73z"/>
<path d="M216.47,287.53h-9.21c-0.67,0-1.22,0.55-1.22,1.22V299c0,0.67,0.55,1.22,1.22,1.22h9.21c4.88,0,6.71-2.99,6.71-6.28
	C223.18,290.28,221.35,287.53,216.47,287.53 M193.91,277.9c0-0.79,0.67-1.46,1.46-1.46h21.77c12.2,0,17.81,7.93,17.81,17.38
	c0,6.28-2.62,12.14-8.29,15.24c-0.61,0.3-0.73,1.04-0.37,1.58l8.72,12.14c0.37,0.55,0,1.22-0.61,1.22h-11.65
	c-0.91,0-1.77-0.49-2.32-1.22l-7.44-10.55c-0.43-0.61-1.22-0.98-1.95-0.98h-3.78c-0.67,0-1.22,0.55-1.22,1.22v10.06
	c0,0.79-0.67,1.46-1.46,1.46h-9.21c-0.79,0-1.46-0.67-1.46-1.46V277.9z"/>
<path d="M275.38,287.53h-9.21c-0.67,0-1.22,0.55-1.22,1.22V299c0,0.67,0.55,1.22,1.22,1.22h9.21c4.88,0,6.71-2.99,6.71-6.28
	C282.09,290.28,280.26,287.53,275.38,287.53 M252.82,277.9c0-0.79,0.67-1.46,1.46-1.46h21.77c12.2,0,17.81,7.93,17.81,17.38
	c0,6.28-2.62,12.14-8.29,15.24c-0.61,0.3-0.73,1.04-0.37,1.58l8.72,12.14c0.37,0.55,0,1.22-0.61,1.22h-11.65
	c-0.91,0-1.77-0.49-2.32-1.22l-7.44-10.55c-0.43-0.61-1.22-0.98-1.95-0.98h-3.78c-0.67,0-1.22,0.55-1.22,1.22v10.06
	c0,0.79-0.67,1.46-1.46,1.46h-9.21c-0.79,0-1.46-0.67-1.46-1.46V277.9z"/>
<path d="M313.19,324c-0.79,0-1.46-0.67-1.46-1.46V277.9c0-0.79,0.67-1.46,1.46-1.46h33.6c0.79,0,1.46,0.67,1.46,1.46v8.9
	c0,0.79-0.67,1.46-1.46,1.46h-21.65c-0.67,0-1.22,0.55-1.22,1.22v4.39c0,0.67,0.55,1.22,1.22,1.22h17.32c0.79,0,1.46,0.67,1.46,1.46
	v8.11c0,0.79-0.67,1.46-1.46,1.46h-17.32c-0.67,0-1.22,0.55-1.22,1.22v3.66c0,0.67,0.55,1.22,1.22,1.22h21.65
	c0.79,0,1.46,0.67,1.46,1.46v8.84c0,0.79-0.67,1.46-1.46,1.46H313.19z"/>
<path d="M364.91,288.27c-0.79,0-1.46-0.67-1.46-1.46v-8.9c0-0.79,0.67-1.46,1.46-1.46h38.9c0.79,0,1.46,0.67,1.46,1.46v8.9
	c0,0.79-0.67,1.46-1.46,1.46h-12.13c-0.67,0-1.22,0.55-1.22,1.22v33.05c0,0.79-0.67,1.46-1.46,1.46h-9.27
	c-0.79,0-1.46-0.67-1.46-1.46v-33.05c0-0.67-0.55-1.22-1.22-1.22H364.91z"/>
<path d="M423.33,324c-0.79,0-1.46-0.67-1.46-1.46V277.9c0-0.79,0.67-1.46,1.46-1.46h33.6c0.79,0,1.46,0.67,1.46,1.46v8.9
	c0,0.79-0.67,1.46-1.46,1.46h-21.65c-0.67,0-1.22,0.55-1.22,1.22v4.39c0,0.67,0.55,1.22,1.22,1.22h17.32c0.79,0,1.46,0.67,1.46,1.46
	v8.11c0,0.79-0.67,1.46-1.46,1.46h-17.32c-0.67,0-1.22,0.55-1.22,1.22v3.66c0,0.67,0.55,1.22,1.22,1.22h21.65
	c0.79,0,1.46,0.67,1.46,1.46v8.84c0,0.79-0.67,1.46-1.46,1.46H423.33z"/>
<path d="M499.07,287.53h-9.21c-0.67,0-1.22,0.55-1.22,1.22V299c0,0.67,0.55,1.22,1.22,1.22h9.21c4.88,0,6.71-2.99,6.71-6.28
	C505.78,290.28,503.95,287.53,499.07,287.53 M476.51,277.9c0-0.79,0.67-1.46,1.46-1.46h21.77c12.2,0,17.81,7.93,17.81,17.38
	c0,6.28-2.62,12.14-8.29,15.24c-0.61,0.3-0.73,1.04-0.37,1.58l8.72,12.14c0.37,0.55,0,1.22-0.61,1.22h-11.65
	c-0.92,0-1.77-0.49-2.32-1.22l-7.44-10.55c-0.43-0.61-1.22-0.98-1.95-0.98h-3.78c-0.67,0-1.22,0.55-1.22,1.22v10.06
	c0,0.79-0.67,1.46-1.46,1.46h-9.21c-0.79,0-1.46-0.67-1.46-1.46V277.9z"/>
<path d="M535.42,277.9c0-0.79,0.67-1.46,1.46-1.46h9.27c0.79,0,1.46,0.67,1.46,1.46v44.64c0,0.79-0.67,1.46-1.46,1.46h-9.27
	c-0.79,0-1.46-0.67-1.46-1.46V277.9z"/>
<path d="M592.74,306.01c0.61,0,0.98-0.61,0.79-1.16l-4.33-11.65c-0.12-0.43-0.73-0.43-0.85,0l-4.39,11.65
	c-0.18,0.55,0.18,1.16,0.79,1.16H592.74z M582.19,277.78c0.3-0.79,1.16-1.34,2.01-1.34h9.15c0.85,0,1.71,0.55,2.01,1.34l18.11,44.88
	c0.24,0.61-0.18,1.34-0.91,1.34h-10.37c-0.85,0-1.65-0.55-1.95-1.34l-1.71-4.45c-0.24-0.67-0.91-1.16-1.65-1.16h-16.28
	c-0.73,0-1.4,0.49-1.65,1.16l-1.71,4.45c-0.31,0.79-1.1,1.34-1.95,1.34h-10.37c-0.73,0-1.16-0.73-0.92-1.34L582.19,277.78z"/>
<path d="M625.68,311.44c-0.06-0.85,0.73-1.71,1.59-1.71h8.23c1.4,0,1.71,0.3,2.44,1.58c0.85,1.58,3.35,3.05,7.62,3.05
	c4.57,0,6.04-1.52,6.04-2.93c0-2.01-2.38-3.23-8.11-5.18c-7.56-2.5-17.5-6.16-17.5-15.98c0-9.09,7.74-14.76,18.6-14.76
	c11.1,0,18.84,5.79,19.45,14.33c0.06,0.85-0.73,1.71-1.59,1.71h-8.48c-1.16,0-1.71-0.55-2.07-1.65c-0.73-2.01-3.05-3.84-7.07-3.84
	c-4.15,0-5.79,1.65-5.79,3.23c0,1.89,2.2,2.87,7.87,4.82c6.58,2.32,17.81,6.22,17.81,16.65c0,9.27-8.05,14.15-18.9,14.15
	C635.01,324.91,626.53,320.16,625.68,311.44"/>
</svg>
