<?xml version="1.0" encoding="utf-8"?>
<!-- Generator: Adobe Illustrator 24.2.1, SVG Export Plug-In . SVG Version: 6.00 Build 0)  -->
<svg version="1.1" id="Capa_1" xmlns="http://www.w3.org/2000/svg" xmlns:xlink="http://www.w3.org/1999/xlink" x="0px" y="0px"
	 viewBox="0 0 468 60" style="enable-background:new 0 0 468 60;" xml:space="preserve">
<style type="text/css">
	.st0{fill:#FF5E59;}
	.st1{fill:#FFFFFF;}
	.st2{fill:#007EB8;}
	.st3{fill:#2F292A;}
	.st4{fill:#008FCB;}
	.st5{fill:#EE3831;}
	.st6{fill:#733D96;}
	.st7{fill:#FABC1B;}
	.st8{fill:#154A8F;}
	.st9{fill:#F37A2B;}
	.st10{fill:#EA3630;}
	.st11{fill:#F9AC22;}
	.st12{fill:#2D3277;}
	.st13{fill:#009EE3;}
</style>
<rect y="0" class="st0" width="172" height="59.99"/>
<g>
	<path class="st1" d="M45.21,20.27c0,2.09-1.51,3.35-4.01,3.35h-2.63v3.1h-1.04v-9.81h3.67C43.7,16.91,45.21,18.17,45.21,20.27z
		 M44.17,20.27c0-1.57-1.04-2.47-3-2.47h-2.61v4.9h2.61C43.14,22.71,44.17,21.81,44.17,20.27z"/>
	<path class="st1" d="M52.73,22.15v4.57h-0.95v-1.15c-0.45,0.76-1.32,1.22-2.54,1.22c-1.67,0-2.69-0.87-2.69-2.14
		c0-1.13,0.73-2.09,2.84-2.09h2.34V22.1c0-1.26-0.71-1.95-2.09-1.95c-0.95,0-1.85,0.34-2.45,0.87l-0.45-0.74
		c0.74-0.63,1.84-0.99,3-0.99C51.65,19.29,52.73,20.24,52.73,22.15z M51.73,24.5v-1.2h-2.31c-1.43,0-1.89,0.56-1.89,1.32
		c0,0.85,0.69,1.39,1.86,1.39C50.51,26,51.34,25.47,51.73,24.5z"/>
	<path class="st1" d="M62.27,19.34v6.47c0,2.54-1.25,3.68-3.68,3.68c-1.34,0-2.66-0.41-3.43-1.13l0.5-0.76
		c0.7,0.63,1.77,1.01,2.9,1.01c1.86,0,2.72-0.85,2.72-2.68V25c-0.62,0.94-1.67,1.43-2.87,1.43c-2.1,0-3.7-1.47-3.7-3.59
		s1.6-3.56,3.7-3.56c1.23,0,2.3,0.5,2.91,1.47v-1.42H62.27z M61.31,22.85c0-1.6-1.18-2.69-2.8-2.69s-2.79,1.09-2.79,2.69
		c0,1.6,1.16,2.7,2.79,2.7S61.31,24.44,61.31,22.85z"/>
	<path class="st1" d="M70.62,22.15v4.57h-0.95v-1.15c-0.45,0.76-1.32,1.22-2.54,1.22c-1.67,0-2.69-0.87-2.69-2.14
		c0-1.13,0.73-2.09,2.84-2.09h2.34V22.1c0-1.26-0.71-1.95-2.09-1.95c-0.95,0-1.85,0.34-2.45,0.87l-0.45-0.74
		c0.74-0.63,1.84-0.99,3-0.99C69.54,19.29,70.62,20.24,70.62,22.15z M69.62,24.5v-1.2h-2.31c-1.43,0-1.89,0.56-1.89,1.32
		c0,0.85,0.69,1.39,1.86,1.39C68.4,26,69.23,25.47,69.62,24.5z"/>
	<path class="st1" d="M83.76,22.44v4.27h-0.99v-4.17c0-1.55-0.81-2.35-2.21-2.35c-1.58,0-2.58,0.98-2.58,2.66v3.87h-0.99V16.32h0.99
		v4.31c0.55-0.85,1.51-1.34,2.76-1.34C82.53,19.29,83.76,20.33,83.76,22.44z"/>
	<path class="st1" d="M92.02,22.15v4.57h-0.95v-1.15c-0.45,0.76-1.32,1.22-2.54,1.22c-1.67,0-2.69-0.87-2.69-2.14
		c0-1.13,0.73-2.09,2.84-2.09h2.34V22.1c0-1.26-0.71-1.95-2.09-1.95c-0.95,0-1.85,0.34-2.45,0.87l-0.45-0.74
		c0.74-0.63,1.83-0.99,3-0.99C90.94,19.29,92.02,20.24,92.02,22.15z M91.03,24.5v-1.2h-2.31c-1.43,0-1.89,0.56-1.89,1.32
		c0,0.85,0.69,1.39,1.86,1.39C89.81,26,90.64,25.47,91.03,24.5z"/>
	<path class="st1" d="M93.7,25.87l0.45-0.78c0.59,0.46,1.58,0.83,2.62,0.83c1.4,0,1.98-0.48,1.98-1.2c0-1.92-4.78-0.41-4.78-3.32
		c0-1.2,1.04-2.1,2.91-2.1c0.95,0,1.99,0.27,2.61,0.69l-0.43,0.8c-0.64-0.45-1.41-0.63-2.17-0.63c-1.33,0-1.92,0.52-1.92,1.22
		c0,1.99,4.78,0.49,4.78,3.32c0,1.27-1.12,2.1-3.04,2.1C95.48,26.78,94.3,26.39,93.7,25.87z"/>
	<path class="st1" d="M105.45,26.26c-0.39,0.35-0.98,0.52-1.55,0.52c-1.39,0-2.16-0.78-2.16-2.14v-4.45h-1.32v-0.84h1.32v-1.61h0.99
		v1.61h2.24v0.84h-2.24v4.4c0,0.87,0.45,1.34,1.27,1.34c0.41,0,0.81-0.13,1.09-0.38L105.45,26.26z"/>
	<path class="st1" d="M112.81,22.15v4.57h-0.95v-1.15c-0.45,0.76-1.32,1.22-2.54,1.22c-1.67,0-2.69-0.87-2.69-2.14
		c0-1.13,0.73-2.09,2.84-2.09h2.34V22.1c0-1.26-0.71-1.95-2.09-1.95c-0.95,0-1.85,0.34-2.45,0.87l-0.45-0.74
		c0.74-0.63,1.83-0.99,3-0.99C111.73,19.29,112.81,20.24,112.81,22.15z M111.82,24.5v-1.2h-2.31c-1.43,0-1.89,0.56-1.89,1.32
		c0,0.85,0.69,1.39,1.86,1.39C110.6,26,111.43,25.47,111.82,24.5z"/>
	<path class="st1" d="M125.59,23.34h-6.16c0.11,1.54,1.29,2.56,2.9,2.56c0.9,0,1.69-0.32,2.25-0.97l0.56,0.64
		c-0.66,0.78-1.68,1.2-2.84,1.2c-2.3,0-3.87-1.57-3.87-3.75s1.53-3.74,3.6-3.74c2.07,0,3.57,1.53,3.57,3.74
		C125.61,23.11,125.59,23.23,125.59,23.34z M119.43,22.59h5.23c-0.13-1.44-1.18-2.45-2.62-2.45
		C120.61,20.14,119.56,21.15,119.43,22.59z"/>
	<path class="st1" d="M134.42,22.44v4.27h-0.99v-4.17c0-1.55-0.81-2.35-2.21-2.35c-1.58,0-2.58,0.98-2.58,2.66v3.87h-0.99v-7.37
		h0.95v1.36c0.53-0.9,1.53-1.41,2.8-1.41C133.18,19.29,134.42,20.33,134.42,22.44z"/>
	<path class="st1" d="M13.31,33.71v9.8h-2.27v-7.98H9.08v-1.82H13.31z"/>
	<path class="st1" d="M22.35,41.66v1.85h-7.41v-1.47l3.78-3.57c0.87-0.83,1.02-1.33,1.02-1.81c0-0.77-0.53-1.22-1.57-1.22
		c-0.84,0-1.56,0.32-2.03,0.98l-1.65-1.06c0.76-1.11,2.13-1.82,3.89-1.82c2.19,0,3.64,1.12,3.64,2.9c0,0.95-0.27,1.82-1.64,3.1
		l-2.26,2.13H22.35z"/>
	<path class="st1" d="M27.24,38.61c0-2.96,2.27-5.07,5.32-5.07c1.69,0,3.11,0.62,4.03,1.74l-1.46,1.35
		c-0.66-0.76-1.48-1.15-2.47-1.15c-1.84,0-3.14,1.29-3.14,3.14c0,1.85,1.3,3.14,3.14,3.14c0.98,0,1.81-0.39,2.47-1.16l1.46,1.35
		c-0.92,1.13-2.34,1.75-4.05,1.75C29.51,43.68,27.24,41.57,27.24,38.61z"/>
	<path class="st1" d="M37.95,39.2v-5.49h2.27v5.41c0,1.86,0.81,2.63,2.19,2.63c1.39,0,2.19-0.77,2.19-2.63v-5.41h2.24v5.49
		c0,2.89-1.65,4.48-4.44,4.48S37.95,42.08,37.95,39.2z"/>
	<path class="st1" d="M48.45,38.61c0-2.91,2.27-5.07,5.36-5.07c3.08,0,5.36,2.14,5.36,5.07s-2.28,5.07-5.36,5.07
		C50.72,43.68,48.45,41.52,48.45,38.61z M56.88,38.61c0-1.86-1.32-3.14-3.07-3.14s-3.07,1.27-3.07,3.14s1.32,3.14,3.07,3.14
		S56.88,40.47,56.88,38.61z"/>
	<path class="st1" d="M62.78,35.56h-3.14v-1.85h8.54v1.85h-3.14v7.96h-2.27V35.56z"/>
	<path class="st1" d="M75.36,41.41h-4.55l-0.87,2.1h-2.33l4.37-9.8h2.24l4.38,9.8h-2.38L75.36,41.41z M74.65,39.69l-1.55-3.75
		l-1.56,3.75H74.65z"/>
	<path class="st1" d="M78.86,42.55l0.77-1.71c0.83,0.6,2.06,1.02,3.24,1.02c1.34,0,1.89-0.45,1.89-1.05c0-1.83-5.7-0.57-5.7-4.22
		c0-1.67,1.34-3.05,4.13-3.05c1.23,0,2.49,0.29,3.4,0.87l-0.7,1.72c-0.91-0.52-1.85-0.77-2.72-0.77c-1.34,0-1.86,0.5-1.86,1.12
		c0,1.81,5.7,0.56,5.7,4.16c0,1.64-1.36,3.04-4.16,3.04C81.3,43.68,79.73,43.22,78.86,42.55z"/>
	<path class="st1" d="M91.43,42.67l0.45-0.79c0.59,0.46,1.58,0.83,2.62,0.83c1.4,0,1.98-0.48,1.98-1.2c0-1.92-4.78-0.41-4.78-3.32
		c0-1.21,1.04-2.1,2.91-2.1c0.95,0,1.99,0.27,2.61,0.69l-0.43,0.8c-0.64-0.45-1.42-0.63-2.17-0.63c-1.33,0-1.92,0.52-1.92,1.22
		c0,1.99,4.78,0.49,4.78,3.32c0,1.28-1.12,2.1-3.04,2.1C93.21,43.58,92.03,43.19,91.43,42.67z"/>
	<path class="st1" d="M99.08,33.82c0-0.38,0.32-0.7,0.73-0.7s0.73,0.31,0.73,0.69c0,0.41-0.31,0.73-0.73,0.73
		C99.4,34.53,99.08,34.21,99.08,33.82z M99.3,36.15h0.99v7.37H99.3V36.15z"/>
	<path class="st1" d="M109.85,39.24v4.27h-0.99v-4.17c0-1.55-0.81-2.35-2.21-2.35c-1.58,0-2.58,0.98-2.58,2.66v3.87h-0.99v-7.37
		h0.95v1.36c0.53-0.9,1.53-1.42,2.8-1.42C108.61,36.09,109.85,37.13,109.85,39.24z"/>
	<path class="st1" d="M115.99,33.82c0-0.38,0.32-0.7,0.73-0.7s0.73,0.31,0.73,0.69c0,0.41-0.31,0.73-0.73,0.73
		C116.31,34.53,115.99,34.21,115.99,33.82z M116.21,36.15h0.99v7.37h-0.99V36.15z"/>
	<path class="st1" d="M126.76,39.24v4.27h-0.99v-4.17c0-1.55-0.81-2.35-2.21-2.35c-1.58,0-2.58,0.98-2.58,2.66v3.87h-0.99v-7.37
		h0.95v1.36c0.53-0.9,1.53-1.42,2.8-1.42C125.52,36.09,126.76,37.13,126.76,39.24z"/>
	<path class="st1" d="M133.34,43.07c-0.39,0.35-0.98,0.52-1.55,0.52c-1.39,0-2.16-0.78-2.16-2.14v-4.46h-1.32v-0.84h1.32v-1.61h0.99
		v1.61h2.24v0.84h-2.24v4.4c0,0.87,0.45,1.34,1.27,1.34c0.41,0,0.81-0.13,1.09-0.38L133.34,43.07z"/>
	<path class="st1" d="M141.29,40.14h-6.16c0.11,1.54,1.29,2.56,2.9,2.56c0.9,0,1.69-0.32,2.25-0.97l0.56,0.64
		c-0.66,0.79-1.68,1.21-2.84,1.21c-2.3,0-3.87-1.57-3.87-3.75s1.53-3.74,3.6-3.74c2.07,0,3.57,1.53,3.57,3.74
		C141.3,39.91,141.29,40.03,141.29,40.14z M135.13,39.4h5.23c-0.13-1.44-1.18-2.45-2.62-2.45C136.3,36.94,135.25,37.95,135.13,39.4z
		"/>
	<path class="st1" d="M147.04,36.09v0.97c-0.08,0-0.17-0.01-0.24-0.01c-1.54,0-2.48,0.98-2.48,2.72v3.75h-0.99v-7.37h0.95v1.44
		C144.74,36.61,145.68,36.09,147.04,36.09z"/>
	<path class="st1" d="M155.18,40.14h-6.16c0.11,1.54,1.29,2.56,2.9,2.56c0.9,0,1.69-0.32,2.25-0.97l0.56,0.64
		c-0.66,0.79-1.68,1.21-2.84,1.21c-2.3,0-3.87-1.57-3.87-3.75s1.53-3.74,3.6-3.74c2.07,0,3.57,1.53,3.57,3.74
		C155.19,39.91,155.18,40.03,155.18,40.14z M149.01,39.4h5.23c-0.13-1.44-1.18-2.45-2.62-2.45
		C150.19,36.94,149.14,37.95,149.01,39.4z M151.69,35.01h-0.98l1.92-1.74h1.33L151.69,35.01z"/>
	<path class="st1" d="M156.19,42.67l0.45-0.79c0.59,0.46,1.58,0.83,2.62,0.83c1.4,0,1.98-0.48,1.98-1.2c0-1.92-4.78-0.41-4.78-3.32
		c0-1.21,1.04-2.1,2.91-2.1c0.95,0,1.99,0.27,2.61,0.69l-0.43,0.8c-0.64-0.45-1.41-0.63-2.17-0.63c-1.33,0-1.92,0.52-1.92,1.22
		c0,1.99,4.78,0.49,4.78,3.32c0,1.28-1.12,2.1-3.04,2.1C157.97,43.58,156.8,43.19,156.19,42.67z"/>
</g>
<g>
	<g>
		<path class="st1" d="M367.59,40.04c0,1.19-0.99,2.16-2.21,2.16h-28.15c-1.22,0-2.21-0.97-2.21-2.16V20.58
			c0-1.19,0.99-2.16,2.21-2.16h28.15c1.22,0,2.21,0.97,2.21,2.16V40.04z"/>
		<path class="st2" d="M337.23,42.38c-1.32,0-2.39-1.04-2.39-2.34V20.58c0-1.3,1.07-2.34,2.39-2.35h28.15
			c1.32,0.01,2.39,1.05,2.39,2.35v19.46c0,1.3-1.08,2.34-2.39,2.34H337.23z M335.21,20.58v19.46c0,1.08,0.9,1.97,2.02,1.97h28.15
			c1.12,0,2.02-0.89,2.02-1.97V20.58c0-1.09-0.9-1.97-2.02-1.97h-28.15C336.11,18.61,335.21,19.49,335.21,20.58"/>
		<path class="st2" d="M352.59,31.71c3.08,0.01,5.9-2.51,5.9-5.59c0-3.36-2.81-5.69-5.9-5.69h-2.65c-3.12,0-5.68,2.32-5.68,5.69
			c0,3.07,2.57,5.6,5.68,5.59H352.59z"/>
		<path class="st1" d="M349.96,20.9c-2.85,0-5.16,2.31-5.16,5.16c0,2.85,2.31,5.16,5.16,5.16c2.85,0,5.16-2.31,5.16-5.16
			C355.12,23.21,352.81,20.9,349.96,20.9 M346.68,26.06c0-1.39,0.88-2.58,2.1-3.05v6.1C347.56,28.64,346.69,27.45,346.68,26.06
			 M351.13,29.12v-6.11c1.23,0.47,2.1,1.66,2.1,3.05C353.23,27.46,352.36,28.64,351.13,29.12"/>
		<path class="st3" d="M338.02,32.81c0-0.53-0.28-0.5-0.55-0.51v-0.15c0.23,0.01,0.47,0.01,0.7,0.01c0.25,0,0.59-0.01,1.03-0.01
			c1.53,0,2.37,1.02,2.37,2.07c0,0.59-0.34,2.07-2.44,2.07c-0.3,0-0.58-0.02-0.86-0.02c-0.26,0-0.53,0.01-0.79,0.02v-0.15
			c0.36-0.04,0.53-0.05,0.55-0.45V32.81z M338.59,35.59c0,0.46,0.33,0.51,0.62,0.51c1.28,0,1.7-0.97,1.7-1.85
			c0-1.11-0.71-1.91-1.85-1.91c-0.24,0-0.36,0.02-0.47,0.02V35.59z"/>
		<path class="st3" d="M341.78,36.13h0.11c0.17,0,0.29,0,0.29-0.2v-1.61c0-0.26-0.09-0.29-0.31-0.41v-0.09
			c0.28-0.08,0.61-0.2,0.64-0.21c0.04-0.02,0.08-0.03,0.11-0.03c0.03,0,0.04,0.04,0.04,0.09v2.28c0,0.2,0.13,0.2,0.3,0.2h0.1v0.15
			c-0.2,0-0.41-0.02-0.62-0.02c-0.21,0-0.43,0.01-0.65,0.02V36.13z M342.41,32.67c-0.15,0-0.29-0.14-0.29-0.29
			c0-0.15,0.14-0.29,0.29-0.29c0.16,0,0.29,0.12,0.29,0.29C342.7,32.53,342.57,32.67,342.41,32.67"/>
		<path class="st3" d="M343.61,34.36c0-0.22-0.06-0.28-0.34-0.39v-0.11c0.26-0.08,0.5-0.16,0.78-0.29c0.02,0,0.03,0.02,0.03,0.06
			v0.38c0.34-0.24,0.63-0.45,1.03-0.45c0.5,0,0.68,0.37,0.68,0.83v1.53c0,0.2,0.13,0.2,0.29,0.2h0.11v0.15
			c-0.21,0-0.41-0.02-0.63-0.02c-0.21,0-0.42,0.01-0.64,0.02v-0.15h0.11c0.17,0,0.28,0,0.28-0.2V34.4c0-0.34-0.21-0.5-0.55-0.5
			c-0.19,0-0.49,0.15-0.69,0.28v1.76c0,0.2,0.13,0.2,0.3,0.2h0.11v0.15c-0.21,0-0.41-0.02-0.63-0.02c-0.21,0-0.43,0.01-0.64,0.02
			v-0.15h0.11c0.16,0,0.28,0,0.28-0.2V34.36z"/>
		<path class="st3" d="M346.64,34.65c-0.01,0.05-0.01,0.14,0,0.34c0.04,0.57,0.4,1.03,0.87,1.03c0.33,0,0.58-0.18,0.8-0.4l0.08,0.08
			c-0.27,0.36-0.61,0.67-1.1,0.67c-0.94,0-1.13-0.91-1.13-1.29c0-1.17,0.78-1.51,1.2-1.51c0.48,0,1,0.3,1,0.93
			c0,0.04,0,0.07-0.01,0.11l-0.05,0.04H346.64z M347.69,34.46c0.15,0,0.16-0.08,0.16-0.15c0-0.3-0.19-0.54-0.52-0.54
			c-0.36,0-0.61,0.27-0.68,0.69H347.69z"/>
		<path class="st3" d="M348.5,36.13h0.16c0.16,0,0.29,0,0.29-0.2v-1.67c0-0.18-0.22-0.22-0.31-0.27v-0.09
			c0.43-0.18,0.67-0.34,0.72-0.34c0.03,0,0.05,0.02,0.05,0.08v0.53h0.01c0.15-0.23,0.4-0.61,0.76-0.61c0.15,0,0.34,0.1,0.34,0.32
			c0,0.16-0.11,0.3-0.28,0.3c-0.18,0-0.18-0.14-0.39-0.14c-0.1,0-0.44,0.14-0.44,0.49v1.39c0,0.2,0.12,0.2,0.28,0.2h0.33v0.15
			c-0.33,0-0.58-0.02-0.83-0.02c-0.24,0-0.5,0.01-0.71,0.02V36.13z"/>
		<path class="st3" d="M350.79,35.46c0.08,0.39,0.32,0.72,0.75,0.72c0.35,0,0.48-0.21,0.48-0.42c0-0.7-1.29-0.47-1.29-1.43
			c0-0.33,0.27-0.76,0.92-0.76c0.19,0,0.44,0.06,0.67,0.18l0.04,0.6h-0.14c-0.06-0.37-0.27-0.59-0.65-0.59
			c-0.24,0-0.46,0.14-0.46,0.39c0,0.7,1.38,0.48,1.38,1.41c0,0.39-0.31,0.81-1.02,0.81c-0.24,0-0.52-0.09-0.73-0.2l-0.06-0.68
			L350.79,35.46z"/>
		<path class="st3" d="M357.84,33.22h-0.15c-0.12-0.69-0.61-0.97-1.27-0.97c-0.68,0-1.67,0.45-1.67,1.88c0,1.2,0.85,2.06,1.77,2.06
			c0.58,0,1.07-0.4,1.19-1.02l0.13,0.03l-0.13,0.86c-0.25,0.16-0.92,0.32-1.31,0.32c-1.39,0-2.27-0.9-2.27-2.23
			c0-1.21,1.08-2.09,2.25-2.09c0.48,0,0.94,0.15,1.4,0.31L357.84,33.22z"/>
		<path class="st3" d="M358.05,36.13h0.11c0.16,0,0.28,0,0.28-0.2v-3.3c0-0.39-0.09-0.4-0.32-0.47v-0.09
			c0.24-0.08,0.49-0.18,0.61-0.25c0.06-0.03,0.11-0.07,0.13-0.07c0.04,0,0.05,0.04,0.05,0.08v4.1c0,0.2,0.13,0.2,0.3,0.2h0.1v0.15
			c-0.2,0-0.4-0.02-0.62-0.02c-0.21,0-0.43,0.01-0.65,0.02V36.13z"/>
		<path class="st3" d="M361.86,35.96c0,0.11,0.07,0.11,0.17,0.11c0.07,0,0.16-0.01,0.24-0.01v0.13c-0.26,0.02-0.74,0.15-0.86,0.19
			l-0.03-0.02v-0.48c-0.36,0.29-0.63,0.5-1.05,0.5c-0.32,0-0.65-0.21-0.65-0.7v-1.52c0-0.15-0.02-0.3-0.35-0.33v-0.11
			c0.21-0.01,0.69-0.04,0.76-0.04c0.07,0,0.07,0.04,0.07,0.17v1.53c0,0.18,0,0.69,0.51,0.69c0.2,0,0.47-0.15,0.72-0.36v-1.6
			c0-0.12-0.29-0.18-0.5-0.24v-0.11c0.53-0.04,0.86-0.08,0.92-0.08c0.05,0,0.05,0.04,0.05,0.11V35.96z"/>
		<path class="st3" d="M363.04,34c0.23-0.2,0.56-0.43,0.88-0.43c0.69,0,1.1,0.6,1.1,1.25c0,0.78-0.57,1.55-1.42,1.55
			c-0.44,0-0.67-0.14-0.82-0.21l-0.18,0.14l-0.13-0.06c0.06-0.35,0.08-0.7,0.08-1.06v-2.55c0-0.39-0.09-0.4-0.31-0.47v-0.09
			c0.24-0.08,0.49-0.18,0.61-0.25c0.06-0.03,0.11-0.07,0.13-0.07c0.04,0,0.05,0.04,0.05,0.09V34z M363.04,35.62
			c0,0.23,0.21,0.61,0.61,0.61c0.64,0,0.9-0.62,0.9-1.15c0-0.64-0.49-1.17-0.95-1.17c-0.22,0-0.4,0.14-0.56,0.28V35.62z"/>
		<path class="st3" d="M337.46,39.74h0.04c0.12,0,0.24-0.02,0.24-0.18v-1.69c0-0.17-0.12-0.18-0.24-0.18h-0.04v-0.1
			c0.13,0,0.32,0.01,0.48,0.01c0.16,0,0.35-0.01,0.51-0.01v0.1h-0.05c-0.12,0-0.24,0.01-0.24,0.18v1.69c0,0.17,0.12,0.18,0.24,0.18
			h0.05v0.1c-0.15,0-0.35-0.01-0.51-0.01c-0.16,0-0.35,0.01-0.48,0.01V39.74z"/>
		<path class="st3" d="M338.45,39.85c-0.16,0-0.35-0.01-0.51-0.01c-0.16,0-0.35,0.01-0.48,0.01h-0.02v-0.01v-0.1v-0.01h0.02h0.04
			c0.12,0,0.23-0.01,0.23-0.17v-1.69c0-0.16-0.11-0.17-0.23-0.17h-0.06v-0.01v-0.11h0.02c0.13,0,0.32,0.01,0.48,0.01
			c0.16,0,0.35-0.01,0.51-0.01h0.02v0.01v0.11h-0.02h-0.05c-0.12,0-0.22,0.01-0.23,0.17v1.69c0,0.16,0.11,0.17,0.23,0.17h0.06v0.01
			v0.11H338.45z M338.43,39.82v-0.07h-0.03c-0.12,0-0.25-0.02-0.25-0.2v-1.69c0-0.18,0.14-0.2,0.25-0.2h0.03V37.6
			c-0.15,0-0.34,0.01-0.49,0.01c-0.15,0-0.34-0.01-0.46-0.01v0.07h0.03c0.11,0,0.25,0.02,0.25,0.2v1.69c0,0.18-0.14,0.2-0.25,0.2
			h-0.03v0.07c0.12,0,0.3-0.01,0.46-0.01C338.1,39.8,338.28,39.82,338.43,39.82"/>
		<path class="st3" d="M340.66,39.2L340.66,39.2l0.01-1.22c0-0.26-0.18-0.3-0.28-0.3h-0.07v-0.1c0.15,0,0.3,0.01,0.45,0.01
			c0.13,0,0.27-0.01,0.4-0.01v0.1h-0.05c-0.13,0-0.29,0.02-0.29,0.41v1.47c0,0.11,0,0.22,0.02,0.33h-0.13l-1.66-1.85v1.33
			c0,0.28,0.05,0.38,0.3,0.38h0.06v0.1c-0.14,0-0.28-0.01-0.42-0.01c-0.15,0-0.29,0.01-0.44,0.01v-0.1h0.04
			c0.22,0,0.29-0.15,0.29-0.41v-1.36c0-0.18-0.15-0.29-0.29-0.29h-0.04v-0.1c0.12,0,0.25,0.01,0.37,0.01c0.1,0,0.19-0.01,0.29-0.01
			L340.66,39.2z"/>
		<path class="st3" d="M340.85,39.89l-0.13-0.01l-1.64-1.82v1.29c0,0.28,0.05,0.36,0.29,0.37h0.07v0.01v0.11h-0.01
			c-0.14,0-0.28-0.01-0.42-0.01c-0.15,0-0.29,0.01-0.44,0.01h-0.02v-0.01v-0.11h0.02h0.04c0.21,0,0.27-0.14,0.28-0.4v-1.36
			c0-0.17-0.14-0.28-0.28-0.28h-0.06v-0.01v-0.11h0.02c0.12,0,0.25,0.01,0.37,0.01c0.1,0,0.19-0.01,0.3-0.01l1.41,1.6v-1.18
			c0-0.26-0.17-0.29-0.26-0.29h-0.09v-0.01v-0.11h0.02c0.15,0,0.3,0.01,0.45,0.01c0.13,0,0.26-0.01,0.4-0.01h0.02v0.01v0.11h-0.02
			h-0.05c-0.13,0-0.27,0.02-0.27,0.4v1.47c0,0.11,0.01,0.23,0.02,0.32l0,0.02H340.85z M340.73,39.87h0.11
			c-0.01-0.1-0.02-0.2-0.02-0.31v-1.47c0-0.39,0.16-0.42,0.3-0.42h0.03V37.6c-0.13,0-0.25,0.01-0.38,0.01
			c-0.15,0-0.29-0.01-0.44-0.01v0.07h0.06c0.1,0,0.29,0.04,0.29,0.32l0,1.22l-0.01,0l-0.01,0.01l-1.43-1.62
			c-0.1,0-0.19,0.01-0.29,0.01c-0.12,0-0.24-0.01-0.35-0.01v0.07h0.03c0.15,0,0.31,0.12,0.31,0.31v1.36c0,0.26-0.07,0.42-0.3,0.42
			h-0.03v0.07c0.14,0,0.28-0.01,0.42-0.01c0.14,0,0.27,0.01,0.4,0.01v-0.07h-0.04c-0.25,0-0.32-0.11-0.32-0.39v-1.36L340.73,39.87z
			 M340.66,39.2l0.01-0.01L340.66,39.2z M340.66,39.19L340.66,39.19L340.66,39.19L340.66,39.19z"/>
		<path class="st3" d="M341.65,37.74c-0.24,0-0.25,0.06-0.3,0.29h-0.1c0.01-0.09,0.03-0.18,0.04-0.28c0.02-0.09,0.02-0.18,0.02-0.27
			h0.08c0.02,0.1,0.1,0.09,0.19,0.09h1.66c0.09,0,0.17,0,0.17-0.1l0.08,0.01c-0.01,0.09-0.02,0.18-0.04,0.26
			c-0.01,0.09-0.01,0.17-0.01,0.26l-0.1,0.03c-0.01-0.12-0.02-0.31-0.24-0.31h-0.53v1.72c0,0.25,0.11,0.28,0.26,0.28h0.07v0.1
			c-0.13,0-0.35-0.01-0.53-0.01c-0.19,0-0.42,0.01-0.55,0.01v-0.1h0.06c0.18,0,0.27-0.02,0.27-0.27v-1.72H341.65z"/>
		<path class="st3" d="M342.92,39.85c-0.13,0-0.36-0.01-0.53-0.01c-0.19,0-0.42,0.01-0.55,0.01h-0.01v-0.01v-0.11h0.01h0.06
			c0.18,0,0.25-0.01,0.26-0.26v-1.71h-0.52v-0.01v-0.02h0.54v1.74c0,0.26-0.1,0.28-0.28,0.28h-0.05v0.07c0.13,0,0.34-0.01,0.53-0.01
			c0.17,0,0.38,0.01,0.51,0.01v-0.07h-0.05c-0.15,0-0.28-0.04-0.28-0.29v-1.73h0.54c0.22,0,0.24,0.19,0.25,0.3l0.07-0.02
			c0-0.08,0-0.17,0.01-0.25c0.01-0.08,0.02-0.16,0.04-0.25l-0.05-0.01c-0.02,0.1-0.11,0.1-0.19,0.1h-1.66h-0.02
			c-0.08,0-0.16,0-0.19-0.09h-0.05c0,0.09-0.01,0.18-0.02,0.26c-0.01,0.09-0.03,0.17-0.04,0.26h0.07c0.04-0.22,0.07-0.3,0.31-0.3
			v0.02v0.01c-0.24,0-0.23,0.04-0.29,0.28l0,0.01h-0.01h-0.11v-0.02c0.01-0.09,0.03-0.18,0.04-0.27c0.01-0.09,0.02-0.18,0.02-0.27
			v-0.02h0.01h0.09l0,0.01c0.02,0.08,0.08,0.08,0.16,0.08h0.02h1.66c0.09,0,0.16,0,0.16-0.09l0-0.02l0.01,0l0.09,0.02l0,0.01
			c-0.01,0.09-0.03,0.17-0.04,0.26c-0.01,0.09-0.01,0.17-0.01,0.26v0.01l-0.01,0l-0.11,0.04l0-0.02c0-0.12-0.02-0.29-0.22-0.29
			h-0.52v1.7c0,0.24,0.1,0.26,0.25,0.27h0.08v0.01v0.11H342.92z"/>
		<path class="st3" d="M343.6,39.74h0.05c0.12,0,0.24-0.02,0.24-0.18v-1.69c0-0.17-0.12-0.18-0.24-0.18h-0.05v-0.1
			c0.2,0,0.53,0.01,0.8,0.01c0.27,0,0.61-0.01,0.83-0.01c0,0.14,0,0.35,0.01,0.49l-0.1,0.03c-0.02-0.21-0.05-0.38-0.39-0.38h-0.45
			v0.84h0.38c0.19,0,0.23-0.11,0.25-0.28h0.1c0,0.13-0.01,0.25-0.01,0.38c0,0.13,0.01,0.25,0.01,0.37l-0.1,0.02
			c-0.02-0.19-0.03-0.32-0.25-0.32h-0.39v0.75c0,0.21,0.19,0.21,0.39,0.21c0.39,0,0.56-0.02,0.65-0.39l0.09,0.02
			c-0.04,0.17-0.08,0.34-0.11,0.51c-0.21,0-0.58-0.01-0.87-0.01c-0.29,0-0.67,0.01-0.86,0.01V39.74z"/>
		<path class="st3" d="M345.33,39.85c-0.21,0-0.58-0.01-0.87-0.01c-0.29,0-0.67,0.01-0.86,0.01h-0.01v-0.01v-0.1v-0.01h0.01h0.05
			c0.12,0,0.22-0.01,0.23-0.17v-1.69c0-0.16-0.11-0.17-0.23-0.17h-0.06v-0.01v-0.11h0.01c0.2,0,0.53,0.01,0.8,0.01
			c0.27,0,0.61-0.01,0.83-0.01h0.01v0.01c0,0.05,0,0.11,0,0.17c0,0.11,0,0.23,0.01,0.33l0,0.01l-0.01,0l-0.11,0.03V38.1
			c-0.02-0.21-0.05-0.36-0.38-0.36h-0.44v0.82h0.37c0.18,0,0.22-0.1,0.24-0.27l0-0.01h0.01h0.11v0.01
			c-0.01,0.13-0.01,0.25-0.01,0.38c0,0.12,0,0.25,0.01,0.37v0.01l-0.01,0l-0.11,0.03l0-0.02c-0.02-0.2-0.02-0.31-0.24-0.31h-0.37
			v0.74c0,0.2,0.17,0.19,0.38,0.2c0.39,0,0.54-0.02,0.64-0.39l0-0.01l0.02,0l0.1,0.03v0.01c-0.04,0.17-0.08,0.34-0.11,0.51l0,0.01
			H345.33z M345.31,39.82c0.03-0.16,0.07-0.33,0.11-0.49l-0.07-0.01c-0.1,0.36-0.28,0.39-0.66,0.39c-0.2,0-0.41,0-0.41-0.22v-0.77
			h0.4c0.22,0,0.25,0.13,0.26,0.32l0.07-0.02c-0.01-0.12-0.01-0.24-0.01-0.36c0-0.12,0-0.24,0.01-0.36h-0.07
			c-0.01,0.17-0.07,0.28-0.26,0.28h-0.4v-0.87h0.46c0.34-0.01,0.39,0.17,0.4,0.37l0.07-0.02c0-0.09-0.01-0.21-0.01-0.31
			c0-0.06,0-0.11,0-0.15c-0.22,0-0.55,0.01-0.81,0.01c-0.26,0-0.59-0.01-0.79-0.01v0.07h0.03c0.11,0,0.25,0.02,0.25,0.2v1.69
			c0,0.18-0.14,0.2-0.25,0.2h-0.03v0.07c0.19,0,0.56-0.01,0.84-0.01C344.74,39.8,345.11,39.82,345.31,39.82"/>
		<path class="st3" d="M345.87,37.92c0-0.24-0.13-0.24-0.23-0.24h-0.06v-0.1c0.1,0,0.3,0.01,0.5,0.01c0.2,0,0.35-0.01,0.52-0.01
			c0.41,0,0.77,0.11,0.77,0.57c0,0.29-0.19,0.46-0.45,0.56l0.55,0.83c0.09,0.13,0.16,0.18,0.31,0.19v0.1c-0.1,0-0.21-0.01-0.31-0.01
			c-0.1,0-0.21,0.01-0.3,0.01c-0.25-0.32-0.46-0.67-0.67-1.05h-0.21v0.69c0,0.25,0.12,0.26,0.27,0.26h0.06v0.1
			c-0.18,0-0.37-0.01-0.55-0.01c-0.15,0-0.3,0.01-0.47,0.01v-0.1h0.06c0.12,0,0.23-0.06,0.23-0.17V37.92z M346.28,38.67h0.16
			c0.32,0,0.5-0.12,0.5-0.5c0-0.29-0.19-0.47-0.47-0.47c-0.1,0-0.14,0.01-0.19,0.01V38.67z"/>
		<path class="st3" d="M347.79,39.85c-0.11,0-0.21-0.01-0.31-0.01c-0.1,0-0.2,0.01-0.31,0.01c-0.25-0.33-0.46-0.67-0.67-1.04h-0.19
			v0.67c0.01,0.24,0.1,0.24,0.25,0.25h0.07v0.01v0.11h-0.02c-0.18,0-0.37-0.01-0.55-0.01c-0.15,0-0.3,0.01-0.47,0.01h-0.01v-0.01
			v-0.11h0.01h0.06c0.12,0,0.21-0.05,0.21-0.16v-1.64c0-0.23-0.11-0.23-0.21-0.23h-0.07v-0.01v-0.11h0.01c0.1,0,0.3,0.01,0.5,0.01
			c0.2,0,0.35-0.01,0.52-0.01c0.41,0,0.78,0.11,0.78,0.58c0,0.29-0.19,0.47-0.44,0.58l0.54,0.81c0.09,0.13,0.15,0.17,0.3,0.19h0.01
			v0.01v0.11H347.79z M346.28,38.77h0.22l0,0.01c0.21,0.37,0.42,0.72,0.66,1.04c0.1,0,0.2-0.01,0.3-0.01c0.1,0,0.2,0.01,0.3,0.01
			v-0.07c-0.15-0.02-0.22-0.06-0.31-0.19l-0.56-0.84l0.02-0.01c0.25-0.1,0.44-0.27,0.44-0.56c0-0.44-0.35-0.55-0.75-0.55
			c-0.17,0-0.32,0.01-0.52,0.01c-0.19,0-0.38-0.01-0.48-0.01v0.07h0.04c0.1,0,0.24,0.02,0.24,0.26v1.64c0,0.13-0.12,0.19-0.24,0.19
			h-0.04v0.07c0.16,0,0.3-0.01,0.45-0.01c0.18,0,0.36,0.01,0.54,0.01v-0.07h-0.04c-0.15,0-0.28-0.02-0.28-0.27v-0.7H346.28z
			 M346.28,38.69h-0.01V37.7h0.01c0.04,0,0.09-0.02,0.19-0.02c0.29,0,0.48,0.19,0.48,0.49c0,0.38-0.19,0.52-0.51,0.52H346.28z
			 M346.44,38.66c0.32,0,0.48-0.11,0.48-0.49c0-0.28-0.18-0.46-0.46-0.46c-0.09,0-0.13,0.01-0.17,0.01v0.94H346.44z"/>
		<path class="st3" d="M349.98,39.2L349.98,39.2l0-1.22c0-0.26-0.18-0.3-0.28-0.3h-0.07v-0.1c0.15,0,0.3,0.01,0.45,0.01
			c0.13,0,0.26-0.01,0.4-0.01v0.1h-0.05c-0.14,0-0.29,0.02-0.29,0.41v1.47c0,0.11,0,0.22,0.02,0.33h-0.12l-1.66-1.85v1.33
			c0,0.28,0.05,0.38,0.3,0.38h0.06v0.1c-0.14,0-0.28-0.01-0.42-0.01c-0.14,0-0.29,0.01-0.44,0.01v-0.1h0.05
			c0.22,0,0.29-0.15,0.29-0.41v-1.36c0-0.18-0.15-0.29-0.29-0.29h-0.05v-0.1c0.13,0,0.25,0.01,0.37,0.01c0.09,0,0.19-0.01,0.29-0.01
			L349.98,39.2z"/>
		<path class="st3" d="M350.17,39.89l-0.13-0.01l-1.64-1.82v1.29c0,0.28,0.05,0.36,0.29,0.37h0.07v0.01v0.11h-0.02
			c-0.14,0-0.28-0.01-0.42-0.01c-0.14,0-0.29,0.01-0.44,0.01h-0.01v-0.01v-0.11h0.01h0.05c0.21,0,0.27-0.14,0.28-0.4v-1.36
			c0-0.17-0.14-0.28-0.28-0.28h-0.06v-0.01v-0.11h0.01c0.13,0,0.25,0.01,0.37,0.01c0.09,0,0.19-0.01,0.3-0.01l1.42,1.6v-1.18
			c0-0.26-0.17-0.29-0.27-0.29h-0.08v-0.01v-0.11h0.02c0.15,0,0.3,0.01,0.45,0.01c0.13,0,0.26-0.01,0.4-0.01h0.01v0.01v0.11h-0.01
			h-0.05c-0.13,0-0.27,0.02-0.27,0.4v1.47c0,0.11,0,0.23,0.02,0.32l0,0.02H350.17z M350.04,39.87h0.11c-0.02-0.1-0.02-0.2-0.02-0.31
			v-1.47c0-0.39,0.16-0.42,0.3-0.42h0.03V37.6c-0.13,0-0.25,0.01-0.38,0.01c-0.15,0-0.29-0.01-0.44-0.01v0.07h0.05
			c0.1,0,0.3,0.04,0.3,0.32l0,1.22l-0.01,0l-0.01,0.01l-1.44-1.62c-0.09,0-0.19,0.01-0.29,0.01c-0.12,0-0.24-0.01-0.36-0.01v0.07
			h0.03c0.15,0,0.31,0.12,0.31,0.31v1.36c0,0.26-0.07,0.43-0.31,0.43h-0.03v0.07c0.14,0,0.29-0.01,0.43-0.01
			c0.14,0,0.27,0.01,0.4,0.01v-0.07h-0.04c-0.25,0-0.32-0.11-0.32-0.39v-1.36L350.04,39.87z M349.98,39.2l0.01-0.01L349.98,39.2z
			 M349.97,39.19L349.97,39.19L349.97,39.19L349.97,39.19z"/>
		<path class="st3" d="M351,39.37c-0.03,0.11-0.07,0.19-0.07,0.25c0,0.1,0.14,0.11,0.24,0.11h0.03v0.1
			c-0.13-0.01-0.26-0.01-0.39-0.01c-0.12,0-0.23,0.01-0.35,0.01v-0.1h0.02c0.13,0,0.23-0.08,0.28-0.21l0.51-1.48
			c0.04-0.12,0.1-0.28,0.12-0.4c0.1-0.03,0.23-0.1,0.29-0.14c0.01,0,0.02-0.01,0.03-0.01c0.01,0,0.02,0,0.02,0.01
			c0.01,0.03,0.02,0.06,0.03,0.08l0.59,1.69c0.04,0.11,0.08,0.23,0.12,0.33c0.04,0.09,0.11,0.13,0.21,0.13h0.02v0.1
			c-0.14-0.01-0.29-0.01-0.44-0.01c-0.16,0-0.32,0.01-0.49,0.01v-0.1h0.04c0.07,0,0.2-0.01,0.2-0.09c0-0.04-0.03-0.13-0.06-0.23
			l-0.13-0.38h-0.73L351,39.37z M351.47,37.94L351.47,37.94l-0.3,0.91h0.6L351.47,37.94z"/>
		<path class="st3" d="M352.72,39.85c-0.14-0.01-0.29-0.01-0.44-0.01c-0.16,0-0.32,0.01-0.48,0.01l-0.01,0v-0.02v-0.11h0.01h0.04
			c0.07,0,0.19-0.02,0.19-0.08c0-0.04-0.03-0.13-0.07-0.23l-0.12-0.36h-0.71l-0.1,0.32c-0.03,0.11-0.07,0.2-0.07,0.25
			c0,0.08,0.12,0.1,0.23,0.1h0.05v0.02v0.11l-0.01,0c-0.13-0.01-0.26-0.01-0.39-0.01c-0.12,0-0.23,0.01-0.35,0.01l-0.01,0v-0.02
			v-0.11h0.01h0.02c0.12,0,0.22-0.07,0.27-0.2l0.52-1.48c0.04-0.12,0.1-0.28,0.13-0.41c0.1-0.03,0.23-0.1,0.29-0.14
			c0.01,0,0.02,0,0.03,0c0.01,0,0.03,0,0.04,0.02c0.01,0.03,0.02,0.06,0.03,0.08l0.59,1.69c0.04,0.11,0.07,0.23,0.12,0.33
			c0.04,0.09,0.1,0.12,0.2,0.12h0.03v0.02v0.11L352.72,39.85z M351.8,39.82c0.16-0.01,0.32-0.01,0.47-0.01
			c0.15,0,0.29,0.01,0.43,0.01v-0.07h0c-0.11,0-0.19-0.04-0.22-0.14c-0.04-0.1-0.08-0.22-0.12-0.33l-0.59-1.69
			c-0.01-0.03-0.02-0.06-0.03-0.08l0,0h0h-0.01c-0.01,0-0.01,0-0.02,0c-0.06,0.04-0.19,0.1-0.29,0.13c-0.02,0.12-0.08,0.28-0.12,0.4
			l-0.52,1.48c-0.05,0.14-0.16,0.22-0.29,0.22h0v0.07c0.11-0.01,0.22-0.01,0.33-0.01c0.13,0,0.25,0.01,0.38,0.01v-0.07h-0.02
			c-0.11,0-0.25-0.01-0.26-0.13c0-0.06,0.04-0.15,0.07-0.25l0.01,0l-0.01,0l0.11-0.35h0.75l0.13,0.38c0.04,0.1,0.07,0.19,0.07,0.24
			c-0.01,0.1-0.14,0.1-0.21,0.11h-0.02V39.82z M351.14,38.87l0.31-0.94h0.01h0v0.02l0,0l0,0v-0.02h0.01l0.31,0.94H351.14z
			 M351.18,38.84h0.57l-0.28-0.87L351.18,38.84z M351.46,37.95L351.46,37.95L351.46,37.95z"/>
		<path class="st3" d="M352.86,37.74c-0.24,0-0.25,0.06-0.3,0.29h-0.1c0.01-0.09,0.03-0.18,0.04-0.28c0.01-0.09,0.02-0.18,0.02-0.27
			h0.08c0.03,0.1,0.11,0.09,0.19,0.09h1.66c0.09,0,0.17,0,0.17-0.1l0.08,0.01c-0.01,0.09-0.03,0.18-0.04,0.26
			c-0.01,0.09-0.01,0.17-0.01,0.26l-0.09,0.03c-0.01-0.12-0.02-0.31-0.24-0.31h-0.53v1.72c0,0.25,0.11,0.28,0.27,0.28h0.06v0.1
			c-0.13,0-0.35-0.01-0.53-0.01c-0.19,0-0.42,0.01-0.55,0.01v-0.1h0.06c0.18,0,0.27-0.02,0.27-0.27v-1.72H352.86z"/>
		<path class="st3" d="M354.13,39.85c-0.13,0-0.35-0.01-0.53-0.01c-0.19,0-0.42,0.01-0.55,0.01h-0.01v-0.01v-0.11h0.01h0.06
			c0.18,0,0.25-0.01,0.25-0.26v-1.71h-0.52v-0.01v-0.02h0.54v1.74c0,0.26-0.11,0.28-0.28,0.28h-0.05v0.07
			c0.13,0,0.34-0.01,0.53-0.01c0.17,0,0.38,0.01,0.51,0.01v-0.07h-0.05c-0.16,0-0.28-0.03-0.28-0.29v-1.73h0.54
			c0.22,0,0.25,0.19,0.25,0.3l0.07-0.02c0-0.08,0-0.17,0.01-0.25c0.01-0.08,0.02-0.16,0.03-0.25l-0.05-0.01
			c-0.01,0.1-0.11,0.1-0.19,0.1h-1.66h-0.01h-0.01c-0.08,0-0.16,0-0.19-0.09h-0.05c0,0.09-0.01,0.18-0.02,0.26
			c-0.01,0.09-0.02,0.17-0.04,0.26h0.07c0.04-0.22,0.07-0.3,0.31-0.3v0.02v0.01c-0.24,0-0.23,0.04-0.29,0.28l0,0.01h-0.01h-0.11
			l0-0.02c0.01-0.09,0.03-0.18,0.04-0.27c0.01-0.09,0.02-0.18,0.02-0.27v-0.02h0.01h0.09l0,0.01c0.02,0.08,0.08,0.08,0.16,0.08h0.02
			h1.66c0.09,0,0.16,0,0.16-0.09v-0.02l0.02,0l0.09,0.02l0,0.01c-0.01,0.09-0.03,0.17-0.04,0.26c0,0.09,0,0.17,0,0.26v0.01l-0.01,0
			l-0.11,0.04l0-0.02c-0.01-0.12-0.02-0.29-0.22-0.29h-0.51v1.7c0,0.24,0.1,0.26,0.25,0.27h0.07v0.01v0.11H354.13z"/>
		<path class="st3" d="M354.83,39.74h0.05c0.12,0,0.24-0.02,0.24-0.18v-1.69c0-0.17-0.12-0.18-0.24-0.18h-0.05v-0.1
			c0.13,0,0.32,0.01,0.48,0.01c0.16,0,0.36-0.01,0.51-0.01v0.1h-0.04c-0.12,0-0.24,0.01-0.24,0.18v1.69c0,0.17,0.12,0.18,0.24,0.18
			h0.04v0.1c-0.16,0-0.35-0.01-0.51-0.01c-0.16,0-0.35,0.01-0.48,0.01V39.74z"/>
		<path class="st3" d="M355.81,39.85c-0.16,0-0.35-0.01-0.51-0.01c-0.16,0-0.35,0.01-0.48,0.01h-0.01v-0.01v-0.1v-0.01h0.01h0.05
			c0.12,0,0.22-0.01,0.22-0.17v-1.69c0-0.16-0.11-0.17-0.22-0.17h-0.06v-0.01v-0.11h0.01c0.13,0,0.32,0.01,0.48,0.01
			c0.16,0,0.36-0.01,0.51-0.01h0.01v0.01v0.11h-0.01h-0.05c-0.12,0-0.22,0.01-0.22,0.17v1.69c0,0.16,0.11,0.17,0.22,0.17h0.06v0.01
			v0.11H355.81z M355.8,39.82v-0.07h-0.03c-0.11,0-0.25-0.02-0.25-0.2v-1.69c0-0.18,0.14-0.2,0.25-0.2h0.03V37.6
			c-0.15,0-0.34,0.01-0.49,0.01c-0.15,0-0.34-0.01-0.46-0.01v0.07h0.03c0.11,0,0.25,0.02,0.25,0.2v1.69c0,0.18-0.14,0.2-0.25,0.2
			h-0.03v0.07c0.12,0,0.31-0.01,0.46-0.01C355.46,39.8,355.65,39.82,355.8,39.82"/>
		<path class="st3" d="M357.1,37.53c0.69,0,1.23,0.43,1.23,1.11c0,0.74-0.53,1.23-1.22,1.23c-0.68,0-1.21-0.46-1.21-1.16
			C355.91,38.05,356.43,37.53,357.1,37.53 M357.15,39.74c0.63,0,0.74-0.55,0.74-1.02c0-0.47-0.26-1.04-0.79-1.04
			c-0.56,0-0.73,0.5-0.73,0.94C356.36,39.19,356.63,39.74,357.15,39.74"/>
		<path class="st3" d="M355.89,38.72c0-0.68,0.53-1.2,1.21-1.21v0.02v0.01c-0.66,0-1.18,0.51-1.18,1.18c0,0.69,0.52,1.14,1.19,1.14
			c0.68,0,1.2-0.49,1.21-1.22c0-0.68-0.54-1.1-1.22-1.1v-0.01v-0.02c0.69,0,1.25,0.43,1.25,1.13c0,0.75-0.54,1.25-1.23,1.25
			C356.43,39.89,355.9,39.42,355.89,38.72 M356.35,38.61c0-0.43,0.17-0.95,0.75-0.95c0.55,0,0.8,0.58,0.8,1.05
			c0,0.47-0.12,1.04-0.75,1.04v-0.01v-0.01c0.61,0,0.72-0.54,0.72-1.01c0-0.47-0.25-1.03-0.77-1.03c-0.56,0-0.72,0.49-0.72,0.92
			c0,0.58,0.26,1.11,0.77,1.12v0.01v0.01C356.61,39.75,356.35,39.19,356.35,38.61"/>
		<path class="st3" d="M360.51,39.2L360.51,39.2l0.01-1.22c0-0.26-0.19-0.3-0.28-0.3h-0.07v-0.1c0.15,0,0.3,0.01,0.45,0.01
			c0.13,0,0.27-0.01,0.4-0.01v0.1h-0.05c-0.13,0-0.29,0.02-0.29,0.41v1.47c0,0.11,0,0.22,0.02,0.33h-0.12l-1.66-1.85v1.33
			c0,0.28,0.06,0.38,0.31,0.38h0.06v0.1c-0.14,0-0.28-0.01-0.42-0.01c-0.15,0-0.3,0.01-0.44,0.01v-0.1h0.05
			c0.22,0,0.29-0.15,0.29-0.41v-1.36c0-0.18-0.15-0.29-0.29-0.29h-0.04v-0.1c0.12,0,0.25,0.01,0.37,0.01c0.1,0,0.19-0.01,0.29-0.01
			L360.51,39.2z"/>
		<path class="st3" d="M360.7,39.89l-0.13-0.01l-1.64-1.82v1.29c0,0.28,0.05,0.36,0.29,0.36h0.07v0.02v0.11h-0.01
			c-0.14,0-0.28-0.01-0.42-0.01c-0.15,0-0.3,0.01-0.44,0.01h-0.02v-0.01v-0.11h0.02h0.05c0.21,0,0.27-0.14,0.27-0.4v-1.36
			c0-0.17-0.14-0.28-0.28-0.28h-0.06v-0.01v-0.11h0.02c0.12,0,0.25,0.01,0.37,0.01c0.1,0,0.19-0.01,0.3-0.01l1.42,1.6v-1.18
			c0-0.26-0.17-0.29-0.27-0.29h-0.08v-0.01v-0.11h0.01c0.15,0,0.3,0.01,0.45,0.01c0.13,0,0.26-0.01,0.4-0.01h0.01v0.01v0.11h-0.01
			h-0.05c-0.13,0-0.27,0.02-0.28,0.4v1.47c0,0.11,0,0.23,0.02,0.32l0,0.02H360.7z M360.57,39.87h0.11c-0.01-0.1-0.02-0.2-0.02-0.31
			v-1.47c0-0.39,0.16-0.42,0.3-0.42H361V37.6c-0.13,0-0.26,0.01-0.38,0.01c-0.15,0-0.29-0.01-0.44-0.01v0.07h0.05
			c0.1,0,0.3,0.05,0.3,0.32l-0.01,1.22l0,0l-0.01,0.01l-1.43-1.62c-0.1,0-0.19,0.01-0.29,0.01c-0.12,0-0.24-0.01-0.36-0.01v0.07
			h0.03c0.15,0,0.31,0.12,0.31,0.31v1.36c0,0.26-0.07,0.42-0.3,0.42h-0.03v0.07c0.14,0,0.28-0.01,0.43-0.01
			c0.13,0,0.27,0.01,0.4,0.01v-0.07h-0.04c-0.25,0-0.32-0.11-0.32-0.39v-1.36L360.57,39.87z M360.51,39.2l0.01-0.01L360.51,39.2z
			 M360.5,39.19L360.5,39.19L360.5,39.19L360.5,39.19z"/>
		<path class="st3" d="M361.53,39.37c-0.03,0.11-0.07,0.19-0.07,0.25c0,0.1,0.13,0.11,0.24,0.11h0.04v0.1
			c-0.13-0.01-0.26-0.01-0.39-0.01c-0.12,0-0.23,0.01-0.35,0.01v-0.1h0.02c0.13,0,0.23-0.08,0.28-0.21l0.51-1.48
			c0.04-0.12,0.1-0.28,0.12-0.4c0.1-0.03,0.23-0.1,0.29-0.14c0.01,0,0.01-0.01,0.03-0.01c0.01,0,0.02,0,0.02,0.01
			c0.01,0.03,0.02,0.06,0.03,0.08l0.59,1.69c0.04,0.11,0.08,0.23,0.12,0.33c0.04,0.09,0.11,0.13,0.21,0.13h0.02v0.1
			c-0.14-0.01-0.29-0.01-0.44-0.01c-0.16,0-0.32,0.01-0.48,0.01v-0.1h0.04c0.07,0,0.2-0.01,0.2-0.09c0-0.04-0.03-0.13-0.07-0.23
			l-0.13-0.38h-0.73L361.53,39.37z M362,37.94L362,37.94l-0.31,0.91h0.6L362,37.94z"/>
		<path class="st3" d="M363.25,39.85c-0.15-0.01-0.29-0.01-0.44-0.01c-0.16,0-0.32,0.01-0.48,0.01l-0.01,0v-0.02v-0.11h0.01h0.04
			c0.07,0,0.18-0.02,0.19-0.08c0-0.04-0.03-0.13-0.07-0.23l-0.12-0.36h-0.71l-0.1,0.32c-0.03,0.11-0.07,0.2-0.07,0.25
			c0,0.08,0.12,0.1,0.23,0.1h0.05v0.01v0.11l-0.02,0c-0.13-0.01-0.26-0.01-0.39-0.01c-0.12,0-0.23,0.01-0.35,0.01l-0.01,0v-0.02
			v-0.11H361h0.02c0.12,0,0.22-0.07,0.27-0.2l0.51-1.48c0.04-0.12,0.1-0.28,0.13-0.41c0.1-0.03,0.23-0.1,0.29-0.14
			c0.01,0,0.02,0,0.03,0c0.01,0,0.02,0,0.03,0.02c0.01,0.03,0.02,0.06,0.03,0.08l0.6,1.69c0.04,0.11,0.08,0.23,0.12,0.33
			c0.04,0.09,0.1,0.12,0.2,0.12h0.03v0.01v0.11L363.25,39.85z M362.34,39.82c0.16-0.01,0.32-0.01,0.47-0.01
			c0.15,0,0.29,0.01,0.43,0.01v-0.07h0c-0.11,0-0.19-0.04-0.23-0.14c-0.04-0.1-0.08-0.22-0.12-0.33l-0.59-1.69
			c-0.01-0.03-0.02-0.06-0.03-0.08l0,0h-0.01c-0.01,0-0.01,0-0.02,0c-0.07,0.04-0.19,0.1-0.29,0.13c-0.02,0.12-0.08,0.28-0.12,0.4
			l-0.52,1.48c-0.05,0.14-0.16,0.22-0.29,0.22h-0.01v0.07c0.12-0.01,0.23-0.01,0.34-0.01c0.12,0,0.25,0.01,0.37,0.01v-0.07h-0.02
			c-0.1,0-0.25-0.01-0.25-0.13c0-0.06,0.04-0.15,0.07-0.25l0.01,0l-0.01,0l0.11-0.35h0.75l0.13,0.38c0.03,0.1,0.06,0.19,0.06,0.24
			c-0.01,0.1-0.14,0.1-0.21,0.11h-0.02V39.82z M361.68,38.87l0.31-0.94H362h0v0.02v0v0v-0.02h0.01l0.3,0.94H361.68z M361.71,38.84
			h0.56L362,37.97L361.71,38.84z M361.99,37.95L361.99,37.95L361.99,37.95z"/>
		<path class="st3" d="M364.06,39.51c0,0.13,0.09,0.17,0.19,0.18c0.13,0.01,0.28,0.01,0.43-0.01c0.13-0.01,0.25-0.09,0.31-0.17
			c0.05-0.07,0.08-0.16,0.1-0.23h0.09c-0.03,0.18-0.08,0.36-0.12,0.55c-0.28,0-0.57-0.01-0.85-0.01c-0.28,0-0.57,0.01-0.85,0.01
			v-0.1h0.04c0.11,0,0.24-0.02,0.24-0.22v-1.66c0-0.17-0.13-0.18-0.24-0.18h-0.04v-0.1c0.17,0,0.34,0.01,0.51,0.01
			c0.16,0,0.33-0.01,0.49-0.01v0.1h-0.08c-0.12,0-0.22,0-0.22,0.17V39.51z"/>
		<path class="st3" d="M365.06,39.85c-0.28,0-0.57-0.01-0.85-0.01c-0.28,0-0.57,0.01-0.85,0.01h-0.01v-0.01v-0.11h0.01h0.05
			c0.11,0,0.23-0.01,0.23-0.2v-1.66c0-0.16-0.11-0.17-0.23-0.17h-0.06v-0.01v-0.11h0.01c0.17,0,0.34,0.01,0.51,0.01
			c0.16,0,0.32-0.01,0.49-0.01h0.01v0.01v0.11h-0.01h-0.08c-0.12,0-0.2,0-0.21,0.16v1.66c0,0.12,0.08,0.15,0.18,0.17
			c0.06,0,0.12,0,0.18,0c0.08,0,0.16,0,0.24-0.01c0.13-0.02,0.25-0.09,0.3-0.17c0.05-0.07,0.08-0.16,0.1-0.23l0-0.01h0.01h0.11
			l0,0.02c-0.04,0.18-0.08,0.36-0.12,0.55l0,0.01H365.06z M365.05,39.82c0.04-0.18,0.08-0.35,0.11-0.52h-0.07
			c-0.02,0.07-0.05,0.16-0.1,0.23c-0.06,0.08-0.18,0.16-0.32,0.18c-0.08,0.01-0.17,0.02-0.25,0.02c-0.06,0-0.12,0-0.18-0.01
			c-0.1-0.01-0.21-0.05-0.21-0.19v-1.66c0-0.18,0.11-0.19,0.23-0.19h0.07V37.6c-0.16,0-0.32,0.01-0.48,0.01
			c-0.17,0-0.33-0.01-0.49-0.01v0.07h0.03c0.11,0,0.26,0.02,0.26,0.2v1.66c0,0.21-0.14,0.23-0.26,0.23h-0.03v0.07
			c0.28,0,0.56-0.01,0.84-0.01C364.49,39.8,364.78,39.82,365.05,39.82"/>
		<path class="st3" d="M365.15,37.49c0.19,0,0.34,0.15,0.34,0.34c0,0.19-0.15,0.34-0.34,0.34c-0.19,0-0.34-0.15-0.34-0.34
			C364.81,37.64,364.95,37.49,365.15,37.49 M365.15,38.1c0.15,0,0.27-0.13,0.27-0.27c0-0.15-0.12-0.28-0.27-0.28
			c-0.15,0-0.27,0.13-0.27,0.28C364.88,37.97,364.99,38.1,365.15,38.1 M364.98,38.01v-0.02c0.04,0,0.05,0,0.05-0.03v-0.25
			c0-0.03,0-0.05-0.05-0.05v-0.02h0.17c0.07,0,0.12,0.03,0.12,0.09c0,0.05-0.03,0.09-0.08,0.1l0.06,0.08
			c0.02,0.03,0.05,0.07,0.07,0.08v0.01h-0.07c-0.03,0-0.06-0.07-0.12-0.16h-0.04v0.11c0,0.02,0.01,0.02,0.05,0.02v0.02H364.98z
			 M365.09,37.83h0.04c0.04,0,0.06-0.03,0.06-0.09c0-0.05-0.03-0.07-0.07-0.07h-0.04V37.83z"/>
	</g>
	<g>
		<path class="st4" d="M330.77,18.24h-24.05v24.14h24.05v-7.97c0.1-0.14,0.14-0.31,0.14-0.53c0-0.25-0.05-0.4-0.14-0.53V18.24z"/>
		<path class="st1" d="M306.72,30.46h1.15l0.26-0.63h0.58l0.26,0.63h2.27v-0.48l0.2,0.48h1.18l0.2-0.49v0.48h5.65l0-1.03h0.11
			c0.08,0,0.1,0.01,0.1,0.13v0.89h2.92v-0.24c0.24,0.13,0.6,0.24,1.09,0.24h1.23l0.26-0.63h0.58l0.26,0.63h2.37v-0.6l0.36,0.6h1.9
			v-3.94h-1.88v0.47l-0.26-0.47h-1.93v0.47l-0.24-0.47h-2.6c-0.43,0-0.82,0.06-1.13,0.23v-0.23h-1.79v0.23
			c-0.2-0.17-0.47-0.23-0.76-0.23h-6.56l-0.44,1.02l-0.45-1.02h-2.07v0.47l-0.23-0.47h-1.77l-0.82,1.87V30.46z M329.05,29.9h-0.96
			l-1.28-2.12v2.12h-1.38l-0.26-0.63h-1.41l-0.25,0.63h-0.79c-0.33,0-0.75-0.07-0.98-0.31c-0.24-0.24-0.36-0.57-0.36-1.08
			c0-0.42,0.07-0.8,0.37-1.11c0.22-0.23,0.56-0.33,1.03-0.33h0.65v0.6h-0.64c-0.24,0-0.39,0.04-0.52,0.17
			c-0.11,0.12-0.2,0.34-0.2,0.64c0,0.3,0.06,0.52,0.19,0.66c0.1,0.11,0.29,0.15,0.47,0.15h0.31l0.95-2.22h1.01l1.14,2.67v-2.67h1.03
			l1.19,1.97v-1.97h0.69V29.9z M321.05,29.9h-0.69v-2.83h0.69V29.9z M319.96,27.84c0,0.45-0.3,0.68-0.47,0.75
			c0.15,0.05,0.27,0.15,0.33,0.24c0.1,0.14,0.11,0.27,0.11,0.52v0.55h-0.68l0-0.36c0-0.17,0.02-0.41-0.11-0.55
			c-0.1-0.1-0.25-0.12-0.49-0.12h-0.73v1.02h-0.67v-2.83h1.56c0.34,0,0.6,0.01,0.82,0.14C319.84,27.33,319.96,27.52,319.96,27.84
			 M316.78,29.9h-2.26v-2.83h2.26v0.59h-1.58v0.51h1.54v0.58l-1.54,0v0.56h1.58V29.9z M314.01,29.9h-0.69l0-2.21l-0.98,2.21h-0.59
			l-0.99-2.22v2.22h-1.37l-0.26-0.63h-1.41l-0.26,0.63h-0.73l1.21-2.83h1.01l1.15,2.68v-2.68h1.11l0.88,1.92l0.81-1.92h1.13V29.9z
			 M324.94,28.68l-0.47-1.13L324,28.68H324.94z M319.08,28.23c-0.09,0.05-0.2,0.06-0.33,0.06h-0.82v-0.63h0.83
			c0.12,0,0.24,0,0.32,0.05c0.09,0.04,0.14,0.13,0.14,0.25C319.21,28.09,319.17,28.19,319.08,28.23 M308.88,28.68l-0.46-1.13
			l-0.46,1.13H308.88z"/>
		<path class="st1" d="M319.82,32.88c0,0.78-0.59,0.94-1.17,0.94h-0.85v0.95h-1.31l-0.83-0.94l-0.87,0.94h-2.68v-2.83h2.72
			l0.83,0.93l0.86-0.93h2.16C319.21,31.94,319.82,32.09,319.82,32.88 M314.45,34.18h-1.67v-0.56h1.49v-0.58h-1.49v-0.51h1.69
			l0.74,0.82L314.45,34.18z M317.12,34.52l-1.04-1.15l1.04-1.11V34.52z M318.67,33.24h-0.88v-0.72h0.88c0.24,0,0.41,0.1,0.41,0.35
			C319.09,33.12,318.93,33.24,318.67,33.24 M323.23,31.94h2.26v0.59h-1.58v0.51h1.54v0.58h-1.54v0.56h1.58v0.59h-2.26V31.94z
			 M322.38,33.46c0.15,0.06,0.27,0.15,0.33,0.24c0.1,0.14,0.11,0.27,0.11,0.52v0.56h-0.68v-0.35c0-0.17,0.02-0.42-0.11-0.55
			c-0.1-0.1-0.25-0.13-0.5-0.13h-0.72v1.03h-0.68v-2.83h1.56c0.34,0,0.59,0.02,0.82,0.13c0.21,0.13,0.35,0.31,0.35,0.63
			C322.86,33.15,322.56,33.38,322.38,33.46 M321.97,33.11c-0.09,0.05-0.2,0.06-0.33,0.06h-0.82v-0.63h0.83c0.12,0,0.24,0,0.32,0.05
			c0.09,0.05,0.14,0.13,0.14,0.26C322.11,32.95,322.06,33.05,321.97,33.11 M328.07,33.28c0.13,0.14,0.2,0.31,0.2,0.6
			c0,0.61-0.38,0.89-1.06,0.89h-1.32v-0.61h1.31c0.13,0,0.22-0.02,0.28-0.07c0.04-0.04,0.08-0.11,0.08-0.18
			c0-0.08-0.04-0.15-0.09-0.19c-0.05-0.04-0.12-0.06-0.24-0.06c-0.63-0.02-1.42,0.02-1.42-0.88c0-0.41,0.26-0.84,0.97-0.84h1.36v0.6
			h-1.24c-0.13,0-0.2,0.01-0.27,0.05c-0.07,0.05-0.1,0.11-0.1,0.2c0,0.1,0.06,0.18,0.15,0.21c0.07,0.02,0.15,0.03,0.26,0.03
			l0.37,0.01C327.67,33.06,327.92,33.13,328.07,33.28 M330.77,34.41c-0.16,0.24-0.48,0.36-0.92,0.36h-1.31v-0.61h1.3
			c0.13,0,0.22-0.02,0.27-0.07c0.05-0.04,0.08-0.11,0.08-0.18c0-0.08-0.03-0.15-0.09-0.19c-0.05-0.04-0.12-0.06-0.24-0.06
			c-0.63-0.02-1.43,0.02-1.43-0.88c0-0.41,0.26-0.84,0.97-0.84h1.35v-0.56h-1.25c-0.38,0-0.65,0.09-0.85,0.24v-0.24h-1.85
			c-0.3,0-0.64,0.08-0.81,0.24l0-0.24h-3.3v0.24c-0.26-0.19-0.71-0.24-0.91-0.24h-2.18v0.24c-0.21-0.2-0.67-0.24-0.95-0.24h-2.44
			l-0.56,0.61l-0.52-0.61h-3.65v3.95h3.58l0.58-0.61l0.54,0.61l2.2,0V34.4h0.22c0.29,0,0.64-0.01,0.94-0.14v1.06h1.82V34.3h0.09
			c0.11,0,0.12,0.01,0.12,0.12v0.91h5.52c0.35,0,0.72-0.09,0.92-0.25v0.25h1.75c0.37,0,0.72-0.05,0.99-0.18V34.41z M330.77,32.54
			h-1.23c-0.12,0-0.21,0.01-0.27,0.05c-0.07,0.05-0.1,0.11-0.1,0.2c0,0.1,0.06,0.18,0.15,0.21c0.07,0.02,0.15,0.03,0.26,0.03
			l0.37,0.01c0.37,0.01,0.62,0.07,0.77,0.23c0.03,0.02,0.04,0.05,0.06,0.07V32.54z"/>
		<path class="st4" d="M305.22,41.7h-0.21c-0.03-0.09-0.03-0.24-0.03-0.28c0-0.08-0.01-0.16-0.15-0.16h-0.31v0.44h-0.19v-1.07h0.5
			c0.17,0,0.36,0.06,0.36,0.3c0,0.13-0.06,0.2-0.11,0.24c0.05,0.03,0.09,0.07,0.09,0.19l0.01,0.18c0,0.05,0.01,0.07,0.05,0.09V41.7z
			 M304.99,40.94c0-0.13-0.09-0.15-0.16-0.15h-0.32v0.3h0.3C304.9,41.09,304.99,41.07,304.99,40.94 M305.87,41.17
			c0-0.63-0.51-1.14-1.15-1.14c-0.63,0-1.15,0.51-1.15,1.14c0,0.63,0.51,1.14,1.15,1.14C305.35,42.31,305.87,41.81,305.87,41.17
			 M305.69,41.17c0,0.54-0.41,0.97-0.97,0.97c-0.56,0-0.97-0.44-0.97-0.97c0-0.54,0.41-0.97,0.97-0.97
			C305.28,40.2,305.69,40.63,305.69,41.17"/>
	</g>
	<g>
		<rect x="259.35" y="18.21" class="st5" width="40.3" height="24.19"/>
		<path class="st6" d="M283.54,31.59c-0.03-0.05-0.05-0.1-0.07-0.15C283.49,31.49,283.51,31.54,283.54,31.59"/>
		<path class="st1" d="M267.75,35.14h-1.38c-0.17,0-0.34,0.1-0.41,0.26l-1.58,3.36l-1.61-3.37c-0.07-0.16-0.23-0.26-0.41-0.26h-1.33
			c-0.25,0-0.45,0.2-0.45,0.45v4.7c0,0.25,0.2,0.45,0.45,0.45h0.69c0.25,0,0.45-0.2,0.45-0.45v-2.72l1.42,2.92
			c0.07,0.15,0.23,0.25,0.41,0.25h0.74c0.17,0,0.33-0.1,0.41-0.26l1.43-3v2.8c0,0.25,0.2,0.45,0.45,0.45h0.72
			c0.25,0,0.45-0.2,0.45-0.45v-4.7C268.2,35.34,268,35.14,267.75,35.14"/>
		<path class="st1" d="M273.32,35.37c-0.08-0.14-0.23-0.22-0.39-0.22h-0.97c-0.16,0-0.31,0.08-0.39,0.22l-2.8,4.7
			c-0.08,0.14-0.08,0.31,0,0.45c0.08,0.14,0.23,0.23,0.39,0.23h0.75c0.16,0,0.31-0.09,0.39-0.22l0.49-0.84c0,0,0,0.01,0.01,0.01
			c0.08,0.13,0.22,0.21,0.37,0.21h2.97l0.36,0.61c0.08,0.14,0.23,0.22,0.39,0.22h0.8c0.16,0,0.31-0.09,0.39-0.23
			c0.08-0.14,0.08-0.31,0-0.44L273.32,35.37z M271.41,38.61l0.99-1.7l0.99,1.7h-1.96C271.42,38.61,271.42,38.61,271.41,38.61"/>
		<path class="st1" d="M283.17,37.3h-2.99c-0.25,0-0.45,0.2-0.45,0.45v0.48c0,0.25,0.2,0.45,0.45,0.45h1.86v0.29
			c-0.48,0.32-1.15,0.5-1.83,0.5c-1.3,0-2.17-0.61-2.17-1.52c0-0.92,0.85-1.51,2.17-1.51c0.72,0,1.41,0.24,1.71,0.6
			c0.16,0.19,0.43,0.22,0.63,0.07l0.5-0.39c0.1-0.08,0.17-0.2,0.18-0.33c0.01-0.13-0.03-0.25-0.12-0.34
			c-0.57-0.6-1.71-0.99-2.89-0.99c-2.34,0-3.92,1.16-3.92,2.89c0,1.73,1.57,2.89,3.92,2.89c1.23,0,2.4-0.36,3.23-0.97
			c0.11-0.08,0.18-0.22,0.18-0.36v-1.75C283.62,37.5,283.42,37.3,283.17,37.3"/>
		<path class="st1" d="M290.01,35.14h-0.73c-0.25,0-0.45,0.2-0.45,0.45v3.06l-2.68-3.34c-0.09-0.11-0.22-0.17-0.35-0.17h-0.94
			c-0.25,0-0.45,0.2-0.45,0.45v4.7c0,0.25,0.2,0.45,0.45,0.45h0.73c0.25,0,0.45-0.2,0.45-0.45V37.6l2.38,2.97
			c0.09,0.11,0.22,0.17,0.35,0.17h1.24c0.25,0,0.45-0.2,0.45-0.45v-4.7C290.46,35.34,290.26,35.14,290.01,35.14"/>
		<path class="st1" d="M298.35,40.07L298.35,40.07l-2.76-4.7c-0.08-0.14-0.23-0.22-0.39-0.22h-0.97c-0.16,0-0.31,0.08-0.39,0.22
			l-2.8,4.7c-0.08,0.14-0.08,0.31-0.01,0.45c0.08,0.14,0.23,0.23,0.39,0.23h0.75c0.16,0,0.31-0.09,0.39-0.22l0.49-0.84
			c0,0,0,0.01,0.01,0.01c0.08,0.13,0.22,0.22,0.37,0.22h2.97l0.36,0.61c0.08,0.14,0.23,0.22,0.39,0.22h0.8
			c0.16,0,0.31-0.09,0.39-0.23C298.43,40.37,298.43,40.2,298.35,40.07 M293.69,38.61l0.99-1.7l0.99,1.7h-1.96
			C293.7,38.61,293.69,38.61,293.69,38.61"/>
		<path class="st1" d="M276.69,31.3c-0.06-0.11-0.18-0.17-0.3-0.16c-0.12,0.01-0.22,0.09-0.26,0.21c-0.36,1.02-0.58,0.97-0.59,0.97
			c-0.59-0.02-1.41-2.21-2.13-4.13c-0.42-1.13-0.63-1.76-1.16-2.94c-0.05-0.11-0.16-0.18-0.28-0.18h0c-0.12,0-0.23,0.07-0.28,0.18
			l-0.35,0.76c-0.04,0.08-0.04,0.17,0,0.25c0.44,0.98,0.55,1.37,0.94,2.36c1.09,2.84,1.95,5.09,3.26,5.12h0.02
			c0.64,0,0.97-0.24,1.53-1.52c0.04-0.08,0.03-0.18-0.02-0.26L276.69,31.3z"/>
		<path class="st1" d="M277.63,26.9L277.63,26.9l0.31,0.59c0.05,0.1,0.16,0.17,0.27,0.17c0.01,0,0.02,0,0.04,0
			c0.13-0.02,0.23-0.11,0.26-0.23l0.43-1.82c0.12-0.48,0.24-0.98,0.38-1.45c0.01-0.03,0.02-0.06,0.03-0.1v0
			c0.03-0.1,0.07-0.21,0.11-0.32c0.04,0.11,0.08,0.21,0.11,0.32v0c0.01,0.03,0.02,0.06,0.03,0.1c0.14,0.48,0.26,0.97,0.38,1.45
			l0.43,1.82c0.03,0.13,0.13,0.22,0.26,0.23c0.01,0,0.03,0,0.04,0c0.11,0,0.22-0.06,0.27-0.17l0.31-0.59v0
			c0.03-0.06,0.08-0.14,0.09-0.25c0.01-0.11-0.01-0.21-0.03-0.27c-0.24-0.95-0.28-1.03-0.56-2c-0.13-0.45-0.29-0.97-0.51-1.47
			c-0.11-0.25-0.25-0.52-0.48-0.71c-0.1-0.08-0.22-0.12-0.34-0.12c-0.12,0-0.24,0.04-0.34,0.12c-0.24,0.2-0.37,0.46-0.48,0.71
			c-0.22,0.5-0.38,1.02-0.51,1.47c-0.28,0.97-0.32,1.05-0.56,2c-0.02,0.06-0.04,0.16-0.03,0.27
			C277.56,26.75,277.6,26.84,277.63,26.9"/>
		<path class="st1" d="M287.26,25.25c-0.05-0.11-0.16-0.18-0.28-0.18h0c-0.12,0-0.23,0.07-0.28,0.18c-0.54,1.18-0.74,1.81-1.16,2.94
			c-0.72,1.93-1.55,4.11-2.13,4.13c-0.01,0-0.24,0.04-0.59-0.97c-0.04-0.11-0.14-0.2-0.26-0.21c-0.12-0.01-0.24,0.05-0.3,0.16
			l-0.37,0.66c-0.04,0.08-0.05,0.18-0.02,0.26c0.56,1.29,0.89,1.52,1.53,1.52h0.02c1.31-0.03,2.17-2.27,3.26-5.12
			c0.38-1,0.5-1.38,0.94-2.36c0.04-0.08,0.04-0.17,0-0.25L287.26,25.25z"/>
		<path class="st1" d="M292.99,23.78c-0.02-0.07-0.03-0.15-0.05-0.21c0-0.01-0.01-0.02-0.01-0.04c0-0.02-0.01-0.04-0.01-0.06
			c0-0.01-0.01-0.02-0.01-0.04c-0.01-0.03-0.01-0.06-0.02-0.09c0,0,0-0.01,0-0.02c0-0.01,0-0.02-0.01-0.03c0,0,0,0,0,0
			c0-0.01,0-0.01-0.01-0.02c-0.51-1.89-1.14-3.59-2.38-3.6h-0.01c-0.72,0-1.21,0.33-2.27,2.38c-0.04,0.09-0.05,0.19,0,0.28l0.34,0.7
			c0.05,0.11,0.16,0.18,0.28,0.18h0c0.12,0,0.23-0.07,0.28-0.17c1.01-2.08,1.31-1.95,1.38-1.95c0.37,0.02,1.64,0.71,2.21,8.91
			c-0.09,0.95-0.31,1.52-0.61,1.53c0,0,0,0,0,0c-0.47,0-1.51-2.72-2.13-4.35c-1.25-3.29-2.55-6.69-4.16-6.69c-0.01,0-0.02,0-0.03,0
			c-1.53,0.04-2.5,2.46-3.52,5.03c-0.8,1.99-1.7,4.24-2.66,4.4v0c-0.04,0.01-0.07,0.01-0.11,0.01s-0.07,0-0.11-0.01v0
			c-0.96-0.15-1.86-2.4-2.66-4.4c-1.03-2.57-2-4.99-3.52-5.03c-0.01,0-0.02,0-0.03,0c-1.61,0-2.91,3.4-4.16,6.69
			c-0.62,1.63-1.66,4.35-2.13,4.35c0,0,0,0,0,0c-0.29-0.01-0.52-0.58-0.61-1.53c0.57-8.2,1.83-8.89,2.21-8.91
			c0.07,0,0.37-0.13,1.38,1.95c0.05,0.11,0.16,0.17,0.28,0.17h0c0.12,0,0.23-0.07,0.28-0.18l0.34-0.7c0.04-0.09,0.04-0.19,0-0.28
			c-1.06-2.05-1.54-2.38-2.27-2.38h-0.01c-1.24,0.01-1.88,1.72-2.38,3.6c0,0.01,0,0.01,0,0.02c0,0,0,0,0,0
			c0,0.01-0.01,0.02-0.01,0.03c0,0,0,0.01,0,0.02c-0.01,0.03-0.02,0.06-0.02,0.09c0,0.01-0.01,0.02-0.01,0.04
			c0,0.02-0.01,0.04-0.01,0.06c0,0.01-0.01,0.02-0.01,0.04c-0.02,0.07-0.03,0.14-0.05,0.21c-0.56,2.46-1.42,7.8-0.14,9.41
			c0.27,0.34,0.64,0.51,1.04,0.51c1.4-0.01,2.37-2.69,3.5-5.78c0.85-2.34,1.9-5.24,2.82-5.24h0.01c0.81,0.01,1.41,2.02,2,3.96
			c0.89,2.95,1.89,6.28,4.31,6.29h0h0h0h0h0c2.42,0,3.42-3.34,4.31-6.29c0.59-1.94,1.19-3.95,2-3.96h0.01
			c0.92,0,1.97,2.91,2.82,5.24c1.12,3.1,2.09,5.77,3.5,5.78c0.4,0,0.77-0.17,1.04-0.51C294.41,31.58,293.55,26.24,292.99,23.78"/>
	</g>
	<g>
		<rect x="175.51" y="18.18" class="st1" width="38.06" height="24.25"/>
		<rect x="176.14" y="38.49" class="st7" width="36.79" height="3.31"/>
		<rect x="176.14" y="18.82" class="st8" width="36.79" height="3.31"/>
		<path class="st8" d="M190.87,25.77l-3.8,9.09h-2.48l-1.87-7.26c-0.11-0.45-0.21-0.61-0.56-0.8c-0.56-0.31-1.5-0.6-2.32-0.77
			l0.06-0.27h3.99c0.51,0,0.96,0.34,1.08,0.93l0.99,5.26l2.44-6.19H190.87z M200.59,31.9c0.01-2.4-3.31-2.53-3.29-3.6
			c0.01-0.33,0.32-0.67,1-0.76c0.34-0.04,1.26-0.08,2.31,0.41l0.41-1.93c-0.57-0.21-1.29-0.4-2.2-0.4c-2.32,0-3.95,1.23-3.96,3.01
			c-0.01,1.31,1.16,2.04,2.05,2.47c0.91,0.45,1.22,0.73,1.22,1.13c-0.01,0.61-0.73,0.88-1.41,0.89c-1.18,0.02-1.86-0.32-2.41-0.57
			l-0.43,1.99c0.55,0.25,1.56,0.47,2.61,0.48C198.97,35.01,200.58,33.79,200.59,31.9 M206.71,34.87h2.17l-1.89-9.09h-2
			c-0.45,0-0.83,0.26-1,0.67l-3.52,8.43h2.46l0.49-1.36h3.01L206.71,34.87z M204.09,31.64l1.24-3.42l0.71,3.42H204.09z
			 M194.22,25.77l-1.94,9.09h-2.35l1.94-9.09H194.22z"/>
	</g>
	<g>
		<rect x="217.5" y="18.31" width="37.93" height="23.98"/>
		<path class="st1" d="M228.08,40.29v-1.36c0-0.51-0.31-0.85-0.83-0.85c-0.27,0-0.56,0.08-0.76,0.38c-0.15-0.24-0.38-0.38-0.71-0.38
			c-0.23,0-0.47,0.06-0.65,0.32v-0.26h-0.44v2.15h0.44v-1.24c0-0.37,0.23-0.57,0.55-0.57c0.31,0,0.49,0.2,0.49,0.57v1.24h0.44v-1.24
			c0-0.37,0.24-0.57,0.55-0.57c0.32,0,0.49,0.2,0.49,0.57v1.24H228.08z M235.11,38.14h-0.78v-0.66h-0.44v0.66h-0.46v0.39h0.46v1.02
			c0,0.5,0.18,0.8,0.73,0.8c0.2,0,0.44-0.06,0.59-0.17l-0.14-0.38c-0.14,0.08-0.29,0.12-0.42,0.12c-0.23,0-0.33-0.14-0.33-0.36
			v-1.03h0.78V38.14z M239.11,38.08c-0.27,0-0.46,0.13-0.59,0.32v-0.26h-0.43v2.15h0.43v-1.21c0-0.36,0.17-0.59,0.48-0.59
			c0.1,0,0.19,0.01,0.29,0.05l0.14-0.41C239.34,38.1,239.2,38.08,239.11,38.08 M233.06,38.31c-0.22-0.15-0.54-0.23-0.88-0.23
			c-0.55,0-0.88,0.26-0.88,0.69c0,0.35,0.24,0.56,0.73,0.63l0.22,0.03c0.26,0.04,0.4,0.13,0.4,0.25c0,0.17-0.19,0.28-0.51,0.28
			c-0.34,0-0.56-0.1-0.72-0.23l-0.22,0.34c0.32,0.23,0.7,0.28,0.93,0.28c0.62,0,0.97-0.29,0.97-0.7c0-0.38-0.26-0.57-0.74-0.64
			l-0.22-0.03c-0.2-0.03-0.38-0.09-0.38-0.23c0-0.16,0.17-0.27,0.43-0.27c0.28,0,0.54,0.1,0.67,0.18L233.06,38.31z M239.6,39.22
			c0,0.66,0.44,1.13,1.13,1.13c0.32,0,0.54-0.07,0.77-0.26l-0.23-0.34c-0.18,0.13-0.36,0.2-0.56,0.2c-0.37,0-0.67-0.3-0.67-0.73
			c0-0.43,0.29-0.72,0.67-0.73c0.2,0,0.39,0.07,0.56,0.19l0.23-0.34c-0.23-0.19-0.45-0.26-0.77-0.26
			C240.04,38.08,239.6,38.56,239.6,39.22 M236.57,38.08c-0.63,0-1.06,0.46-1.06,1.13c0,0.69,0.45,1.14,1.1,1.14
			c0.33,0,0.62-0.08,0.88-0.3l-0.23-0.32c-0.18,0.14-0.41,0.23-0.63,0.23c-0.3,0-0.61-0.17-0.66-0.56h1.61
			c0-0.06,0.01-0.12,0.01-0.18C237.58,38.54,237.17,38.08,236.57,38.08 M236.56,38.49c0.32,0,0.54,0.21,0.57,0.55h-1.16
			C236,38.72,236.21,38.49,236.56,38.49 M230.72,39.22v-1.08h-0.43v0.26c-0.15-0.19-0.39-0.32-0.7-0.32c-0.6,0-1.06,0.47-1.06,1.13
			c0,0.66,0.46,1.13,1.06,1.13c0.31,0,0.55-0.12,0.7-0.32v0.26h0.43V39.22z M228.97,39.22c0-0.41,0.26-0.73,0.67-0.73
			c0.4,0,0.66,0.31,0.66,0.73c0,0.42-0.26,0.73-0.66,0.73C229.23,39.95,228.97,39.62,228.97,39.22 M245.62,38.08
			c-0.27,0-0.46,0.13-0.59,0.32v-0.26h-0.43v2.15h0.44v-1.21c0-0.36,0.17-0.59,0.48-0.59c0.09,0,0.19,0.01,0.29,0.05l0.15-0.41
			C245.85,38.1,245.72,38.08,245.62,38.08 M249.1,39.98c0.03,0,0.06,0.01,0.08,0.02c0.03,0.01,0.05,0.03,0.07,0.05
			c0.02,0.02,0.03,0.04,0.05,0.07c0.01,0.03,0.02,0.05,0.02,0.08c0,0.03,0,0.06-0.02,0.08c-0.01,0.03-0.03,0.05-0.05,0.07
			c-0.02,0.02-0.04,0.04-0.07,0.05c-0.03,0.01-0.05,0.02-0.08,0.02c-0.03,0-0.06,0-0.09-0.02c-0.03-0.01-0.05-0.03-0.07-0.05
			c-0.02-0.02-0.04-0.04-0.05-0.07c-0.01-0.02-0.02-0.05-0.02-0.08c0-0.03,0.01-0.06,0.02-0.08c0.01-0.03,0.03-0.05,0.05-0.07
			c0.02-0.02,0.04-0.03,0.07-0.05C249.04,39.99,249.07,39.98,249.1,39.98 M249.1,40.36c0.02,0,0.04,0,0.06-0.01
			c0.02-0.01,0.04-0.02,0.05-0.03c0.01-0.02,0.03-0.03,0.03-0.05c0.01-0.02,0.01-0.04,0.01-0.06c0-0.02,0-0.04-0.01-0.07
			c-0.01-0.02-0.02-0.04-0.03-0.05c-0.02-0.02-0.03-0.03-0.05-0.04c-0.02-0.01-0.04-0.01-0.06-0.01c-0.02,0-0.05,0-0.07,0.01
			c-0.02,0.01-0.04,0.02-0.05,0.04c-0.01,0.01-0.03,0.03-0.04,0.05c-0.01,0.02-0.01,0.04-0.01,0.07c0,0.02,0,0.04,0.01,0.06
			c0.01,0.02,0.02,0.04,0.04,0.05c0.02,0.01,0.03,0.03,0.05,0.03C249.05,40.36,249.08,40.36,249.1,40.36 M249.11,40.1
			c0.03,0,0.05,0,0.06,0.02c0.01,0.01,0.02,0.03,0.02,0.05c0,0.02-0.01,0.03-0.02,0.04c-0.01,0.01-0.03,0.02-0.05,0.02l0.06,0.07
			h-0.05l-0.06-0.07h-0.02v0.07h-0.04v-0.2H249.11z M249.06,40.13v0.05h0.05c0.01,0,0.02,0,0.03-0.01c0.01,0,0.01-0.01,0.01-0.02
			c0-0.01,0-0.02-0.01-0.02c-0.01,0-0.02-0.01-0.03-0.01H249.06z M243.97,39.22v-1.08h-0.44v0.26c-0.15-0.19-0.39-0.32-0.7-0.32
			c-0.61,0-1.07,0.47-1.07,1.13c0,0.66,0.46,1.13,1.07,1.13c0.31,0,0.55-0.12,0.7-0.32v0.26h0.44V39.22z M242.22,39.22
			c0-0.41,0.26-0.73,0.67-0.73c0.4,0,0.66,0.31,0.66,0.73c0,0.42-0.26,0.73-0.66,0.73C242.48,39.95,242.22,39.62,242.22,39.22
			 M248.32,39.22v-1.94h-0.43v1.13c-0.15-0.19-0.39-0.32-0.7-0.32c-0.6,0-1.06,0.47-1.06,1.13c0,0.66,0.46,1.13,1.06,1.13
			c0.31,0,0.55-0.12,0.7-0.32v0.26h0.43V39.22z M246.57,39.22c0-0.41,0.26-0.73,0.67-0.73c0.4,0,0.66,0.31,0.66,0.73
			c0,0.42-0.26,0.73-0.66,0.73C246.83,39.95,246.57,39.62,246.57,39.22"/>
		<rect x="232.55" y="21.73" class="st9" width="7.81" height="12.75"/>
		<path class="st10" d="M233.36,28.1c0-2.59,1.21-4.89,3.1-6.38c-1.38-1.09-3.12-1.73-5.01-1.73c-4.48,0-8.11,3.63-8.11,8.11
			c0,4.48,3.63,8.11,8.11,8.11c1.89,0,3.63-0.65,5.01-1.73C234.57,33,233.36,30.69,233.36,28.1"/>
		<path class="st1" d="M248.81,33.13v-0.26h0.1v-0.05h-0.27v0.05h0.11v0.26H248.81z M249.33,33.13v-0.32h-0.08l-0.1,0.22l-0.09-0.22
			h-0.08v0.32h0.06v-0.24l0.09,0.2h0.06l0.09-0.21v0.24H249.33z"/>
		<path class="st11" d="M249.58,28.1c0,4.48-3.63,8.11-8.11,8.11c-1.89,0-3.63-0.65-5.01-1.73c1.89-1.49,3.1-3.79,3.1-6.38
			c0-2.59-1.21-4.89-3.1-6.38c1.38-1.09,3.12-1.73,5.01-1.73C245.95,19.99,249.58,23.62,249.58,28.1"/>
	</g>
	<g>
		<path class="st12" d="M405.63,29.33c0-6.11-7.59-11.1-16.96-11.1c-9.37,0-16.96,4.98-16.96,11.1c0,0.16,0,0.59,0,0.65
			c0,6.48,6.64,11.74,16.96,11.74c10.39,0,16.97-5.25,16.97-11.74C405.63,29.76,405.63,29.63,405.63,29.33z"/>
		<path class="st13" d="M404.98,29.33c0,5.76-7.3,10.43-16.31,10.43c-9.01,0-16.31-4.67-16.31-10.43c0-5.76,7.3-10.43,16.31-10.43
			C397.68,18.89,404.98,23.56,404.98,29.33z"/>
		<path class="st1" d="M383.26,26.03c-0.01,0.02-0.17,0.18-0.07,0.32c0.26,0.33,1.05,0.52,1.86,0.34c0.48-0.11,1.09-0.6,1.69-1.07
			c0.64-0.51,1.28-1.02,1.93-1.23c0.68-0.22,1.12-0.12,1.4-0.04c0.32,0.09,0.69,0.3,1.28,0.75c1.12,0.84,5.6,4.76,6.38,5.43
			c0.62-0.28,3.4-1.48,7.17-2.31c-0.33-2.01-1.55-3.85-3.41-5.36c-2.59,1.09-5.74,1.65-8.83,0.14c-0.02-0.01-1.69-0.8-3.34-0.76
			c-2.45,0.06-3.51,1.12-4.64,2.24L383.26,26.03z"/>
		<path class="st1" d="M397.54,30.97c-0.05-0.05-5.28-4.62-6.46-5.51c-0.68-0.51-1.07-0.64-1.47-0.7c-0.21-0.03-0.5,0.01-0.7,0.07
			c-0.55,0.15-1.27,0.63-1.91,1.14c-0.66,0.53-1.29,1.02-1.86,1.15c-0.74,0.17-1.64-0.03-2.06-0.31c-0.17-0.11-0.28-0.24-0.34-0.37
			c-0.15-0.35,0.13-0.64,0.17-0.68l1.44-1.56c0.17-0.17,0.34-0.33,0.51-0.5c-0.47,0.06-0.9,0.18-1.31,0.3
			c-0.52,0.15-1.02,0.29-1.53,0.29c-0.21,0-1.35-0.19-1.56-0.25c-1.3-0.36-2.45-0.7-4.16-1.5c-2.05,1.53-3.42,3.43-3.82,5.53
			c0.29,0.08,0.77,0.22,0.97,0.26c4.64,1.03,6.08,2.09,6.34,2.32c0.28-0.32,0.69-0.52,1.15-0.52c0.51,0,0.98,0.26,1.26,0.66
			c0.27-0.21,0.63-0.39,1.11-0.39c0.22,0,0.44,0.04,0.66,0.12c0.52,0.18,0.79,0.53,0.93,0.84c0.18-0.08,0.39-0.14,0.65-0.14
			c0.25,0,0.51,0.06,0.77,0.17c0.86,0.37,0.99,1.21,0.91,1.84c0.06-0.01,0.12-0.01,0.18-0.01c1.01,0,1.84,0.82,1.84,1.84
			c0,0.31-0.08,0.61-0.22,0.87c0.28,0.16,0.98,0.51,1.6,0.43c0.49-0.06,0.68-0.23,0.75-0.33c0.05-0.07,0.09-0.14,0.05-0.2
			l-1.31-1.45c0,0-0.22-0.2-0.14-0.28c0.07-0.08,0.21,0.04,0.3,0.11c0.67,0.56,1.48,1.4,1.48,1.4c0.01,0.01,0.07,0.12,0.37,0.17
			c0.26,0.05,0.72,0.02,1.03-0.24c0.08-0.07,0.16-0.15,0.23-0.23c-0.01,0-0.01,0.01-0.01,0.01c0.33-0.43-0.04-0.86-0.04-0.86
			l-1.53-1.72c0,0-0.22-0.2-0.14-0.28c0.07-0.07,0.21,0.04,0.3,0.12c0.48,0.4,1.17,1.09,1.82,1.73c0.13,0.09,0.7,0.45,1.47-0.05
			c0.46-0.3,0.56-0.68,0.54-0.96c-0.03-0.37-0.32-0.64-0.32-0.64l-2.09-2.1c0,0-0.22-0.19-0.14-0.28c0.06-0.08,0.21,0.04,0.3,0.11
			c0.67,0.56,2.46,2.21,2.46,2.21c0.03,0.02,0.65,0.46,1.42-0.03c0.27-0.18,0.45-0.44,0.47-0.75
			C397.92,31.28,397.54,30.97,397.54,30.97z"/>
		<path class="st1" d="M387.42,33.63c-0.32,0-0.68,0.19-0.72,0.16c-0.03-0.02,0.02-0.15,0.05-0.22c0.03-0.07,0.46-1.36-0.58-1.8
			c-0.79-0.34-1.28,0.04-1.45,0.22c-0.04,0.05-0.06,0.04-0.07-0.02c-0.02-0.23-0.12-0.86-0.81-1.06c-0.98-0.3-1.61,0.38-1.77,0.63
			c-0.07-0.56-0.54-0.99-1.12-0.99c-0.63,0-1.14,0.51-1.14,1.14c0,0.63,0.51,1.14,1.14,1.14c0.31,0,0.58-0.12,0.79-0.32
			c0.01,0.01,0.01,0.02,0.01,0.04c-0.05,0.28-0.14,1.3,0.94,1.72c0.43,0.17,0.79,0.04,1.1-0.17c0.09-0.06,0.11-0.04,0.09,0.05
			c-0.04,0.26,0.01,0.83,0.8,1.15c0.6,0.24,0.96-0.01,1.19-0.22c0.1-0.09,0.13-0.08,0.13,0.07c0.03,0.76,0.66,1.37,1.43,1.37
			c0.79,0,1.43-0.64,1.43-1.43C388.85,34.27,388.21,33.63,387.42,33.63z"/>
		<path class="st12" d="M397.74,30.42c-1.61-1.4-5.33-4.64-6.34-5.39c-0.58-0.43-0.97-0.66-1.31-0.76c-0.15-0.05-0.37-0.1-0.64-0.1
			c-0.26,0-0.53,0.05-0.82,0.14c-0.65,0.21-1.3,0.72-1.93,1.22l-0.03,0.03c-0.58,0.46-1.19,0.95-1.65,1.05
			c-0.2,0.04-0.4,0.07-0.61,0.07c-0.51,0-0.97-0.15-1.14-0.37c-0.03-0.04-0.01-0.1,0.06-0.18l0.01-0.01l1.42-1.53
			c1.11-1.11,2.16-2.16,4.57-2.21c0.04,0,0.08,0,0.12,0c1.5,0,3,0.67,3.17,0.75c1.41,0.69,2.86,1.04,4.32,1.04
			c1.52,0,3.09-0.38,4.74-1.14c-0.18-0.16-0.38-0.31-0.57-0.45c-1.45,0.63-2.83,0.95-4.16,0.95c-1.36,0-2.72-0.33-4.04-0.97
			c-0.07-0.03-1.73-0.81-3.45-0.81c-0.05,0-0.09,0-0.14,0c-2.02,0.05-3.17,0.77-3.93,1.4c-0.75,0.02-1.39,0.2-1.96,0.36
			c-0.51,0.14-0.95,0.27-1.38,0.26c-0.18,0-0.5-0.02-0.52-0.02c-0.49-0.02-2.99-0.63-4.97-1.38c-0.2,0.14-0.4,0.29-0.59,0.44
			c2.07,0.85,4.59,1.51,5.39,1.56c0.22,0.01,0.46,0.04,0.69,0.04c0.53,0,1.05-0.15,1.56-0.29c0.3-0.08,0.63-0.18,0.98-0.24
			c-0.09,0.09-0.19,0.18-0.28,0.28l-1.44,1.56c-0.11,0.11-0.36,0.42-0.2,0.79c0.06,0.15,0.2,0.3,0.38,0.42
			c0.34,0.23,0.96,0.39,1.53,0.39c0.22,0,0.42-0.02,0.61-0.06c0.6-0.14,1.24-0.64,1.91-1.17c0.53-0.42,1.29-0.96,1.87-1.12
			c0.16-0.04,0.36-0.07,0.52-0.07c0.05,0,0.09,0,0.14,0.01c0.38,0.05,0.75,0.18,1.42,0.68c1.18,0.89,6.41,5.46,6.46,5.5
			c0,0,0.34,0.29,0.31,0.77c-0.01,0.27-0.16,0.5-0.42,0.67c-0.22,0.14-0.45,0.21-0.69,0.21c-0.35,0-0.59-0.16-0.61-0.18
			c-0.02-0.02-1.81-1.66-2.47-2.21c-0.11-0.09-0.21-0.17-0.31-0.17c-0.06,0-0.1,0.02-0.14,0.06c-0.1,0.13,0.01,0.3,0.15,0.42
			l2.09,2.1c0,0,0.26,0.24,0.29,0.57c0.02,0.35-0.15,0.64-0.5,0.87c-0.25,0.16-0.5,0.25-0.74,0.25c-0.32,0-0.55-0.15-0.6-0.18
			l-0.3-0.3c-0.55-0.54-1.11-1.1-1.53-1.44c-0.1-0.08-0.21-0.16-0.31-0.16c-0.05,0-0.1,0.02-0.13,0.06
			c-0.05,0.05-0.08,0.15,0.04,0.3c0.05,0.06,0.11,0.12,0.11,0.12l1.53,1.71c0.01,0.02,0.31,0.37,0.03,0.73l-0.05,0.07
			c-0.05,0.05-0.1,0.1-0.14,0.14c-0.26,0.21-0.61,0.24-0.75,0.24c-0.07,0-0.14-0.01-0.21-0.02c-0.15-0.03-0.25-0.07-0.3-0.13
			l-0.02-0.02c-0.08-0.09-0.85-0.87-1.49-1.4c-0.08-0.07-0.19-0.16-0.3-0.16c-0.05,0-0.1,0.02-0.14,0.06
			c-0.13,0.14,0.06,0.34,0.14,0.42l1.3,1.44c0,0.01-0.02,0.04-0.05,0.09c-0.05,0.06-0.2,0.22-0.68,0.28
			c-0.06,0.01-0.12,0.01-0.17,0.01c-0.49,0-1.01-0.24-1.27-0.38c0.12-0.26,0.18-0.54,0.18-0.82c0-1.07-0.87-1.94-1.94-1.94
			c-0.02,0-0.05,0-0.07,0c0.04-0.49-0.03-1.42-0.98-1.82c-0.27-0.12-0.55-0.18-0.81-0.18c-0.21,0-0.41,0.04-0.59,0.11
			c-0.2-0.38-0.52-0.66-0.95-0.81c-0.24-0.08-0.47-0.12-0.7-0.12c-0.4,0-0.76,0.12-1.08,0.35c-0.31-0.39-0.78-0.62-1.28-0.62
			c-0.43,0-0.85,0.17-1.16,0.48c-0.4-0.31-2.01-1.33-6.31-2.31c-0.21-0.05-0.69-0.18-0.98-0.27c-0.05,0.23-0.09,0.47-0.11,0.71
			c0,0,0.79,0.19,0.95,0.23c4.39,0.98,5.85,1.99,6.09,2.18c-0.08,0.2-0.13,0.42-0.13,0.63c0,0.91,0.74,1.65,1.65,1.65
			c0.1,0,0.2-0.01,0.3-0.03c0.14,0.67,0.57,1.17,1.24,1.43c0.2,0.07,0.39,0.11,0.59,0.11c0.13,0,0.25-0.02,0.37-0.05
			c0.12,0.31,0.4,0.7,1.02,0.96c0.22,0.09,0.44,0.13,0.65,0.13c0.17,0,0.34-0.03,0.5-0.09c0.3,0.72,1.01,1.2,1.79,1.2
			c0.52,0,1.02-0.21,1.39-0.59c0.31,0.17,0.98,0.49,1.64,0.49c0.09,0,0.17-0.01,0.25-0.02c0.66-0.08,0.97-0.34,1.11-0.55
			c0.03-0.04,0.05-0.07,0.07-0.11c0.16,0.05,0.33,0.08,0.53,0.08c0.36,0,0.71-0.12,1.06-0.38c0.35-0.25,0.59-0.61,0.63-0.91
			c0,0,0-0.01,0-0.01c0.12,0.02,0.24,0.04,0.36,0.04c0.37,0,0.74-0.12,1.09-0.35c0.68-0.44,0.79-1.02,0.78-1.4
			c0.12,0.02,0.24,0.04,0.36,0.04c0.35,0,0.69-0.11,1.02-0.31c0.42-0.27,0.67-0.68,0.71-1.16c0.03-0.32-0.05-0.65-0.23-0.93
			c1.13-0.49,3.73-1.43,6.78-2.12c-0.02-0.24-0.05-0.47-0.09-0.7C401.19,28.92,398.43,30.11,397.74,30.42z M387.42,36.39
			c-0.72,0-1.3-0.56-1.33-1.27c0-0.06-0.01-0.22-0.15-0.22c-0.06,0-0.11,0.03-0.16,0.08c-0.16,0.15-0.36,0.29-0.65,0.29
			c-0.13,0-0.28-0.03-0.43-0.09c-0.76-0.31-0.77-0.83-0.74-1.04c0.01-0.06,0.01-0.11-0.03-0.16l-0.05-0.04h-0.05
			c-0.04,0-0.08,0.02-0.13,0.05c-0.22,0.15-0.43,0.23-0.64,0.23c-0.12,0-0.24-0.02-0.36-0.07c-1-0.39-0.92-1.33-0.87-1.61
			c0.01-0.06-0.01-0.1-0.04-0.13l-0.07-0.06l-0.07,0.06c-0.19,0.19-0.45,0.29-0.72,0.29c-0.57,0-1.04-0.46-1.04-1.04
			c0-0.57,0.47-1.04,1.04-1.03c0.52,0,0.96,0.39,1.02,0.9l0.04,0.28l0.15-0.24c0.02-0.03,0.44-0.66,1.2-0.66
			c0.15,0,0.3,0.02,0.45,0.07c0.61,0.19,0.72,0.74,0.73,0.97c0.01,0.14,0.11,0.14,0.13,0.14c0.05,0,0.09-0.03,0.12-0.06
			c0.12-0.12,0.37-0.32,0.76-0.32c0.18,0,0.37,0.04,0.57,0.13c0.97,0.42,0.53,1.66,0.53,1.67c-0.08,0.21-0.09,0.3-0.01,0.35
			l0.04,0.02h0.03c0.04,0,0.1-0.02,0.19-0.05c0.13-0.05,0.33-0.11,0.52-0.11h0c0.73,0.01,1.33,0.6,1.33,1.33
			C388.75,35.79,388.15,36.39,387.42,36.39z"/>
		<path class="st12" d="M463.44,22.26c-0.61-0.77-1.54-1.15-2.79-1.15c-1.25,0-2.18,0.38-2.79,1.15c-0.61,0.77-0.92,1.67-0.92,2.72
			c0,1.06,0.31,1.97,0.92,2.73c0.61,0.75,1.54,1.13,2.79,1.13c1.25,0,2.18-0.38,2.79-1.13c0.61-0.76,0.92-1.67,0.92-2.73
			C464.36,23.94,464.05,23.03,463.44,22.26z M461.92,26.66c-0.3,0.39-0.72,0.59-1.28,0.59c-0.55,0-0.98-0.2-1.28-0.59
			c-0.3-0.39-0.45-0.96-0.45-1.68c0-0.73,0.15-1.29,0.45-1.68c0.3-0.39,0.73-0.59,1.28-0.59c0.56,0,0.98,0.2,1.28,0.59
			c0.3,0.39,0.45,0.95,0.45,1.68C462.37,25.71,462.22,26.27,461.92,26.66z"/>
		<path class="st12" d="M447.79,21.62c-0.62-0.32-1.33-0.47-2.13-0.47c-1.23,0-2.1,0.32-2.6,0.96c-0.32,0.41-0.5,0.93-0.54,1.57
			h1.84c0.05-0.28,0.14-0.5,0.27-0.67c0.19-0.22,0.51-0.33,0.97-0.33c0.41,0,0.71,0.06,0.92,0.17c0.21,0.11,0.31,0.32,0.31,0.62
			c0,0.25-0.14,0.42-0.41,0.54c-0.15,0.07-0.41,0.12-0.76,0.17l-0.65,0.08c-0.74,0.09-1.3,0.25-1.68,0.47
			c-0.7,0.4-1.04,1.05-1.04,1.94c0,0.69,0.22,1.22,0.65,1.6c0.43,0.38,0.98,0.53,1.64,0.56c4.15,0.19,4.11-2.19,4.14-2.68v-2.73
			C448.72,22.53,448.41,21.94,447.79,21.62z M446.82,25.77c-0.01,0.64-0.2,1.07-0.55,1.32c-0.35,0.24-0.73,0.36-1.15,0.36
			c-0.26,0-0.49-0.07-0.67-0.22c-0.18-0.14-0.27-0.38-0.27-0.7c0-0.36,0.15-0.63,0.45-0.81c0.18-0.1,0.47-0.19,0.88-0.26l0.43-0.08
			c0.22-0.04,0.39-0.08,0.51-0.13c0.13-0.05,0.25-0.11,0.37-0.18V25.77z"/>
		<path class="st12" d="M438.32,22.78c0.47,0,0.82,0.15,1.05,0.44c0.15,0.22,0.25,0.46,0.29,0.73h2.05
			c-0.11-1.03-0.47-1.76-1.08-2.16c-0.61-0.41-1.4-0.61-2.36-0.61c-1.13,0-2.01,0.35-2.65,1.04c-0.64,0.69-0.96,1.66-0.96,2.91
			c0,1.1,0.29,2,0.87,2.69c0.58,0.69,1.49,1.04,2.72,1.04c1.23,0,2.16-0.41,2.79-1.25c0.39-0.51,0.61-1.06,0.66-1.64h-2.04
			c-0.04,0.38-0.16,0.69-0.36,0.93c-0.2,0.24-0.53,0.36-1,0.36c-0.66,0-1.11-0.3-1.35-0.91c-0.13-0.32-0.2-0.75-0.2-1.28
			c0-0.56,0.07-1,0.2-1.34C437.18,23.09,437.64,22.78,438.32,22.78z"/>
		<path class="st12" d="M434.1,21.17c-4.21,0-3.96,3.73-3.96,3.73v3.79h1.91v-3.55c0-0.58,0.07-1.01,0.22-1.29
			c0.26-0.5,0.77-0.75,1.54-0.75c0.06,0,0.13,0,0.23,0.01c0.09,0,0.2,0.01,0.32,0.03v-1.94c-0.08-0.01-0.14-0.01-0.16-0.01
			C434.16,21.17,434.13,21.17,434.1,21.17z"/>
		<path class="st12" d="M427.08,26.7c-0.08,0.11-0.17,0.21-0.26,0.29c-0.27,0.22-0.64,0.29-1.07,0.29c-0.41,0-0.73-0.06-1.02-0.24
			c-0.48-0.29-0.74-0.79-0.77-1.52h5.28c0.01-0.63-0.01-1.11-0.06-1.44c-0.09-0.57-0.28-1.07-0.58-1.5
			c-0.33-0.49-0.75-0.85-1.25-1.07c-0.51-0.23-1.07-0.34-1.7-0.34c-1.06,0-1.93,0.34-2.59,1.01c-0.67,0.67-1,1.63-1,2.89
			c0,1.34,0.37,2.31,1.11,2.9c0.74,0.59,1.59,0.89,2.56,0.89c1.17,0,2.08-0.35,2.73-1.06c0.35-0.37,0.57-0.74,0.66-1.1H427.08z
			 M424.51,23.15c0.27-0.28,0.65-0.41,1.13-0.41c0.45,0,0.82,0.13,1.13,0.39c0.3,0.26,0.47,0.64,0.5,1.15h-3.27
			C424.08,23.8,424.25,23.43,424.51,23.15z"/>
		<path class="st12" d="M421.28,28.68h-1.74v-4.39c0-0.4-0.13-1.36-1.28-1.36c-0.77,0-1.32,0.55-1.32,1.36v4.39h-1.75v-4.39
			c0-0.4-0.12-1.36-1.27-1.36c-0.78,0-1.32,0.55-1.32,1.36v4.39h-1.75v-4.35c0-1.81,1.2-3.19,3.07-3.19c0.93,0,1.68,0.39,2.17,1.01
			c0.52-0.62,1.28-1.01,2.17-1.01c1.9,0,3.03,1.32,3.03,3.19V28.68z"/>
		<path class="st12" d="M456.37,18.88c0,0-1.92-0.21-1.92,1.34l0,2.05c-0.21-0.34-0.49-0.61-0.83-0.8
			c-0.34-0.19-0.73-0.29-1.17-0.29c-0.95,0-1.71,0.36-2.29,1.07c-0.57,0.71-0.85,1.73-0.85,2.97c0,1.07,0.29,1.95,0.87,2.64
			c0.58,0.68,1.71,0.99,2.72,0.99c3.52,0,3.48-3.02,3.48-3.02L456.37,18.88z M454.08,26.68c-0.28,0.4-0.69,0.6-1.22,0.6
			c-0.54,0-0.94-0.2-1.2-0.6c-0.26-0.4-0.4-0.99-0.4-1.66c0-0.62,0.13-1.14,0.39-1.56c0.26-0.42,0.67-0.63,1.22-0.63
			c0.36,0,0.68,0.12,0.96,0.35c0.45,0.38,0.67,1.07,0.67,1.95C454.5,25.76,454.36,26.28,454.08,26.68z"/>
		<path class="st13" d="M424.8,40.8c0,0.26-0.09,0.48-0.28,0.66c-0.19,0.18-0.41,0.28-0.67,0.28h-0.95v-6.64
			c0-1.29,0.43-2.1,1.15-2.65c0.47-0.36,1.18-0.71,2.5-0.71c0.89,0,1.94,0.35,2.5,1.03c0.63,0.77,0.9,1.64,0.9,2.76
			c0,1.16-0.28,2.1-0.84,2.83c-0.56,0.7-1.28,1.05-2.16,1.05c-0.47,0-0.88-0.08-1.23-0.25c-0.38-0.19-0.67-0.47-0.9-0.86V40.8z
			 M428,35.64c0-0.72-0.14-1.27-0.42-1.66c-0.28-0.39-0.68-0.58-1.21-0.58c-0.51,0-0.9,0.2-1.18,0.58
			c-0.26,0.35-0.39,0.91-0.39,1.66c0,0.7,0.14,1.23,0.42,1.58c0.28,0.39,0.68,0.58,1.21,0.58c0.49,0,0.87-0.19,1.15-0.58
			C427.86,36.83,428,36.3,428,35.64"/>
		<path class="st13" d="M442.59,38.82v-0.47c-0.33,0.52-0.78,0.84-1.34,0.97c-0.56,0.13-1.12,0.08-1.67-0.14
			c-0.55-0.22-1.03-0.63-1.42-1.23c-0.39-0.6-0.59-1.39-0.59-2.37c0-1.14,0.26-2.07,0.79-2.78c0.52-0.71,1.37-1.03,2.52-1.07
			c1.14-0.03,1.8,0.23,2.45,0.72c0.71,0.54,1.13,1.37,1.13,2.66v3.9c0,1.24-0.86,3.54-3.58,3.35c-1.69-0.12-2.62-0.81-3.14-2.38
			h2.01c0.15,0.26,0.37,0.46,0.68,0.59c0.3,0.14,0.61,0.18,0.91,0.11c0.3-0.06,0.58-0.25,0.83-0.54
			C442.41,39.85,442.55,39.41,442.59,38.82 M439.44,35.64c0,1.27,0.37,1.98,1.1,2.12c0.73,0.14,1.28-0.03,1.63-0.51
			c0.17-0.2,0.28-0.52,0.36-0.95c0.07-0.43,0.08-0.86,0.01-1.29c-0.06-0.43-0.22-0.8-0.46-1.14c-0.24-0.33-0.59-0.5-1.05-0.5
			c-0.63,0-1.05,0.23-1.27,0.69C439.55,34.52,439.44,35.05,439.44,35.64"/>
		<path class="st13" d="M435.94,32.26c-0.62-0.31-1.33-0.47-2.13-0.47c-1.23,0-2.1,0.32-2.6,0.96c-0.32,0.41-0.5,0.93-0.54,1.57
			h1.84c0.04-0.28,0.13-0.5,0.27-0.67c0.19-0.22,0.51-0.33,0.97-0.33c0.41,0,0.71,0.06,0.92,0.17c0.21,0.11,0.31,0.32,0.31,0.62
			c0,0.24-0.14,0.43-0.41,0.54c-0.15,0.07-0.41,0.12-0.76,0.17l-0.65,0.08c-0.74,0.09-1.3,0.25-1.68,0.47
			c-0.7,0.4-1.04,1.05-1.04,1.94c0,0.69,0.21,1.22,0.65,1.6c0.43,0.38,0.98,0.53,1.64,0.56c4.15,0.19,4.11-2.19,4.14-2.68v-2.73
			C436.87,33.17,436.56,32.58,435.94,32.26 M434.97,36.41c-0.01,0.64-0.19,1.07-0.54,1.32c-0.35,0.24-0.73,0.36-1.15,0.36
			c-0.26,0-0.49-0.07-0.67-0.22c-0.18-0.14-0.27-0.38-0.27-0.7c0-0.36,0.15-0.63,0.45-0.81c0.18-0.1,0.47-0.19,0.87-0.26l0.43-0.08
			c0.22-0.04,0.39-0.08,0.51-0.13c0.13-0.05,0.25-0.11,0.37-0.18V36.41z"/>
		<path class="st13" d="M451.69,32.86c-0.61-0.77-1.54-1.15-2.79-1.15c-1.24,0-2.18,0.38-2.79,1.15c-0.61,0.77-0.92,1.67-0.92,2.72
			c0,1.06,0.31,1.97,0.92,2.73c0.61,0.75,1.54,1.13,2.79,1.13c1.25,0,2.18-0.38,2.79-1.13c0.61-0.76,0.92-1.67,0.92-2.73
			C452.6,34.53,452.3,33.63,451.69,32.86 M450.17,37.26c-0.3,0.39-0.72,0.59-1.28,0.59c-0.56,0-0.98-0.2-1.28-0.59
			c-0.3-0.39-0.45-0.95-0.45-1.68c0-0.73,0.15-1.29,0.45-1.68c0.3-0.39,0.73-0.59,1.28-0.59c0.55,0,0.98,0.2,1.28,0.59
			c0.3,0.39,0.45,0.95,0.45,1.68C450.61,36.31,450.47,36.87,450.17,37.26"/>
	</g>
</g>
</svg>
